<?xml version="1.0" encoding="utf-8"?>
<!-- Generator: Adobe Illustrator 27.5.0, SVG Export Plug-In . SVG Version: 6.00 Build 0)  -->
<svg version="1.1" id="Ñëîé_1" xmlns="http://www.w3.org/2000/svg" xmlns:xlink="http://www.w3.org/1999/xlink" x="0px" y="0px"
	 viewBox="0 0 2600 2000" style="enable-background:new 0 0 2600 2000;" xml:space="preserve">
<rect id="_x31_2" style="fill:#FFFFFF;" width="2600" height="2000"/>
<g>
	<g id="_x31_1">
		<path style="fill:#DCE6FF;" d="M314.913,1552.451c-4.681-13.918-9.313-28.341-13.767-42.864l10.975-3.167
			c4.424,14.431,9.026,28.759,13.676,42.584L314.913,1552.451z M2278.352,1534.476l-11.364-1.362
			c1.887-14.816,3.678-29.737,5.326-44.349l11.382,1.208C2282.044,1504.637,2280.246,1519.61,2278.352,1534.476z M288.506,1466.41
			c-4.008-14.354-7.894-28.975-11.552-43.457l11.121-2.644c3.636,14.395,7.5,28.928,11.483,43.196L288.506,1466.41z
			 M2288.385,1445.399l-11.399-1.045c1.449-14.876,2.79-29.839,3.987-44.474l11.414,0.877
			C2291.187,1415.448,2289.839,1430.467,2288.385,1445.399z M266.491,1379.24c-3.307-14.624-6.454-29.411-9.353-43.951l11.242-2.109
			c2.881,14.449,6.008,29.146,9.295,43.679L266.491,1379.24z M2295.674,1356.054l-11.427-0.702
			c0.969-14.865,1.82-29.86,2.526-44.566l11.437,0.517C2297.5,1326.072,2296.647,1341.127,2295.674,1356.054z M248.932,1291.119
			c-2.546-14.803-4.904-29.73-7.006-44.368l11.34-1.533c2.089,14.539,4.431,29.367,6.96,44.073L248.932,1291.119z
			 M2299.958,1266.512l-11.446-0.323c0.447-14.931,0.754-29.942,0.915-44.615l11.45,0.117
			C2300.716,1236.433,2300.407,1251.513,2299.958,1266.512z M236.18,1202.204c-1.707-14.952-3.193-29.99-4.416-44.696l11.413-0.894
			c1.215,14.597,2.69,29.524,4.384,44.367L236.18,1202.204z M2289.475,1176.956c-0.135-14.943-0.427-29.948-0.87-44.602
			l11.446-0.325c0.444,14.729,0.739,29.811,0.875,44.829L2289.475,1176.956z M228.761,1112.694
			c-0.76-15.04-1.263-30.14-1.497-44.882l11.449-0.172c0.231,14.618,0.731,29.593,1.484,44.51L228.761,1112.694z M2286.764,1087.792
			c-0.786-14.923-1.753-29.896-2.872-44.503l11.418-0.824c1.127,14.693,2.098,29.753,2.889,44.76L2286.764,1087.792z
			 M238.822,1023.114l-11.448-0.228c0.319-15.08,0.934-30.185,1.828-44.893l11.431,0.653
			C239.746,993.214,239.137,1008.175,238.822,1023.114z M2279.92,998.874c-1.53-14.92-3.262-29.822-5.148-44.292l11.36-1.393
			c1.899,14.567,3.642,29.569,5.182,44.586L2279.92,998.874z M244.263,934.297l-11.393-1.11c1.555-15.023,3.451-30.039,5.636-44.63
			l11.331,1.597C247.677,904.583,245.801,919.435,244.263,934.297z M2268.361,910.46c-2.382-14.826-4.998-29.596-7.773-43.899
			l11.252-2.056c2.799,14.417,5.435,29.303,7.835,44.244L2268.361,910.46z M914.164,908.892c-15.91-2.434-27.419-9.461-43.36-21.596
			l7.237-8.609c13.965,10.603,24.052,16.963,37.343,19.158L914.164,908.892z M953.89,882.46l-10.197-5.053
			c5.242-9.959,9.875-23.778,13.773-41.075l11.186,2.372C964.487,857.189,959.659,871.501,953.89,882.46z M837.199,855.433
			c-9.122-9.856-18.87-21.198-29.801-34.676l8.998-6.87c10.777,13.287,20.368,24.449,29.322,34.124L837.199,855.433z
			 M257.486,846.322l-11.241-2.117c2.966-14.828,6.323-29.614,9.976-43.946l11.116,2.668
			C263.729,817.077,260.414,831.677,257.486,846.322z M2251.334,822.95c-3.39-14.673-7.048-29.219-10.871-43.235l11.07-2.842
			c3.86,14.152,7.551,28.837,10.973,43.648L2251.334,822.95z M976.356,793.994l-11.356-1.418
			c1.758-13.261,3.335-27.782,4.818-44.395l11.408,0.959C979.728,765.908,978.135,780.579,976.356,793.994z M779.353,784.964
			c-9.308-12.196-18.961-25.087-27.28-36.213l9.269-6.523c8.302,11.104,17.936,23.969,27.213,36.125L779.353,784.964z
			 M1617.653,784.05c-8.917,0-17.667-2.585-26.004-7.682l6.105-9.399c12.525,7.671,24.846,7.688,38.15,1.57l4.927,10.028
			C1632.964,782.206,1625.167,784.05,1617.653,784.05z M279.516,760.114l-10.95-3.249c4.549-14.435,9.541-28.791,14.836-42.67
			l10.738,3.856C288.921,731.731,284.001,745.883,279.516,760.114z M1678.273,749.523l-8.413-7.536
			c8.682-9.123,17.988-20.376,28.452-34.404l9.276,6.514C1696.855,728.485,1687.267,740.073,1678.273,749.523z M1559.091,741.883
			c-7.41-11.091-14.753-24.153-22.45-39.93l10.349-4.753c7.477,15.328,14.577,27.967,21.709,38.64L1559.091,741.883z
			 M2227.812,736.964c-4.612-14.394-9.534-28.564-14.629-42.116l10.757-3.807c5.157,13.719,10.139,28.06,14.806,42.625
			L2227.812,736.964z M724.938,712.532c-10.476-13.891-19.206-25.295-27.476-35.889l9.129-6.707
			c8.308,10.643,17.073,22.094,27.588,36.036L724.938,712.532z M984.67,704.276l-11.427-0.717c0.868-13.016,1.751-27.645,2.7-44.724
			l11.434,0.598C986.426,676.551,985.541,691.219,984.67,704.276z M311.303,676.927l-10.475-4.486
			c6.285-13.812,12.984-27.376,20.102-40.639l10.153,5.136C324.078,649.988,317.489,663.334,311.303,676.927z M1733.82,676.924
			l-9.568-6.104c8.137-12.003,16.542-24.72,25.05-37.566l9.632,6.006C1750.407,652.14,1741.993,664.867,1733.82,676.924z
			 M1518.21,660.495c-5.187-12.622-10.546-26.393-16.384-42.099l10.77-3.769c5.796,15.589,11.111,29.248,16.25,41.754
			L1518.21,660.495z M2196.338,653.566c-6.156-13.913-12.668-27.427-19.354-40.169l10.205-5.041
			c6.799,12.956,13.418,26.692,19.672,40.827L2196.338,653.566z M669.192,641.441c-10.39-12.513-20.061-23.65-29.566-34.047
			l8.566-7.372c9.626,10.53,19.412,21.798,29.917,34.449L669.192,641.441z M989.759,614.617l-11.436-0.559
			c0.771-14.842,1.538-29.692,2.355-44.802l11.435,0.583C991.296,584.94,990.529,599.782,989.759,614.617z M1784.038,601.738
			l-9.553-6.125c9.567-14.045,18.123-26.194,26.159-37.142l9.326,6.444C1802.013,575.756,1793.53,587.801,1784.038,601.738z
			 M353.79,598.603l-9.651-5.979c8.998-13.672,18.275-26.021,27.574-36.702l8.747,7.169
			C371.488,573.396,362.516,585.344,353.79,598.603z M1486.537,576.001c-5.251-14.93-10.403-29.868-14.75-42.513l10.862-3.515
			c4.341,12.626,9.485,27.541,14.725,42.439L1486.537,576.001z M608.143,575.224c-11.703-11.055-23.21-20.821-34.202-29.027
			l6.983-8.804c11.342,8.467,23.187,18.517,35.207,29.871L608.143,575.224z M2154.752,574.749
			c-8.205-12.99-16.807-25.276-25.569-36.516l9.132-6.702c8.986,11.528,17.802,24.116,26.199,37.412L2154.752,574.749z
			 M412.577,532.866l-6.945-8.833c13.674-10.12,27.905-17.419,42.298-21.692l3.351,10.623
			C438.19,516.851,425.168,523.547,412.577,532.866z M1837.588,529.468l-8.895-6.995c10.738-12.856,20.913-23.918,31.107-33.817
			l8.1,7.851C1857.99,506.133,1848.075,516.915,1837.588,529.468z M994.679,525.1l-11.43-0.661
			c0.992-16.148,1.976-30.813,3.01-44.832l11.421,0.793C996.649,494.375,995.667,508.996,994.679,525.1z M536.086,522.774
			c-14.288-6.899-28.342-11.302-41.771-13.087l1.554-11.007c14.665,1.95,29.912,6.709,45.317,14.148L536.086,522.774z
			 M2099.728,504.815c-11.023-10.958-22.438-20.63-33.923-28.747l6.742-8.98c12.003,8.483,23.905,18.565,35.376,29.968
			L2099.728,504.815z M1457.182,490.978c-5.696-16.529-10.39-30.007-14.773-42.415l10.831-3.602
			c4.393,12.435,9.096,25.938,14.801,42.494L1457.182,490.978z M1902.169,468.149l-6.563-9.103
			c14.082-9.559,28.305-16.638,42.276-21.04l3.536,10.566C1928.527,452.634,1915.322,459.221,1902.169,468.149z M2027.105,454.539
			c-14.181-5.804-28.536-9.395-42.665-10.676l1.064-11.062c15.296,1.387,30.79,5.256,46.051,11.501L2027.105,454.539z
			 M1001.342,435.797l-11.405-0.983c1.427-15.587,2.979-30.641,4.614-44.743l11.379,1.242
			C1004.305,405.33,1002.761,420.296,1001.342,435.797z M1427.175,406.308c-5.533-14.984-10.746-28.681-15.941-41.873l10.697-3.964
			c5.222,13.264,10.463,27.032,16.022,42.089L1427.175,406.308z M1011.759,347.015l-11.333-1.589
			c2.316-15.554,4.862-30.513,7.567-44.459l11.253,2.054C1016.571,316.814,1014.052,331.615,1011.759,347.015z M1394.224,322.956
			c-6.153-14.359-12.354-28.097-18.434-40.833l10.39-4.669c6.143,12.868,12.406,26.742,18.617,41.237L1394.224,322.956z
			 M1028.969,259.547l-11.109-2.693c3.994-15.513,8.397-30.126,13.086-43.432l10.834,3.594
			C1037.195,230.027,1032.885,244.336,1028.969,259.547z M1355.455,242.252c-7.531-13.761-15.224-26.68-22.865-38.397l9.676-5.94
			c7.795,11.954,15.635,25.118,23.303,39.127L1355.455,242.252z M1058.976,176.314l-10.268-4.917
			c7.518-14.78,15.856-27.849,24.781-38.844l8.995,6.874C1074.052,149.816,1066.142,162.226,1058.976,176.314z M1306.347,167.823
			c-10.005-12.169-20.331-22.949-30.693-32.04l7.681-8.24c10.819,9.493,21.573,20.714,31.963,33.352L1306.347,167.823z
			 M1114.43,110.633l-6.173-9.357c13.564-8.423,28.508-13.9,44.418-16.278l1.743,10.98
			C1140.096,98.119,1126.642,103.05,1114.43,110.633z M1239.527,110.626c-13.338-6.977-27.232-11.746-41.296-14.176l2.007-10.938
			c15.264,2.638,30.311,7.797,44.722,15.335L1239.527,110.626z"/>
		<path style="fill:#C3D6F4;" d="M115.176,1617.098c0,0-14.956,65.762,53.891,83.325c94.169,24.022,626.597,88.471,492.313,136.431
			c-75.803,27.073,59.026,62.501,428.245,76.038c369.219,13.537,1002.77-39.504,789.716-117.984
			c-213.054-78.479,657.41-14.568,604.535-177.81H115.176z"/>
		<path style="fill:#D4E1FC;" d="M533.112,1612.482c0,0-267.654-732.842-66.967-888.759
			c134.14-104.216,265.102,158.164,434.805,36.628c151.084-108.201,54.366-361.012,201.464-482.897
			c180.921-149.911,483.129,594.367,695.439,478.911c333.971-181.616,538.138,104.891,306.226,857.454L533.112,1612.482z"/>
		<path style="fill:#EEF7FF;" d="M2357.92,1301.96c-95.018-13.665-86.417,191.701-221.859,191.701
			c-123.834,0-190.1-458.83-325.991-365.51c-546.312,375.166-121.246-263.246-488.593-275.725
			c-166.104-5.643-276.787,166.202-317.603,470.461c-59.165,275.061-196.377-209.793-337.584-164.713
			c-89.744,28.651-79.466,335.486-203.3,335.486c-135.442,0-126.519-172.69-221.538-159.025
			c-102.303,14.713-126.277,282.462-126.277,282.462h2368.699C2483.875,1617.098,2460.223,1316.673,2357.92,1301.96z"/>
		<path style="fill:#D4E1FC;" d="M2266.772,1517.412c-87.415-5.841-73.15,46.927-197.754,46.927
			c-113.924,0-110.794-118.26-187.031-143.393c-140.394-46.285-256.138,187.968-310.569,70.401
			c-103.378-311.954-404.888-468.397-543.985,0c-54.431,117.566-181.716-92.214-310.569-70.401
			c-79.314,13.426-73.107,143.393-187.031,143.393c-124.604,0-110.339-52.768-197.753-46.927
			c-94.116,6.288-122.227,99.686-122.227,99.686H2389C2389,1617.098,2360.889,1523.7,2266.772,1517.412z"/>
	</g>
	<g id="_x31_0">
		<polygon style="fill:#4867AA;" points="1990.803,690.195 1955.588,690.195 1955.588,742.506 1903.276,742.506 1903.276,777.721 
			1955.588,777.721 1955.588,830.033 1990.803,830.033 1990.803,777.721 2043.114,777.721 2043.114,742.506 1990.803,742.506 		"/>
		<rect x="1427.456" y="603.124" style="fill:#4867AA;" width="139.837" height="35.215"/>
		<rect x="255.88" y="1311.947" style="fill:#4867AA;" width="139.837" height="35.215"/>
		<rect x="255.88" y="1364.947" style="fill:#4867AA;" width="139.837" height="35.215"/>
	</g>
	<g id="_x39__1_">
		<path style="fill:#8C4225;" d="M1827.831,1464.915c8.151-21.919,9.838-41.574-1.405-55.865
			c-12.57-15.977-31.057-8.119-31.057-8.119l-0.001,0.001c0.001-0.001-8.649-21.932-24.687-21.932
			c-11.43,0-30.824,10.75-36.445,30.05c-4.36,14.969-26.702,15.86-28.388,39.703c-1.687,23.843,20.938,33.485,10.4,54.673
			c-8.432,16.953,2.53,28.476,25.296,34.941c22.767,6.465,80.667,2.53,99.78-20.518
			C1860.436,1494.801,1819.154,1488.248,1827.831,1464.915z"/>
		<path style="fill:#F99370;" d="M1829.383,1700.417c0,0,12.087,9.166,18.755,10.827c8.941,2.227,30.072,4.839,34.399,5.394
			c11.817,1.517,12.661,12.404-2.466,13.439c0,0-34.937,3.222-34.937,3.222c-10.654,0.147-24.82-7.251-25.901-7.536
			C1800.708,1719.535,1811.655,1692.128,1829.383,1700.417z"/>
		<path style="fill:#7640CC;" d="M1657.12,1650.199c0,0,91.399-15.93,234.296-1.197c0,0-76.304,34.591-118.642,35.599
			C1730.437,1685.61,1657.12,1650.199,1657.12,1650.199z"/>
		<path style="fill:#F99370;" d="M1757.493,1542.927c0.393-0.22,0.945-0.556,1.299-0.792c0.01-0.005,0.017-0.012,0.026-0.019
			c-14.723,14.478-23.96,33.114-33.984,51.417c-6.796,11.883-18.997,33.26,0.516,39.094c10.463-0.017,10.52,15.974,0.039,16.023
			c-2.013,0.161-4.145,0.348-6.153,0.226c-37.322-2.261-37.999-44.953-27.747-72.072c9.497-25.091,20.673-53.077,42.805-70.199
			C1759.053,1489.773,1783.247,1527.577,1757.493,1542.927z"/>
		<path style="fill:#F99370;" d="M1794.143,1542.927c-0.393-0.22-0.945-0.556-1.299-0.792c-0.01-0.005-0.017-0.012-0.026-0.019
			c14.723,14.478,23.96,33.114,33.984,51.417c6.796,11.883,18.997,33.26-0.516,39.094c-10.463-0.017-10.52,15.974-0.039,16.023
			c2.013,0.161,4.145,0.348,6.153,0.226c37.322-2.261,37.999-44.953,27.747-72.072c-9.497-25.091-20.673-53.077-42.804-70.199
			C1792.582,1489.773,1768.388,1527.577,1794.143,1542.927z"/>
		<path style="fill:#EB5648;" d="M1739.981,1503.179l-4.491,27.752l-5.86,36.232l-0.812,4.998
			c-4.778-0.051-9.393-0.733-13.569-1.696c-10.921-2.519-18.849-6.942-18.849-6.942s0.811-2.44,2.316-6.283
			c3.229-8.255,9.641-23.002,18.02-34.001C1729.01,1507.129,1739.981,1503.179,1739.981,1503.179z"/>
		<path style="fill:#EB5648;" d="M1856.961,1565.445c0,0-7.816,3.623-19.035,5.635c-5.906,1.065-12.757,1.679-19.908,1.082
			l-0.237-4.987l-0.141-2.924l-2.947-61.865c0,0,25.284,4.361,40.385,56.146C1855.727,1560.745,1856.353,1563.05,1856.961,1565.445z
			"/>
		<path style="fill:#CE3932;" d="M1698.717,1557.24c0,0,11.168,5.471,30.913,9.923l-0.812,4.998
			c-4.778-0.051-9.393-0.733-13.569-1.696c-10.921-2.519-18.849-6.942-18.849-6.942S1697.213,1561.083,1698.717,1557.24z"/>
		<path style="fill:#CE3932;" d="M1856.961,1565.445c0,0-7.816,3.623-19.035,5.635c-5.906,1.065-12.757,1.679-19.908,1.082
			l-0.237-4.987c14.251-1.961,27.515-4.807,37.297-8.644C1855.727,1560.745,1856.353,1563.05,1856.961,1565.445z"/>
		<path style="fill:#CE3932;" d="M1735.49,1522.27v8.661l-6.672,41.23c-4.778-0.051-9.393-0.733-13.569-1.696
			c0.445-4.356,1.719-11.783,5.37-18.64C1726.232,1541.271,1735.49,1522.27,1735.49,1522.27z"/>
		<path style="fill:#CE3932;" d="M1837.927,1571.079c-5.906,1.065-12.757,1.679-19.908,1.082l-0.377-7.911l1.465-41.98
			c0,0,4.474,15.164,11.574,26.867C1835.374,1556.88,1837.217,1565.873,1837.927,1571.079z"/>
		<path style="fill:#EB5648;" d="M1845.954,1642.641c-21.224,9.809-45.324,14.051-68.163,14.051
			c-22.839,0-48.753-4.771-69.978-14.579c0.877-19.573,21.999-33.613,12.275-57.281c-4.594-11.177,0.8-25.269,5.082-34.446
			c0.969-2.07,1.875-3.89,2.602-5.372c6.462-13.21,12.222-41.81,12.222-41.81l3.652-1.578c10.994-4.172,22.388-4.484,22.388-4.484
			h23.514c0,0,10.697-0.088,21.265,3.669l3.884,1.574c1.284,1.075,5.265,28.853,10.325,43.19c3.464,9.816,12.619,23.581,7.119,40.38
			C1823.275,1613.031,1845.191,1625.629,1845.954,1642.641z"/>
		<path style="fill:#F99370;" d="M1789.55,1494.257v-24.89h-23.518v25.06c0,0-16.223,4.857-22.386,7.196
			c0.216,0.396,14.337,25.705,34.145,33.253c0,0,24.993-13.904,33.022-34.068C1805.11,1498.781,1789.55,1494.257,1789.55,1494.257z"
			/>
		<path style="fill:#F99370;" d="M1815.823,1445.91c-1.048,4.96-5.133,8.297-9.124,7.454c-3.991-0.844-6.376-5.548-5.327-10.508
			c1.048-4.96,5.134-8.297,9.124-7.454C1814.487,1436.245,1816.872,1440.95,1815.823,1445.91z"/>
		<path style="fill:#C16256;" d="M1812.458,1448.252c-0.056,0-0.112-0.008-0.169-0.026c-0.305-0.093-0.478-0.416-0.384-0.722
			c1.039-3.405,1.002-5.748-0.107-6.774c-1.226-1.135-3.682-0.527-4.525-0.197c-0.297,0.116-0.633-0.03-0.749-0.327
			c-0.117-0.297,0.03-0.633,0.328-0.749c0.151-0.059,3.728-1.43,5.733,0.425c1.478,1.368,1.622,4.046,0.427,7.96
			C1812.935,1448.092,1812.706,1448.252,1812.458,1448.252z"/>
		<path style="fill:#C16256;" d="M1807.061,1447.444c-0.075,0-0.152-0.015-0.226-0.047c-0.293-0.125-0.43-0.464-0.305-0.757
			c0.084-0.199,2.125-4.883,6.543-5.175c0.311-0.025,0.594,0.22,0.615,0.538c0.021,0.319-0.22,0.594-0.539,0.615
			c-3.702,0.245-5.538,4.432-5.555,4.475C1807.5,1447.313,1807.286,1447.444,1807.061,1447.444z"/>
		<path style="fill:#F99370;" d="M1741.152,1445.91c1.048,4.96,5.133,8.297,9.124,7.454c3.991-0.844,6.376-5.548,5.327-10.508
			c-1.048-4.96-5.133-8.297-9.124-7.454C1742.489,1436.245,1740.104,1440.95,1741.152,1445.91z"/>
		<path style="fill:#C16256;" d="M1744.518,1448.252c-0.248,0-0.476-0.161-0.553-0.409c-1.195-3.914-1.051-6.592,0.427-7.96
			c2.005-1.856,5.581-0.485,5.733-0.425c0.297,0.116,0.443,0.451,0.327,0.748c-0.116,0.297-0.452,0.443-0.749,0.328
			c-0.031-0.012-3.056-1.167-4.528,0.199c-1.108,1.028-1.144,3.369-0.105,6.772c0.093,0.305-0.079,0.629-0.384,0.722
			C1744.631,1448.244,1744.574,1448.252,1744.518,1448.252z"/>
		<path style="fill:#C16256;" d="M1749.914,1447.444c-0.224,0-0.438-0.131-0.532-0.351c-0.018-0.042-1.853-4.229-5.555-4.475
			c-0.319-0.021-0.56-0.296-0.539-0.615c0.021-0.318,0.301-0.566,0.615-0.538c4.418,0.292,6.458,4.976,6.543,5.175
			c0.125,0.294-0.012,0.632-0.305,0.757C1750.066,1447.429,1749.989,1447.444,1749.914,1447.444z"/>
		<path style="fill:#E57D61;" d="M1789.55,1488.124v-12.472h-23.518v12.472C1766.032,1488.124,1777.791,1494.301,1789.55,1488.124z"
			/>
		<path style="fill:#F99370;" d="M1749.034,1459.191c1.07,35.172,55.787,36.131,58.675,1.328c0.589-12.78-3.508-16.864-5.183-32.779
			c-3.043-28.892-44.101-30.43-47.792-0.216C1753.281,1439.441,1748.929,1448.275,1749.034,1459.191z"/>
		<path style="fill:#C16256;" d="M1770.599,1441.494c0.391-0.77,0.084-1.711-0.686-2.103c-0.77-0.391-1.712-0.084-2.103,0.686
			c-0.391,0.77-0.084,1.711,0.686,2.103C1769.267,1442.571,1770.208,1442.264,1770.599,1441.494z"/>
		<path style="fill:#C16256;" d="M1789.348,1441.53c0.391-0.77,0.084-1.712-0.686-2.103c-0.77-0.391-1.712-0.084-2.103,0.686
			c-0.391,0.77-0.084,1.712,0.686,2.103C1788.015,1442.607,1788.957,1442.3,1789.348,1441.53z"/>
		<path style="fill:#C16256;" d="M1779.879,1455.096c-0.611,0-1.206-0.078-1.737-0.248c-0.311-0.1-0.483-0.433-0.383-0.744
			c0.1-0.311,0.43-0.483,0.744-0.383c1.985,0.636,4.795-0.359,5.177-1.257c0.135-0.317-0.291-0.629-0.672-0.836
			c-3.355-1.818-5.607-8.167-5.701-8.437c-0.108-0.309,0.055-0.646,0.363-0.754c0.309-0.108,0.646,0.054,0.754,0.363
			c0.021,0.062,2.195,6.187,5.148,7.787c1.61,0.872,1.373,1.928,1.197,2.341C1784.232,1454.188,1781.962,1455.096,1779.879,1455.096
			z"/>
		<path style="fill:#C16256;" d="M1780.011,1463.991c-3.692,0-6.593-1.507-6.774-1.604c-0.289-0.153-0.398-0.511-0.245-0.8
			c0.153-0.289,0.511-0.399,0.8-0.246c0.062,0.033,6.239,3.226,11.721,0.012c0.282-0.166,0.645-0.071,0.81,0.211
			c0.165,0.282,0.07,0.644-0.211,0.81C1784.045,1463.587,1781.922,1463.991,1780.011,1463.991z"/>
		<path style="fill:#8C4225;" d="M1791.251,1409.05c0,0-3.514,21.065-38.416,28.533c0,0-2.017-18.158,5.291-28.533
			C1765.434,1398.675,1785.307,1397.783,1791.251,1409.05z"/>
		<path style="fill:#8C4225;" d="M1791.251,1409.05c0,0-1.62,20.037,12.843,28.581
			C1804.094,1437.631,1807.792,1414.928,1791.251,1409.05z"/>
		<path style="fill:#CE3932;" d="M1739.981,1503.177c0,0,13.815,28.624,37.81,36.681c0,0,26.656-9.242,36.905-37.474
			c0,0-3.502-2.056-6.052-2.294c0,0-10.823,22.154-30.854,32.929c0,0-18.502-8.691-31.966-32.172
			C1745.825,1500.848,1742.636,1501.067,1739.981,1503.177z"/>
		<path style="fill:#163260;" d="M1847.172,1665.004h-144.73v-84.625c0-1.916,1.553-3.47,3.47-3.47h137.79
			c1.916,0,3.47,1.554,3.47,3.47V1665.004z"/>
		<path style="fill:#9358E0;" d="M1826.755,1734.743c-0.314,0.066-3.595,0.05-9.085-0.127c-6.029-0.198-14.729-0.595-25.113-1.305
			c-0.644-0.044-1.294-0.088-1.949-0.138c-2.544-0.176-5.176-0.374-7.89-0.595c-3.359-0.27-6.839-0.567-10.412-0.903
			c-61.156-5.704-150.554-21.215-139.586-61.377c14.806-54.18,161.241,9.129,195.484,24.766c4.564,2.087,7.13,3.32,7.13,3.32
			C1842.205,1718.875,1826.755,1734.743,1826.755,1734.743z"/>
		<path style="fill:#7640CC;" d="M1831.649,1713.088l-3.001,11.249l-38.042,8.837c-2.544-0.176-5.176-0.374-7.89-0.595
			c-3.359-0.27-6.839-0.567-10.412-0.903l-2.885-8.545L1831.649,1713.088z"/>
		<path style="fill:#7640CC;" d="M1826.755,1734.745c-0.316,0.064-3.593,0.05-9.086-0.128c0,0,16.977-16.216,10.532-39.549
			c4.564,2.084,7.134,3.321,7.134,3.321C1842.203,1718.875,1826.755,1734.745,1826.755,1734.745z"/>
		<path style="fill:#F99370;" d="M1721.575,1705.472c0,0-11.153,10.281-17.631,12.573c-8.687,3.073-29.47,7.697-33.724,8.664
			c-11.618,2.641-11.415,13.559,3.741,13.141c0,0,35.085-0.139,35.085-0.139c10.62-0.874,24.012-9.594,25.061-9.982
			C1751.949,1721.756,1738.427,1695.524,1721.575,1705.472z"/>
		<path style="fill:#9358E0;" d="M1736.518,1738.594c-4.849,0.616-7.734,0.903-8.036,0.871c0,0-16.896-14.318-12.023-35.367
			c0,0,2.494-1.51,6.928-4.074c32.85-18.99,172.173-95.728,192.065-43.293C1935.039,1708.361,1774.738,1733.735,1736.518,1738.594z"
			/>
		<path style="fill:#7640CC;" d="M1736.518,1738.594c-4.849,0.616-7.734,0.903-8.036,0.871c0,0-16.896-14.318-12.023-35.367
			c0,0,2.448-1.818,6.928-4.074C1723.388,1700.024,1720.39,1722.282,1736.518,1738.594z"/>
		<path style="fill:#7640CC;" d="M1722.107,1701.75c-0.157-0.012-0.306-0.098-0.391-0.245c-0.137-0.235-0.057-0.537,0.179-0.674
			c0.411-0.238,41.264-23.924,59.281-32.232c0.248-0.114,0.54-0.005,0.655,0.242c0.114,0.247,0.006,0.541-0.242,0.655
			c-17.975,8.288-58.788,31.951-59.198,32.189C1722.302,1701.736,1722.203,1701.757,1722.107,1701.75z"/>
		<path style="fill:#C16256;" d="M1792.921,1436.294c-0.127,0-0.255-0.041-0.363-0.125c-4.355-3.397-8.453-2.031-8.625-1.97
			c-0.306,0.108-0.645-0.055-0.753-0.363c-0.108-0.308,0.053-0.645,0.36-0.754c0.196-0.069,4.86-1.657,9.746,2.153
			c0.258,0.201,0.304,0.573,0.103,0.831C1793.272,1436.215,1793.098,1436.294,1792.921,1436.294z"/>
		<path style="fill:#C16256;" d="M1765.533,1436.305c-0.167,0-0.334-0.07-0.451-0.208c-0.211-0.248-0.183-0.621,0.065-0.833
			c0.15-0.129,3.758-3.145,9.967-1.897c0.32,0.064,0.528,0.376,0.464,0.697c-0.065,0.32-0.375,0.53-0.697,0.464
			c-5.618-1.126-8.933,1.609-8.966,1.636C1765.804,1436.259,1765.668,1436.305,1765.533,1436.305z"/>
	</g>
	<g id="_x38_">
		<path style="fill:#3E7CC6;" d="M435.135,1142.498c-85.467,0-155-69.533-155-155c0-85.467,69.533-155,155-155
			c85.467,0,155,69.533,155,155C590.135,1072.965,520.602,1142.498,435.135,1142.498z M435.135,842.498
			c-79.953,0-145,65.047-145,145c0,79.954,65.047,145,145,145c79.953,0,145-65.047,145-145
			C580.135,907.544,515.088,842.498,435.135,842.498z"/>
		<path style="fill:#3E7CC6;" d="M435.135,1141.498c-3.808,0-7.574-1.104-11.193-3.284l4.126-6.854
			c4.742,2.854,9.48,2.836,14.225-0.054l4.162,6.832C442.796,1140.368,438.987,1141.498,435.135,1141.498z M409.535,1122.632
			c-3.124-5.099-6.076-11.232-8.774-18.231l7.465-2.877c2.524,6.547,5.259,12.243,8.13,16.929L409.535,1122.632z M460.805,1122.521
			l-6.828-4.168c2.866-4.695,5.595-10.396,8.113-16.943l7.467,2.871C466.866,1111.277,463.922,1117.414,460.805,1122.521z
			 M394.627,1085.424c-1.642-6.061-3.142-12.56-4.457-19.316l7.853-1.529c1.279,6.569,2.734,12.879,4.326,18.754L394.627,1085.424z
			 M475.676,1085.3l-7.723-2.088c1.588-5.871,3.04-12.182,4.317-18.755l7.854,1.525
			C478.81,1072.744,477.314,1079.244,475.676,1085.3z M386.968,1046.604c-0.863-6.354-1.592-12.951-2.167-19.611l7.971-0.688
			c0.563,6.53,1.278,12.997,2.124,19.223L386.968,1046.604z M483.319,1046.48l-7.928-1.074c0.844-6.224,1.557-12.691,2.118-19.224
			l7.971,0.686C484.907,1033.529,484.18,1040.128,483.319,1046.48z M383.547,1007.321c-0.272-6.487-0.41-13.114-0.412-19.695
			l8-0.002c0.002,6.471,0.138,12.986,0.405,19.363L383.547,1007.321z M486.728,1007.194l-7.993-0.332
			c0.265-6.374,0.4-12.889,0.4-19.365v-0.254h8v0.254C487.135,994.083,486.998,1000.71,486.728,1007.194z M391.53,968.258
			l-7.993-0.33c0.273-6.626,0.692-13.245,1.243-19.673l7.971,0.684C392.21,955.249,391.799,961.749,391.53,968.258z
			 M478.725,967.883c-0.274-6.505-0.69-13.005-1.237-19.319l7.97-0.691c0.557,6.431,0.982,13.049,1.261,19.672L478.725,967.883z
			 M394.862,929.713l-7.928-1.071c0.906-6.703,1.978-13.266,3.188-19.505l7.854,1.522
			C396.795,916.75,395.748,923.161,394.862,929.713z M475.358,929.342c-0.893-6.554-1.948-12.963-3.135-19.049l7.852-1.532
			c1.217,6.236,2.297,12.797,3.211,19.502L475.358,929.342z M402.284,891.902l-7.724-2.084c1.846-6.844,3.901-13.23,6.107-18.982
			l7.47,2.865C406.029,879.198,404.06,885.322,402.284,891.902z M467.888,891.542c-1.786-6.579-3.767-12.698-5.888-18.186
			l7.462-2.884c2.22,5.745,4.288,12.128,6.146,18.973L467.888,891.542z M416.231,856.747l-6.835-4.156
			c4.417-7.264,9.226-12.531,14.294-15.656l4.198,6.81C423.908,846.199,419.986,850.574,416.231,856.747z M453.852,856.44
			c-3.786-6.153-7.735-10.479-11.739-12.859l4.087-6.877c5.128,3.047,9.995,8.277,14.465,15.544L453.852,856.44z"/>
		<path style="fill:#3E7CC6;" d="M435.389,1039.498h-0.254c-6.59,0-13.217-0.137-19.697-0.406l0.332-7.992
			c6.37,0.265,12.885,0.398,19.365,0.398h0.254V1039.498z M455.086,1039.08l-0.337-7.992c6.509-0.274,13.009-0.691,19.319-1.237
			l0.69,7.971C468.331,1038.377,461.713,1038.801,455.086,1039.08z M395.766,1037.843c-6.653-0.572-13.251-1.299-19.612-2.16
			l1.073-7.928c6.232,0.844,12.7,1.557,19.224,2.117L395.766,1037.843z M494.371,1035.647l-1.08-7.928
			c6.557-0.893,12.966-1.947,19.05-3.134l1.531,7.852C507.639,1033.653,501.078,1034.733,494.371,1035.647z M356.649,1032.486
			c-6.758-1.313-13.257-2.81-19.317-4.448l2.089-7.723c5.874,1.589,12.184,3.042,18.754,4.317L356.649,1032.486z M533.187,1027.972
			l-2.098-7.721c6.585-1.789,12.704-3.77,18.186-5.889l2.884,7.463C546.42,1024.042,540.037,1026.11,533.187,1027.972z
			 M318.354,1021.919c-6.995-2.689-13.131-5.634-18.239-8.751l4.167-6.828c4.697,2.866,10.397,5.596,16.942,8.112L318.354,1021.919z
			 M570.384,1013.029l-4.192-6.815c6.154-3.785,10.48-7.735,12.859-11.739l6.877,4.087
			C582.881,1003.69,577.651,1008.558,570.384,1013.029z M284.495,998.817c-2.229-3.659-3.359-7.467-3.36-11.319
			c0-3.808,1.104-7.574,3.283-11.193l6.854,4.125c-1.418,2.357-2.138,4.735-2.138,7.068c0,2.362,0.738,4.771,2.192,7.157
			L284.495,998.817z M578.889,980.252c-2.455-3.981-6.83-7.903-13.003-11.657l4.156-6.835c7.264,4.417,12.531,9.226,15.656,14.294
			L578.889,980.252z M304.181,968.718l-4.18-6.821c5.1-3.125,11.234-6.077,18.232-8.774l2.877,7.465
			C314.564,963.111,308.868,965.846,304.181,968.718z M548.931,960.5c-5.497-2.108-11.62-4.078-18.201-5.853l2.084-7.724
			c6.844,1.846,13.23,3.901,18.982,6.107L548.931,960.5z M339.302,954.711l-2.092-7.722c6.058-1.642,12.556-3.141,19.315-4.457
			l1.529,7.853C351.483,951.665,345.174,953.12,339.302,954.711z M511.974,950.338c-6.091-1.181-12.502-2.228-19.054-3.114
			l1.071-7.928c6.703,0.906,13.266,1.979,19.505,3.188L511.974,950.338z M377.105,947.258l-1.077-7.927
			c6.356-0.864,12.955-1.592,19.612-2.167l0.688,7.971C389.799,945.698,383.332,946.412,377.105,947.258z M473.695,945.113
			c-6.311-0.541-12.811-0.952-19.32-1.221l0.33-7.993c6.626,0.273,13.245,0.692,19.673,1.243L473.695,945.113z M415.647,943.903
			l-0.335-7.993c6.476-0.271,13.102-0.41,19.695-0.412l0.003,8C428.527,943.5,422.013,943.636,415.647,943.903z"/>
		<path style="fill:#3E7CC6;" d="M437.135,1126.998h-5v-10h5V1126.998z M437.135,1106.998h-5v-10h5V1106.998z M437.135,1086.998h-5
			v-10h5V1086.998z M437.135,1066.998h-5v-10h5V1066.998z M437.135,1046.998h-5v-10h5V1046.998z M437.135,1026.998h-5v-10h5
			V1026.998z M437.135,1006.997h-5v-9.999h5V1006.997z M437.135,986.998h-5v-10h5V986.998z M437.135,966.998h-5v-10h5V966.998z
			 M437.135,946.998h-5v-10h5V946.998z M437.135,926.998h-5v-10h5V926.998z M437.135,906.998h-5v-10h5V906.998z M437.135,886.998h-5
			v-10h5V886.998z M437.135,866.998h-5v-10h5V866.998z M437.135,846.998h-5v-10h5V846.998z"/>
		<path style="fill:#3E7CC6;" d="M584.635,989.498h-10v-5h10V989.498z M564.635,989.498h-10v-5h10V989.498z M544.635,989.498h-10v-5
			h10V989.498z M524.635,989.498h-10v-5h10V989.498z M504.635,989.498h-10v-5h10V989.498z M484.635,989.498h-10v-5h10V989.498z
			 M464.635,989.498h-10v-5h10V989.498z M444.635,989.498h-10v-5h10V989.498z M424.635,989.498h-10v-5h10V989.498z M404.635,989.498
			h-10v-5h10V989.498z M384.635,989.498h-10v-5h10V989.498z M364.635,989.498h-10v-5h10V989.498z M344.635,989.498h-10v-5h10
			V989.498z M324.635,989.498h-10v-5h10V989.498z M304.635,989.498h-10v-5h10V989.498z"/>
	</g>
	<polygon id="_x37_" style="fill:#3E7CC6;" points="1818.446,1243.506 1775.272,1218.574 1775.272,1238.506 1655.446,1238.506 
		1655.446,1118.679 1675.378,1118.679 1650.446,1075.506 1625.517,1118.679 1645.446,1118.679 1645.446,1248.506 1775.272,1248.506 
		1775.272,1268.435 	"/>
	<g id="_x36_">
		<path style="fill:#ED8569;" d="M976.567,1098.051c4.628,12.953-4.365,6.391,15.354,7.615c4.131,0.256,12.82-0.026,8.489-8.511
			c-3.505-9.736-0.483-36.751-2.735-46.825C987.482,1005.289,952.993,1032.063,976.567,1098.051z"/>
		<path style="fill:#EB5648;" d="M1003.244,1113.382c-0.097,2.937-1.481,6.315-4.885,6.317c0,0-62.136,1.358-62.136,1.358
			c-3.211,0.075-5.559-3.09-4.484-6.112c2.264-6.828,12.236-18.719,44.067-19.071c0,0,10.368,2.864,23.964-0.984
			C999.771,1094.889,1004.359,1102.284,1003.244,1113.382z"/>
		<path style="fill:#E8C0A6;" d="M950.852,1112.334c0.165-0.004,0.333-0.038,0.495-0.108c0.669-0.29,0.977-1.064,0.689-1.735
			c-2.987-6.918-8.327-8.953-8.552-9.036c-0.687-0.248-1.443,0.098-1.695,0.78c-0.253,0.681,0.094,1.437,0.775,1.692l0,0
			c0.184,0.07,4.529,1.778,7.046,7.61C949.831,1112.045,950.331,1112.345,950.852,1112.334z"/>
		<path style="fill:#E8C0A6;" d="M961.085,1110.872c0.129-0.003,0.26-0.025,0.39-0.067c0.692-0.231,1.065-0.979,0.835-1.67
			c-2.608-7.802-9.386-11.208-9.672-11.347c-0.658-0.325-1.444-0.054-1.766,0.598c-0.324,0.652-0.056,1.442,0.597,1.767
			c0.062,0.029,6.087,3.088,8.334,9.818C959.992,1110.532,960.522,1110.884,961.085,1110.872z"/>
		<path style="fill:#E8C0A6;" d="M972.73,1109.184c0.144-0.003,0.29-0.031,0.433-0.083c0.684-0.254,1.029-1.014,0.775-1.697
			c-2.94-7.884-9.253-11.929-9.521-12.098c-0.614-0.388-1.428-0.206-1.819,0.41c-0.389,0.615-0.206,1.43,0.408,1.821
			c0.058,0.036,5.838,3.765,8.458,10.79C971.665,1108.866,972.183,1109.196,972.73,1109.184z"/>
		<path style="fill:#CE3932;" d="M931.74,1114.944l71.504-1.562c-0.216,2.186-0.772,4.316-1.825,6.25l-65.196,1.424
			c-3.167,0.069-5.504-2.998-4.519-6.005C931.716,1115.016,931.727,1114.98,931.74,1114.944z"/>
		<path style="fill:#F99370;" d="M1068.24,1136.81c6.741,11.257-1.869,14.261,13.448,8.671c10.044-4.49,13.381-5.63,9.611-14.796
			c-3.012-10.987-6.408-32.158-8.619-43.313C1077.006,1053.35,1031.806,1075.967,1068.24,1136.81z"/>
		<path style="fill:#EB5648;" d="M1099.212,1147.478c0.626,2.871,0.114,6.485-3.185,7.322c0,0-59.904,16.562-59.904,16.562
			c-3.094,0.86-6.147-1.632-5.846-4.825c0.52-7.174,5.407-21.124,38.127-29.344c0,0,10.537,0.565,22.752-7.042
			C1091.155,1130.152,1097.571,1136.445,1099.212,1147.478z"/>
		<path style="fill:#E8C0A6;" d="M1048.165,1159.317c0.159-0.044,0.314-0.118,0.454-0.226c0.578-0.445,0.686-1.271,0.242-1.851
			c-4.594-5.974-10.269-6.637-10.508-6.661c-0.727-0.072-1.374,0.449-1.452,1.172c-0.078,0.722,0.444,1.37,1.167,1.449l0,0
			c0.195,0.023,4.826,0.613,8.698,5.649C1047.104,1159.288,1047.662,1159.456,1048.165,1159.317z"/>
		<path style="fill:#E8C0A6;" d="M1057.727,1155.389c0.124-0.034,0.245-0.088,0.361-0.161c0.614-0.394,0.792-1.21,0.4-1.823
			c-4.443-6.924-11.849-8.562-12.161-8.627c-0.718-0.153-1.413,0.302-1.565,1.013c-0.154,0.711,0.3,1.412,1.012,1.567
			c0.067,0.013,6.659,1.5,10.489,7.473C1056.583,1155.328,1057.183,1155.539,1057.727,1155.389z"/>
		<path style="fill:#E8C0A6;" d="M1068.601,1150.896c0.139-0.038,0.273-0.101,0.399-0.187c0.6-0.414,0.749-1.236,0.335-1.835
			c-4.785-6.922-11.898-9.294-12.198-9.392c-0.691-0.226-1.435,0.151-1.663,0.843c-0.226,0.692,0.151,1.437,0.843,1.665
			c0.065,0.021,6.584,2.218,10.847,8.385C1067.491,1150.848,1068.074,1151.041,1068.601,1150.896z"/>
		<path style="fill:#CE3932;" d="M1030.277,1166.537l68.935-19.059c0.327,2.172,0.31,4.374-0.236,6.507l-62.853,17.378
			c-3.053,0.844-6.071-1.556-5.854-4.712C1030.271,1166.613,1030.274,1166.575,1030.277,1166.537z"/>
		<path style="fill:#CE4ABF;" d="M954.759,1066.924c0.963,7.81,1.758,12.496,1.814,12.973c0,0,24.59,5.06,57.317,0
			c0.21-42.989-0.086-122.891,31.679-149.371c7.399-4.938,26.115-18.107,40.051-26.301c34.898-16.954,86.694-30.018,100.94-62.91
			c-18.805-7.781-58.131-24.055-77.117-31.913C954.916,826.247,940.091,965.295,954.759,1066.924z"/>
		<path style="fill:#A523A2;" d="M1015.012,1029.876c5.097-70.949,12.509-94.692,70.608-125.651l27.293-62.433
			C1039.415,864.546,976.974,939.893,1015.012,1029.876z"/>
		<path style="fill:#CE4ABF;" d="M1015.854,1018.474c7.215,41.289,19.502,73.771,29.715,106.43c0,0,40.191,2.526,60.347-18.716
			c-8.636-32.039-23.797-94.336-7.324-140.822c6.586-17.051,23.739-43.792,75.35-58.916c64.303-18.856,54.554-77.257,54.554-77.257
			c-22.466-43.605-63.935-5.229-76.113-2.021C1049.805,858.173,991.786,922.833,1015.854,1018.474z"/>
		<path style="fill:#A523A2;" d="M1041.716,1112.839l3.854,12.065c0,0,40.191,2.526,60.347-18.716c0,0-1.287-4.696-3.111-11.907
			C1102.806,1094.282,1080.532,1118.404,1041.716,1112.839z"/>
		<path style="fill:#A523A2;" d="M954.759,1066.924c0.963,7.81,1.758,12.496,1.814,12.973c0,0,24.59,5.06,57.317,0
			c0,0.202,0.062-11.671,0.062-11.671S981.444,1075.286,954.759,1066.924z"/>
		<path style="fill:#F99370;" d="M1215.777,703.448c76.576-46.347,97.193-116.067,80.764-201.14
			c-2.462-11.92-20.503-9.379-19.626,2.72c0.254,67.559-31.086,119.217-98.072,143.464
			C1178.863,648.479,1180.463,719.66,1215.777,703.448z"/>
		<path style="fill:#1D3F70;" d="M1272.536,681.04v0.01c0,0,0-0.01-0.01,0c-0.791,0.988-1.613,1.977-2.455,2.955
			c-10.31,12.12-21.212,27.101-34.882,36.786c-0.01,0.01-0.01,0.01-0.021,0.01c-4.817,3.423-9.987,6.18-15.584,7.927
			c-9.509-4.484-42.488-37.036-42.342-85.287c42.862-14.378,89.823-41.25,99.519-128.628c0,0,12.807,4.681,22.18,1.602
			C1310.332,563.585,1313.152,630.979,1272.536,681.04z"/>
		<path style="fill:#103663;" d="M1300.499,523.801c-10.753,3.714-24.199-1.613-24.615-1.784c0.325-2.353,0.619-4.758,0.874-7.207
			c0,0,12.809,4.69,22.181,1.608C1298.939,516.418,1299.602,519.103,1300.499,523.801z"/>
		<path style="fill:#F99370;" d="M1139.301,702.044c-87.35-19.544-129.098-79.068-140.62-164.943
			c-1.463-12.084,16.216-15.304,19.239-3.556c21.736,63.448,56.876,107.894,128.05,109.446c-0.023-0.006-0.086-0.022-0.109-0.027
			C1184.485,647.43,1177.94,706.164,1139.301,702.044z"/>
		<path style="fill:#1D3F70;" d="M1153.47,641.736l-49.292,72.928c0,0-3.568-1.831-9.176-5.399
			c-8.978-5.722-23.168-15.897-36.266-30.118c-39.377-42.758-56.699-105.917-58.53-131.915c13.472,1.196,20.599-6.148,20.599-6.148
			c0.926,2.049,1.935,4.13,2.986,6.242v0.01C1051.651,605.885,1101.609,643.639,1153.47,641.736z"/>
		<path style="fill:#103663;" d="M1023.792,547.328l-0.001,0.007c-7.801,7.612-22.693,7.398-22.693,7.398
			c-0.668-4.753-0.891-7.497-0.891-7.497c13.471,1.194,20.599-6.157,20.599-6.157
			C1021.734,543.129,1022.736,545.212,1023.792,547.328z"/>
		<path style="fill:#F99370;" d="M1153.488,641.72c-0.544-12.902,2.81-31.262,5.139-38.693c4.308-14.75,27.679-7.227,22.658,7.215
			c-0.732-0.537-5.156,26.437-4.007,34.097C1199.119,652.647,1130.376,669.777,1153.488,641.72z"/>
		<path style="fill:#E57D61;" d="M1181.602,609.023c-0.04,0.171-0.074,0.349-0.121,0.519c-0.059,0.239-0.124,0.47-0.197,0.701
			c-0.527-0.406-3.161,14.463-3.963,25.335c-10.567,3.905-21.824,1.034-23.88,0.455c0.377-11.528,3.2-25.647,4.519-30.909
			c0.367-1.23,0.621-1.947,0.666-2.096c0.107-0.332,0.228-0.657,0.362-0.973c1.388-3.328,4.161-5.729,7.417-6.749
			c0.007,0,0.007,0,0.007,0c2.261-0.704,4.744-0.739,7.168,0.034c2.397,0.771,4.383,2.226,5.805,4.085
			c0.064,0.074,0.121,0.154,0.178,0.228C1181.472,602.282,1182.297,605.666,1181.602,609.023z"/>
		<path style="fill:#C92828;" d="M1143.293,578.392c0,0,3.184-12.44,9.132-20.123l6.31,5.2L1143.293,578.392z"/>
		<path style="fill:#F99370;" d="M1134.399,614.888c6.438,10.642,18.962,16.208,29.975,16.441c3.425,0.124,6.808-0.281,9.989-1.347
			l0.004,0.001c1.075-0.36,2.113-0.785,3.127-1.285l0.013,0.005c49.411-30.656,10.881-109.227-27.458-57.769
			C1137.858,585.093,1121.261,590.289,1134.399,614.888z"/>
		<path style="fill:#F9F8F3;" d="M1144.368,602.672l15.529-3.785c0,0-0.963,7.743-6.93,8.492
			C1147.264,608.093,1144.368,602.672,1144.368,602.672z"/>
		<path style="fill:#C16256;" d="M1159.31,586.432c-0.214-0.881,0.328-1.769,1.21-1.982c0.882-0.213,1.771,0.329,1.984,1.21
			c0.214,0.881-0.328,1.769-1.21,1.982C1160.412,587.855,1159.523,587.313,1159.31,586.432z"/>
		<path style="fill:#C16256;" d="M1146.398,580.987c-0.214-0.881,0.328-1.769,1.21-1.982c0.882-0.213,1.771,0.329,1.984,1.211
			c0.214,0.881-0.328,1.768-1.21,1.982C1147.5,582.41,1146.612,581.868,1146.398,580.987z"/>
		<path style="fill:#C16256;" d="M1144.154,603.256c0.112,0.041,0.238,0.051,0.363,0.02l15.527-3.786
			c0.333-0.082,0.537-0.417,0.456-0.752c-0.082-0.333-0.422-0.538-0.753-0.456l-15.528,3.786c-0.333,0.082-0.537,0.417-0.455,0.752
			C1143.815,603.029,1143.967,603.187,1144.154,603.256z"/>
		<path style="fill:#C16256;" d="M1147.281,595.811c0.911,0.334,1.879,0.509,2.749,0.442c0.343-0.026,0.599-0.326,0.572-0.667
			c-0.026-0.345-0.332-0.596-0.668-0.572c-2.182,0.167-4.815-1.528-4.992-2.54c-0.062-0.356,0.448-0.573,0.888-0.69
			c3.871-1.043,7.71-6.984,7.871-7.236c0.185-0.29,0.101-0.673-0.189-0.859c-0.299-0.193-0.675-0.1-0.859,0.188
			c-0.037,0.057-3.74,5.788-7.147,6.706c-1.857,0.5-1.869,1.637-1.789,2.102C1143.926,593.899,1145.495,595.157,1147.281,595.811z"
			/>
		<path style="fill:#E57D61;" d="M1152.842,567.411c9.758-2.507,24.493,5.392,32.227,7.167c0,0-4.78,12.81,6.31,25.383
			c-1.76,12.406-1.023,18.18-17.016,30.021l0.004,0.001c1.075-0.36,2.113-0.785,3.127-1.285l0.013,0.005
			C1224.998,599.563,1190.531,522.348,1152.842,567.411z"/>
		<path style="fill:#C92828;" d="M1152.542,539.547c7.31-8.628,23.341-10.451,33.2,4.71c7.591,11.673,18.205,14.12,15.65,23.905
			c17.56,13.619,2.634,32.974,2.634,32.974l-9.589-3.514c-9.103-11.8-5.572-25.124-5.572-25.124l0.003-0.002
			c-2.543-0.474-5.164-1.212-7.365-2.368c-6.821-3.582-17.353-7.036-26.259-5.969
			C1146.338,565.226,1144.371,549.19,1152.542,539.547z"/>
		<path style="fill:#F99370;" d="M1203.54,609.422c-2.271,4.812-7.256,7.231-11.133,5.402c-3.877-1.829-5.178-7.213-2.907-12.025
			c2.272-4.812,7.256-7.231,11.133-5.402C1204.51,599.226,1205.811,604.61,1203.54,609.422z"/>
		<path style="fill:#C16256;" d="M1195.449,600.408c0.172-0.024,4.257-0.578,5.897,1.868c0.418,0.622,0.616,1.377,0.623,2.244
			c0,0.002,0,0.004,0,0.006c0.001,0.081,0.011,0.156,0.008,0.239c0,0.002,0.001,0.003,0,0.004c0,0-0.001,0.001,0,0.001
			c-0.06,1.597-0.777,3.58-2.154,5.937c-0.155,0.262-0.474,0.371-0.752,0.27c-0.034-0.012-0.066-0.028-0.1-0.047
			c-0.296-0.173-0.397-0.555-0.224-0.851c1.117-1.91,1.755-3.527,1.93-4.821c-3.636-0.206-6.314,3.284-6.341,3.322
			c-0.168,0.227-0.462,0.307-0.715,0.214c-0.053-0.02-0.105-0.049-0.155-0.085c-0.277-0.203-0.335-0.591-0.132-0.868
			c0.131-0.175,3.07-4.086,7.345-3.869c-0.063-0.377-0.174-0.718-0.363-1c-1.205-1.798-4.659-1.336-4.691-1.331
			c-0.344,0.045-0.654-0.191-0.703-0.53C1194.873,600.77,1195.109,600.457,1195.449,600.408z"/>
		<path style="fill:#FDFFDE;" d="M1187.482,609.129l5.865-3.099c0.046-0.246,0.113-0.49,0.229-0.726
			c0.682-1.383,2.358-1.951,3.744-1.268c1.385,0.683,1.955,2.357,1.272,3.74c-0.664,1.346-2.265,1.91-3.627,1.312l-5.862,3.097
			c-0.451,0.238-0.962,0.257-1.405,0.095c-0.388-0.143-0.727-0.422-0.934-0.815C1186.316,610.622,1186.637,609.575,1187.482,609.129
			z"/>
		<path style="fill:#1D3F70;" d="M1074.997,815.706c0,0,55.711,30.026,154.025,21.806c0,0,0.309-2.564,0.778-7.029
			c2.038-19.038,7.224-72.648,5.346-109.67c0,0-2.587-31.401-8.151-46.719c-16.885-46.49-49.752-30.657-49.752-30.657
			c-7.67,15.5-25.918,27.818-25.918,27.818c-3.125-16.199,1.9-28.78,2.141-29.524c-25.311,5.804-48.035,24.899-58.212,66.844
			c-4.774,19.645-22.06,67.176-23.926,92.098C1070.802,807.667,1072.479,813.393,1074.997,815.706z"/>
		<path style="fill:#E8C0A6;" d="M1144.803,641.687c0,0-4.936,23.353,3.916,37.459c0,0,26.624-8.935,36.433-38.497
			c0,0-3.661-0.202-7.91,2.792c0,0-12.467,17.3-24.736,25.567c0,0-2.9-10.198,0.965-27.276
			C1153.471,641.732,1148.924,640.479,1144.803,641.687z"/>
		<path style="fill:#C16256;" d="M1168.834,584.726c-0.279-0.02-0.538-0.189-0.66-0.463c-2.114-4.74-6.602-6.045-6.648-6.057
			c-0.417-0.116-0.661-0.548-0.545-0.965c0.116-0.417,0.547-0.662,0.962-0.547c0.213,0.058,5.238,1.493,7.663,6.93
			c0.176,0.395-0.001,0.859-0.397,1.035C1169.087,584.714,1168.958,584.735,1168.834,584.726z"/>
		<path style="fill:#C16256;" d="M1156.887,575.433c-0.138-0.01-0.275-0.057-0.397-0.143c-3.955-2.812-6.803-1.323-6.831-1.308
			c-0.38,0.207-0.856,0.066-1.063-0.315c-0.207-0.38-0.066-0.856,0.314-1.063c0.15-0.081,3.742-1.966,8.488,1.408
			c0.353,0.251,0.435,0.74,0.184,1.093C1157.419,575.337,1157.152,575.452,1156.887,575.433z"/>
		<path style="fill:#103663;" d="M1272.526,681.05c-0.791,0.988-1.613,1.977-2.455,2.955c-10.31,12.12-21.212,27.101-34.882,36.786
			c-0.01,0.01-0.01,0.01-0.021,0.01c-0.01,0.01-0.021,0.01-0.021,0.01c-0.375-20.672-5.774-32.438-6.107-33.156
			C1244.427,705.103,1271.902,681.591,1272.526,681.05z"/>
		<path style="fill:#103663;" d="M1104.24,682.943c0,0-5.743,13.899-8.989,25.634c-0.062,0.239-0.146,0.468-0.25,0.687
			c-8.978-5.722-23.168-15.897-36.266-30.118C1058.736,679.146,1084.963,698.809,1104.24,682.943z"/>
		<path style="fill:#EB5648;" d="M824.734,535.604l295.676-367.265l367.265,295.676L824.734,535.604z M1134.418,298.057
			l-98.145,121.907l220.052-23.763L1134.418,298.057z"/>
		
			<rect x="1434.705" y="446.835" transform="matrix(0.9942 -0.1074 0.1074 0.9942 -40.8867 156.9134)" style="fill:#CE3932;" width="4" height="22.619"/>
		
			<rect x="1415.109" y="433.907" transform="matrix(0.9942 -0.1073 0.1073 0.9942 -40.4076 154.7307)" style="fill:#CE3932;" width="4" height="37.618"/>
		
			<rect x="1377.527" y="437.966" transform="matrix(0.9942 -0.1074 0.1074 0.9942 -41.0688 150.7594)" style="fill:#CE3932;" width="4" height="37.619"/>
		
			<rect x="1284.379" y="463.068" transform="matrix(0.9942 -0.1074 0.1074 0.9942 -43.4923 140.8401)" style="fill:#CE3932;" width="4" height="22.619"/>
		
			<rect x="1264.783" y="450.14" transform="matrix(0.9942 -0.1074 0.1074 0.9942 -43.0278 138.7245)" style="fill:#CE3932;" width="4" height="37.619"/>
		
			<rect x="1359.542" y="454.951" transform="matrix(0.9942 -0.1074 0.1074 0.9942 -42.1935 148.8931)" style="fill:#CE3932;" width="4" height="22.619"/>
		
			<rect x="1339.946" y="442.024" transform="matrix(0.9942 -0.1073 0.1073 0.9942 -41.7135 146.7112)" style="fill:#CE3932;" width="4" height="37.619"/>
		
			<rect x="1209.216" y="471.185" transform="matrix(0.9942 -0.1074 0.1074 0.9942 -44.798 132.8179)" style="fill:#CE3932;" width="4" height="22.618"/>
		
			<rect x="1189.62" y="458.257" transform="matrix(0.9942 -0.1074 0.1074 0.9942 -44.3338 130.7012)" style="fill:#CE3932;" width="4" height="37.619"/>
		
			<rect x="1096.471" y="483.359" transform="matrix(0.9942 -0.1074 0.1074 0.9942 -46.7649 120.8098)" style="fill:#CE3932;" width="4" height="22.619"/>
		
			<rect x="1076.875" y="470.432" transform="matrix(0.9942 -0.1074 0.1074 0.9942 -46.2878 118.6514)" style="fill:#CE3932;" width="4" height="37.619"/>
		
			<rect x="983.727" y="495.534" transform="matrix(0.9942 -0.1074 0.1074 0.9942 -48.7242 108.7746)" style="fill:#CE3932;" width="4" height="22.619"/>
		
			<rect x="964.131" y="482.607" transform="matrix(0.9942 -0.1074 0.1074 0.9942 -48.2462 106.6173)" style="fill:#CE3932;" width="4" height="37.619"/>
		
			<rect x="1134.053" y="479.301" transform="matrix(0.9942 -0.1074 0.1074 0.9942 -46.1031 124.7935)" style="fill:#CE3932;" width="4" height="22.619"/>
		
			<rect x="1114.457" y="466.374" transform="matrix(0.9942 -0.1074 0.1074 0.9942 -45.6355 122.6642)" style="fill:#CE3932;" width="4" height="37.618"/>
		
			<rect x="1021.308" y="491.476" transform="matrix(0.9942 -0.1074 0.1074 0.9942 -48.0702 112.784)" style="fill:#CE3932;" width="4" height="22.619"/>
		
			<rect x="1001.712" y="478.549" transform="matrix(0.9942 -0.1074 0.1074 0.9942 -47.5944 110.6313)" style="fill:#CE3932;" width="4" height="37.618"/>
		
			<rect x="908.564" y="503.651" transform="matrix(0.9942 -0.1074 0.1074 0.9942 -50.0321 100.7549)" style="fill:#CE3932;" width="4" height="22.619"/>
		
			<rect x="888.968" y="490.723" transform="matrix(0.9942 -0.1074 0.1074 0.9942 -49.5509 98.5926)" style="fill:#CE3932;" width="4" height="37.619"/>
		
			<rect x="946.145" y="499.592" transform="matrix(0.9942 -0.1074 0.1074 0.9942 -49.377 104.7622)" style="fill:#CE3932;" width="4" height="22.619"/>
		
			<rect x="926.549" y="486.665" transform="matrix(0.9942 -0.1074 0.1074 0.9942 -48.8993 102.6068)" style="fill:#CE3932;" width="4" height="37.619"/>
		
			<rect x="1397.124" y="450.893" transform="matrix(0.9942 -0.1074 0.1074 0.9942 -41.5405 152.9051)" style="fill:#CE3932;" width="4" height="22.619"/>
		
			<rect x="1321.961" y="459.01" transform="matrix(0.9942 -0.1074 0.1074 0.9942 -42.8466 144.8812)" style="fill:#CE3932;" width="4" height="22.619"/>
		
			<rect x="1302.364" y="446.082" transform="matrix(0.9942 -0.1074 0.1074 0.9942 -42.3753 142.738)" style="fill:#CE3932;" width="4" height="37.618"/>
		
			<rect x="1246.797" y="467.126" transform="matrix(0.9942 -0.1074 0.1074 0.9942 -44.1453 136.8296)" style="fill:#CE3932;" width="4" height="22.618"/>
		
			<rect x="1227.201" y="454.198" transform="matrix(0.9942 -0.1074 0.1074 0.9942 -43.6799 134.7094)" style="fill:#CE3932;" width="4" height="37.619"/>
		
			<rect x="1171.634" y="475.243" transform="matrix(0.9942 -0.1074 0.1074 0.9942 -45.4525 128.8121)" style="fill:#CE3932;" width="4" height="22.619"/>
		
			<rect x="1152.038" y="462.315" transform="matrix(0.9942 -0.1074 0.1074 0.9942 -44.9858 126.6864)" style="fill:#CE3932;" width="4" height="37.619"/>
		
			<rect x="1058.89" y="487.418" transform="matrix(0.9942 -0.1074 0.1074 0.9942 -47.4181 116.7984)" style="fill:#CE3932;" width="4" height="22.619"/>
		
			<rect x="1039.294" y="474.49" transform="matrix(0.9942 -0.1074 0.1074 0.9942 -46.9407 114.6402)" style="fill:#CE3932;" width="4" height="37.619"/>
		
			<rect x="870.982" y="507.709" transform="matrix(0.9942 -0.1074 0.1074 0.9942 -50.6742 96.719)" style="fill:#CE3932;" width="4" height="22.619"/>
		<path style="fill:#F99370;" d="M1277.414,473.197c3.56-0.016,2.642,10.371,4.495,13.038l26.315-2.842
			c-1.229,6.804-6.342,17.315-10.997,22.586c-2.746,3.109-18.826,2.844-20.313-0.951c-2.864-7.312-2.6-15.034-2.172-16.867
			C1275.735,483.924,1273.573,475.096,1277.414,473.197z"/>
		<path style="fill:#F99370;" d="M1007.761,502.911c-4.049,1.201,1.287,12.789,1.287,12.789l-26.042,2.812
			c5.657,9.219,9.119,15.197,18.693,20.988c3.549,2.147,17.097,1.289,17.325-2.78c0.354-6.31-2.096-18.535-2.68-20.325
			C1015.773,512.723,1011.869,501.693,1007.761,502.911z"/>
	</g>
	<g id="_x35_">
		<path style="fill:#8A9EDD;" d="M761.359,625.203h-52.27V343.725c0-1.933-1.567-3.5-3.5-3.5h-72.317
			c-1.156,0-2.238,0.571-2.89,1.525L435.495,627.035c-0.397,0.582-0.61,1.271-0.61,1.975v75.381c0,1.933,1.567,3.5,3.5,3.5h180.355
			v86.896c0,1.933,1.567,3.5,3.5,3.5h83.349c1.933,0,3.5-1.567,3.5-3.5V707.89h52.27c1.933,0,3.5-1.567,3.5-3.5v-75.688
			C764.859,626.77,763.292,625.203,761.359,625.203z M525.547,625.203l93.193-138.546v138.546H525.547z"/>
		<path style="fill:#8A9EDD;" d="M2221.686,1127.9c-27.124-28.37-60.657-42.755-99.668-42.755c-18.328,0-36.533,3.982-54.21,11.848
			l11.794-66.746h159.471c1.933,0,3.5-1.567,3.5-3.5v-80.59c0-1.933-1.567-3.5-3.5-3.5h-227.675c-1.683,0-3.127,1.197-3.439,2.851
			l-44.125,233.804c-0.177,0.938,0.037,1.907,0.592,2.684c0.555,0.776,1.402,1.293,2.347,1.43l69.865,10.111
			c1.156,0.168,2.325-0.256,3.106-1.126c18.828-20.985,40.324-31.625,63.889-31.625c18.946,0,33.881,6.385,45.656,19.519
			c11.708,13.064,17.645,33.155,17.645,59.716c0,28.423-6.007,49.876-17.854,63.763c-11.872,13.917-25.937,20.682-42.995,20.682
			c-14.737,0-27.951-5.402-39.276-16.057c-11.388-10.71-18.346-25.516-20.681-44.006c-0.239-1.888-1.943-3.241-3.833-3.043
			l-85.8,8.887c-0.942,0.098-1.806,0.573-2.391,1.318c-0.586,0.744-0.845,1.695-0.717,2.634
			c5.199,38.296,21.377,69.241,48.082,91.976c26.674,22.719,61.562,34.237,103.696,34.237c52.819,0,94.695-20.479,124.466-60.866
			c21.805-29.484,32.861-63.484,32.861-101.057C2262.491,1193.438,2248.763,1156.231,2221.686,1127.9z"/>
		<path style="fill:#F49F9F;" d="M1860.831,395.736h-216.503c-1.421,0-2.573,1.152-2.573,2.573v58.8
			c0,1.421,1.152,2.573,2.573,2.573h138.668c-28.261,36.447-51.269,78.075-68.422,123.812
			c-17.818,47.519-27.386,94.798-28.436,140.523c-0.016,0.693,0.248,1.362,0.732,1.858c0.484,0.495,1.147,0.775,1.84,0.775h61.053
			c0.685,0,1.341-0.273,1.824-0.759c0.483-0.485,0.752-1.143,0.749-1.828c-0.149-28.772,4.636-61.938,14.223-98.575
			c9.587-36.638,23.716-71.718,41.995-104.264c18.271-32.531,36.466-57.806,54.081-75.122c0.492-0.484,0.769-1.145,0.769-1.835
			v-45.959C1863.405,396.888,1862.252,395.736,1860.831,395.736z"/>
	</g>
	<g id="_x34_">
		<g>
			<polygon style="fill:#3E7CC6;" points="2274.271,594.865 2261.855,594.865 2261.855,586.587 2265.993,586.587 2265.993,582.449 
				2274.271,582.449 			"/>
			<path style="fill:#3E7CC6;" d="M2243.625,594.865h-18.23v-8.277h18.23V594.865z M2207.164,594.865h-18.231v-8.277h18.231V594.865
				z M2170.702,594.865h-18.23v-8.277h18.23V594.865z M2134.241,594.865h-18.231v-8.277h18.231V594.865z"/>
			<polygon style="fill:#3E7CC6;" points="2097.779,594.865 2085.363,594.865 2085.363,582.449 2093.641,582.449 2093.641,586.587 
				2097.779,586.587 			"/>
			<path style="fill:#3E7CC6;" d="M2093.641,564.218h-8.277v-18.231h8.277V564.218z M2093.641,527.757h-8.277v-18.23h8.277V527.757z
				 M2093.641,491.295h-8.277v-18.23h8.277V491.295z M2093.641,454.834h-8.277v-18.231h8.277V454.834z"/>
			<polygon style="fill:#3E7CC6;" points="2093.641,418.373 2085.363,418.373 2085.363,405.957 2097.779,405.957 2097.779,414.234 
				2093.641,414.234 			"/>
			<path style="fill:#3E7CC6;" d="M2243.625,414.234h-18.231v-8.277h18.231V414.234z M2207.163,414.234h-18.23v-8.277h18.23V414.234
				z M2170.702,414.234h-18.231v-8.277h18.231V414.234z M2134.24,414.234h-18.23v-8.277h18.23V414.234z"/>
			<polygon style="fill:#3E7CC6;" points="2274.271,418.373 2265.993,418.373 2265.993,414.234 2261.855,414.234 2261.855,405.957 
				2274.271,405.957 			"/>
			<path style="fill:#3E7CC6;" d="M2274.271,564.218h-8.277v-18.231h8.277V564.218z M2274.271,527.757h-8.277v-18.23h8.277V527.757z
				 M2274.271,491.295h-8.277v-18.23h8.277V491.295z M2274.271,454.834h-8.277v-18.231h8.277V454.834z"/>
		</g>
		<path style="fill:#3E7CC6;" d="M2103.502,541.766l-0.701-8.247c8.147-0.694,16.226-2.257,24.009-4.647l2.43,7.913
			C2120.895,539.347,2112.235,541.023,2103.502,541.766z M2077.306,541.249c-8.694-1.09-17.281-3.112-25.524-6.011l2.746-7.809
			c7.688,2.704,15.697,4.59,23.808,5.606L2077.306,541.249z M2153.339,526.464l-4.049-7.219c7.108-3.987,13.819-8.749,19.948-14.154
			l5.475,6.208C2168.147,517.089,2160.956,522.192,2153.339,526.464z M2028.113,523.957c-7.443-4.575-14.427-9.961-20.757-16.008
			l5.717-5.985c5.909,5.645,12.428,10.671,19.374,14.941L2028.113,523.957z M2192.437,491.99l-6.652-4.924
			c4.863-6.571,9.032-13.668,12.391-21.093l7.541,3.411C2202.116,477.342,2197.648,484.948,2192.437,491.99z M1990.417,487.952
			c-4.925-7.241-9.083-15.017-12.358-23.11l7.672-3.105c3.057,7.55,6.936,14.804,11.53,21.561L1990.417,487.952z M2213.914,444.476
			l-8.094-1.735c1.702-7.94,2.565-16.125,2.565-24.326h8.277C2216.663,427.197,2215.738,435.966,2213.914,444.476z
			 M1970.868,439.629c-1.202-6.958-1.812-14.095-1.812-21.215c0-1.635,0.032-3.294,0.096-4.932l8.271,0.321
			c-0.06,1.531-0.09,3.082-0.09,4.61c0,6.649,0.568,13.313,1.69,19.806L1970.868,439.629z M2207.388,403.165
			c-1.066-8.099-3.003-16.095-5.755-23.766l7.791-2.795c2.95,8.225,5.026,16.797,6.171,25.479L2207.388,403.165z M1980.954,389.603
			l-8.018-2.058c2.173-8.467,5.266-16.73,9.191-24.56l7.398,3.71C1985.864,374,1982.98,381.707,1980.954,389.603z M2190.973,357.389
			c-4.314-6.92-9.382-13.406-15.06-19.278l5.949-5.754c6.083,6.29,11.512,13.239,16.134,20.653L2190.973,357.389z M2002.749,346.113
			l-6.453-5.184c5.477-6.817,11.692-13.072,18.475-18.591l5.225,6.42C2013.664,333.91,2007.861,339.749,2002.749,346.113z
			 M2157.146,322.412c-6.789-4.555-14.071-8.39-21.644-11.399l3.057-7.692c8.117,3.226,15.923,7.337,23.198,12.219L2157.146,322.412
			z M2040.489,315.411l-3.758-7.375c7.801-3.975,16.043-7.119,24.496-9.347l2.109,8.004
			C2055.452,308.771,2047.766,311.704,2040.489,315.411z M2111.939,304.456c-8.002-1.329-16.302-1.818-24.424-1.446l-0.377-8.269
			c8.699-0.395,17.586,0.126,26.158,1.55L2111.939,304.456z"/>
	</g>
	<g id="_x33_">
		<path style="fill:#3A72AA;" d="M1237.89,954.45c-0.1,2.24-1.2,25.79-5.4,68.23c-0.97,9.89-2.12,20.82-3.46,32.74
			c-6.82,60.61-18.69,146.99-39.08,255.13c-18.37,97.41-47.35,181.87-86.14,251.05c-14,24.95-35.82,54.28-55.57,78.87
			c-22.91,28.54-65.64,30.56-91.16,4.33c-0.44-0.45-0.88-0.9-1.32-1.35c-21.68-22.28-23.1-57.3-3.31-81.28
			c15.52-18.81,32.94-42.69,45.9-68.22c19.92-39.27,49.8-106.05,68.75-206.57c19.29-102.31,30.65-184.71,37.25-242.6
			c1.17-10.28,2.19-19.79,3.08-28.5c4.42-43.31,5.54-66.83,5.57-67.37c1.56-34.47,30.78-61.18,65.23-59.64
			C1212.7,890.81,1239.41,919.98,1237.89,954.45z"/>
		<path style="fill:#3A72AA;" d="M1685.06,1517.95c-18.41,44.36-46.58,80.56-81.47,104.68c-29.75,20.58-63.28,31.39-96.36,31.39
			c-7.53,0-15.03-0.56-22.46-1.69c-38.34-5.84-73.11-26.87-97.91-59.24c-24.1-31.45-38.58-72.13-43.05-120.9
			c-10.13-110.59,10.74-286.8,27.2-400.03c1.79-12.3,3.53-23.86,5.17-34.51c6.45-41.84,11.39-69.67,12.07-73.49
			c6.08-33.98,38.55-56.6,72.54-50.52c33.98,6.08,56.6,38.56,50.51,72.54c-0.14,0.81-3.32,18.75-7.93,47.72
			c-1.54,9.63-3.23,20.49-5.02,32.34c-15.92,105.27-39.7,289.14-30.05,394.54c3.53,38.56,17.38,65.23,35.28,67.96
			c18.98,2.89,48.58-16.71,66.02-58.72c13.23-31.88,49.81-47,81.69-33.76c7.33,3.04,13.77,7.32,19.19,12.49
			C1688.62,1466.06,1695.25,1493.4,1685.06,1517.95z"/>
		<path style="fill:#23659B;" d="M1237.89,954.45c-0.1,2.24-1.2,25.79-5.4,68.23c-0.97,9.89-2.12,20.82-3.46,32.74h-0.01
			c-64.48-16.72-124.67-10.64-124.67-10.64c1.17-10.28,2.19-19.79,3.08-28.5c4.42-43.31,5.54-66.83,5.57-67.37
			c1.56-34.47,30.78-61.18,65.23-59.64C1212.7,890.81,1239.41,919.98,1237.89,954.45z"/>
		<path style="fill:#23659B;" d="M1511.3,986.18c-0.14,0.81-3.32,18.75-7.93,47.72c-1.54,9.63-3.23,20.49-5.02,32.34
			c-41.68,5.62-85.95,7.11-127.34,5.92c1.79-12.3,3.53-23.86,5.17-34.51c6.45-41.84,11.39-69.67,12.07-73.49
			c6.08-33.98,38.55-56.6,72.54-50.52C1494.77,919.72,1517.39,952.2,1511.3,986.18z"/>
		<path style="fill:#3A72AA;" d="M1738.66,968.12c-24.92,11.57-72.17,33.5-139.72,49.66c-13.93,3.32-28.72,6.41-44.36,9.1
			c-16.72,2.88-33.79,5.23-51.21,7.02c-40.6,4.2-83.06,5.44-127.19,3.75c-46.14-1.78-94.1-6.77-143.69-14.97
			c-6.68-1.11-13.38-2.27-20.11-3.49c-36.97-6.71-72.03-7.67-104.95-2.91c-3.85,0.54-7.66,1.18-11.44,1.89
			c-28.59,5.36-55.5,15.15-80.57,29.36c-38.84,22.02-59.18,47.35-59.36,47.59c-12.28,16.42-31.08,25.08-50.11,25.08
			c-13.02,0-26.15-4.05-37.38-12.45c-27.65-20.67-33.3-59.84-12.63-87.49c3.46-4.62,35.58-46.2,97.84-81.49
			c32.55-18.44,67.67-31.99,104.59-40.36c4.54-1.03,9.11-1.99,13.7-2.86c51.57-9.8,106.28-9.59,162.61,0.63
			c136.55,24.75,238.28,19.44,312.41,4.96c67.23-13.12,111.75-33.79,138.92-46.41c31.31-14.53,68.48-0.94,83.02,30.37
			C1783.57,916.42,1769.97,953.58,1738.66,968.12z"/>
		<path style="fill:#23659B;" d="M1670.48,1448.75c-40.71-22.22-65.48,16.59-75.69,34.51c-10.22,17.92-29.62,63.78-82.5,64.07
			c-52.88,0.29-43.99-86.55-43.99-86.55c3.53,38.56,17.38,65.23,35.28,67.96c18.98,2.89,48.58-16.71,66.02-58.72
			c13.23-31.88,49.81-47,81.69-33.76C1658.62,1439.3,1665.06,1443.58,1670.48,1448.75z"/>
	</g>
	<g id="_x32_">
		<path style="fill:#8A9EDD;" d="M977.672,1219.764v378.339c0,38.693-31.367,70.061-70.061,70.061H632.687
			c-38.693,0-70.061-31.367-70.061-70.061v-378.339c0-39.772,32.241-72.013,72.013-72.013h271.021
			C945.431,1147.751,977.672,1179.992,977.672,1219.764z"/>
		<path style="fill:#4867AA;" d="M977.672,1217.281v98.089H562.626v-98.089c0-38.4,31.13-69.53,69.53-69.53h275.987
			C946.542,1147.751,977.672,1178.881,977.672,1217.281z"/>
		<path style="fill:#8A9EDD;" d="M893.6,1279.186H647.23c-26.155,0-47.358-21.203-47.358-47.358v0
			c0-26.155,21.203-47.358,47.358-47.358H893.6c26.155,0,47.358,21.203,47.358,47.358v0
			C940.959,1257.983,919.756,1279.186,893.6,1279.186z"/>
		<path style="fill:#D4E8FF;" d="M640.579,1394.656h-14.367c-14.547,0-26.34-11.793-26.34-26.34l0,0
			c0-14.547,11.793-26.34,26.34-26.34h14.367c14.547,0,26.34,11.793,26.34,26.34l0,0
			C666.919,1382.863,655.126,1394.656,640.579,1394.656z"/>
		<path style="fill:#D4E8FF;" d="M640.579,1472.699h-14.367c-14.547,0-26.34-11.793-26.34-26.34l0,0
			c0-14.547,11.793-26.34,26.34-26.34h14.367c14.547,0,26.34,11.793,26.34,26.34l0,0
			C666.919,1460.907,655.126,1472.699,640.579,1472.699z"/>
		<path style="fill:#D4E8FF;" d="M640.579,1550.743h-14.367c-14.547,0-26.34-11.793-26.34-26.34l0,0
			c0-14.547,11.793-26.34,26.34-26.34h14.367c14.547,0,26.34,11.793,26.34,26.34l0,0
			C666.919,1538.951,655.126,1550.743,640.579,1550.743z"/>
		<path style="fill:#D4E8FF;" d="M640.579,1628.787h-14.367c-14.547,0-26.34-11.793-26.34-26.34v0
			c0-14.547,11.793-26.34,26.34-26.34h14.367c14.547,0,26.34,11.793,26.34,26.34v0
			C666.919,1616.994,655.126,1628.787,640.579,1628.787z"/>
		<path style="fill:#D4E8FF;" d="M731.926,1394.656h-14.367c-14.547,0-26.34-11.793-26.34-26.34l0,0
			c0-14.547,11.793-26.34,26.34-26.34h14.367c14.547,0,26.34,11.793,26.34,26.34l0,0
			C758.265,1382.863,746.473,1394.656,731.926,1394.656z"/>
		<path style="fill:#D4E8FF;" d="M731.926,1472.699h-14.367c-14.547,0-26.34-11.793-26.34-26.34l0,0
			c0-14.547,11.793-26.34,26.34-26.34h14.367c14.547,0,26.34,11.793,26.34,26.34l0,0
			C758.265,1460.907,746.473,1472.699,731.926,1472.699z"/>
		<path style="fill:#D4E8FF;" d="M731.926,1550.743h-14.367c-14.547,0-26.34-11.793-26.34-26.34l0,0
			c0-14.547,11.793-26.34,26.34-26.34h14.367c14.547,0,26.34,11.793,26.34,26.34l0,0
			C758.265,1538.951,746.473,1550.743,731.926,1550.743z"/>
		<path style="fill:#D4E8FF;" d="M731.926,1628.787h-14.367c-14.547,0-26.34-11.793-26.34-26.34v0
			c0-14.547,11.793-26.34,26.34-26.34h14.367c14.547,0,26.34,11.793,26.34,26.34v0
			C758.265,1616.994,746.473,1628.787,731.926,1628.787z"/>
		<path style="fill:#D4E8FF;" d="M823.272,1394.656h-14.367c-14.547,0-26.34-11.793-26.34-26.34l0,0
			c0-14.547,11.793-26.34,26.34-26.34h14.367c14.547,0,26.34,11.793,26.34,26.34l0,0
			C849.612,1382.863,837.819,1394.656,823.272,1394.656z"/>
		<path style="fill:#D4E8FF;" d="M823.272,1472.699h-14.367c-14.547,0-26.34-11.793-26.34-26.34l0,0
			c0-14.547,11.793-26.34,26.34-26.34h14.367c14.547,0,26.34,11.793,26.34,26.34l0,0
			C849.612,1460.907,837.819,1472.699,823.272,1472.699z"/>
		<path style="fill:#D4E8FF;" d="M823.272,1550.743h-14.367c-14.547,0-26.34-11.793-26.34-26.34l0,0
			c0-14.547,11.793-26.34,26.34-26.34h14.367c14.547,0,26.34,11.793,26.34,26.34l0,0
			C849.612,1538.951,837.819,1550.743,823.272,1550.743z"/>
		<path style="fill:#D4E8FF;" d="M823.272,1628.787h-14.367c-14.547,0-26.34-11.793-26.34-26.34v0
			c0-14.547,11.793-26.34,26.34-26.34h14.367c14.547,0,26.34,11.793,26.34,26.34v0
			C849.612,1616.994,837.819,1628.787,823.272,1628.787z"/>
		<path style="fill:#EB5648;" d="M914.619,1394.656h-14.367c-14.547,0-26.34-11.793-26.34-26.34l0,0
			c0-14.547,11.793-26.34,26.34-26.34h14.367c14.547,0,26.34,11.793,26.34,26.34l0,0
			C940.959,1382.863,929.166,1394.656,914.619,1394.656z"/>
		<path style="fill:#4867AA;" d="M914.619,1472.699h-14.367c-14.547,0-26.34-11.793-26.34-26.34l0,0
			c0-14.547,11.793-26.34,26.34-26.34h14.367c14.547,0,26.34,11.793,26.34,26.34l0,0
			C940.959,1460.907,929.166,1472.699,914.619,1472.699z"/>
		<path style="fill:#4867AA;" d="M914.619,1550.743h-14.367c-14.547,0-26.34-11.793-26.34-26.34l0,0
			c0-14.547,11.793-26.34,26.34-26.34h14.367c14.547,0,26.34,11.793,26.34,26.34l0,0
			C940.959,1538.951,929.166,1550.743,914.619,1550.743z"/>
		<path style="fill:#4867AA;" d="M914.619,1628.787h-14.367c-14.547,0-26.34-11.793-26.34-26.34v0
			c0-14.547,11.793-26.34,26.34-26.34h14.367c14.547,0,26.34,11.793,26.34,26.34v0
			C940.959,1616.994,929.166,1628.787,914.619,1628.787z"/>
	</g>
	<g id="_x31_">
		<path style="fill:#FCB4B4;" d="M1414.855,1745.072c-13.876,0.007-806.039-1.058-787.039-1.02
			c-54.457-0.203-54.436-104.821,0.145-104.869c10.034,0.095,754.09,0.931,787.03,1.03l-0.014,7.301L1414.855,1745.072z"/>
		<path style="fill:#EB5648;" d="M667.837,1744.104c-6.58,0.082-32.929-0.114-40.015-0.051
			c-39.122,1.402-54.86-64.695-27.931-91.321l0.01,0c13.653-19.42,48.352-12.391,68.073-13.498L667.837,1744.104z"/>
		<path style="fill:#F49F9F;" d="M691.433,1677.732c2.878-7.242,724.407-6.26,727.292,0.919
			C1415.823,1685.884,694.346,1684.901,691.433,1677.732z"/>
		<path style="fill:#FFE7D7;" d="M1414.855,1745.072c0.017-17.646,0.111-85.986,0.137-104.859
			c33.136,12.705,104.626,40.114,137.198,52.599C1519.771,1705.153,1447.821,1732.53,1414.855,1745.072z"/>
		<path style="fill:#EB5648;" d="M1496.504,1714.006c-4.766-13.253-4.677-29.528,0.056-42.519l55.63,21.326L1496.504,1714.006z"/>
		<polygon style="fill:#F9C0C0;" points="1414.978,1647.514 695.178,1649.129 695.156,1639.274 1414.992,1640.213 		"/>
		<path style="fill:#CE3932;" d="M657.76,1744.086l-29.938-0.033c-39.126,1.4-54.857-64.693-27.931-91.321l0.01,0
			c0,0-1.234,68.246,57.897,68.114L657.76,1744.086z"/>
		<path style="fill:#93ABE5;" d="M695.102,1745.289c0,0,0.325-11.984-0.107-25.121c-1.026-31.177-3.219-81.241-1.825-82.305
			c0.206-12.081-15.514-9.685-15.361,2.418c0,0-2.184-1.138-2.184-1.138c0.227-12.063-17.375-10.596-17.214,1.532l-0.614,79.827
			l-0.035,24.739c-0.012,5.143,4.16,9.334,9.323,9.342c5.159,0.009,9.343-4.164,9.342-9.323c0,5.156,4.177,9.344,9.323,9.352
			C690.909,1754.611,695.094,1750.438,695.102,1745.289z"/>
		<path style="fill:#BBCEEA;" d="M695.044,1719.273l0.107-82.423c-0.614-4.564-4.513-8.075-9.23-8.075
			c-5.031-0.008-9.105,3.968-9.314,8.939l-0.132-0.913c-0.614-4.544-4.503-8.045-9.23-8.055c-5.149-0.009-9.333,4.164-9.342,9.323
			l-0.107,82.433c0.614,4.544,4.504,8.055,9.23,8.065c5.156,0.01,9.345-4.167,9.342-9.323l0.096-0.833l-0.003,2.1
			c0.614,4.564,4.513,8.075,9.23,8.075C690.851,1728.595,695.035,1724.422,695.044,1719.273z"/>
		<polygon style="fill:#F49F9F;" points="1414.855,1745.072 695.361,1744.142 694.996,1720.168 1414.795,1718.553 		"/>
		<path style="fill:#EDD5C5;" d="M1414.855,1745.072l-0.059-26.519c0.009-0.011,137.356-25.73,137.394-25.741
			C1519.771,1705.153,1447.821,1732.53,1414.855,1745.072z"/>
		<path style="fill:#CE3932;" d="M1496.504,1714.006c-1.144-3.266-2.036-6.703-2.648-10.272l58.333-10.921L1496.504,1714.006z"/>
	</g>
</g>
</svg>
