<?xml version="1.0" encoding="utf-8"?>
<!-- Generator: Adobe Illustrator 27.5.0, SVG Export Plug-In . SVG Version: 6.00 Build 0)  -->
<svg version="1.1" xmlns="http://www.w3.org/2000/svg" xmlns:xlink="http://www.w3.org/1999/xlink" x="0px" y="0px"
	 viewBox="0 0 750 500" style="enable-background:new 0 0 750 500;" xml:space="preserve">
<g id="Background_Simple">
	<g>
		<path style="fill:#92E3A9;" d="M695.986,277.287c0,0,10-178-141-227s-227-13-275,33s-64,76-119,82s-106,16-132,83s7,120,57,153
			s108-2,154,19s75,56,169,60s97-23,145-65S686.986,417.287,695.986,277.287z"/>
		<path style="opacity:0.7;fill:#FFFFFF;" d="M695.986,277.287c0,0,10-178-141-227s-227-13-275,33s-64,76-119,82s-106,16-132,83
			s7,120,57,153s108-2,154,19s75,56,169,60s97-23,145-65S686.986,417.287,695.986,277.287z"/>
	</g>
</g>
<g id="Plants">
	<g style="opacity:0.3;">
		<path d="M29.156,325.36c3.723,1.626,12.828,1.421,12.835,1.421c0.094-0.002-1.957-5.961-2.13-6.322
			c-1.998-4.179-8.316-11.08-13.456-10.385c-3.703,0.5-5.763,4.207-4.927,7.693C22.333,321.329,25.986,323.974,29.156,325.36z"/>
		<path d="M32.299,351.734c3.862,0.563,11.988-1.793,12.634-1.984c1.283,4.549,2.968,9.113,4.929,13.637
			c1.117,2.588,2.324,5.16,3.566,7.723c-0.741-1.086-1.412-2.051-1.52-2.176c-3.032-3.503-10.947-8.49-15.721-6.462
			c-3.441,1.46-4.447,5.578-2.721,8.721c1.763,3.209,5.987,4.797,9.41,5.295c3.475,0.507,10.442-1.363,12.281-1.883
			c0.487,0.979,0.962,1.961,1.453,2.937c2.352,4.686,4.721,9.351,6.904,13.998c0.77,1.637,1.468,3.278,2.173,4.917
			c-0.66-0.964-1.223-1.77-1.322-1.885c-3.031-3.503-10.946-8.49-15.721-6.462c-3.44,1.461-4.447,5.579-2.721,8.721
			c1.765,3.209,5.987,4.797,9.411,5.295c3.315,0.484,9.762-1.185,11.949-1.792c0.671,1.7,1.346,3.402,1.919,5.08
			c0.366,1.155,0.799,2.241,1.1,3.42c0.325,1.162,0.645,2.313,0.963,3.452c0.532,2.216,1.094,4.5,1.559,6.675
			c0.334,1.51,0.625,2.956,0.922,4.412c-0.747-1.639-2.278-4.816-2.437-5.068c-2.464-3.922-9.533-10.05-14.56-8.769
			c-3.622,0.923-5.241,4.841-4.009,8.209c1.257,3.439,5.19,5.647,8.499,6.659c3.643,1.113,11.708,0.096,12.715-0.038
			c0.483,2.41,0.931,4.758,1.317,6.981c0.865,4.905,1.517,9.303,2.013,13.025h3.4c-0.593-3.85-1.368-8.438-2.393-13.589
			c-0.48-2.449-1.043-5.056-1.647-7.728c0.606-0.241,4.046-1.632,7.094-3.336c2.655,2.875,9.458,6.24,10.339,6.668
			c-0.925,2.277-1.849,4.483-2.753,6.549c-1.881,4.33-3.668,8.169-5.246,11.436h3.677c1.356-3.011,2.847-6.44,4.4-10.239
			c0.95-2.308,1.92-4.794,2.89-7.354c0.976,0.204,8.96,1.825,12.681,0.985c3.374-0.763,7.462-2.672,8.973-6.008
			c1.479-3.266,0.155-7.294-3.389-8.484c-4.916-1.652-12.423,3.933-15.173,7.66c-0.163,0.22-1.657,2.802-2.572,4.447
			c0.391-1.048,0.782-2.062,1.172-3.147c0.786-2.139,1.505-4.297,2.288-6.615c0.339-1.133,0.681-2.278,1.028-3.433
			c0.367-1.139,0.61-2.389,0.924-3.593c0.669-2.808,1.209-5.686,1.69-8.597c1.875,0.682,8.568,3.011,12.035,2.766
			c3.452-0.243,7.78-1.51,9.779-4.579c1.957-3.004,1.259-7.187-2.062-8.9c-4.611-2.378-12.876,2.006-16.159,5.274
			c-0.205,0.203-2.297,2.813-3.419,4.268c0.275-1.752,0.559-3.5,0.779-5.282c0.639-5.143,1.124-10.37,1.633-15.581
			c0.155-1.597,0.328-3.185,0.496-4.776c0.665,0.25,8.559,3.189,12.443,2.917c3.451-0.242,7.78-1.51,9.779-4.58
			c1.957-3.004,1.258-7.187-2.063-8.899c-4.61-2.378-12.876,2.005-16.158,5.273c-0.247,0.246-3.253,4.005-3.97,4.999
			c0.37-3.505,0.772-6.993,1.308-10.416c0.732-4.723,1.712-9.318,2.99-13.699c0.309,0.117,8.535,3.222,12.512,2.943
			c3.452-0.243,7.782-1.511,9.779-4.579c1.956-3.004,1.259-7.187-2.063-8.9c-4.611-2.378-12.875,2.006-16.159,5.273
			c-0.257,0.257-3.488,4.303-4.022,5.078c0.077-0.26,0.127-0.539,0.207-0.797c1.424-4.66,3.389-8.995,5.427-12.964
			c1.18-2.309,2.437-4.449,3.706-6.504c1.473,0.736,8.242,4.022,11.848,4.166c3.457,0.138,7.9-0.647,10.222-3.478
			c2.275-2.771,2.041-7.005-1.072-9.073c-4.322-2.87-13.018,0.58-16.64,3.467c-0.197,0.157-2.022,1.975-3.333,3.318
			c0.587-0.919,1.175-1.878,1.755-2.747c2.17-3.268,4.358-6.127,6.317-8.644c1.125-1.421,2.171-2.685,3.162-3.857
			c1.821-0.032,9.161-0.255,12.371-1.761c3.131-1.471,6.713-4.214,7.47-7.797c0.741-3.509-1.418-7.158-5.133-7.558
			c-5.158-0.556-11.287,6.512-13.171,10.744c-0.162,0.366-2.052,6.378-1.957,6.377c0,0,0.088-0.001,0.11-0.001
			c-0.977,1.108-2.01,2.308-3.113,3.642c-2.018,2.479-4.274,5.297-6.523,8.531c-2.257,3.226-4.617,6.794-6.765,10.776
			c-2.158,3.989-4.223,8.296-5.778,13.008c-0.018,0.053-0.029,0.111-0.047,0.164c0.027-1.52-0.04-5.771-0.083-6.096
			c-0.596-4.594-4.445-13.121-9.547-14.064c-3.675-0.678-6.787,2.2-7.08,5.774c-0.298,3.65,2.347,7.302,4.928,9.608
			c2.91,2.599,10.988,5.116,11.631,5.315c-1.44,4.501-2.551,9.237-3.413,14.092c-0.495,2.776-0.908,5.586-1.286,8.41
			c-0.019-1.315-0.046-2.49-0.068-2.654c-0.596-4.595-4.446-13.12-9.547-14.064c-3.675-0.68-6.787,2.201-7.08,5.774
			c-0.299,3.65,2.347,7.302,4.927,9.607c2.619,2.339,9.462,4.624,11.281,5.204c-0.134,1.084-0.279,2.167-0.408,3.252
			c-0.623,5.206-1.22,10.404-1.964,15.484c-0.26,1.791-0.583,3.544-0.9,5.299c-0.018-1.167-0.044-2.15-0.063-2.299
			c-0.595-4.594-4.445-13.12-9.546-14.064c-3.676-0.679-6.789,2.2-7.082,5.775c-0.299,3.648,2.348,7.302,4.929,9.607
			c2.498,2.232,8.796,4.398,10.954,5.097c-0.378,1.788-0.755,3.58-1.202,5.296c-0.333,1.165-0.571,2.308-0.97,3.46
			c-0.37,1.147-0.737,2.285-1.1,3.41c-0.78,2.142-1.57,4.357-2.383,6.428c-0.554,1.444-1.11,2.81-1.664,4.188
			c0.28-1.779,0.757-5.274,0.763-5.57c0.071-3.077-1.021-8.08-3.197-11.596c0.013-0.454-0.013-0.907-0.085-1.357
			c-0.569-3.54-3.895-6.17-7.507-5.208c-5.013,1.334-8.192,10.134-8.429,14.759c-0.015,0.273,0.164,3.251,0.308,5.128
			c-0.253-1.091-0.485-2.152-0.758-3.271c-0.526-2.217-1.116-4.414-1.741-6.781c-0.342-1.132-0.689-2.275-1.038-3.43
			c-0.322-1.152-0.809-2.328-1.212-3.506c-0.991-2.71-2.128-5.41-3.333-8.103c1.941-0.465,8.807-2.216,11.564-4.332
			c2.745-2.106,5.656-5.552,5.63-9.213c-0.026-3.586-2.914-6.689-6.63-6.286c-5.157,0.56-9.633,8.776-10.569,13.312
			c-0.058,0.283-0.363,3.614-0.496,5.447c-0.737-1.613-1.465-3.227-2.264-4.835c-2.304-4.642-4.781-9.27-7.233-13.896
			c-0.752-1.417-1.483-2.838-2.222-4.257c0.693-0.159,8.899-2.063,11.988-4.432c2.744-2.105,5.656-5.552,5.63-9.214
			c-0.026-3.585-2.915-6.689-6.63-6.284c-5.158,0.56-9.633,8.775-10.569,13.312c-0.07,0.342-0.503,5.135-0.553,6.359
			c-1.624-3.126-3.214-6.258-4.656-9.408c-1.995-4.344-3.713-8.716-5.063-13.075c0.323-0.073,8.897-2.022,12.06-4.449
			c2.745-2.106,5.657-5.552,5.63-9.214c-0.025-3.586-2.914-6.688-6.63-6.285c-5.157,0.56-9.633,8.776-10.568,13.312
			c-0.074,0.357-0.536,5.514-0.553,6.454c-0.08-0.259-0.192-0.519-0.268-0.778c-1.382-4.673-2.135-9.372-2.625-13.807
			c-0.289-2.576-0.421-5.054-0.496-7.469c1.634-0.2,9.092-1.192,12.18-3.062c2.96-1.792,6.232-4.897,6.608-8.54
			c0.368-3.567-2.163-6.969-5.9-6.976c-5.188-0.01-10.539,7.665-11.967,12.071c-0.078,0.24-0.598,2.763-0.95,4.606
			c-0.017-1.09-0.055-2.215-0.051-3.259c0.008-3.923,0.255-7.515,0.5-10.694c0.154-1.807,0.33-3.438,0.51-4.961
			c1.501-1.033,7.5-5.267,9.346-8.294c1.801-2.954,3.274-7.217,1.929-10.624c-1.317-3.335-5.131-5.188-8.45-3.473
			c-4.609,2.382-5.821,11.659-5.059,16.229c0.067,0.394,1.807,6.451,1.886,6.399c0,0,0.074-0.051,0.09-0.063
			c-0.203,1.463-0.403,3.034-0.586,4.755c-0.316,3.18-0.643,6.776-0.735,10.715c-0.102,3.935-0.103,8.214,0.303,12.72
			c0.401,4.517,1.053,9.249,2.356,14.037c0.015,0.054,0.037,0.109,0.052,0.162c-0.816-1.282-3.218-4.79-3.434-5.039
			c-3.03-3.504-10.946-8.491-15.721-6.464c-3.44,1.462-4.448,5.58-2.72,8.722C24.654,349.649,28.876,351.235,32.299,351.734z"/>
		<path d="M121.256,327.363c0.08,0.05,1.656-6.052,1.712-6.448c0.638-4.587-0.825-13.828-5.496-16.085
			c-3.364-1.626-7.126,0.33-8.352,3.7c-1.253,3.44,0.335,7.663,2.215,10.567C113.541,322.507,121.249,327.359,121.256,327.363z"/>
	</g>
	<g style="opacity:0.3;">
		<path d="M615.737,325.36c3.723,1.626,12.828,1.421,12.835,1.421c0.094-0.002-1.957-5.961-2.13-6.322
			c-1.998-4.179-8.316-11.08-13.456-10.385c-3.703,0.5-5.763,4.207-4.927,7.693C608.913,321.329,612.566,323.974,615.737,325.36z"/>
		<path d="M618.879,351.734c3.862,0.563,11.988-1.793,12.634-1.984c1.283,4.549,2.968,9.113,4.929,13.637
			c1.117,2.588,2.324,5.16,3.566,7.723c-0.741-1.086-1.412-2.051-1.52-2.176c-3.032-3.503-10.947-8.49-15.721-6.462
			c-3.441,1.46-4.447,5.578-2.72,8.721c1.763,3.209,5.987,4.797,9.41,5.295c3.475,0.507,10.443-1.363,12.281-1.883
			c0.487,0.979,0.962,1.961,1.453,2.937c2.352,4.686,4.721,9.351,6.904,13.998c0.77,1.637,1.468,3.278,2.173,4.917
			c-0.66-0.964-1.223-1.77-1.322-1.885c-3.031-3.503-10.946-8.49-15.721-6.462c-3.44,1.461-4.448,5.579-2.721,8.721
			c1.765,3.209,5.987,4.797,9.411,5.295c3.315,0.484,9.762-1.185,11.949-1.792c0.671,1.7,1.346,3.402,1.919,5.08
			c0.366,1.155,0.799,2.241,1.1,3.42c0.325,1.162,0.645,2.313,0.963,3.452c0.532,2.216,1.094,4.5,1.559,6.675
			c0.334,1.51,0.625,2.956,0.922,4.412c-0.747-1.639-2.279-4.816-2.437-5.068c-2.464-3.922-9.533-10.05-14.56-8.769
			c-3.622,0.923-5.241,4.841-4.009,8.209c1.257,3.439,5.19,5.647,8.499,6.659c3.643,1.113,11.708,0.096,12.715-0.038
			c0.483,2.41,0.931,4.758,1.317,6.981c0.865,4.905,1.517,9.303,2.013,13.025h3.4c-0.593-3.85-1.368-8.438-2.393-13.589
			c-0.48-2.449-1.043-5.056-1.647-7.728c0.606-0.241,4.046-1.632,7.094-3.336c2.655,2.875,9.458,6.24,10.339,6.668
			c-0.925,2.277-1.849,4.483-2.753,6.549c-1.881,4.33-3.668,8.169-5.246,11.436h3.677c1.356-3.011,2.846-6.44,4.4-10.239
			c0.95-2.308,1.92-4.794,2.89-7.354c0.976,0.204,8.96,1.825,12.681,0.985c3.374-0.763,7.462-2.672,8.973-6.008
			c1.479-3.266,0.155-7.294-3.389-8.484c-4.916-1.652-12.423,3.933-15.173,7.66c-0.163,0.22-1.656,2.802-2.572,4.447
			c0.391-1.048,0.782-2.062,1.172-3.147c0.786-2.139,1.505-4.297,2.288-6.615c0.339-1.133,0.681-2.278,1.028-3.433
			c0.367-1.139,0.61-2.389,0.924-3.593c0.669-2.808,1.209-5.686,1.69-8.597c1.875,0.682,8.568,3.011,12.035,2.766
			c3.452-0.243,7.78-1.51,9.779-4.579c1.957-3.004,1.259-7.187-2.062-8.9c-4.611-2.378-12.877,2.006-16.159,5.274
			c-0.205,0.203-2.297,2.813-3.419,4.268c0.275-1.752,0.558-3.5,0.779-5.282c0.639-5.143,1.124-10.37,1.633-15.581
			c0.154-1.597,0.328-3.185,0.496-4.776c0.665,0.25,8.559,3.189,12.443,2.917c3.451-0.242,7.78-1.51,9.779-4.58
			c1.957-3.004,1.258-7.187-2.063-8.899c-4.61-2.378-12.876,2.005-16.159,5.273c-0.247,0.246-3.253,4.005-3.97,4.999
			c0.37-3.505,0.772-6.993,1.307-10.416c0.732-4.723,1.712-9.318,2.99-13.699c0.309,0.117,8.535,3.222,12.512,2.943
			c3.452-0.243,7.782-1.511,9.779-4.579c1.956-3.004,1.259-7.187-2.063-8.9c-4.611-2.378-12.875,2.006-16.159,5.273
			c-0.256,0.257-3.488,4.303-4.022,5.078c0.077-0.26,0.128-0.539,0.207-0.797c1.424-4.66,3.389-8.995,5.427-12.964
			c1.18-2.309,2.437-4.449,3.706-6.504c1.474,0.736,8.242,4.022,11.848,4.166c3.457,0.138,7.9-0.647,10.222-3.478
			c2.276-2.771,2.041-7.005-1.072-9.073c-4.322-2.87-13.018,0.58-16.64,3.467c-0.197,0.157-2.022,1.975-3.333,3.318
			c0.587-0.919,1.175-1.878,1.755-2.747c2.17-3.268,4.358-6.127,6.317-8.644c1.126-1.421,2.171-2.685,3.163-3.857
			c1.821-0.032,9.161-0.255,12.37-1.761c3.131-1.471,6.713-4.214,7.471-7.797c0.741-3.509-1.418-7.158-5.133-7.558
			c-5.158-0.556-11.287,6.512-13.172,10.744c-0.162,0.366-2.052,6.378-1.957,6.377c0,0,0.088-0.001,0.11-0.001
			c-0.977,1.108-2.01,2.308-3.113,3.642c-2.018,2.479-4.274,5.297-6.523,8.531c-2.257,3.226-4.617,6.794-6.765,10.776
			c-2.158,3.989-4.224,8.296-5.778,13.008c-0.018,0.053-0.029,0.111-0.047,0.164c0.027-1.52-0.04-5.771-0.083-6.096
			c-0.596-4.594-4.445-13.121-9.547-14.064c-3.675-0.678-6.787,2.2-7.08,5.774c-0.298,3.65,2.347,7.302,4.928,9.608
			c2.91,2.599,10.987,5.116,11.631,5.315c-1.44,4.501-2.551,9.237-3.413,14.092c-0.495,2.776-0.908,5.586-1.286,8.41
			c-0.019-1.315-0.046-2.49-0.068-2.654c-0.596-4.595-4.446-13.12-9.547-14.064c-3.675-0.68-6.787,2.201-7.08,5.774
			c-0.299,3.65,2.347,7.302,4.927,9.607c2.619,2.339,9.462,4.624,11.281,5.204c-0.134,1.084-0.279,2.167-0.408,3.252
			c-0.622,5.206-1.22,10.404-1.964,15.484c-0.26,1.791-0.583,3.544-0.901,5.299c-0.018-1.167-0.044-2.15-0.063-2.299
			c-0.595-4.594-4.445-13.12-9.546-14.064c-3.676-0.679-6.789,2.2-7.082,5.775c-0.299,3.648,2.348,7.302,4.929,9.607
			c2.498,2.232,8.796,4.398,10.954,5.097c-0.378,1.788-0.754,3.58-1.202,5.296c-0.333,1.165-0.571,2.308-0.969,3.46
			c-0.37,1.147-0.737,2.285-1.1,3.41c-0.78,2.142-1.57,4.357-2.383,6.428c-0.554,1.444-1.11,2.81-1.664,4.188
			c0.28-1.779,0.757-5.274,0.763-5.57c0.071-3.077-1.021-8.08-3.197-11.596c0.013-0.454-0.013-0.907-0.085-1.357
			c-0.569-3.54-3.895-6.17-7.507-5.208c-5.013,1.334-8.192,10.134-8.429,14.759c-0.015,0.273,0.164,3.251,0.308,5.128
			c-0.253-1.091-0.485-2.152-0.758-3.271c-0.526-2.217-1.116-4.414-1.741-6.781c-0.342-1.132-0.689-2.275-1.038-3.43
			c-0.322-1.152-0.809-2.328-1.211-3.506c-0.991-2.71-2.128-5.41-3.333-8.103c1.941-0.465,8.807-2.216,11.564-4.332
			c2.745-2.106,5.656-5.552,5.63-9.213c-0.026-3.586-2.914-6.689-6.63-6.286c-5.157,0.56-9.633,8.776-10.569,13.312
			c-0.058,0.283-0.364,3.614-0.496,5.447c-0.737-1.613-1.465-3.227-2.264-4.835c-2.304-4.642-4.781-9.27-7.233-13.896
			c-0.752-1.417-1.483-2.838-2.222-4.257c0.693-0.159,8.899-2.063,11.988-4.432c2.745-2.105,5.656-5.552,5.63-9.214
			c-0.026-3.585-2.915-6.689-6.63-6.284c-5.157,0.56-9.633,8.775-10.569,13.312c-0.07,0.342-0.503,5.135-0.553,6.359
			c-1.624-3.126-3.214-6.258-4.656-9.408c-1.995-4.344-3.713-8.716-5.063-13.075c0.323-0.073,8.897-2.022,12.06-4.449
			c2.745-2.106,5.656-5.552,5.63-9.214c-0.025-3.586-2.914-6.688-6.63-6.285c-5.157,0.56-9.633,8.776-10.568,13.312
			c-0.074,0.357-0.536,5.514-0.553,6.454c-0.08-0.259-0.192-0.519-0.268-0.778c-1.382-4.673-2.135-9.372-2.625-13.807
			c-0.289-2.576-0.421-5.054-0.496-7.469c1.634-0.2,9.092-1.192,12.18-3.062c2.96-1.792,6.232-4.897,6.608-8.54
			c0.368-3.567-2.163-6.969-5.9-6.976c-5.188-0.01-10.539,7.665-11.967,12.071c-0.078,0.24-0.598,2.763-0.95,4.606
			c-0.017-1.09-0.055-2.215-0.05-3.259c0.008-3.923,0.255-7.515,0.5-10.694c0.154-1.807,0.33-3.438,0.51-4.961
			c1.501-1.033,7.5-5.267,9.346-8.294c1.801-2.954,3.274-7.217,1.929-10.624c-1.317-3.335-5.13-5.188-8.45-3.473
			c-4.609,2.382-5.821,11.659-5.059,16.229c0.067,0.394,1.807,6.451,1.886,6.399c0,0,0.074-0.051,0.09-0.063
			c-0.203,1.463-0.403,3.034-0.586,4.755c-0.316,3.18-0.643,6.776-0.735,10.715c-0.102,3.935-0.103,8.214,0.303,12.72
			c0.401,4.517,1.053,9.249,2.357,14.037c0.015,0.054,0.037,0.109,0.052,0.162c-0.816-1.282-3.218-4.79-3.434-5.039
			c-3.031-3.504-10.946-8.491-15.721-6.464c-3.44,1.462-4.448,5.58-2.72,8.722C611.234,349.649,615.456,351.235,618.879,351.734z"/>
		<path d="M707.836,327.363c0.08,0.05,1.656-6.052,1.712-6.448c0.638-4.587-0.825-13.828-5.496-16.085
			c-3.364-1.626-7.127,0.33-8.352,3.7c-1.253,3.44,0.335,7.663,2.215,10.567C700.121,322.507,707.829,327.359,707.836,327.363z"/>
	</g>
</g>
<g id="Floor">
	
		<line style="fill:none;stroke:#263238;stroke-linecap:round;stroke-linejoin:round;stroke-miterlimit:10;" x1="19.263" y1="444.34" x2="733.851" y2="444.34"/>
</g>
<g id="Codes">
	<g style="opacity:0.3;">
		<g>
			<g>
				<g>
					<path d="M133.579,68.103H56.621c-0.552,0-1-0.448-1-1c0-0.552,0.448-1,1-1h76.958c0.552,0,1,0.448,1,1
						C134.579,67.655,134.131,68.103,133.579,68.103z"/>
				</g>
				<g>
					<path d="M96.802,91.132H56.621c-0.552,0-1-0.448-1-1c0-0.552,0.448-1,1-1h40.182c0.552,0,1,0.448,1,1
						C97.802,90.685,97.355,91.132,96.802,91.132z"/>
				</g>
				<g>
					<g>
						<path d="M94.078,78.466H56.621c-0.552,0-1-0.448-1-1c0-0.552,0.448-1,1-1h37.458c0.552,0,1,0.448,1,1
							C95.078,78.019,94.631,78.466,94.078,78.466z"/>
					</g>
					<g>
						<path d="M122.001,78.466h-19.75c-0.552,0-1-0.448-1-1c0-0.552,0.448-1,1-1h19.75c0.552,0,1,0.448,1,1
							C123.001,78.019,122.554,78.466,122.001,78.466z"/>
					</g>
					<g>
						<path d="M153.329,78.466h-19.751c-0.552,0-1-0.448-1-1c0-0.552,0.448-1,1-1h19.751c0.552,0,1,0.448,1,1
							C154.329,78.019,153.882,78.466,153.329,78.466z"/>
					</g>
				</g>
				<g>
					<g>
						<path d="M94.078,100.92H56.621c-0.552,0-1-0.448-1-1c0-0.552,0.448-1,1-1h37.458c0.552,0,1,0.448,1,1
							C95.078,100.472,94.631,100.92,94.078,100.92z"/>
					</g>
					<g>
						<path d="M122.001,100.92h-19.75c-0.552,0-1-0.448-1-1c0-0.552,0.448-1,1-1h19.75c0.552,0,1,0.448,1,1
							C123.001,100.472,122.554,100.92,122.001,100.92z"/>
					</g>
					<g>
						<path d="M153.329,100.92h-19.751c-0.552,0-1-0.448-1-1c0-0.552,0.448-1,1-1h19.751c0.552,0,1,0.448,1,1
							C154.329,100.472,153.882,100.92,153.329,100.92z"/>
					</g>
				</g>
				<g>
					<g>
						<path d="M94.078,123.373H56.621c-0.552,0-1-0.448-1-1c0-0.552,0.448-1,1-1h37.458c0.552,0,1,0.448,1,1
							C95.078,122.925,94.631,123.373,94.078,123.373z"/>
					</g>
					<g>
						<path d="M122.001,123.373h-19.75c-0.552,0-1-0.448-1-1c0-0.552,0.448-1,1-1h19.75c0.552,0,1,0.448,1,1
							C123.001,122.925,122.554,123.373,122.001,123.373z"/>
					</g>
					<g>
						<path d="M153.329,123.373h-19.751c-0.552,0-1-0.448-1-1c0-0.552,0.448-1,1-1h19.751c0.552,0,1,0.448,1,1
							C154.329,122.925,153.882,123.373,153.329,123.373z"/>
					</g>
				</g>
				<g>
					<g>
						<path d="M108.265,133.161H79.777c-0.552,0-1-0.448-1-1c0-0.552,0.448-1,1-1h28.489c0.552,0,1,0.448,1,1
							C109.265,132.713,108.818,133.161,108.265,133.161z"/>
					</g>
					<g>
						<path d="M129.502,133.161h-15.021c-0.552,0-1-0.448-1-1c0-0.552,0.448-1,1-1h15.021c0.552,0,1,0.448,1,1
							C130.502,132.713,130.054,133.161,129.502,133.161z"/>
					</g>
					<g>
						<path d="M153.329,133.161h-15.021c-0.552,0-1-0.448-1-1c0-0.552,0.448-1,1-1h15.021c0.552,0,1,0.448,1,1
							C154.329,132.713,153.882,133.161,153.329,133.161z"/>
					</g>
				</g>
				<g>
					<g>
						<path d="M108.265,145.251H79.777c-0.552,0-1-0.448-1-1c0-0.552,0.448-1,1-1h28.489c0.552,0,1,0.448,1,1
							C109.265,144.803,108.818,145.251,108.265,145.251z"/>
					</g>
					<g>
						<path d="M129.502,145.251h-15.021c-0.552,0-1-0.448-1-1c0-0.552,0.448-1,1-1h15.021c0.552,0,1,0.448,1,1
							C130.502,144.803,130.054,145.251,129.502,145.251z"/>
					</g>
					<g>
						<path d="M153.329,145.251h-15.021c-0.552,0-1-0.448-1-1c0-0.552,0.448-1,1-1h15.021c0.552,0,1,0.448,1,1
							C154.329,144.803,153.882,145.251,153.329,145.251z"/>
					</g>
				</g>
			</g>
			<g>
				<g>
					<path d="M133.579,158.493H56.621c-0.552,0-1-0.448-1-1c0-0.552,0.448-1,1-1h76.958c0.552,0,1,0.448,1,1
						C134.579,158.045,134.131,158.493,133.579,158.493z"/>
				</g>
				<g>
					<path d="M96.802,181.522H56.621c-0.552,0-1-0.447-1-1c0-0.553,0.448-1,1-1h40.182c0.552,0,1,0.447,1,1
						C97.802,181.074,97.355,181.522,96.802,181.522z"/>
				</g>
				<g>
					<g>
						<path d="M94.078,168.856H56.621c-0.552,0-1-0.448-1-1c0-0.552,0.448-1,1-1h37.458c0.552,0,1,0.448,1,1
							C95.078,168.408,94.631,168.856,94.078,168.856z"/>
					</g>
					<g>
						<path d="M122.001,168.856h-19.75c-0.552,0-1-0.448-1-1c0-0.552,0.448-1,1-1h19.75c0.552,0,1,0.448,1,1
							C123.001,168.408,122.554,168.856,122.001,168.856z"/>
					</g>
					<g>
						<path d="M153.329,168.856h-19.751c-0.552,0-1-0.448-1-1c0-0.552,0.448-1,1-1h19.751c0.552,0,1,0.448,1,1
							C154.329,168.408,153.882,168.856,153.329,168.856z"/>
					</g>
				</g>
				<g>
					<g>
						<path d="M94.078,191.31H56.621c-0.552,0-1-0.447-1-1c0-0.553,0.448-1,1-1h37.458c0.552,0,1,0.447,1,1
							C95.078,190.862,94.631,191.31,94.078,191.31z"/>
					</g>
					<g>
						<path d="M122.001,191.31h-19.75c-0.552,0-1-0.447-1-1c0-0.553,0.448-1,1-1h19.75c0.552,0,1,0.447,1,1
							C123.001,190.862,122.554,191.31,122.001,191.31z"/>
					</g>
					<g>
						<path d="M153.329,191.31h-19.751c-0.552,0-1-0.447-1-1c0-0.553,0.448-1,1-1h19.751c0.552,0,1,0.447,1,1
							C154.329,190.862,153.882,191.31,153.329,191.31z"/>
					</g>
				</g>
				<g>
					<g>
						<path d="M94.078,213.763H56.621c-0.552,0-1-0.447-1-1s0.448-1,1-1h37.458c0.552,0,1,0.447,1,1S94.631,213.763,94.078,213.763z
							"/>
					</g>
					<g>
						<path d="M122.001,213.763h-19.75c-0.552,0-1-0.447-1-1s0.448-1,1-1h19.75c0.552,0,1,0.447,1,1
							S122.554,213.763,122.001,213.763z"/>
					</g>
					<g>
						<path d="M153.329,213.763h-19.751c-0.552,0-1-0.447-1-1s0.448-1,1-1h19.751c0.552,0,1,0.447,1,1
							S153.882,213.763,153.329,213.763z"/>
					</g>
				</g>
				<g>
					<g>
						<path d="M108.265,223.55H79.777c-0.552,0-1-0.447-1-1c0-0.553,0.448-1,1-1h28.489c0.552,0,1,0.447,1,1
							C109.265,223.103,108.818,223.55,108.265,223.55z"/>
					</g>
					<g>
						<path d="M129.502,223.55h-15.021c-0.552,0-1-0.447-1-1c0-0.553,0.448-1,1-1h15.021c0.552,0,1,0.447,1,1
							C130.502,223.103,130.054,223.55,129.502,223.55z"/>
					</g>
					<g>
						<path d="M153.329,223.55h-15.021c-0.552,0-1-0.447-1-1c0-0.553,0.448-1,1-1h15.021c0.552,0,1,0.447,1,1
							C154.329,223.103,153.882,223.55,153.329,223.55z"/>
					</g>
				</g>
				<g>
					<g>
						<path d="M108.265,235.641H79.777c-0.552,0-1-0.447-1-1c0-0.553,0.448-1,1-1h28.489c0.552,0,1,0.447,1,1
							C109.265,235.193,108.818,235.641,108.265,235.641z"/>
					</g>
					<g>
						<path d="M129.502,235.641h-15.021c-0.552,0-1-0.447-1-1c0-0.553,0.448-1,1-1h15.021c0.552,0,1,0.447,1,1
							C130.502,235.193,130.054,235.641,129.502,235.641z"/>
					</g>
					<g>
						<path d="M153.329,235.641h-15.021c-0.552,0-1-0.447-1-1c0-0.553,0.448-1,1-1h15.021c0.552,0,1,0.447,1,1
							C154.329,235.193,153.882,235.641,153.329,235.641z"/>
					</g>
				</g>
			</g>
		</g>
		<g>
			<g>
				<path d="M58.721,53.292l7.236-3.727v1.076l-6.098,3.056v0.031l6.098,3.056v1.076l-7.236-3.727V53.292z"/>
				<path d="M66.457,58.682l-8.236-4.242v-1.452l8.236-4.242v2.205l-5.513,2.763l5.513,2.764V58.682z M59.222,53.83l0.138,0.071
					v-0.375l-0.138,0.071V53.83z"/>
			</g>
			<g>
				<path d="M70.284,58.486l4.351-11.306h1.061l-4.367,11.306H70.284z"/>
				<polygon points="71.672,58.986 69.555,58.986 74.291,46.679 76.425,46.679 				"/>
			</g>
			<g>
				<path d="M87.224,54.15l-7.236,3.712v-1.076l6.145-3.056v-0.031l-6.145-3.056v-1.076l7.236,3.712V54.15z"/>
				<path d="M79.488,58.68v-2.204l5.553-2.763l-5.553-2.762v-2.204l8.236,4.224v1.484L79.488,58.68z M86.633,53.535v0.356
					l0.092-0.047v-0.262L86.633,53.535z"/>
			</g>
		</g>
	</g>
	<g style="opacity:0.3;">
		<g>
			<g>
				<g>
					<path d="M393.06,68.103h-76.958c-0.552,0-1-0.448-1-1c0-0.552,0.448-1,1-1h76.958c0.552,0,1,0.448,1,1
						C394.06,67.655,393.612,68.103,393.06,68.103z"/>
				</g>
				<g>
					<path d="M356.283,91.132h-40.182c-0.552,0-1-0.448-1-1c0-0.552,0.448-1,1-1h40.182c0.552,0,1,0.448,1,1
						C357.283,90.685,356.835,91.132,356.283,91.132z"/>
				</g>
				<g>
					<g>
						<path d="M353.559,78.466h-37.457c-0.552,0-1-0.448-1-1c0-0.552,0.448-1,1-1h37.457c0.552,0,1,0.448,1,1
							C354.559,78.019,354.111,78.466,353.559,78.466z"/>
					</g>
					<g>
						<path d="M381.482,78.466h-19.75c-0.552,0-1-0.448-1-1c0-0.552,0.448-1,1-1h19.75c0.552,0,1,0.448,1,1
							C382.482,78.019,382.034,78.466,381.482,78.466z"/>
					</g>
					<g>
						<path d="M412.81,78.466h-19.75c-0.552,0-1-0.448-1-1c0-0.552,0.448-1,1-1h19.75c0.552,0,1,0.448,1,1
							C413.81,78.019,413.362,78.466,412.81,78.466z"/>
					</g>
				</g>
				<g>
					<g>
						<path d="M353.559,100.92h-37.457c-0.552,0-1-0.448-1-1c0-0.552,0.448-1,1-1h37.457c0.552,0,1,0.448,1,1
							C354.559,100.472,354.111,100.92,353.559,100.92z"/>
					</g>
					<g>
						<path d="M381.482,100.92h-19.75c-0.552,0-1-0.448-1-1c0-0.552,0.448-1,1-1h19.75c0.552,0,1,0.448,1,1
							C382.482,100.472,382.034,100.92,381.482,100.92z"/>
					</g>
					<g>
						<path d="M412.81,100.92h-19.75c-0.552,0-1-0.448-1-1c0-0.552,0.448-1,1-1h19.75c0.552,0,1,0.448,1,1
							C413.81,100.472,413.362,100.92,412.81,100.92z"/>
					</g>
				</g>
				<g>
					<g>
						<path d="M353.559,123.373h-37.457c-0.552,0-1-0.448-1-1c0-0.552,0.448-1,1-1h37.457c0.552,0,1,0.448,1,1
							C354.559,122.925,354.111,123.373,353.559,123.373z"/>
					</g>
					<g>
						<path d="M381.482,123.373h-19.75c-0.552,0-1-0.448-1-1c0-0.552,0.448-1,1-1h19.75c0.552,0,1,0.448,1,1
							C382.482,122.925,382.034,123.373,381.482,123.373z"/>
					</g>
					<g>
						<path d="M412.81,123.373h-19.75c-0.552,0-1-0.448-1-1c0-0.552,0.448-1,1-1h19.75c0.552,0,1,0.448,1,1
							C413.81,122.925,413.362,123.373,412.81,123.373z"/>
					</g>
				</g>
				<g>
					<g>
						<path d="M367.746,133.161h-28.489c-0.552,0-1-0.448-1-1c0-0.552,0.448-1,1-1h28.489c0.552,0,1,0.448,1,1
							C368.746,132.713,368.298,133.161,367.746,133.161z"/>
					</g>
					<g>
						<path d="M388.983,133.161h-15.022c-0.552,0-1-0.448-1-1c0-0.552,0.448-1,1-1h15.022c0.552,0,1,0.448,1,1
							C389.983,132.713,389.535,133.161,388.983,133.161z"/>
					</g>
					<g>
						<path d="M412.81,133.161h-15.021c-0.552,0-1-0.448-1-1c0-0.552,0.448-1,1-1h15.021c0.552,0,1,0.448,1,1
							C413.81,132.713,413.362,133.161,412.81,133.161z"/>
					</g>
				</g>
				<g>
					<g>
						<path d="M367.746,145.251h-28.489c-0.552,0-1-0.448-1-1c0-0.552,0.448-1,1-1h28.489c0.552,0,1,0.448,1,1
							C368.746,144.803,368.298,145.251,367.746,145.251z"/>
					</g>
					<g>
						<path d="M388.983,145.251h-15.022c-0.552,0-1-0.448-1-1c0-0.552,0.448-1,1-1h15.022c0.552,0,1,0.448,1,1
							C389.983,144.803,389.535,145.251,388.983,145.251z"/>
					</g>
					<g>
						<path d="M412.81,145.251h-15.021c-0.552,0-1-0.448-1-1c0-0.552,0.448-1,1-1h15.021c0.552,0,1,0.448,1,1
							C413.81,144.803,413.362,145.251,412.81,145.251z"/>
					</g>
				</g>
			</g>
			<g>
				<g>
					<path d="M393.06,158.493h-76.958c-0.552,0-1-0.448-1-1c0-0.552,0.448-1,1-1h76.958c0.552,0,1,0.448,1,1
						C394.06,158.045,393.612,158.493,393.06,158.493z"/>
				</g>
				<g>
					<path d="M356.283,181.522h-40.182c-0.552,0-1-0.447-1-1c0-0.553,0.448-1,1-1h40.182c0.552,0,1,0.447,1,1
						C357.283,181.074,356.835,181.522,356.283,181.522z"/>
				</g>
				<g>
					<g>
						<path d="M353.559,168.856h-37.457c-0.552,0-1-0.448-1-1c0-0.552,0.448-1,1-1h37.457c0.552,0,1,0.448,1,1
							C354.559,168.408,354.111,168.856,353.559,168.856z"/>
					</g>
					<g>
						<path d="M381.482,168.856h-19.75c-0.552,0-1-0.448-1-1c0-0.552,0.448-1,1-1h19.75c0.552,0,1,0.448,1,1
							C382.482,168.408,382.034,168.856,381.482,168.856z"/>
					</g>
					<g>
						<path d="M412.81,168.856h-19.75c-0.552,0-1-0.448-1-1c0-0.552,0.448-1,1-1h19.75c0.552,0,1,0.448,1,1
							C413.81,168.408,413.362,168.856,412.81,168.856z"/>
					</g>
				</g>
				<g>
					<g>
						<path d="M353.559,191.31h-37.457c-0.552,0-1-0.447-1-1c0-0.553,0.448-1,1-1h37.457c0.552,0,1,0.447,1,1
							C354.559,190.862,354.111,191.31,353.559,191.31z"/>
					</g>
					<g>
						<path d="M381.482,191.31h-19.75c-0.552,0-1-0.447-1-1c0-0.553,0.448-1,1-1h19.75c0.552,0,1,0.447,1,1
							C382.482,190.862,382.034,191.31,381.482,191.31z"/>
					</g>
					<g>
						<path d="M412.81,191.31h-19.75c-0.552,0-1-0.447-1-1c0-0.553,0.448-1,1-1h19.75c0.552,0,1,0.447,1,1
							C413.81,190.862,413.362,191.31,412.81,191.31z"/>
					</g>
				</g>
				<g>
					<g>
						<path d="M353.559,213.763h-37.457c-0.552,0-1-0.447-1-1s0.448-1,1-1h37.457c0.552,0,1,0.447,1,1
							S354.111,213.763,353.559,213.763z"/>
					</g>
					<g>
						<path d="M381.482,213.763h-19.75c-0.552,0-1-0.447-1-1s0.448-1,1-1h19.75c0.552,0,1,0.447,1,1
							S382.034,213.763,381.482,213.763z"/>
					</g>
					<g>
						<path d="M412.81,213.763h-19.75c-0.552,0-1-0.447-1-1s0.448-1,1-1h19.75c0.552,0,1,0.447,1,1S413.362,213.763,412.81,213.763z
							"/>
					</g>
				</g>
				<g>
					<g>
						<path d="M367.746,223.55h-28.489c-0.552,0-1-0.447-1-1c0-0.553,0.448-1,1-1h28.489c0.552,0,1,0.447,1,1
							C368.746,223.103,368.298,223.55,367.746,223.55z"/>
					</g>
					<g>
						<path d="M388.983,223.55h-15.022c-0.552,0-1-0.447-1-1c0-0.553,0.448-1,1-1h15.022c0.552,0,1,0.447,1,1
							C389.983,223.103,389.535,223.55,388.983,223.55z"/>
					</g>
					<g>
						<path d="M412.81,223.55h-15.021c-0.552,0-1-0.447-1-1c0-0.553,0.448-1,1-1h15.021c0.552,0,1,0.447,1,1
							C413.81,223.103,413.362,223.55,412.81,223.55z"/>
					</g>
				</g>
				<g>
					<g>
						<path d="M367.746,235.641h-28.489c-0.552,0-1-0.447-1-1c0-0.553,0.448-1,1-1h28.489c0.552,0,1,0.447,1,1
							C368.746,235.193,368.298,235.641,367.746,235.641z"/>
					</g>
					<g>
						<path d="M388.983,235.641h-15.022c-0.552,0-1-0.447-1-1c0-0.553,0.448-1,1-1h15.022c0.552,0,1,0.447,1,1
							C389.983,235.193,389.535,235.641,388.983,235.641z"/>
					</g>
					<g>
						<path d="M412.81,235.641h-15.021c-0.552,0-1-0.447-1-1c0-0.553,0.448-1,1-1h15.021c0.552,0,1,0.447,1,1
							C413.81,235.193,413.362,235.641,412.81,235.641z"/>
					</g>
				</g>
			</g>
		</g>
		<g>
			<g>
				<path d="M318.202,53.292l7.236-3.727v1.076l-6.098,3.056v0.031l6.098,3.056v1.076l-7.236-3.727V53.292z"/>
				<path d="M325.938,58.682l-8.236-4.242v-1.452l8.236-4.242v2.205l-5.513,2.763l5.513,2.764V58.682z M318.702,53.83l0.138,0.071
					v-0.375l-0.138,0.071V53.83z"/>
			</g>
			<g>
				<path d="M329.764,58.486l4.351-11.306h1.061l-4.367,11.306H329.764z"/>
				<polygon points="331.152,58.986 329.036,58.986 333.772,46.679 335.905,46.679 				"/>
			</g>
			<g>
				<path d="M346.705,54.15l-7.236,3.712v-1.076l6.145-3.056v-0.031l-6.145-3.056v-1.076l7.236,3.712V54.15z"/>
				<path d="M338.969,58.68v-2.204l5.553-2.763l-5.553-2.762v-2.204l8.236,4.224v1.484L338.969,58.68z M346.113,53.535v0.356
					l0.092-0.047v-0.262L346.113,53.535z"/>
			</g>
		</g>
	</g>
</g>
<g id="Gears_3">
	<g style="opacity:0.3;">
		<path style="fill:none;stroke:#000000;stroke-miterlimit:10;" d="M250.837,96.882v-9.716l-9.702-1.079
			c-0.532-2.052-1.342-3.991-2.379-5.782l6.128-7.662l-6.87-6.87l-7.629,6.102c-1.784-1.05-3.719-1.869-5.766-2.415l-1.084-9.747
			h-9.716l-1.079,9.702c-2.052,0.532-3.991,1.342-5.782,2.379l-7.662-6.128l-6.87,6.87l6.102,7.629
			c-1.049,1.784-1.869,3.719-2.415,5.766l-9.747,1.084v9.716l9.702,1.079c0.532,2.052,1.342,3.991,2.379,5.782l-6.128,7.662
			l6.87,6.87l7.629-6.102c1.784,1.05,3.718,1.869,5.766,2.415l1.084,9.747h9.715l1.079-9.702c2.052-0.532,3.991-1.342,5.782-2.379
			l7.662,6.128l6.87-6.87l-6.102-7.629c1.05-1.784,1.869-3.718,2.415-5.766L250.837,96.882z M218.602,103.543
			c-6.404,0-11.595-5.191-11.595-11.595c0-6.404,5.191-11.595,11.595-11.595c6.404,0,11.595,5.191,11.595,11.595
			C230.196,98.352,225.005,103.543,218.602,103.543z"/>
		<path style="fill:none;stroke:#000000;stroke-miterlimit:10;" d="M289.015,77.381l-1.077-6.432l-6.543,0.361
			c-0.58-1.3-1.331-2.493-2.216-3.564l3.208-5.752l-5.309-3.787l-4.374,4.885c-1.297-0.497-2.669-0.825-4.085-0.96l-1.798-6.333
			l-6.432,1.077l0.361,6.543c-1.3,0.58-2.493,1.331-3.564,2.216l-5.752-3.208l-3.787,5.31l4.885,4.374
			c-0.497,1.297-0.825,2.669-0.96,4.085l-6.333,1.798l1.077,6.432l6.543-0.361c0.58,1.299,1.331,2.493,2.216,3.564l-3.208,5.752
			l5.309,3.787l4.374-4.885c1.297,0.497,2.669,0.825,4.085,0.96l1.798,6.333l6.432-1.077l-0.361-6.543
			c1.3-0.58,2.493-1.331,3.564-2.216l5.752,3.208l3.787-5.309l-4.885-4.375c0.497-1.297,0.825-2.669,0.96-4.085L289.015,77.381z
			 M268.412,85.363c-4.24,0.71-8.251-2.152-8.961-6.391s2.152-8.252,6.392-8.961c4.239-0.71,8.251,2.152,8.961,6.391
			C275.513,80.641,272.651,84.653,268.412,85.363z"/>
	</g>
	<g style="opacity:0.3;">
		<path style="fill:none;stroke:#000000;stroke-miterlimit:10;" d="M636.072,124.39v-17.466l-17.442-1.94
			c-0.957-3.689-2.412-7.175-4.277-10.395l11.017-13.775l-12.35-12.35l-13.714,10.969c-3.207-1.887-6.685-3.36-10.365-4.342
			l-1.949-17.522h-17.466l-1.94,17.442c-3.689,0.957-7.175,2.412-10.395,4.277L543.416,68.27l-12.35,12.35l10.969,13.715
			c-1.887,3.207-3.36,6.685-4.342,10.365l-17.522,1.949v17.466l17.442,1.94c0.957,3.689,2.412,7.175,4.277,10.395l-11.017,13.775
			l12.35,12.35l13.715-10.969c3.207,1.887,6.685,3.36,10.365,4.342l1.949,17.522h17.466l1.94-17.442
			c3.689-0.957,7.175-2.412,10.395-4.277l13.775,11.017l12.35-12.35l-10.969-13.714c1.887-3.207,3.36-6.685,4.342-10.365
			L636.072,124.39z M578.121,136.364c-11.512,0-20.845-9.332-20.845-20.844c0-11.512,9.333-20.844,20.845-20.844
			c11.512,0,20.844,9.332,20.844,20.844C598.966,127.032,589.633,136.364,578.121,136.364z"/>
		<path style="fill:none;stroke:#000000;stroke-miterlimit:10;" d="M704.707,89.331l-1.935-11.563l-11.762,0.649
			c-1.042-2.336-2.392-4.483-3.983-6.408l5.768-10.34l-9.545-6.808l-7.864,8.782c-2.332-0.894-4.798-1.483-7.343-1.726
			l-3.232-11.385l-11.563,1.935l0.648,11.762c-2.336,1.042-4.483,2.392-6.408,3.983l-10.34-5.767l-6.808,9.545l8.782,7.864
			c-0.894,2.332-1.484,4.798-1.726,7.344l-11.384,3.232l1.935,11.563l11.762-0.648c1.042,2.336,2.392,4.483,3.983,6.408
			l-5.768,10.34l9.545,6.808l7.864-8.782c2.332,0.894,4.798,1.483,7.344,1.726l3.232,11.384l11.563-1.936l-0.649-11.762
			c2.336-1.042,4.483-2.392,6.408-3.983l10.34,5.768l6.808-9.545l-8.782-7.864c0.894-2.332,1.484-4.798,1.726-7.343L704.707,89.331z
			 M667.668,103.68c-7.622,1.276-14.834-3.869-16.11-11.49c-1.276-7.621,3.869-14.834,11.49-16.11
			c7.621-1.276,14.834,3.869,16.11,11.49C680.434,95.192,675.289,102.405,667.668,103.68z"/>
	</g>
</g>
<g id="Device_1">
	<g>
		<path style="fill:#C9C9C9;stroke:#263238;stroke-linecap:round;stroke-linejoin:round;stroke-miterlimit:10;" d="M623.394,421.625
			H147.811v-298.24c0-5.774,4.681-10.456,10.456-10.456h454.672c5.775,0,10.456,4.681,10.456,10.456V421.625z"/>
		
			<rect x="223.27" y="406.765" style="fill:#263238;stroke:#263238;stroke-linecap:round;stroke-linejoin:round;stroke-miterlimit:10;" width="326.846" height="16.104"/>
		
			<rect x="223.27" y="414.518" style="fill:#FFFFFF;stroke:#263238;stroke-linecap:round;stroke-linejoin:round;stroke-miterlimit:10;" width="326.846" height="8.35"/>
		<path style="fill:#263238;stroke:#263238;stroke-linecap:round;stroke-linejoin:round;stroke-miterlimit:10;" d="M109.351,432.411
			c0,0,5.368,6.561,21.472,11.928h511.741c0,0,11.929-2.982,17.297-11.332L109.351,432.411z"/>
		<path style="fill:#C9C9C9;stroke:#263238;stroke-linecap:round;stroke-linejoin:round;stroke-miterlimit:10;" d="M659.122,433.201
			H110.154c-1.047,0-1.895-0.848-1.895-1.895v-8.751c0-1.046,0.848-1.895,1.895-1.895h548.968c1.046,0,1.895,0.848,1.895,1.895
			v8.751C661.017,432.353,660.168,433.201,659.122,433.201z"/>
		<circle style="fill:#263238;" cx="385.5" cy="122.265" r="4.175"/>
		<g>
			<rect id="XMLID_1_" x="167.104" y="137.047" style="fill:#263238;" width="436.997" height="246.956"/>
			<polygon style="opacity:0.3;fill:#FFFFFF;" points="604.101,384.003 604.101,173.204 242.624,384.003 			"/>
		</g>
	</g>
</g>
<g id="Device_2">
	<g>
		<path style="fill:#263238;stroke:#263238;stroke-linecap:round;stroke-linejoin:round;stroke-miterlimit:10;" d="M690.159,378.754
			H588.565c-4.238,0-7.674-3.436-7.674-7.674V165.536c0-4.238,3.436-7.674,7.674-7.674h101.594c4.238,0,7.674,3.436,7.674,7.674
			v205.544C697.833,375.318,694.397,378.754,690.159,378.754z"/>
		<path style="fill:#92E3A9;stroke:#263238;stroke-linecap:round;stroke-linejoin:round;stroke-miterlimit:10;" d="M696.802,374.325
			H595.208c-4.238,0-7.674-3.436-7.674-7.674V161.107c0-4.238,3.436-7.674,7.674-7.674h101.594c4.238,0,7.674,3.436,7.674,7.674
			v205.543C704.476,370.889,701.04,374.325,696.802,374.325z"/>
		<path style="fill:#263238;" d="M657.587,165.622h-23.165c-0.872,0-1.579-0.707-1.579-1.58l0,0c0-0.872,0.707-1.579,1.579-1.579
			h23.165c0.872,0,1.579,0.707,1.579,1.579l0,0C659.167,164.915,658.46,165.622,657.587,165.622z"/>
		<path style="fill:#FFFFFF;stroke:#263238;stroke-width:0.7043;stroke-miterlimit:10;" d="M652.322,359.803
			c0-3.489-2.828-6.318-6.318-6.318c-3.489,0-6.317,2.828-6.317,6.318c0,3.489,2.828,6.318,6.317,6.318
			C649.494,366.121,652.322,363.293,652.322,359.803z"/>
		<rect x="642.803" y="356.601" style="fill:#263238;" width="6.404" height="6.404"/>
		<g>
			<rect id="XMLID_2_" x="592.731" y="177.688" style="fill:#263238;" width="106.548" height="172.382"/>
			<polygon style="opacity:0.3;fill:#FFFFFF;" points="699.279,292.148 599.955,350.07 699.279,350.07 			"/>
		</g>
	</g>
</g>
<g id="Gears_2">
	<g>
		<path style="fill:#92E3A9;stroke:#263238;stroke-linecap:round;stroke-linejoin:round;stroke-miterlimit:10;" d="M657.99,257.386
			v-7.654l-7.643-0.85c-0.419-1.617-1.057-3.144-1.874-4.555l4.828-6.036l-5.412-5.412l-6.01,4.807
			c-1.405-0.827-2.929-1.472-4.542-1.903l-0.854-7.678h-7.654l-0.85,7.643c-1.616,0.419-3.144,1.057-4.555,1.874l-6.036-4.828
			l-5.412,5.412l4.807,6.009c-0.827,1.405-1.472,2.929-1.903,4.542l-7.678,0.854v7.653l7.643,0.85
			c0.419,1.617,1.057,3.144,1.874,4.555l-4.828,6.036l5.412,5.412l6.01-4.807c1.405,0.827,2.929,1.472,4.542,1.903l0.854,7.678
			h7.653l0.85-7.643c1.616-0.419,3.144-1.057,4.555-1.874l6.036,4.828l5.412-5.412l-4.807-6.01c0.827-1.405,1.472-2.929,1.903-4.542
			L657.99,257.386z M632.597,262.633c-5.044,0-9.134-4.089-9.134-9.134c0-5.044,4.089-9.134,9.134-9.134
			c5.044,0,9.134,4.089,9.134,9.134C641.731,258.543,637.641,262.633,632.597,262.633z"/>
		<path style="fill:#FFFFFF;stroke:#263238;stroke-linecap:round;stroke-linejoin:round;stroke-miterlimit:10;" d="M688.065,242.023
			l-0.848-5.067l-5.154,0.284c-0.457-1.024-1.048-1.964-1.745-2.808l2.527-4.531l-4.182-2.983l-3.446,3.848
			c-1.022-0.392-2.102-0.65-3.218-0.756l-1.416-4.989l-5.067,0.848l0.284,5.154c-1.024,0.457-1.964,1.048-2.808,1.745l-4.531-2.527
			l-2.983,4.182l3.848,3.446c-0.392,1.022-0.65,2.102-0.756,3.218l-4.989,1.416l0.848,5.067l5.154-0.284
			c0.457,1.024,1.048,1.964,1.745,2.808l-2.527,4.531l4.183,2.983l3.446-3.848c1.022,0.392,2.102,0.65,3.218,0.756l1.416,4.989
			l5.067-0.848l-0.284-5.154c1.024-0.457,1.964-1.048,2.808-1.745l4.531,2.527l2.983-4.182l-3.848-3.446
			c0.392-1.022,0.65-2.102,0.756-3.218L688.065,242.023z M671.835,248.311c-3.34,0.559-6.5-1.695-7.059-5.035
			c-0.559-3.34,1.695-6.5,5.035-7.059c3.34-0.559,6.5,1.695,7.059,5.035C677.429,244.592,675.175,247.752,671.835,248.311z"/>
	</g>
</g>
<g id="Gears_1_1_">
	<g>
		<path style="fill:#92E3A9;stroke:#263238;stroke-linecap:round;stroke-linejoin:round;stroke-miterlimit:10;" d="M405.226,250.179
			v-15.216l-15.194-1.69c-0.834-3.214-2.102-6.25-3.726-9.055l9.598-12l-10.759-10.759l-11.948,9.556
			c-2.794-1.644-5.824-2.927-9.03-3.783l-1.698-15.264h-15.216l-1.69,15.194c-3.214,0.833-6.25,2.102-9.055,3.726l-12-9.598
			l-10.759,10.759l9.556,11.947c-1.644,2.794-2.927,5.824-3.783,9.03l-15.264,1.698v15.216l15.194,1.69
			c0.834,3.214,2.102,6.25,3.726,9.055l-9.598,12l10.759,10.759l11.948-9.556c2.794,1.644,5.824,2.927,9.03,3.783l1.698,15.264
			h15.216l1.69-15.194c3.214-0.833,6.25-2.102,9.055-3.726l12,9.598l10.759-10.759l-9.556-11.948
			c1.644-2.794,2.927-5.824,3.783-9.03L405.226,250.179z M354.742,260.61c-10.029,0-18.159-8.13-18.159-18.159
			c0-10.029,8.13-18.159,18.159-18.159c10.029,0,18.159,8.13,18.159,18.159C372.901,252.48,364.771,260.61,354.742,260.61z"/>
		<path style="fill:#FFFFFF;stroke:#263238;stroke-linecap:round;stroke-linejoin:round;stroke-miterlimit:10;" d="M465.017,219.637
			l-1.686-10.073l-10.246,0.565c-0.908-2.035-2.084-3.905-3.47-5.582l5.024-9.008l-8.315-5.931l-6.851,7.65
			c-2.032-0.779-4.18-1.292-6.397-1.504l-2.815-9.918l-10.073,1.686l0.565,10.247c-2.035,0.908-3.905,2.084-5.582,3.47l-9.008-5.024
			l-5.931,8.315l7.65,6.851c-0.779,2.032-1.292,4.18-1.504,6.397l-9.918,2.815l1.686,10.073l10.247-0.565
			c0.908,2.035,2.084,3.905,3.47,5.582l-5.025,9.008l8.315,5.931l6.851-7.65c2.032,0.779,4.18,1.292,6.397,1.504l2.815,9.918
			l10.073-1.686l-0.565-10.246c2.035-0.908,3.905-2.084,5.582-3.47l9.008,5.025l5.931-8.315l-7.65-6.851
			c0.779-2.032,1.292-4.18,1.504-6.397L465.017,219.637z M432.751,232.137c-6.64,1.111-12.923-3.37-14.034-10.01
			c-1.111-6.639,3.37-12.923,10.01-14.034c6.639-1.111,12.923,3.37,14.034,10.01C443.872,224.743,439.39,231.026,432.751,232.137z"
			/>
	</g>
</g>
<g id="Arrow">
	<polygon style="fill:#92E3A9;" points="582.522,243.572 545.178,214.256 545.178,228.906 476.463,228.906 476.463,258.238 
		545.178,258.238 545.178,272.888 	"/>
</g>
<g id="Character">
	<g>
		<g>
			<g>
				<path style="fill:#FFFFFF;stroke:#263238;stroke-linecap:round;stroke-linejoin:round;stroke-miterlimit:10;" d="
					M83.922,161.283c0,0-6.051,5.12-5.585,9.62c0.465,4.499,6.516,15.515,7.913,18.774c1.396,3.258-1.862,11.016-1.862,11.016
					l20.17,6.827c0,0-0.465-2.482,0-3.568c0.465-1.086,1.241-4.034,1.241-4.034s3.103,1.086,4.034,1.396
					c0.931,0.31,4.189-1.241,4.344-2.638c0.155-1.396,0.155-2.327,0.31-4.344c0.155-2.017,0.465-5.586,0.776-6.206
					c0.31-0.621,3.413-2.638,3.258-3.724c-0.155-1.086-3.724-5.275-4.034-6.672c-0.31-1.396,0.465-4.499,0.155-6.206
					c-0.31-1.707-3.258-7.603-3.258-7.603s1.862-1.551-3.258-5.741C103.006,153.99,90.128,152.749,83.922,161.283z"/>
				<path style="fill:#828282;stroke:#263238;stroke-linecap:round;stroke-linejoin:round;stroke-miterlimit:10;" d="
					M108.126,158.18c-5.12-4.189-17.998-5.43-24.204,3.103c0,0-6.051,5.12-5.585,9.62c0.465,4.499,6.516,15.515,7.913,18.774
					c0.189,0.442,0.287,0.971,0.325,1.548c0.98,0.516,3.511,1.362,8.053-0.152c6.051-2.017,6.051-2.948,6.051-2.948
					s-0.31-0.776-0.931-2.172c-0.621-1.396-0.31-7.292,1.862-7.292c2.172,0,4.189,4.344,4.189,4.344l1.552-0.465l-0.931-4.499
					c0,0,3.413-4.344,4.034-4.965c0.621-0.621-3.724-5.586-3.724-5.586l4.655-3.568C111.384,163.92,113.246,162.369,108.126,158.18z
					"/>
				<path style="fill:#263238;stroke:#263238;stroke-linecap:round;stroke-linejoin:round;stroke-miterlimit:10;" d="
					M108.126,158.18c-5.12-4.189-17.998-5.43-24.204,3.103c0,0-6.051,5.12-5.585,9.62c0.14,1.351,0.788,3.295,1.658,5.436
					c9.487,0.697,26.735-8.849,26.735-8.849l4.655-3.568C111.384,163.92,113.246,162.369,108.126,158.18z"/>
				<path style="fill:none;stroke:#263238;stroke-linecap:round;stroke-linejoin:round;stroke-miterlimit:10;" d="M100.678,188.124
					c0,0,1.396,2.172,2.638,2.638c1.241,0.465,2.017-1.241,2.017-1.241"/>
			</g>
			<path style="fill:#263238;" d="M114.022,178.195c0,1.114-0.278,2.017-0.621,2.017c-0.343,0-0.621-0.903-0.621-2.017
				c0-1.114,0.278-2.017,0.621-2.017C113.744,176.178,114.022,177.081,114.022,178.195z"/>
			<path style="fill:none;stroke:#263238;stroke-linecap:round;stroke-linejoin:round;stroke-miterlimit:10;" d="M112.16,175.712
				c0,0-0.31-2.017,2.172-1.086"/>
			<path style="fill:none;stroke:#263238;stroke-linecap:round;stroke-linejoin:round;stroke-miterlimit:10;" d="M114.797,191.227
				c0,0-1.707-0.465-2.327-1.241"/>
		</g>
		<polygon style="fill:#263238;stroke:#263238;stroke-linecap:round;stroke-linejoin:round;stroke-miterlimit:10;" points="
			163.239,239.248 128.122,239.248 119.975,266.768 155.091,266.768 		"/>
		
			<rect x="111.98" y="267.055" style="fill:#FFFFFF;stroke:#263238;stroke-linecap:round;stroke-linejoin:round;stroke-miterlimit:10;" width="42.857" height="1.863"/>
		<g>
			<path style="fill:#FFFFFF;stroke:#263238;stroke-linecap:round;stroke-linejoin:round;stroke-miterlimit:10;" d="
				M105.636,438.056c0,0,3.783,5.293,6.335,6.686c2.552,1.392,8.817,3.016,8.817,4.64c0,1.624-0.464,1.856-3.248,2.784
				c-2.784,0.928-7.889,0.928-10.673,0.928c-2.784,0-5.801,0-6.729,0.232c-0.928,0.232-6.033,0.696-8.353,0.696
				s-2.207-6.168-2.207-6.168L105.636,438.056z"/>
			<path style="fill:#263238;stroke:#263238;stroke-linecap:round;stroke-linejoin:round;stroke-miterlimit:10;" d="M69.164,313.334
				c0,0,4.627,36.538,9.798,50.963c5.171,14.425,2.994,18.78,6.532,33.477c3.538,14.697,4.083,49.263,4.083,50.08
				c0,0.817,1.633,0,7.349-2.994c5.716-2.994,8.71-6.804,8.71-6.804s-0.272-2.994-0.816-5.171c-0.544-2.177-1.633-7.893-1.633-7.893
				s2.177-18.508-0.272-48.175c-2.45-29.667-3.538-64.844-3.538-64.844S80.324,316.056,69.164,313.334z"/>
		</g>
		<path style="fill:#FFFFFF;stroke:#263238;stroke-linecap:round;stroke-linejoin:round;stroke-miterlimit:10;" d="M95.708,447.443
			c0,0,3.913,4.077,6.359,5.381c2.446,1.305,10.11,4.076,10.273,5.218c0.163,1.141-0.652,3.424-1.141,3.587
			c-0.489,0.163-7.012,1.304-13.208,1.467c-6.196,0.163-13.371-0.652-15.164-0.652s-6.033,1.63-6.196-3.261
			c-0.163-4.892,2.446-11.903,2.446-11.903S87.718,449.889,95.708,447.443z"/>
		<path style="fill:#263238;stroke:#263238;stroke-linecap:round;stroke-linejoin:round;stroke-miterlimit:10;" d="M82.985,322.797
			c0,0,1.982,28.002,2.974,36.427c0.991,8.425-0.991,26.266-3.221,38.655c-2.23,12.389-2.973,37.912-2.973,37.912
			s-1.487,0.991-0.743,2.478c0.743,1.487,1.487,3.717,1.487,3.717s-2.726,0.991-2.478,2.726c0.248,1.734,0.991,4.956,0.991,4.956
			s1.487,0.248,6.69,0.248c5.203,0,9.416-0.991,9.416-0.991l1.982-0.991c0,0,0.496-3.965,0.496-6.195c0-2.23-2.478-4.46-2.23-5.699
			c0.248-1.239,1.487-8.177,2.478-13.876c0.991-5.699,0.248-9.168,1.982-15.115c1.734-5.947,11.398-41.381,11.398-41.381
			s4.46-41.135,4.708-46.834c0.248-5.699,0.248-8.177,0.248-8.177s-7.681-6.195-9.416-6.195
			C105.038,304.46,82.985,322.797,82.985,322.797z"/>
		<g>
			<path style="fill:#92E3A9;stroke:#263238;stroke-linecap:round;stroke-linejoin:round;stroke-miterlimit:10;" d="M81.129,204.415
				c0,0-22.187,18.153-22.187,21.721c0,3.569,8.068,56.631,8.068,58.958s-3.413,30.255-3.413,30.255s14.895,9.93,19.86,9.93
				c4.965,0,15.981-7.137,19.084-9.464c3.103-2.327,3.879-3.724,4.655-3.103c0.776,0.621,12.102,10.55,13.188,10.706
				c1.086,0.155,0.155-5.43,0.155-5.43s-0.465-33.203-1.086-36.927c-0.621-3.724-1.552-29.169-1.552-36.616
				s2.793-18.774,0.31-23.583c-2.482-4.81-8.844-8.068-8.844-8.068S97.73,203.174,81.129,204.415z"/>
			<g>
				<path style="fill:none;stroke:#263238;stroke-linecap:round;stroke-linejoin:round;stroke-miterlimit:10;" d="M81.011,248.427
					c1.306,2.429,2.497,4.414,3.353,5.392"/>
				<path style="fill:none;stroke:#263238;stroke-linecap:round;stroke-linejoin:round;stroke-miterlimit:10;" d="M72.144,229.869
					c0,0,2.986,6.801,6.155,13.252"/>
				
					<line style="fill:none;stroke:#263238;stroke-linecap:round;stroke-linejoin:round;stroke-miterlimit:10;" x1="78.254" y1="251.375" x2="84.852" y2="260.173"/>
			</g>
		</g>
		<path style="fill:#92E3A9;stroke:#263238;stroke-linecap:round;stroke-linejoin:round;stroke-miterlimit:10;" d="M80.974,198.054
			l-2.948,7.447c0,0,6.206,0.31,11.947,1.086c5.741,0.776,19.394,6.206,19.394,6.206s-1.396-5.586-2.483-6.672
			c-1.086-1.086-5.12-5.12-12.878-6.827C86.249,197.589,80.974,198.054,80.974,198.054z"/>
		<g>
			<path style="fill:#FFFFFF;stroke:#263238;stroke-linecap:round;stroke-linejoin:round;stroke-miterlimit:10;" d="M96.213,275.655
				c0,0,2.293,16.913,3.583,17.487c1.29,0.573,31.963-15.767,34.257-16.913c2.293-1.147,3.583-1.003,4.013-1.147
				c0.43-0.143,4.3-0.143,5.733-0.86c1.433-0.717,2.867-2.58,3.297-2.867c0.43-0.287,3.87-0.43,4.873-1.147
				c1.003-0.717,2.293-1.29,1.433-1.72s-5.16-1.29-5.16-1.29s-0.143-2.007-1.863-2.293c-1.72-0.287-1.147,0.43-5.303-2.007
				c-4.157-2.437-3.727-0.43-7.31,2.15c-3.583,2.58-5.303,5.447-5.733,5.59c-0.43,0.143-13.473,5.017-13.473,5.017H96.213z"/>
			
				<line style="fill:#FFFFFF;stroke:#263238;stroke-linecap:round;stroke-linejoin:round;stroke-miterlimit:10;" x1="148.243" y1="267.198" x2="141.22" y2="266.339"/>
		</g>
		<g>
			<path style="fill:#92E3A9;stroke:#263238;stroke-linecap:round;stroke-linejoin:round;stroke-miterlimit:10;" d="M97.309,228.291
				c0,0-4.463,11.979-4.228,13.624c0.235,1.644,2.349,28.187,2.349,28.187l19.966,0.235c0,0,2.584-24.429,3.289-33.59
				c0.705-9.161,0.47-15.973-1.644-18.322c-2.114-2.349-8.926-4.228-11.51-4.228"/>
			<path style="fill:#92E3A9;stroke:#263238;stroke-linecap:round;stroke-linejoin:round;stroke-miterlimit:10;" d="M93.203,265.335
				c0,0,0.573,12.327,1.433,13.33s2.293,0.43,3.297,0c1.003-0.43,8.6-2.007,11.897-2.293c3.297-0.287,4.013-0.287,4.73-0.717
				c0.717-0.43,1.003-1.003,1.003-2.437c0-1.433,1.29-8.6,0.43-10.607C115.133,260.605,99.653,258.885,93.203,265.335z"/>
			<polygon style="fill:#92E3A9;stroke:#263238;stroke-linecap:round;stroke-linejoin:round;stroke-miterlimit:10;" points="
				107.966,261.035 108.54,276.372 109.83,276.372 109.973,260.892 			"/>
		</g>
	</g>
</g>
<g id="Text">
	<g>
		<path style="fill:#B8B8B8;" d="M293.177,330.963c-1.49,0-2.68-0.29-3.57-0.872c-0.89-0.581-1.526-1.412-1.908-2.493
			c-0.381-1.081-0.572-2.349-0.572-3.803v-8.366c0-1.453,0.195-2.702,0.586-3.747c0.391-1.045,1.026-1.845,1.908-2.398
			c0.881-0.555,2.067-0.831,3.557-0.831c1.49,0,2.671,0.281,3.543,0.845c0.872,0.563,1.503,1.362,1.894,2.398
			c0.391,1.035,0.586,2.28,0.586,3.733v8.394c0,1.435-0.195,2.689-0.586,3.762c-0.391,1.072-1.022,1.903-1.894,2.493
			C295.848,330.668,294.666,330.963,293.177,330.963z M293.177,328.537c0.818,0,1.435-0.167,1.853-0.504
			c0.418-0.336,0.7-0.809,0.845-1.417c0.145-0.608,0.218-1.322,0.218-2.14v-9.675c0-0.817-0.073-1.521-0.218-2.112
			c-0.146-0.59-0.427-1.044-0.845-1.362c-0.418-0.318-1.035-0.477-1.853-0.477c-0.817,0-1.44,0.159-1.867,0.477
			c-0.427,0.318-0.713,0.773-0.858,1.362c-0.146,0.591-0.218,1.295-0.218,2.112v9.675c0,0.817,0.072,1.531,0.218,2.14
			c0.145,0.608,0.431,1.081,0.858,1.417C291.737,328.37,292.359,328.537,293.177,328.537z"/>
		<path style="fill:#B8B8B8;" d="M302.224,330.718v-22.075h5.478c1.326,0,2.385,0.241,3.175,0.722
			c0.79,0.482,1.367,1.177,1.73,2.085c0.363,0.909,0.545,2.008,0.545,3.298c0,1.163-0.204,2.172-0.613,3.025
			c-0.409,0.854-1.013,1.513-1.812,1.975c-0.8,0.464-1.799,0.695-2.998,0.695h-2.426v10.274H302.224z M305.304,318.236h1.417
			c0.89,0,1.589-0.1,2.099-0.3c0.508-0.199,0.872-0.549,1.09-1.049c0.218-0.5,0.327-1.203,0.327-2.112
			c0-1.054-0.078-1.862-0.231-2.426c-0.155-0.563-0.477-0.953-0.968-1.172c-0.491-0.218-1.253-0.327-2.289-0.327h-1.445V318.236z"/>
		<path style="fill:#B8B8B8;" d="M315.306,330.718v-22.075h8.558v2.289h-5.478v7.304h4.442v2.181h-4.442v8.094h5.533v2.208H315.306z
			"/>
		<path style="fill:#B8B8B8;" d="M326.398,330.718v-22.075h4.442c1.472,0,2.689,0.195,3.652,0.586s1.676,1.018,2.14,1.881
			c0.463,0.862,0.695,1.994,0.695,3.393c0,0.854-0.091,1.631-0.272,2.33c-0.182,0.7-0.473,1.29-0.872,1.771
			c-0.4,0.482-0.927,0.831-1.581,1.05l3.134,11.065h-2.97l-2.889-10.357h-2.398v10.357H326.398z M329.478,318.155h1.172
			c0.872,0,1.581-0.109,2.126-0.327c0.545-0.219,0.944-0.591,1.199-1.117c0.254-0.527,0.381-1.263,0.381-2.208
			c0-1.29-0.236-2.221-0.708-2.794c-0.473-0.572-1.408-0.858-2.807-0.858h-1.363V318.155z"/>
		<path style="fill:#B8B8B8;" d="M339.343,330.718l4.688-22.075h2.971l4.715,22.075H348.8l-1.008-5.56h-4.497l-1.063,5.56H339.343z
			 M343.704,322.951h3.679l-1.853-9.947L343.704,322.951z"/>
		<path style="fill:#B8B8B8;" d="M355.505,330.718v-19.786h-3.734v-2.289h10.438v2.289h-3.625v19.786H355.505z"/>
		<path style="fill:#B8B8B8;" d="M364.498,330.718v-22.075h3.024v22.075H364.498z"/>
		<path style="fill:#B8B8B8;" d="M371.093,330.718v-22.075h2.099l6.269,14.662v-14.662h2.561v22.075h-1.962l-6.351-15.071v15.071
			H371.093z"/>
		<path style="fill:#B8B8B8;" d="M390.742,330.991c-1.381,0-2.484-0.295-3.311-0.886c-0.827-0.59-1.427-1.448-1.799-2.575
			c-0.373-1.127-0.559-2.48-0.559-4.061v-7.386c0-1.617,0.167-2.993,0.504-4.129c0.336-1.136,0.935-2.004,1.799-2.604
			c0.862-0.599,2.066-0.898,3.61-0.898c1.381,0,2.494,0.232,3.339,0.694c0.845,0.464,1.458,1.172,1.84,2.126
			c0.382,0.954,0.572,2.157,0.572,3.611v0.817h-2.889v-0.682c0-0.963-0.064-1.748-0.191-2.357c-0.127-0.608-0.386-1.063-0.776-1.362
			c-0.391-0.3-1.004-0.45-1.84-0.45c-0.908,0-1.566,0.21-1.976,0.627c-0.409,0.418-0.663,0.986-0.763,1.703
			c-0.1,0.719-0.15,1.531-0.15,2.439v8.176c0,1.055,0.077,1.936,0.231,2.645c0.154,0.708,0.45,1.235,0.886,1.58
			c0.437,0.346,1.054,0.518,1.854,0.518c0.8,0,1.417-0.19,1.853-0.572c0.436-0.381,0.735-0.944,0.899-1.689
			c0.163-0.745,0.245-1.671,0.245-2.779v-1.526h-2.808v-2.181h5.587v10.929h-1.935l-0.3-2.534c-0.291,0.817-0.745,1.489-1.362,2.017
			C392.686,330.727,391.833,330.991,390.742,330.991z"/>
		<path style="fill:#B8B8B8;" d="M411.51,330.963c-1.273,0-2.331-0.272-3.176-0.817c-0.845-0.545-1.485-1.299-1.921-2.262
			c-0.436-0.963-0.69-2.081-0.764-3.353l2.726-0.736c0.055,0.782,0.178,1.536,0.368,2.263c0.19,0.727,0.504,1.321,0.94,1.785
			c0.436,0.463,1.044,0.694,1.826,0.694c0.799,0,1.403-0.222,1.811-0.667c0.409-0.445,0.613-1.086,0.613-1.922
			c0-0.999-0.227-1.803-0.681-2.412c-0.455-0.608-1.027-1.222-1.718-1.839l-3.706-3.271c-0.727-0.636-1.263-1.331-1.608-2.085
			c-0.345-0.754-0.518-1.686-0.518-2.794c0-1.616,0.464-2.87,1.39-3.761c0.927-0.89,2.189-1.335,3.789-1.335
			c0.872,0,1.639,0.113,2.303,0.34c0.663,0.228,1.217,0.577,1.662,1.05c0.445,0.473,0.8,1.067,1.064,1.785
			c0.263,0.718,0.439,1.558,0.531,2.521l-2.616,0.709c-0.055-0.727-0.164-1.395-0.327-2.003c-0.164-0.609-0.45-1.1-0.858-1.472
			c-0.409-0.373-0.995-0.56-1.758-0.56c-0.764,0-1.358,0.205-1.785,0.613c-0.428,0.409-0.641,1.014-0.641,1.813
			c0,0.673,0.113,1.227,0.341,1.663c0.227,0.436,0.595,0.881,1.104,1.335l3.733,3.271c0.836,0.727,1.571,1.595,2.208,2.602
			c0.636,1.009,0.954,2.203,0.954,3.584c0,1.09-0.227,2.03-0.682,2.82c-0.454,0.791-1.076,1.395-1.867,1.813
			C413.458,330.754,412.545,330.963,411.51,330.963z"/>
		<path style="fill:#B8B8B8;" d="M422.574,330.718v-7.795l-4.77-14.28h2.861l3.38,10.656l3.324-10.656h2.89l-4.742,14.28v7.795
			H422.574z"/>
		<path style="fill:#B8B8B8;" d="M437.509,330.963c-1.272,0-2.331-0.272-3.176-0.817c-0.845-0.545-1.485-1.299-1.921-2.262
			c-0.436-0.963-0.69-2.081-0.764-3.353l2.726-0.736c0.055,0.782,0.178,1.536,0.368,2.263c0.19,0.727,0.504,1.321,0.94,1.785
			c0.436,0.463,1.044,0.694,1.826,0.694c0.799,0,1.403-0.222,1.811-0.667c0.409-0.445,0.613-1.086,0.613-1.922
			c0-0.999-0.228-1.803-0.681-2.412c-0.455-0.608-1.027-1.222-1.718-1.839l-3.706-3.271c-0.727-0.636-1.263-1.331-1.608-2.085
			c-0.345-0.754-0.517-1.686-0.517-2.794c0-1.616,0.464-2.87,1.39-3.761c0.927-0.89,2.19-1.335,3.789-1.335
			c0.872,0,1.639,0.113,2.303,0.34c0.663,0.228,1.217,0.577,1.662,1.05c0.445,0.473,0.8,1.067,1.064,1.785
			c0.263,0.718,0.439,1.558,0.531,2.521l-2.616,0.709c-0.055-0.727-0.164-1.395-0.327-2.003c-0.164-0.609-0.45-1.1-0.858-1.472
			c-0.409-0.373-0.995-0.56-1.758-0.56c-0.764,0-1.358,0.205-1.785,0.613c-0.428,0.409-0.641,1.014-0.641,1.813
			c0,0.673,0.113,1.227,0.341,1.663c0.227,0.436,0.595,0.881,1.104,1.335l3.733,3.271c0.836,0.727,1.571,1.595,2.208,2.602
			c0.636,1.009,0.954,2.203,0.954,3.584c0,1.09-0.228,2.03-0.682,2.82c-0.454,0.791-1.076,1.395-1.867,1.813
			C439.457,330.754,438.544,330.963,437.509,330.963z"/>
		<path style="fill:#B8B8B8;" d="M447.619,330.718v-19.786h-3.733v-2.289h10.438v2.289h-3.625v19.786H447.619z"/>
		<path style="fill:#B8B8B8;" d="M456.449,330.718v-22.075h8.558v2.289h-5.478v7.304h4.442v2.181h-4.442v8.094h5.532v2.208H456.449z
			"/>
		<path style="fill:#B8B8B8;" d="M467.486,330.718l0.409-22.075h3.025l3.897,17.905l3.925-17.905h2.998l0.409,22.075h-2.48
			l-0.245-16.025l-3.733,16.025h-1.745l-3.706-16.025l-0.245,16.025H467.486z"/>
	</g>
</g>
</svg>
