<?xml version="1.0" encoding="utf-8"?>
<!-- Generator: Adobe Illustrator 27.5.0, SVG Export Plug-In . SVG Version: 6.00 Build 0)  -->
<svg version="1.1" xmlns="http://www.w3.org/2000/svg" xmlns:xlink="http://www.w3.org/1999/xlink" x="0px" y="0px"
	 viewBox="0 0 500 500" style="enable-background:new 0 0 500 500;" xml:space="preserve">
<g id="BACKGROUND">
	<rect id="XMLID_32_" style="fill:#FFFFFF;" width="500" height="500"/>
	<rect id="XMLID_31_" x="217.168" y="-123.391" style="fill:#1E2346;" width="4.333" height="0"/>
</g>
<g id="OBJECTS">
	<g id="XMLID_260_">
		<g id="XMLID_158_">
			<g id="XMLID_127_">
				<rect id="XMLID_100_" x="61.668" y="386.158" style="fill:#FFCC00;" width="137.228" height="21.381"/>
				<rect id="XMLID_104_" x="61.668" y="386.158" style="opacity:0.5;fill:#FFCC00;" width="47.027" height="21.381"/>
				<rect id="XMLID_126_" x="153.842" y="386.158" style="opacity:0.5;fill:#FFCC00;" width="45.054" height="21.381"/>
			</g>
			<g id="XMLID_129_">
				<rect id="XMLID_134_" x="56.668" y="364.841" style="fill:#FFCC00;" width="137.228" height="21.381"/>
				<rect id="XMLID_131_" x="56.668" y="364.841" style="opacity:0.5;fill:#FFCC00;" width="36.417" height="21.381"/>
				<rect id="XMLID_130_" x="136.085" y="364.841" style="opacity:0.5;fill:#FFCC00;" width="57.811" height="21.381"/>
			</g>
			<g id="XMLID_147_">
				<rect id="XMLID_151_" x="71.628" y="343.375" style="fill:#FFCC00;" width="137.228" height="21.381"/>
				<rect id="XMLID_150_" x="71.628" y="343.375" style="opacity:0.5;fill:#FFCC00;" width="53.653" height="21.381"/>
				<rect id="XMLID_149_" x="169.835" y="343.375" style="opacity:0.5;fill:#FFCC00;" width="39.021" height="21.381"/>
			</g>
			<g id="XMLID_152_">
				<rect id="XMLID_155_" x="63.107" y="322.158" style="fill:#FFCC00;" width="137.228" height="21.381"/>
				<rect id="XMLID_154_" x="63.107" y="322.158" style="opacity:0.5;fill:#FFCC00;" width="40.894" height="21.381"/>
				<rect id="XMLID_153_" x="144.668" y="322.158" style="opacity:0.5;fill:#FFCC00;" width="55.667" height="21.381"/>
			</g>
			<rect id="XMLID_128_" x="61.668" y="386.158" style="opacity:0.5;fill:#FFCC00;" width="131.714" height="3.19"/>
			<rect id="XMLID_145_" x="71.628" y="343.539" style="opacity:0.5;fill:#FFCC00;" width="128.706" height="3.31"/>
		</g>
		<g id="XMLID_66_">
			<path id="XMLID_49_" style="fill:#F0F1F3;" d="M397.335,389.349h-171c-9.941,0-18-8.059-18-18v-268c0-9.941,8.059-18,18-18h171
				c9.941,0,18,8.059,18,18v268C415.335,381.29,407.276,389.349,397.335,389.349z"/>
			
				<rect id="XMLID_63_" x="190.335" y="143.349" transform="matrix(-1.836970e-16 1 -1 -1.836970e-16 538.6832 -84.986)" style="fill:#FFFFFF;" width="243" height="167"/>
			<rect id="XMLID_52_" x="237.835" y="164.849" style="opacity:0.5;fill:#F3A100;" width="9" height="54"/>
			<rect id="XMLID_61_" x="251.835" y="154.849" style="opacity:0.5;fill:#1E2346;" width="9" height="64"/>
			<rect id="XMLID_67_" x="265.835" y="135.849" style="opacity:0.5;fill:#F3A100;" width="9" height="83"/>
			<rect id="XMLID_72_" x="279.835" y="157.849" style="opacity:0.5;fill:#1E2346;" width="9" height="61"/>
			<rect id="XMLID_79_" x="293.835" y="180.849" style="opacity:0.5;fill:#F3A100;" width="9" height="38"/>
			<rect id="XMLID_82_" x="307.835" y="153.349" style="opacity:0.5;fill:#F3A100;" width="9" height="65.5"/>
			<rect id="XMLID_85_" x="321.835" y="193.849" style="opacity:0.5;fill:#1E2346;" width="9" height="25"/>
			<rect id="XMLID_88_" x="335.835" y="201.349" style="opacity:0.5;fill:#F3A100;" width="9" height="17.5"/>
			<rect id="XMLID_91_" x="349.835" y="182.849" style="opacity:0.5;fill:#F3A100;" width="9" height="36"/>
			<rect id="XMLID_94_" x="363.835" y="172.849" style="opacity:0.5;fill:#1E2346;" width="9" height="46"/>
			<rect id="XMLID_97_" x="377.835" y="164.849" style="opacity:0.5;fill:#F3A100;" width="9" height="54"/>
			
				<rect id="XMLID_114_" x="377.835" y="271.849" transform="matrix(-1 -1.224647e-16 1.224647e-16 -1 764.6692 597.6972)" style="opacity:0.5;fill:#F3A100;" width="9" height="54"/>
			
				<rect id="XMLID_113_" x="363.835" y="261.849" transform="matrix(-1 -1.224647e-16 1.224647e-16 -1 736.6692 587.6972)" style="opacity:0.5;fill:#1E2346;" width="9" height="64"/>
			
				<rect id="XMLID_110_" x="349.835" y="242.849" transform="matrix(-1 -1.224647e-16 1.224647e-16 -1 708.6692 568.6972)" style="opacity:0.5;fill:#F3A100;" width="9" height="83"/>
			
				<rect id="XMLID_109_" x="335.835" y="264.849" transform="matrix(-1 -1.224647e-16 1.224647e-16 -1 680.6692 590.6972)" style="opacity:0.5;fill:#1E2346;" width="9" height="61"/>
			
				<rect id="XMLID_106_" x="321.835" y="287.849" transform="matrix(-1 -1.224647e-16 1.224647e-16 -1 652.6692 613.6972)" style="opacity:0.5;fill:#F3A100;" width="9" height="38"/>
			
				<rect id="XMLID_103_" x="307.835" y="260.349" transform="matrix(-1 -1.224647e-16 1.224647e-16 -1 624.6692 586.1972)" style="opacity:0.5;fill:#F3A100;" width="9" height="65.5"/>
			
				<rect id="XMLID_102_" x="293.835" y="300.849" transform="matrix(-1 -1.224647e-16 1.224647e-16 -1 596.6692 626.6972)" style="opacity:0.5;fill:#1E2346;" width="9" height="25"/>
			
				<rect id="XMLID_98_" x="279.835" y="308.349" transform="matrix(-1 -1.224647e-16 1.224647e-16 -1 568.6692 634.1972)" style="opacity:0.5;fill:#F3A100;" width="9" height="17.5"/>
			
				<rect id="XMLID_75_" x="265.835" y="289.849" transform="matrix(-1 -1.224647e-16 1.224647e-16 -1 540.6692 615.6972)" style="opacity:0.5;fill:#F3A100;" width="9" height="36"/>
			
				<rect id="XMLID_69_" x="251.835" y="279.849" transform="matrix(-1 -1.224647e-16 1.224647e-16 -1 512.6692 605.6972)" style="opacity:0.5;fill:#1E2346;" width="9" height="46"/>
			
				<rect id="XMLID_65_" x="237.835" y="271.849" transform="matrix(-1 -1.224647e-16 1.224647e-16 -1 484.6692 597.6972)" style="opacity:0.5;fill:#F3A100;" width="9" height="54"/>
			<circle id="XMLID_57_" style="fill:#FFFFFF;" cx="311.835" cy="366.349" r="10.5"/>
		</g>
		<g id="XMLID_251_">
			<g id="XMLID_256_">
				<rect id="XMLID_272_" x="246.27" y="207.708" style="fill:#6CACAC;" width="201.349" height="103.922"/>
				<path id="XMLID_269_" style="fill:#5A9997;" d="M419.897,300.263H273.992v-1.624c0-9.849-7.2-17.862-16.05-17.862h-1.459
					v-42.218h1.459c8.85,0,16.05-8.013,16.05-17.862v-1.624h145.905v1.624c0,9.849,7.2,17.862,16.05,17.862h1.459v42.218h-1.459
					c-8.849,0-16.05,8.013-16.05,17.862V300.263z M276.855,297.016h140.18c0.712-10.348,8.156-18.633,17.454-19.424v-35.847
					c-9.298-0.791-16.742-9.076-17.454-19.424h-140.18c-0.711,10.348-8.155,18.633-17.453,19.424v35.847
					C268.7,278.383,276.144,286.668,276.855,297.016z"/>
				<g id="XMLID_258_">
					<path id="XMLID_267_" style="fill:#5A9997;" d="M366.491,241.763h-5.148c-0.58-1.46-1.355-2.82-2.301-4.046h5.305l4.484-6.576
						l-2.34-1.783h-36.146l-4.484,6.576l2.34,1.783h17.513v0.001c1.798,0,3.486,0.465,4.953,1.279
						c0.792,0.805,1.456,1.737,1.951,2.767h-23.075l-4.484,6.576l2.34,1.783h25.451c-1.541,3.718-5.201,6.337-9.477,6.337h-17.1
						l-0.012,7.53l13.766,24.207l2.34,1.783h9.444l-13.988-25.163h7.69c0.066,0.003,0.134,0.003,0.2,0.003
						c0.051,0,0.102,0,0.15-0.003c8.505-0.072,15.489-6.457,16.538-14.693h1.946l4.484-6.576L366.491,241.763z"/>
					<path id="XMLID_263_" style="fill:#A2C2C0;" d="M356.702,235.934h5.305l4.484-6.576h-36.146l-4.484,6.576h17.513v0.001
						c4.077,0,7.588,2.384,9.244,5.828h-23.075l-4.484,6.576h28.349c-0.986,4.639-5.102,8.12-10.035,8.12h-17.1l-0.012,7.53
						l13.766,24.207h9.444l-13.988-25.163h7.69c0.066,0.003,0.135,0.003,0.2,0.003c0.051,0,0.102,0,0.149-0.003
						c8.505-0.072,15.489-6.457,16.538-14.693h1.946l4.484-6.576h-6.888C359.018,239.618,358.023,237.647,356.702,235.934z"/>
				</g>
			</g>
			<g id="XMLID_253_">
				<rect id="XMLID_276_" x="242.015" y="202.357" style="fill:#7BC3C3;" width="201.349" height="103.922"/>
				<path id="XMLID_268_" style="fill:#68B0AE;" d="M415.643,294.913H269.737v-1.624c0-9.849-7.2-17.862-16.049-17.862h-1.459
					v-42.218h1.459c8.85,0,16.049-8.013,16.049-17.862v-1.624h145.905v1.624c0,9.849,7.2,17.862,16.049,17.862h1.459v42.218h-1.459
					c-8.849,0-16.049,8.013-16.049,17.862V294.913z M272.6,291.665h140.18c0.711-10.348,8.156-18.633,17.453-19.424v-35.847
					c-9.298-0.791-16.742-9.076-17.453-19.423H272.6c-0.711,10.348-8.155,18.633-17.453,19.423v35.847
					C264.445,273.033,271.889,281.318,272.6,291.665z"/>
				<g id="XMLID_254_">
					<path id="XMLID_259_" style="fill:#68B0AE;" d="M362.236,236.413h-5.148c-0.581-1.46-1.355-2.82-2.301-4.046h5.305l4.484-6.576
						l-2.34-1.783H326.09l-4.484,6.576l2.34,1.783h17.513v0.001c1.798,0,3.486,0.465,4.953,1.279
						c0.792,0.805,1.456,1.737,1.951,2.766h-23.075l-4.484,6.576l2.34,1.783h25.451c-1.541,3.719-5.201,6.337-9.477,6.337h-17.1
						l-0.012,7.53l13.766,24.207l2.34,1.783h9.444l-13.988-25.163h7.69c0.066,0.003,0.135,0.003,0.2,0.003
						c0.051,0,0.102,0,0.149-0.003c8.505-0.072,15.489-6.457,16.538-14.693h1.946l4.484-6.576L362.236,236.413z"/>
					<path id="XMLID_255_" style="fill:#B5D9D7;" d="M352.447,230.584h5.305l4.484-6.576H326.09l-4.484,6.576h17.513v0.001
						c4.077,0,7.588,2.384,9.244,5.828h-23.075l-4.484,6.576h28.349c-0.986,4.639-5.102,8.12-10.035,8.12h-17.1l-0.012,7.53
						l13.766,24.207h9.444l-13.988-25.163h7.69c0.066,0.003,0.134,0.003,0.2,0.003c0.051,0,0.102,0,0.149-0.003
						c8.505-0.072,15.489-6.456,16.538-14.693h1.946l4.484-6.576h-6.888C354.763,234.268,353.768,232.297,352.447,230.584z"/>
				</g>
			</g>
			<g id="XMLID_250_">
				<rect id="XMLID_187_" x="234.979" y="196.584" style="fill:#86D4D4;" width="201.349" height="103.922"/>
				<path id="XMLID_247_" style="fill:#72C1BF;" d="M408.606,289.139H262.701v-1.624c0-9.849-7.2-17.862-16.049-17.862h-1.459
					v-42.218h1.459c8.85,0,16.049-8.013,16.049-17.862v-1.624h145.905v1.624c0,9.849,7.2,17.862,16.049,17.862h1.459v42.218h-1.459
					c-8.849,0-16.049,8.013-16.049,17.862V289.139z M265.564,285.892h140.18c0.711-10.348,8.156-18.633,17.453-19.423v-35.847
					c-9.298-0.791-16.742-9.076-17.453-19.424h-140.18c-0.711,10.348-8.155,18.633-17.453,19.424v35.847
					C257.409,267.259,264.853,275.544,265.564,285.892z"/>
				<g id="XMLID_257_">
					<path id="XMLID_252_" style="fill:#72C1BF;" d="M355.199,230.64h-5.148c-0.581-1.46-1.355-2.82-2.301-4.046h5.305l4.484-6.576
						l-2.34-1.783h-36.146l-4.484,6.576l2.34,1.783h17.513v0.001c1.798,0,3.486,0.465,4.953,1.279
						c0.792,0.805,1.456,1.737,1.951,2.766h-23.075l-4.484,6.576l2.34,1.783h25.451c-1.541,3.719-5.201,6.337-9.477,6.337h-17.1
						l-0.012,7.53l13.766,24.207l2.34,1.783h9.444l-13.988-25.163h7.69c0.066,0.003,0.134,0.003,0.2,0.003
						c0.051,0,0.102,0,0.15-0.003c8.505-0.072,15.489-6.456,16.538-14.693h1.946l4.484-6.576L355.199,230.64z"/>
					<path id="XMLID_246_" style="fill:#C3EAE8;" d="M345.411,224.811h5.305l4.484-6.576h-36.146l-4.484,6.576h17.513v0.001
						c4.077,0,7.588,2.384,9.244,5.828h-23.075l-4.484,6.576h28.349c-0.986,4.639-5.102,8.12-10.035,8.12h-17.1l-0.012,7.53
						l13.766,24.207h9.444l-13.988-25.163h7.69c0.066,0.003,0.134,0.003,0.2,0.003c0.051,0,0.102,0,0.149-0.003
						c8.505-0.072,15.489-6.456,16.538-14.693h1.946l4.484-6.576h-6.888C347.726,228.495,346.732,226.524,345.411,224.811z"/>
				</g>
			</g>
		</g>
		<g id="XMLID_33_" style="opacity:0.5;">
			<polygon id="XMLID_47_" style="fill:#1E2346;" points="103.382,213.499 98.168,208.828 174.061,124.122 221.961,172.465 
				313.273,90.198 348.304,140.251 378.739,113.608 383.349,118.875 347.043,150.658 312.078,100.697 221.687,182.134 
				174.317,134.326 			"/>
			<g id="XMLID_42_">
				<polygon id="XMLID_44_" style="fill:#1E2346;" points="387.932,131.087 398.053,101.352 367.24,107.451 				"/>
			</g>
		</g>
		<g id="XMLID_133_">
			<circle id="XMLID_175_" style="fill:#FFCC00;" cx="382.335" cy="354.066" r="61.258"/>
			<circle id="XMLID_172_" style="fill:#D68900;" cx="382.335" cy="354.066" r="47.012"/>
			<circle id="XMLID_142_" style="fill:#F3A100;" cx="382.335" cy="354.066" r="45.231"/>
			<path id="XMLID_138_" style="fill:#D68900;" d="M404.404,335.94h-5.484c-0.619-1.555-1.444-3.004-2.451-4.31h5.652l4.777-7.006
				l-2.493-1.9h-38.508l-4.777,7.006l2.493,1.9h18.657v0.001c1.916,0,3.713,0.495,5.277,1.362c0.844,0.857,1.551,1.85,2.078,2.947
				h-24.583l-4.777,7.006l2.493,1.899h27.114c-1.642,3.961-5.54,6.751-10.096,6.751h-18.218l-0.012,8.022l14.665,25.788l2.493,1.899
				h10.061l-14.902-26.808h8.192c0.07,0.003,0.143,0.003,0.213,0.003c0.054,0,0.108,0,0.159-0.003
				c9.061-0.076,16.501-6.878,17.618-15.653h2.073l4.777-7.006L404.404,335.94z"/>
			<path id="XMLID_135_" style="fill:#FFCC00;" d="M393.976,329.73h5.652l4.777-7.006h-38.508l-4.777,7.006h18.657v0.001
				c4.343,0,8.084,2.539,9.848,6.209h-24.583l-4.777,7.006h30.202c-1.05,4.942-5.436,8.65-10.69,8.65h-18.218l-0.012,8.022
				l14.666,25.788h10.061l-14.902-26.808h8.192c0.07,0.003,0.143,0.003,0.213,0.003c0.054,0,0.108,0,0.159-0.003
				c9.06-0.076,16.501-6.878,17.618-15.653h2.073l4.777-7.006h-7.338C396.443,333.655,395.383,331.555,393.976,329.73z"/>
		</g>
		<rect id="XMLID_34_" x="212.335" y="354.849" style="fill:#F9A91C;" width="91.667" height="54.333"/>
		<g id="XMLID_13_">
			<path id="XMLID_51_" style="fill:#141930;" d="M280.585,264.224c0,0-4-1.75-9-0.875l5.5-14l6.375,3.25L280.585,264.224z"/>
			<circle id="XMLID_35_" style="fill:#E6976D;" cx="277.022" cy="251.661" r="5.063"/>
			<path id="XMLID_45_" style="fill:#141930;" d="M259.21,246.474c0,0-1.625,8.375-3.25,10.25s-3.875,3.625-2.625,5.625
				s4.125,2.481,6.5,2.125c2.5-0.375,5.125-1,6.75-0.25s0.5-9.75,0.5-9.75l-3.25-10.875
				C263.835,243.599,258.71,246.349,259.21,246.474z"/>
			<path id="XMLID_25_" style="fill:#E6976D;" d="M217.168,313.349c0,0-5,2.333-11.667,4.167c0,0,7,5.167,14.5-0.667
				L217.168,313.349z"/>
			<path id="XMLID_9_" style="fill:#E59303;" d="M254.668,271.515c0,0-8.333,28-37.5,41.833l2.5,5.167c0,0,20-3,41.167-30.167
				L254.668,271.515z"/>
			<path id="XMLID_22_" style="fill:#E6976D;" d="M208.21,391.224c0,0-5.625,8.375-11.375,10.625c0,0,6.25,0.5,9.75-2.75
				S208.21,391.224,208.21,391.224z"/>
			<path id="XMLID_20_" style="fill:#E37463;" d="M224.967,353.042c0,0,17.921,39.615,18.864,47.161
				c0.943,7.546-5.974,18.55-5.974,18.55h3.144l10.375-12.891l-11.633-48.733l10.375-1.258l-5.345-13.52l-19.493-0.314
				L224.967,353.042z"/>
			<path id="XMLID_11_" style="fill:#E6976D;" d="M226.085,326.632c0,0-8.489-1.886-10.375,5.659
				c-1.887,7.546-10.864,66.968-10.864,66.968l8.175-2.201l13.834-52.506l22.952,0.943
				C249.805,345.496,238.346,330.719,226.085,326.632z"/>
			<path id="XMLID_18_" style="fill:#42528E;" d="M213.02,397.059c0,0,1.258,3.773-0.943,6.603c-2.201,2.83-5.825,7.187-5.825,7.187
				l-0.943-1.572l2.053-5.929l-12.795,1.572l-7.231-4.087c0,0,8.833,1.183,17.511-1.572L213.02,397.059z"/>
			<path id="XMLID_30_" style="fill:#42528E;" d="M241.002,418.753l10.375-12.891c2.515,3.039,1.886,5.764,1.886,5.764l-0.419,10.69
				h-1.886l-0.839-9.223l-8.174,8.175h-8.594l4.506-2.515H241.002z"/>
			<path id="XMLID_8_" style="fill:#F9A91C;" d="M276.357,268.374l9.064,3.957c2.229,0.973,3.406,3.431,2.767,5.778
				c-1.766,6.491-4.115,23.458-1.737,39.79h-29.176c0,0-4.194-25.815-3.799-44.291c0.05-2.328,1.741-4.295,4.033-4.706l8.071-1.449
				L276.357,268.374z"/>
			<path id="XMLID_6_" style="fill:#E37463;" d="M280.745,274.35c-0.259,3.495-5.285,5.971-11.225,5.531
				c-5.94-0.441-10.545-3.631-10.286-7.126c0.259-3.495,5.285-5.971,11.225-5.531C276.399,267.664,281.004,270.855,280.745,274.35z"
				/>
			<path id="XMLID_7_" style="fill:#E37463;" d="M275.244,256.561c0,0,0.153,7.671,1.381,12.273c0,0-5.523,1.381-12.12,0
				c0,0,2.608-2.608,3.068-10.739L275.244,256.561z"/>
			<path id="XMLID_10_" style="fill:#F9A91C;" d="M255.976,277.769l-6.29,12.12c0,0,1.994,6.597,10.586,5.83l8.898-5.83
				L255.976,277.769z"/>
			<path id="XMLID_12_" style="fill:#42528E;" d="M286.451,317.9c0,0,4.429,11.95,4.678,19.662
				c0.238,7.373-1.903,16.65-18.632,17.918c-15.733,1.193-18.235,1.586-30.286,1.586c0,0-3.33-24.102-11.575-30.762
				c0,0,12.447-3.964,26.639-8.404H286.451z"/>
			<path id="XMLID_54_" style="fill:#D68505;" d="M288.036,275.122c-0.471-0.335-0.9-0.571-1.198-0.718
				c-4.077-2.018-8.341,4.477-8.341,4.477s-6.508,13.395-23.094,25.321c0.533,4.512,1.06,8.288,1.418,10.728
				c8.174-3.477,17.474-8.841,25.047-16.994c1.556-1.675,2.867-3.233,3.979-4.69c0.533-6.613,1.502-12.056,2.34-15.137
				C288.465,277.088,288.382,276.053,288.036,275.122z"/>
			<path id="XMLID_23_" style="fill:#F3A100;" d="M279.168,277.349c0,0-12.667,23.833-45.417,34.917l2.333,5.5
				c0,0,27.333-2.833,45.75-21.25c16.5-16.5,7.931-22.197,5.833-23.333C283.668,271.015,279.168,277.349,279.168,277.349z"/>
			<path id="XMLID_38_" style="fill:#E6976D;" d="M233.751,312.265l-12.25,4.583l2.333,5.667c0,0,6.167,1,12.25-4.75
				L233.751,312.265z"/>
			<path id="XMLID_43_" style="opacity:0.4;fill:#E37463;" d="M275.714,263.525c-0.094-0.847-0.171-1.68-0.232-2.46l-7.835-2.985
				l-0.074,0.015c-0.315,5.558-1.632,8.532-2.435,9.86C270.64,267.577,273.985,265.231,275.714,263.525z"/>
			<path id="XMLID_5_" style="fill:#E6976D;" d="M269.04,264.999h-0.786c-4.274,0-7.738-3.464-7.738-7.738v-14.047h16.262v14.047
				C276.778,261.535,273.314,264.999,269.04,264.999z"/>
			<path id="XMLID_37_" style="fill:#1E2346;" d="M272.71,243.599c0,0,0.125,5.125,3.5,8.25c0,0,1.375-3.625,3.125-1.25
				s0.125,4.875-2.75,5.25c0,0-0.875,6.625,1.875,9.5s2.75-2.375,6.375-1.875s6-0.5,4-3.75s-5.375-11.5-5.75-15.5
				s-1.625-10.375-6.125-8.875c0,0-0.625-4.125-5.125-4.375s-7.625,4-11.125,3.375s-7,0.75-7.5,5c-0.615,5.227,1.25,9,7.75,8.125
				C260.96,247.474,270.585,245.974,272.71,243.599z"/>
		</g>
		<rect id="XMLID_14_" x="169.745" y="323.767" style="fill:#1A427D;" width="141.759" height="5.391"/>
		<rect id="XMLID_15_" x="168.12" y="325.907" style="fill:#A9BFF8;" width="145.01" height="1.11"/>
		<g id="XMLID_76_">
			<circle id="XMLID_68_" style="fill:#FFCC00;" cx="155.352" cy="246.963" r="74.25"/>
			
				<ellipse id="XMLID_71_" transform="matrix(0.2175 -0.9761 0.9761 0.2175 -119.4897 344.8753)" style="fill:#D68900;" cx="155.353" cy="246.963" rx="56.983" ry="56.983"/>
			
				<ellipse id="XMLID_74_" transform="matrix(0.2245 -0.9745 0.9745 0.2245 -120.1806 342.9139)" style="fill:#F3A100;" cx="155.353" cy="246.963" rx="54.824" ry="54.824"/>
			<path id="XMLID_77_" style="fill:#D68900;" d="M182.102,224.993h-6.647c-0.75-1.885-1.75-3.641-2.971-5.225h6.85l5.79-8.492
				l-3.022-2.302h-46.675l-5.79,8.492l3.022,2.302h22.614v0.001c2.322,0,4.501,0.6,6.396,1.651c1.023,1.039,1.88,2.243,2.519,3.572
				h-29.796l-5.79,8.492l3.022,2.302h32.865c-1.99,4.802-6.715,8.183-12.237,8.183h-22.081l-0.015,9.724l17.776,31.258l3.022,2.302
				h12.195l-18.062-32.493h9.93c0.085,0.004,0.174,0.004,0.259,0.004c0.066,0,0.131,0,0.193-0.004
				c10.982-0.092,20.001-8.337,21.355-18.973h2.513l5.79-8.492L182.102,224.993z"/>
			<path id="XMLID_125_" style="fill:#FFCC00;" d="M169.462,217.466h6.85l5.79-8.492h-46.675l-5.79,8.492h22.614v0.001
				c5.265,0,9.799,3.078,11.936,7.526h-29.796l-5.79,8.492h36.607c-1.273,5.99-6.588,10.485-12.958,10.485h-22.081l-0.015,9.723
				l17.776,31.258h12.195l-18.062-32.493h9.93c0.085,0.004,0.174,0.004,0.258,0.004c0.066,0,0.131,0,0.193-0.004
				c10.982-0.092,20.001-8.337,21.355-18.973h2.513l5.79-8.492h-8.894C172.453,222.223,171.169,219.678,169.462,217.466z"/>
		</g>
		<rect id="XMLID_16_" x="172.916" y="329.158" style="fill:#102F54;" width="136.368" height="2.537"/>
		<polygon id="XMLID_17_" style="fill:#E6976D;" points="164.354,425.802 159.835,425.802 176.484,331.695 183.382,331.695 		"/>
		<polygon id="XMLID_19_" style="fill:#E6976D;" points="315.003,425.802 319.522,425.802 302.872,331.695 295.975,331.695 		"/>
		<g id="XMLID_28_">
			<polygon id="XMLID_24_" style="fill:#F0F1F5;" points="227.27,321.281 181.02,321.281 172.916,291.169 219.166,291.169 			"/>
			<polygon id="XMLID_26_" style="fill:#CBCED8;" points="227.375,321.281 226,321.281 217.895,291.169 219.27,292.6 			"/>
			<rect id="XMLID_27_" x="181.02" y="321.281" style="fill:#CBCED8;" width="65.75" height="2.486"/>
			<path id="XMLID_29_" style="fill:#CBCED8;" d="M200.931,306.589c0.487,2.625-0.953,5.092-3.216,5.512
				c-2.263,0.419-4.491-1.368-4.978-3.993c-0.487-2.625,0.953-5.092,3.216-5.512C198.216,302.177,200.445,303.964,200.931,306.589z"
				/>
		</g>
		<g id="XMLID_139_">
			<polygon id="XMLID_132_" style="fill:#F0F1F3;" points="76.739,416.553 50.182,416.553 46.865,383.497 80.055,383.497 			"/>
			<path id="XMLID_136_" style="fill:#F0F1F3;" d="M80.055,383.497c0-1.832-7.43-3.317-16.595-3.317
				c-9.165,0-16.595,1.485-16.595,3.317c0,1.832,7.43,3.317,16.595,3.317C72.625,386.814,80.055,385.329,80.055,383.497z"/>
			<path id="XMLID_170_" style="fill:#1E2346;" d="M78.042,383.497c0-1.609-6.528-2.914-14.582-2.914
				c-8.053,0-14.582,1.305-14.582,2.914c0,1.609,6.528,2.914,14.582,2.914C71.513,386.411,78.042,385.107,78.042,383.497z"/>
			<path id="XMLID_188_" style="fill:#F0F1F3;" d="M76.739,416.442c0-1.832-5.945-3.317-13.278-3.317s-13.278,1.485-13.278,3.317
				c0,1.832,5.945,3.317,13.278,3.317S76.739,418.274,76.739,416.442z"/>
			<g id="XMLID_186_">
				<g id="XMLID_196_">
					<g id="XMLID_84_">
						<path id="XMLID_86_" style="fill:#26377C;" d="M79.375,372.061c0.097-1.552-0.573-2.689-1.153-3.701
							c-0.577-1.01-1.032-1.882-0.367-2.846c0.345-0.472,1.001-0.932,1.808-1.416c0.805-0.486,1.772-0.986,2.841-1.479
							c2.086-1.035,4.416-2.119,6.149-3.666c0.888-0.758,1.483-1.538,1.952-2.26c0.472-0.72,0.76-1.44,0.942-2.156
							c0.346-1.449,0.355-2.774,0.459-4.04c0.063-0.618,0.473-1.232,1.15-1.761c0.676-0.53,1.573-1.03,2.533-1.523
							c0.974-0.474,2.045-0.891,3.016-1.363c0.966-0.484,1.924-0.883,2.631-1.432c0.395-0.294,0.714-0.656,0.974-1.06
							c0.271-0.385,0.483-0.816,0.649-1.271c0.332-0.909,0.485-1.912,0.553-2.809c0.128-1.702-0.65-3.296-2.17-4.087
							c-0.799-0.417-1.771-0.798-2.812-0.948c-0.52-0.075-1.057-0.093-1.594-0.03c-0.526,0.082-1.049,0.248-1.555,0.515
							c-0.908,0.501-1.897,1.179-2.799,2.049c-0.91,0.859-1.83,1.772-2.678,2.653c-0.835,0.9-1.636,1.719-2.401,2.308
							c-0.765,0.588-1.447,1.003-2.127,0.997c-1.334,0.017-2.865-0.139-4.478,0.349c-0.815,0.234-1.674,0.604-2.573,1.189
							c-0.897,0.587-1.776,1.448-2.704,2.571c-1.823,2.285-2.866,5.208-3.522,7.794c-0.359,1.274-0.592,2.496-0.838,3.523
							c-0.246,1.026-0.518,1.85-0.86,2.408c-0.657,1.132-1.663,1.133-2.882,1.142c-1.215,0.011-2.671,0.007-4.094,1.233
							c-0.563,0.476-0.851,1.244-0.962,2.242c-0.101,1.004,0.026,2.266,0.209,3.684c0.167,1.41,0.504,3.033,0.819,4.767
							c0.281,1.721,0.678,3.611,0.921,5.566c0.175,1.371,1.652,1.857,2.659,0.954c1.458-1.302,2.894-2.343,4.354-3.149
							c1.424-0.821,2.74-1.458,3.935-1.976c1.179-0.525,2.127-0.982,2.833-1.438C78.909,373.145,79.33,372.667,79.375,372.061z"/>
					</g>
				</g>
				<path id="XMLID_194_" style="fill:#FFFFFF;" d="M64.299,384.181c-0.196-0.056-0.298-0.279-0.229-0.498
					c0,0,0.271-0.853,0.744-2.346c0.219-0.752,0.551-1.643,0.941-2.662c0.384-1.021,0.799-2.18,1.36-3.4
					c2.112-4.925,5.504-11.293,9.936-16.926c2.139-2.872,4.587-5.493,6.918-7.903c2.407-2.336,4.739-4.431,6.866-6.069
					c2.089-1.688,3.968-2.908,5.243-3.816c1.329-0.829,2.088-1.302,2.088-1.302c0.195-0.121,0.438-0.078,0.544,0.096
					c0.106,0.174,0.035,0.413-0.157,0.533c0,0-0.752,0.469-2.068,1.289c-1.262,0.9-3.123,2.107-5.192,3.78
					c-2.107,1.622-4.417,3.698-6.802,6.012c-2.308,2.388-4.735,4.984-6.854,7.83c-4.391,5.581-7.751,11.889-9.842,16.767
					c-0.556,1.208-0.966,2.356-1.347,3.367c-0.386,1.009-0.715,1.891-0.932,2.636c-0.469,1.478-0.737,2.322-0.737,2.322
					C64.71,384.107,64.495,384.237,64.299,384.181z"/>
			</g>
			<g id="XMLID_173_">
				<g id="XMLID_214_">
					<path id="XMLID_215_" style="fill:#86D4D4;" d="M68.19,365.999c-1.046-1.372-2.441-1.638-3.599-1.869
						c-1.163-0.23-2.122-0.409-2.455-1.53c-0.182-0.556-0.227-1.337-0.198-2.297c0.031-0.961,0.121-2.098,0.102-3.308
						c0.032-2.441-0.234-5.277-1.404-7.656c-0.605-1.173-1.229-2.098-1.934-2.771c-0.708-0.672-1.429-1.137-2.139-1.468
						c-1.4-0.677-2.869-0.739-4.109-0.927c-0.636-0.083-1.173-0.555-1.748-1.198c-0.574-0.644-1.131-1.508-1.702-2.452
						c-0.588-0.928-1.238-1.897-1.893-2.815c-0.322-0.464-0.676-0.885-1.043-1.26c-0.363-0.379-0.732-0.72-1.104-1.003
						c-0.41-0.311-0.858-0.527-1.324-0.663c-0.481-0.118-0.978-0.16-1.469-0.143c-0.984,0.032-1.947,0.296-2.757,0.615
						c-1.54,0.604-2.554,2.059-2.794,3.689c-0.125,0.859-0.2,1.823-0.1,2.711c0.05,0.444,0.145,0.869,0.302,1.254
						c0.143,0.403,0.347,0.771,0.634,1.082c0.261,0.282,0.573,0.548,0.922,0.804c0.356,0.247,0.73,0.506,1.113,0.772
						c0.765,0.531,1.636,1.02,2.408,1.556c0.754,0.552,1.451,1.106,1.941,1.664c0.49,0.557,0.715,1.164,0.62,1.734
						c-0.218,1.165-0.543,2.366-0.597,3.706c-0.016,0.662,0.061,1.339,0.307,2.032c0.244,0.696,0.587,1.454,1.208,2.228
						c1.193,1.569,3.075,2.813,4.759,4.012c0.873,0.581,1.65,1.159,2.281,1.704c0.632,0.543,1.131,1.046,1.331,1.511
						c0.372,0.942-0.294,1.624-1.114,2.397c-0.824,0.775-1.769,1.637-2.103,2.96c-0.123,0.517,0.14,0.991,0.69,1.5
						c0.538,0.511,1.306,1.068,2.281,1.732c0.993,0.661,2.066,1.451,3.207,2.425c1.178,0.969,2.274,2.139,3.337,3.541
						c0.736,0.976,2.292,0.921,2.816-0.221c0.748-1.639,1.632-3.197,2.364-4.64c0.771-1.448,1.532-2.802,2.077-4.009
						c0.563-1.21,1.03-2.302,1.206-3.212C68.676,367.275,68.607,366.534,68.19,365.999z"/>
				</g>
				<path id="XMLID_195_" style="fill:#FFFFFF;" d="M61.676,384.305c-0.204,0.001-0.375-0.16-0.382-0.359
					c0,0-0.028-0.778-0.077-2.139c-0.006-0.682-0.083-1.506-0.181-2.45c-0.092-0.945-0.175-2.013-0.383-3.163
					c-0.691-4.61-2.225-10.717-4.924-16.348c-1.263-2.852-2.879-5.527-4.435-7.996c-1.646-2.412-3.283-4.598-4.84-6.341
					c-1.51-1.786-2.938-3.114-3.888-4.091c-1.017-0.907-1.598-1.425-1.598-1.425c-0.149-0.133-0.161-0.365-0.028-0.519
					c0.133-0.154,0.364-0.17,0.515-0.035c0,0,0.588,0.525,1.618,1.444c0.962,0.989,2.408,2.335,3.937,4.142
					c1.576,1.765,3.233,3.977,4.899,6.419c1.576,2.498,3.211,5.206,4.489,8.092c2.731,5.698,4.285,11.88,4.985,16.548
					c0.211,1.165,0.295,2.247,0.388,3.204c0.1,0.956,0.177,1.791,0.183,2.482c0.05,1.38,0.078,2.168,0.078,2.168
					C62.039,384.139,61.88,384.304,61.676,384.305z"/>
			</g>
			<g id="XMLID_177_">
				<g id="XMLID_199_">
					<g id="XMLID_80_">
						<path id="XMLID_81_" style="fill:#F3CE87;" d="M71.163,363.567c-0.617-1.681-1.724-2.493-2.697-3.22
							c-0.969-0.726-1.768-1.371-1.607-2.728c0.098-0.676,0.482-1.511,0.991-2.459c0.506-0.949,1.152-2.007,1.9-3.121
							c1.422-2.247,3.058-4.711,3.964-7.304c0.481-1.292,0.681-2.433,0.797-3.438c0.119-1.003,0.069-1.896-0.077-2.717
							c-0.319-1.65-0.886-2.961-1.349-4.265c-0.213-0.644-0.108-1.491,0.287-2.413c0.394-0.923,1.007-1.949,1.681-3.009
							c0.698-1.05,1.517-2.104,2.218-3.154c0.352-0.525,0.696-1.038,1.024-1.529c0.319-0.496,0.598-0.983,0.818-1.459
							c0.242-0.524,0.381-1.065,0.447-1.609c0.086-0.532,0.093-1.07,0.047-1.601c-0.093-1.061-0.4-2.096-0.742-2.975
							c-0.65-1.669-2.115-2.668-3.903-2.485c-0.941,0.095-2.025,0.325-3.066,0.806c-0.52,0.24-1.03,0.543-1.503,0.92
							c-0.452,0.389-0.864,0.855-1.212,1.404c-0.316,0.499-0.614,1.06-0.898,1.66c-0.289,0.598-0.553,1.24-0.773,1.918
							c-0.453,1.348-0.895,2.751-1.282,4.087c-0.365,1.347-0.736,2.6-1.176,3.61c-0.441,1.01-0.878,1.807-1.504,2.195
							c-1.213,0.789-2.685,1.517-3.933,2.908c-0.637,0.691-1.252,1.535-1.808,2.61c-0.552,1.075-0.96,2.405-1.298,4.018
							c-0.625,3.246-0.255,6.692,0.316,9.619c0.246,1.461,0.587,2.806,0.829,3.966c0.24,1.16,0.366,2.134,0.31,2.88
							c-0.077,1.493-0.975,2.036-2.06,2.695c-1.08,0.659-2.384,1.427-3.094,3.4c-0.286,0.772-0.194,1.691,0.16,2.752
							c0.367,1.062,1.056,2.267,1.866,3.609c0.79,1.342,1.835,2.819,2.911,4.432c1.037,1.617,2.266,3.36,3.388,5.262
							c0.79,1.331,2.33,1.11,2.805-0.336c0.691-2.087,1.481-3.907,2.408-5.505c0.887-1.596,1.761-2.956,2.59-4.135
							c0.81-1.178,1.443-2.171,1.866-3.033C71.237,364.961,71.397,364.227,71.163,363.567z"/>
					</g>
				</g>
				<path id="XMLID_197_" style="fill:#FFFFFF;" d="M63.354,384.058c-0.201,0.036-0.396-0.146-0.436-0.408
					c0,0-0.158-1.02-0.434-2.804c-0.064-0.447-0.158-0.938-0.216-1.479c-0.057-0.541-0.119-1.126-0.185-1.752
					c-0.132-1.251-0.302-2.66-0.362-4.207c-0.39-6.169-0.264-14.48,1.217-22.61c0.639-4.08,1.7-8.077,2.752-11.797
					c1.162-3.69,2.37-7.097,3.608-9.934c1.176-2.865,2.382-5.149,3.161-6.778c0.87-1.582,1.367-2.486,1.367-2.486
					c0.127-0.232,0.375-0.338,0.552-0.238c0.177,0.1,0.219,0.368,0.092,0.597c0,0-0.493,0.897-1.357,2.467
					c-0.772,1.617-1.969,3.882-3.136,6.726c-1.229,2.816-2.428,6.197-3.581,9.859c-1.043,3.693-2.097,7.66-2.731,11.709
					c-1.471,8.07-1.595,16.318-1.208,22.439c0.059,1.536,0.229,2.934,0.36,4.175c0.066,0.62,0.127,1.201,0.183,1.738
					c0.058,0.537,0.152,1.024,0.215,1.468c0.274,1.77,0.431,2.782,0.431,2.782C63.685,383.782,63.554,384.022,63.354,384.058z"/>
			</g>
		</g>
		<g id="XMLID_189_">
			<polygon id="XMLID_243_" style="fill:#F0F1F3;" points="436.738,416.553 410.182,416.553 406.865,383.497 440.055,383.497 			"/>
			<path id="XMLID_240_" style="fill:#F0F1F3;" d="M440.055,383.497c0-1.832-7.43-3.317-16.595-3.317
				c-9.165,0-16.595,1.485-16.595,3.317c0,1.832,7.43,3.317,16.595,3.317C432.625,386.814,440.055,385.329,440.055,383.497z"/>
			<path id="XMLID_239_" style="fill:#1E2346;" d="M438.042,383.497c0-1.609-6.528-2.914-14.582-2.914
				c-8.053,0-14.581,1.305-14.581,2.914c0,1.609,6.528,2.914,14.581,2.914C431.513,386.411,438.042,385.107,438.042,383.497z"/>
			<path id="XMLID_236_" style="fill:#F0F1F3;" d="M436.738,416.442c0-1.832-5.945-3.317-13.278-3.317
				c-7.333,0-13.278,1.485-13.278,3.317c0,1.832,5.945,3.317,13.278,3.317C430.794,419.759,436.738,418.274,436.738,416.442z"/>
			<g id="XMLID_223_">
				<g id="XMLID_227_">
					<g id="XMLID_70_">
						<path id="XMLID_73_" style="fill:#26377C;" d="M439.375,372.061c0.097-1.552-0.573-2.689-1.153-3.701
							c-0.577-1.01-1.032-1.882-0.367-2.846c0.345-0.472,1.001-0.932,1.808-1.416c0.805-0.486,1.772-0.986,2.841-1.479
							c2.086-1.035,4.416-2.119,6.15-3.666c0.888-0.758,1.483-1.538,1.952-2.26c0.472-0.72,0.76-1.44,0.942-2.156
							c0.346-1.449,0.355-2.774,0.459-4.04c0.063-0.618,0.473-1.232,1.15-1.761c0.676-0.53,1.573-1.03,2.533-1.523
							c0.974-0.474,2.045-0.891,3.016-1.363c0.966-0.484,1.924-0.883,2.631-1.432c0.395-0.294,0.714-0.656,0.974-1.06
							c0.271-0.385,0.483-0.816,0.649-1.271c0.332-0.909,0.485-1.912,0.553-2.809c0.128-1.702-0.65-3.296-2.17-4.087
							c-0.799-0.417-1.771-0.798-2.812-0.948c-0.52-0.075-1.057-0.093-1.594-0.03c-0.526,0.082-1.049,0.248-1.555,0.515
							c-0.908,0.501-1.897,1.179-2.799,2.049c-0.91,0.859-1.83,1.772-2.678,2.653c-0.835,0.9-1.637,1.719-2.401,2.308
							c-0.765,0.588-1.447,1.003-2.127,0.997c-1.334,0.017-2.865-0.139-4.478,0.349c-0.815,0.234-1.674,0.604-2.573,1.189
							c-0.897,0.587-1.776,1.448-2.704,2.571c-1.823,2.285-2.866,5.208-3.522,7.794c-0.359,1.274-0.592,2.496-0.837,3.523
							c-0.246,1.026-0.518,1.85-0.86,2.408c-0.657,1.132-1.663,1.133-2.882,1.142c-1.215,0.011-2.671,0.007-4.094,1.233
							c-0.563,0.476-0.851,1.244-0.962,2.242c-0.1,1.004,0.026,2.266,0.21,3.684c0.167,1.41,0.504,3.033,0.819,4.767
							c0.281,1.721,0.678,3.611,0.921,5.566c0.175,1.371,1.652,1.857,2.659,0.954c1.458-1.302,2.894-2.343,4.354-3.149
							c1.424-0.821,2.74-1.458,3.935-1.976c1.179-0.525,2.127-0.982,2.833-1.438C438.908,373.145,439.33,372.667,439.375,372.061z"
							/>
					</g>
				</g>
				<path id="XMLID_226_" style="fill:#FFFFFF;" d="M424.299,384.181c-0.196-0.056-0.298-0.279-0.229-0.498
					c0,0,0.271-0.853,0.744-2.346c0.219-0.752,0.551-1.643,0.941-2.662c0.384-1.021,0.798-2.18,1.36-3.4
					c2.112-4.925,5.504-11.293,9.936-16.926c2.139-2.872,4.587-5.493,6.918-7.903c2.407-2.336,4.739-4.431,6.866-6.069
					c2.089-1.688,3.968-2.908,5.243-3.816c1.329-0.829,2.088-1.302,2.088-1.302c0.195-0.121,0.438-0.078,0.544,0.096
					c0.106,0.174,0.035,0.413-0.157,0.533c0,0-0.752,0.469-2.068,1.289c-1.262,0.9-3.123,2.107-5.192,3.78
					c-2.107,1.622-4.417,3.698-6.802,6.012c-2.308,2.388-4.735,4.984-6.854,7.83c-4.391,5.581-7.751,11.889-9.842,16.767
					c-0.556,1.208-0.966,2.356-1.347,3.367c-0.386,1.009-0.715,1.891-0.932,2.636c-0.469,1.478-0.737,2.322-0.737,2.322
					C424.71,384.107,424.495,384.237,424.299,384.181z"/>
			</g>
			<g id="XMLID_219_">
				<g id="XMLID_221_">
					<path id="XMLID_222_" style="fill:#86D4D4;" d="M428.19,365.999c-1.046-1.372-2.441-1.638-3.599-1.869
						c-1.163-0.23-2.122-0.409-2.455-1.53c-0.182-0.556-0.227-1.337-0.198-2.297c0.031-0.961,0.121-2.098,0.102-3.308
						c0.032-2.441-0.234-5.277-1.404-7.656c-0.605-1.173-1.229-2.098-1.934-2.771c-0.708-0.672-1.429-1.137-2.139-1.468
						c-1.4-0.677-2.869-0.739-4.109-0.927c-0.636-0.083-1.173-0.555-1.748-1.198c-0.574-0.644-1.131-1.508-1.702-2.452
						c-0.588-0.928-1.238-1.897-1.893-2.815c-0.322-0.464-0.676-0.885-1.043-1.26c-0.363-0.379-0.732-0.72-1.104-1.003
						c-0.41-0.311-0.858-0.527-1.324-0.663c-0.481-0.118-0.978-0.16-1.469-0.143c-0.984,0.032-1.947,0.296-2.757,0.615
						c-1.54,0.604-2.554,2.059-2.793,3.689c-0.125,0.859-0.2,1.823-0.1,2.711c0.05,0.444,0.145,0.869,0.302,1.254
						c0.143,0.403,0.347,0.771,0.634,1.082c0.261,0.282,0.573,0.548,0.922,0.804c0.356,0.247,0.73,0.506,1.113,0.772
						c0.765,0.531,1.636,1.02,2.408,1.556c0.754,0.552,1.451,1.106,1.941,1.664c0.49,0.557,0.715,1.164,0.62,1.734
						c-0.218,1.165-0.543,2.366-0.597,3.706c-0.016,0.662,0.061,1.339,0.307,2.032c0.244,0.696,0.587,1.454,1.208,2.228
						c1.194,1.569,3.075,2.813,4.759,4.012c0.873,0.581,1.65,1.159,2.281,1.704c0.632,0.543,1.131,1.046,1.331,1.511
						c0.372,0.942-0.294,1.624-1.114,2.397c-0.824,0.775-1.769,1.637-2.104,2.96c-0.123,0.517,0.14,0.991,0.69,1.5
						c0.538,0.511,1.307,1.068,2.281,1.732c0.992,0.661,2.066,1.451,3.207,2.425c1.178,0.969,2.274,2.139,3.337,3.541
						c0.736,0.976,2.292,0.921,2.816-0.221c0.748-1.639,1.632-3.197,2.364-4.64c0.771-1.448,1.532-2.802,2.077-4.009
						c0.563-1.21,1.03-2.302,1.206-3.212C428.676,367.275,428.607,366.534,428.19,365.999z"/>
				</g>
				<path id="XMLID_220_" style="fill:#FFFFFF;" d="M421.676,384.305c-0.204,0.001-0.375-0.16-0.382-0.359
					c0,0-0.028-0.778-0.077-2.139c-0.006-0.682-0.083-1.506-0.181-2.45c-0.092-0.945-0.175-2.013-0.383-3.163
					c-0.691-4.61-2.225-10.717-4.924-16.348c-1.263-2.852-2.879-5.527-4.435-7.996c-1.646-2.412-3.283-4.598-4.84-6.341
					c-1.51-1.786-2.938-3.114-3.888-4.091c-1.017-0.907-1.598-1.425-1.598-1.425c-0.149-0.133-0.161-0.365-0.028-0.519
					c0.133-0.154,0.364-0.17,0.515-0.035c0,0,0.588,0.525,1.618,1.444c0.962,0.989,2.408,2.335,3.937,4.142
					c1.576,1.765,3.233,3.977,4.899,6.419c1.576,2.498,3.211,5.206,4.489,8.092c2.731,5.698,4.285,11.88,4.984,16.548
					c0.211,1.165,0.295,2.247,0.388,3.204c0.099,0.956,0.177,1.791,0.183,2.482c0.05,1.38,0.078,2.168,0.078,2.168
					C422.039,384.139,421.879,384.304,421.676,384.305z"/>
			</g>
			<g id="XMLID_190_">
				<g id="XMLID_202_">
					<g id="XMLID_60_">
						<path id="XMLID_62_" style="fill:#F3CE87;" d="M431.163,363.567c-0.617-1.681-1.724-2.493-2.697-3.22
							c-0.969-0.726-1.768-1.371-1.607-2.728c0.098-0.676,0.482-1.511,0.991-2.459c0.506-0.949,1.152-2.007,1.9-3.121
							c1.422-2.247,3.059-4.711,3.964-7.304c0.481-1.292,0.681-2.433,0.797-3.438c0.119-1.003,0.069-1.896-0.077-2.717
							c-0.319-1.65-0.886-2.961-1.349-4.265c-0.213-0.644-0.108-1.491,0.287-2.413c0.394-0.923,1.007-1.949,1.681-3.009
							c0.698-1.05,1.517-2.104,2.218-3.154c0.352-0.525,0.696-1.038,1.024-1.529c0.319-0.496,0.598-0.983,0.818-1.459
							c0.242-0.524,0.381-1.065,0.447-1.609c0.086-0.532,0.094-1.07,0.047-1.601c-0.093-1.061-0.4-2.096-0.742-2.975
							c-0.65-1.669-2.115-2.668-3.903-2.485c-0.941,0.095-2.025,0.325-3.066,0.806c-0.52,0.24-1.03,0.543-1.503,0.92
							c-0.452,0.389-0.863,0.855-1.212,1.404c-0.316,0.499-0.614,1.06-0.898,1.66c-0.289,0.598-0.553,1.24-0.773,1.918
							c-0.453,1.348-0.895,2.751-1.282,4.087c-0.365,1.347-0.736,2.6-1.176,3.61c-0.441,1.01-0.878,1.807-1.504,2.195
							c-1.213,0.789-2.685,1.517-3.933,2.908c-0.637,0.691-1.252,1.535-1.808,2.61c-0.552,1.075-0.96,2.405-1.298,4.018
							c-0.625,3.246-0.255,6.692,0.316,9.619c0.246,1.461,0.587,2.806,0.829,3.966c0.24,1.16,0.366,2.134,0.31,2.88
							c-0.077,1.493-0.975,2.036-2.06,2.695c-1.08,0.659-2.384,1.427-3.094,3.4c-0.286,0.772-0.194,1.691,0.16,2.752
							c0.367,1.062,1.057,2.267,1.866,3.609c0.79,1.342,1.835,2.819,2.911,4.432c1.037,1.617,2.266,3.36,3.387,5.262
							c0.79,1.331,2.33,1.11,2.805-0.336c0.691-2.087,1.481-3.907,2.408-5.505c0.887-1.596,1.761-2.956,2.59-4.135
							c0.81-1.178,1.443-2.171,1.866-3.033C431.236,364.961,431.397,364.227,431.163,363.567z"/>
					</g>
				</g>
				<path id="XMLID_192_" style="fill:#FFFFFF;" d="M423.354,384.058c-0.201,0.036-0.396-0.146-0.436-0.408
					c0,0-0.158-1.02-0.434-2.804c-0.064-0.447-0.158-0.938-0.216-1.479c-0.057-0.541-0.119-1.126-0.185-1.752
					c-0.132-1.251-0.302-2.66-0.362-4.207c-0.39-6.169-0.264-14.48,1.217-22.61c0.639-4.08,1.7-8.077,2.752-11.797
					c1.161-3.69,2.37-7.097,3.608-9.934c1.176-2.865,2.382-5.149,3.161-6.778c0.87-1.582,1.367-2.486,1.367-2.486
					c0.127-0.232,0.375-0.338,0.552-0.238c0.177,0.1,0.219,0.368,0.092,0.597c0,0-0.493,0.897-1.357,2.467
					c-0.772,1.617-1.969,3.882-3.136,6.726c-1.229,2.816-2.428,6.197-3.581,9.859c-1.043,3.693-2.097,7.66-2.731,11.709
					c-1.471,8.07-1.595,16.318-1.208,22.439c0.059,1.536,0.229,2.934,0.359,4.175c0.065,0.62,0.127,1.201,0.183,1.738
					c0.058,0.537,0.152,1.024,0.215,1.468c0.274,1.77,0.431,2.782,0.431,2.782C423.684,383.782,423.554,384.022,423.354,384.058z"/>
			</g>
		</g>
	</g>
</g>
<g id="DESIGNED_BY_FREEPIK">
	<g id="XMLID_3044_">
		<g id="XMLID_3073_">
			<g id="XMLID_3092_">
				<path id="XMLID_3100_" style="fill:#1D262D;" d="M260.104,465.465c-0.432,0.443-0.803,0.931-1.108,1.453l-0.465-0.241
					c-0.067-0.298-0.349-0.503-0.659-0.466c-0.331,0.039-0.568,0.339-0.529,0.67c0.039,0.331,0.339,0.568,0.67,0.529
					c0.066-0.008,0.127-0.026,0.184-0.052l0.451,0.234c-0.251,0.554-0.433,1.139-0.539,1.744l0.747,0.132
					c0.23-1.306,0.85-2.507,1.792-3.473L260.104,465.465z"/>
				<path id="XMLID_3099_" style="fill:#1D262D;" d="M265.592,463.163c-0.171,0-0.341,0.006-0.51,0.017l-0.074-0.626
					c0.188-0.149,0.296-0.389,0.266-0.645c-0.046-0.393-0.402-0.674-0.795-0.628c-0.393,0.046-0.674,0.402-0.628,0.795
					c0.03,0.254,0.189,0.461,0.404,0.564l0.074,0.624c-0.714,0.116-1.403,0.332-2.06,0.646l0.327,0.684
					c0.934-0.447,1.942-0.673,2.995-0.673c0.496,0,0.993,0.053,1.475,0.158l0.161-0.741
					C266.692,463.222,266.142,463.163,265.592,463.163z"/>
				<path id="XMLID_3098_" style="fill:#1D262D;" d="M272.194,465.711c0.331-0.04,0.566-0.341,0.526-0.672
					c-0.04-0.331-0.341-0.566-0.672-0.526c-0.309,0.038-0.535,0.304-0.53,0.609l-0.416,0.363c-0.418-0.43-0.889-0.813-1.408-1.139
					l-0.404,0.641c1.134,0.715,2.021,1.726,2.563,2.925l0.69-0.313c-0.251-0.554-0.567-1.072-0.942-1.545l0.402-0.351
					C272.065,465.716,272.129,465.719,272.194,465.711z"/>
				<path id="XMLID_3097_" style="fill:#1D262D;" d="M265.044,473.372c-0.386,0.023-0.775,0.035-1.157,0.035
					c-0.88,0-1.733-0.061-2.478-0.179c-0.39-0.062-0.846-0.155-1.27-0.292c1.046,1.861,3.069,3.125,5.388,3.125
					c2.855,0,5.262-1.916,5.95-4.504c-0.682,0.449-1.505,0.825-2.459,1.123C267.839,473.047,266.463,473.286,265.044,473.372z"/>
				<path id="XMLID_3093_" style="fill:#1D262D;" d="M265.592,464.68c-3.352,0-6.08,2.666-6.08,5.943
					c0,0.426,0.046,0.849,0.137,1.261c0.673,0.483,2.706,0.89,5.348,0.731c2.879-0.173,5.297-0.957,6.672-2.159
					c-0.006-0.195-0.021-0.39-0.045-0.582C271.244,466.913,268.65,464.68,265.592,464.68z M263.432,471.194
					c-1.02,0-1.85-0.83-1.85-1.85c0-1.02,0.83-1.85,1.85-1.85c1.02,0,1.85,0.83,1.85,1.85
					C265.282,470.365,264.452,471.194,263.432,471.194z M268.17,470.286c-0.75,0-1.36-0.61-1.36-1.36s0.61-1.361,1.36-1.361
					c0.75,0,1.361,0.61,1.361,1.361S268.92,470.286,268.17,470.286z"/>
			</g>
			<path id="XMLID_3090_" style="fill:#1D262D;" d="M281.595,466.547c-0.295-0.116-0.805-0.309-1.382-0.237
				c-0.551,0.069-0.844,0.341-0.844,1.007v0.866h2.228v1.717h-2.228v5.455h-1.932v-5.455h-1.34v-1.717h1.34v-0.888
				c0-1.68,0.896-2.783,2.568-2.783c0.643,0,1.157,0.122,1.59,0.308L281.595,466.547z"/>
			<path id="XMLID_3088_" style="fill:#1D262D;" d="M286.298,469.879c-0.177-0.03-0.358-0.046-0.526-0.046
				c-0.896,0-1.51,0.548-1.51,1.614v3.908h-1.932v-7.172h1.873v0.785c0.451-0.673,1.14-0.977,2.021-0.977
				c0.414,0,0.848,0.128,1.094,0.337L286.298,469.879z"/>
			<path id="XMLID_3085_" style="fill:#1D262D;" d="M293.965,471.757c0,0.222-0.015,0.489-0.037,0.651h-5.085
				c0.207,1.036,0.933,1.488,1.843,1.488c0.622,0,1.295-0.252,1.813-0.688l1.133,1.243c-0.814,0.748-1.85,1.088-3.057,1.088
				c-2.198,0-3.723-1.495-3.723-3.753c0-2.258,1.48-3.797,3.627-3.797C292.544,467.99,293.958,469.522,293.965,471.757z
				 M288.851,471.091h3.175c-0.177-0.918-0.733-1.436-1.562-1.436C289.554,469.655,289.021,470.203,288.851,471.091z"/>
			<path id="XMLID_3082_" style="fill:#1D262D;" d="M301.618,471.757c0,0.222-0.015,0.489-0.037,0.651h-5.085
				c0.207,1.036,0.933,1.488,1.843,1.488c0.622,0,1.295-0.252,1.814-0.688l1.132,1.243c-0.814,0.748-1.85,1.088-3.057,1.088
				c-2.198,0-3.723-1.495-3.723-3.753c0-2.258,1.48-3.797,3.627-3.797C300.197,467.99,301.611,469.522,301.618,471.757z
				 M296.504,471.091h3.175c-0.178-0.918-0.733-1.436-1.562-1.436C297.207,469.655,296.674,470.203,296.504,471.091z"/>
			<path id="XMLID_3079_" style="fill:#1D262D;" d="M309.964,471.764c0,2.154-1.495,3.775-3.471,3.775
				c-0.962,0-1.643-0.378-2.109-0.933v3.708h-1.924v-10.133h1.887v0.792c0.466-0.585,1.155-0.984,2.139-0.984
				C308.469,467.99,309.964,469.61,309.964,471.764z M304.287,471.764c0,1.132,0.748,1.976,1.843,1.976
				c1.14,0,1.85-0.881,1.85-1.976c0-1.095-0.71-1.976-1.85-1.976C305.035,469.788,304.287,470.632,304.287,471.764z"/>
			<path id="XMLID_3076_" style="fill:#1D262D;" d="M313.068,465.836c0,0.696-0.54,1.229-1.236,1.229
				c-0.696,0-1.229-0.533-1.229-1.229c0-0.696,0.533-1.243,1.229-1.243C312.527,464.592,313.068,465.14,313.068,465.836z
				 M312.809,475.354h-1.932v-7.172h1.932V475.354z"/>
			<path id="XMLID_3074_" style="fill:#1D262D;" d="M316.032,470.736l2.701-2.554h2.368l-3.479,3.375l3.501,3.797h-2.376
				l-2.716-2.901v2.901H314.1v-10.658h1.932V470.736z"/>
		</g>
		<g id="XMLID_3045_">
			<path id="XMLID_3070_" style="fill:#1D262D;" d="M184.412,475.289v-1.055c-0.527,0.718-1.391,1.23-2.387,1.23
				c-1.846,0-3.149-1.406-3.149-3.706c0-2.256,1.289-3.721,3.149-3.721c0.952,0,1.816,0.469,2.387,1.245v-3.765h1.099v9.77H184.412z
				 M184.412,473.37v-3.208c-0.395-0.615-1.245-1.143-2.124-1.143c-1.421,0-2.27,1.172-2.27,2.739c0,1.567,0.85,2.724,2.27,2.724
				C183.168,474.483,184.017,473.986,184.412,473.37z"/>
			<path id="XMLID_3067_" style="fill:#1D262D;" d="M186.932,471.744c0-2.051,1.465-3.706,3.486-3.706
				c2.139,0,3.398,1.67,3.398,3.794v0.279h-5.727c0.088,1.333,1.025,2.446,2.549,2.446c0.805,0,1.626-0.322,2.182-0.894l0.527,0.718
				c-0.703,0.703-1.655,1.084-2.812,1.084C188.44,475.465,186.932,473.956,186.932,471.744z M190.403,468.947
				c-1.509,0-2.256,1.274-2.314,2.358h4.643C192.718,470.25,192.015,468.947,190.403,468.947z"/>
			<path id="XMLID_3065_" style="fill:#1D262D;" d="M194.607,474.351l0.571-0.791c0.469,0.542,1.362,1.011,2.329,1.011
				c1.084,0,1.67-0.513,1.67-1.216c0-1.714-4.38-0.659-4.38-3.281c0-1.098,0.952-2.036,2.636-2.036c1.201,0,2.051,0.454,2.622,1.026
				l-0.513,0.762c-0.424-0.513-1.201-0.894-2.109-0.894c-0.967,0-1.567,0.483-1.567,1.113c0,1.552,4.38,0.527,4.38,3.281
				c0,1.187-0.952,2.138-2.783,2.138C196.306,475.465,195.325,475.113,194.607,474.351z"/>
			<path id="XMLID_3062_" style="fill:#1D262D;" d="M201.477,466.471c0-0.41,0.337-0.747,0.732-0.747
				c0.41,0,0.747,0.337,0.747,0.747c0,0.41-0.337,0.732-0.747,0.732C201.814,467.203,201.477,466.881,201.477,466.471z
				 M201.667,475.289v-7.075h1.099v7.075H201.667z"/>
			<path id="XMLID_3059_" style="fill:#1D262D;" d="M204.582,477.105l0.556-0.82c0.586,0.703,1.289,0.967,2.3,0.967
				c1.172,0,2.27-0.571,2.27-2.124v-1.011c-0.513,0.718-1.377,1.26-2.373,1.26c-1.845,0-3.149-1.377-3.149-3.662
				c0-2.27,1.289-3.677,3.149-3.677c0.952,0,1.802,0.469,2.373,1.245v-1.069h1.098v6.87c0,2.344-1.641,3.076-3.369,3.076
				C206.237,478.16,205.417,477.926,204.582,477.105z M209.709,473.253v-3.091c-0.381-0.615-1.23-1.143-2.109-1.143
				c-1.421,0-2.27,1.128-2.27,2.695c0,1.553,0.849,2.695,2.27,2.695C208.478,474.41,209.328,473.868,209.709,473.253z"/>
			<path id="XMLID_3057_" style="fill:#1D262D;" d="M217.413,475.289v-4.629c0-1.245-0.63-1.641-1.582-1.641
				c-0.865,0-1.685,0.527-2.095,1.099v5.17h-1.099v-7.075h1.099v1.025c0.498-0.586,1.464-1.201,2.519-1.201
				c1.48,0,2.256,0.747,2.256,2.285v4.966H217.413z"/>
			<path id="XMLID_3054_" style="fill:#1D262D;" d="M219.932,471.744c0-2.051,1.465-3.706,3.486-3.706
				c2.139,0,3.398,1.67,3.398,3.794v0.279h-5.727c0.088,1.333,1.025,2.446,2.549,2.446c0.806,0,1.626-0.322,2.183-0.894l0.527,0.718
				c-0.703,0.703-1.655,1.084-2.812,1.084C221.441,475.465,219.932,473.956,219.932,471.744z M223.404,468.947
				c-1.509,0-2.256,1.274-2.314,2.358h4.643C225.718,470.25,225.015,468.947,223.404,468.947z"/>
			<path id="XMLID_3051_" style="fill:#1D262D;" d="M233.35,475.289v-1.055c-0.527,0.718-1.392,1.23-2.388,1.23
				c-1.846,0-3.149-1.406-3.149-3.706c0-2.256,1.289-3.721,3.149-3.721c0.952,0,1.817,0.469,2.388,1.245v-3.765h1.098v9.77H233.35z
				 M233.35,473.37v-3.208c-0.396-0.615-1.245-1.143-2.124-1.143c-1.421,0-2.27,1.172-2.27,2.739c0,1.567,0.849,2.724,2.27,2.724
				C232.105,474.483,232.954,473.986,233.35,473.37z"/>
			<path id="XMLID_3048_" style="fill:#1D262D;" d="M239.692,475.289v-9.77h1.098v3.765c0.572-0.776,1.421-1.245,2.388-1.245
				c1.845,0,3.149,1.465,3.149,3.721c0,2.299-1.304,3.706-3.149,3.706c-0.996,0-1.86-0.513-2.388-1.23v1.055H239.692z
				 M242.9,474.483c1.436,0,2.285-1.157,2.285-2.724c0-1.568-0.85-2.739-2.285-2.739c-0.864,0-1.728,0.527-2.109,1.143v3.208
				C241.171,473.986,242.036,474.483,242.9,474.483z"/>
			<path id="XMLID_3046_" style="fill:#1D262D;" d="M247.528,477.061c0.161,0.073,0.425,0.117,0.601,0.117
				c0.483,0,0.805-0.161,1.055-0.747l0.469-1.069l-2.959-7.148h1.187l2.358,5.8l2.344-5.8h1.201l-3.545,8.51
				c-0.425,1.025-1.143,1.421-2.08,1.435c-0.234,0-0.601-0.044-0.805-0.103L247.528,477.061z"/>
		</g>
	</g>
</g>
</svg>
