<?xml version="1.0" encoding="utf-8"?>
<!-- Generator: Adobe Illustrator 27.5.0, SVG Export Plug-In . SVG Version: 6.00 Build 0)  -->
<svg version="1.1" xmlns="http://www.w3.org/2000/svg" xmlns:xlink="http://www.w3.org/1999/xlink" x="0px" y="0px"
	 viewBox="0 0 500 500" style="enable-background:new 0 0 500 500;" xml:space="preserve">
<g id="BACKGROUND_2">
	<g>
		<g>
			<defs>
				<rect id="SVGID_1_" x="530.467" width="750" height="500"/>
			</defs>
			<use xlink:href="#SVGID_1_"  style="overflow:visible;fill:#FFFFFF;"/>
			<clipPath id="SVGID_00000008115685075034771200000005643642287775816380_">
				<use xlink:href="#SVGID_1_"  style="overflow:visible;"/>
			</clipPath>
			
				<rect x="467.467" y="-40" style="clip-path:url(#SVGID_00000008115685075034771200000005643642287775816380_);fill:#FFFFFF;" width="879" height="585"/>
		</g>
	</g>
</g>
<g id="BACKGROUND_1">
	<g>
		<g>
			<defs>
				<rect id="SVGID_00000145755141496156510650000000961375901732365980_" width="500" height="500"/>
			</defs>
			<use xlink:href="#SVGID_00000145755141496156510650000000961375901732365980_"  style="overflow:visible;fill:#FFFFFF;"/>
			<clipPath id="SVGID_00000002371184123206653710000008950182555728821405_">
				<use xlink:href="#SVGID_00000145755141496156510650000000961375901732365980_"  style="overflow:visible;"/>
			</clipPath>
			
				<rect x="-42" y="-40" style="clip-path:url(#SVGID_00000002371184123206653710000008950182555728821405_);fill:#FFFFFF;" width="586" height="585"/>
		</g>
	</g>
	<ellipse style="fill:#EAEAEA;" cx="250" cy="240" rx="203.918" ry="201.5"/>
	<g>
		<g>
			<path style="fill:#1E3851;" d="M247.252,56.457c0.432-0.248,1.039-0.215,1.397,0.15c1.451,1.49,2.591,3.243,3.991,4.781
				c0.37,0.46,0.048,1.236-0.502,1.392c-0.491,0.164-1.008,0.226-1.51,0.327c0.257,1.654,0.127,3.328,0.212,4.996
				c0.037,1.341,0.294,2.67,0.237,4.019c-0.085,2.622,0.353,5.225,0.277,7.85c0.008,2.173,0.076,4.347,0.265,6.512
				c0.037,3.003-0.014,6.009,0.265,9.004c0.073,3.291-0.023,6.594,0.282,9.879c0.056,2.817,0.008,5.64,0.121,8.457
				c0.375,4.979,0.031,9.989,0.454,14.968c0.025,4.711,0.006,9.428,0.302,14.13c-0.133,7.508,0.44,15.002,0.296,22.51
				c-0.61-0.237-1.219-0.463-1.835-0.675c-0.395-8.225-0.655-16.453-0.982-24.678c-0.243-2.433-0.085-4.88-0.274-7.316
				c-0.277-3.116-0.085-6.252-0.395-9.365c-0.071-2.899-0.076-5.798-0.308-8.691c-0.003-3.02-0.133-6.037-0.302-9.052
				c0.068-3.957-0.33-7.9-0.302-11.855c-0.003-2.45-0.212-4.892-0.265-7.339c0.065-4.736-0.389-9.459-0.299-14.192
				c0.025-2.958-0.116-5.913-0.133-8.872c-0.757-0.025-1.897,0.212-2.253-0.672c-0.192-1.216,0.246-2.43,0.438-3.627
				C246.668,58.216,246.637,57.191,247.252,56.457z"/>
			<path style="fill:#1E3851;" d="M345.216,131.663c1.457-0.497,3.029-0.83,4.57-0.615c1.533,0.245,2.018,2.106,1.677,3.418
				c-0.268,1.332-0.085,3.24-1.68,3.768c-1.442-0.164-1.75-1.736-2.515-2.704c-5.631,3.302-11.449,6.277-17.238,9.295
				c-7.881,4.073-15.705,8.265-23.603,12.307c-12.372,6.306-24.799,12.501-37.261,18.624c-0.677-0.666-1.366-1.318-2.086-1.934
				c9.529-5.115,19.098-10.15,28.675-15.174c11.217-5.922,22.589-11.544,33.917-17.255c5.346-2.724,10.684-5.479,16.185-7.875
				C345.586,132.919,345.208,132.34,345.216,131.663z"/>
			<path style="fill:#1E3851;" d="M251.568,167.104c0.632,0.251,1.265,0.514,1.888,0.799c0,4.516,0.291,9.035,0.085,13.551
				c3.664-2.179,7.37-4.305,11.155-6.269c0.658,0.595,1.307,1.202,1.95,1.818c-3.963,1.849-7.895,3.768-11.903,5.515
				c-0.629,0.231-1.284,0.596-1.976,0.463c-0.508-0.516-0.373-1.318-0.5-1.97C251.912,176.382,251.839,171.736,251.568,167.104z"/>
			<path style="fill:#F33F38;" d="M235.803,163.169c0.09-1.186,1.646-1.056,2.504-1.056c4.479,0.347,8.931,1.231,13.199,2.645
				c0.615,0.212,1.225,0.438,1.835,0.675c4.993,2.03,9.642,4.889,13.74,8.389c0.72,0.615,1.409,1.267,2.086,1.934
				c4.2,4.124,7.522,9.131,9.761,14.573c0.367,0.926,0.83,1.843,0.94,2.845c0.003,0.59-0.59,0.94-1.118,0.731
				c-0.914-0.454-1.507-1.344-2.007-2.199c-0.906-1.645-1.719-3.342-2.653-4.973c-2.041-3.548-4.505-6.87-7.443-9.73
				c-0.643-0.615-1.293-1.222-1.95-1.818c-3.384-2.933-7.161-5.425-11.24-7.282c-0.624-0.285-1.256-0.548-1.888-0.799
				c-3.362-1.338-6.884-2.238-10.435-2.919c-1.623-0.248-3.257-0.607-4.906-0.488C236.119,163.564,235.908,163.302,235.803,163.169z
				"/>
			<path style="fill:#9AD5C5;" d="M242.891,73.026c1.801-0.423,3.65-0.562,5.487-0.756c-0.09,4.733,0.364,9.456,0.299,14.192
				c0.054,2.447,0.262,4.889,0.265,7.339c-0.028,3.954,0.37,7.898,0.302,11.855c0.169,3.015,0.299,6.032,0.302,9.052
				c0.231,2.893,0.237,5.792,0.308,8.691c0.31,3.113,0.118,6.249,0.395,9.365c0.189,2.436,0.031,4.883,0.274,7.316
				c0.327,8.225,0.587,16.453,0.982,24.678c-4.268-1.414-8.719-2.298-13.199-2.645c-0.858,0-2.413-0.13-2.504,1.056
				c0.104,0.133,0.316,0.395,0.423,0.528c1.648-0.118,3.283,0.24,4.906,0.488c3.551,0.68,7.073,1.581,10.435,2.919
				c0.271,4.632,0.344,9.278,0.7,13.907c0.127,0.652-0.008,1.454,0.5,1.97c0.691,0.133,1.346-0.231,1.976-0.463
				c4.008-1.747,7.94-3.667,11.903-5.515c2.938,2.859,5.402,6.182,7.443,9.73c0.934,1.632,1.747,3.328,2.653,4.973
				c0.5,0.855,1.092,1.744,2.007,2.199c0.528,0.209,1.121-0.141,1.118-0.731c-0.11-1.002-0.573-1.919-0.94-2.845
				c-2.238-5.442-5.561-10.449-9.761-14.573c12.462-6.122,24.89-12.318,37.261-18.624c7.898-4.042,15.722-8.234,23.603-12.307
				c0.313,2.19,0.821,4.35,1.092,6.549c0.494,4.414,1.027,8.835,1.042,13.283c0.268,14.503-2.185,29.09-7.497,42.602
				c-3.624,9.193-8.581,17.884-14.867,25.516c-6.879,8.38-15.423,15.454-25.172,20.247c-11.813,5.865-25.435,8.155-38.481,6.055
				c-11.282-1.685-21.997-6.486-31.105-13.309c-13.213-9.882-23.098-23.803-29.256-39.028c-3.932-9.642-6.373-19.86-7.486-30.205
				c-1.03-11.59-0.644-23.36,1.809-34.761c3.647-17.382,11.536-34.1,23.82-47.053C214.261,83.738,227.951,75.637,242.891,73.026z"/>
			<path style="fill:#CBEAE2;" d="M251.077,72.123c8.894-0.463,17.856,1.013,26.168,4.2c9.54,3.633,18.245,9.38,25.519,16.532
				c12.902,12.501,21.565,28.974,25.96,46.302c0.277,0.754,0.206,1.744,0.948,2.236c-11.327,5.71-22.699,11.333-33.917,17.255
				c-9.577,5.024-19.146,10.06-28.675,15.174c-4.098-3.5-8.747-6.359-13.74-8.389c0.144-7.508-0.429-15.002-0.296-22.51
				c-0.296-4.702-0.277-9.419-0.302-14.13c-0.423-4.979-0.079-9.989-0.454-14.968c-0.113-2.817-0.065-5.64-0.121-8.457
				c-0.305-3.285-0.209-6.588-0.282-9.879c-0.279-2.995-0.229-6.001-0.265-9.004c-0.189-2.165-0.257-4.338-0.265-6.512
				C251.429,77.347,250.992,74.745,251.077,72.123z"/>
			<path style="fill:#CBEAE2;" d="M253.456,167.902c4.079,1.857,7.855,4.35,11.24,7.282c-3.785,1.964-7.491,4.09-11.155,6.269
				C253.747,176.938,253.456,172.419,253.456,167.902z"/>
		</g>
		<g>
			<path style="fill:#1E3851;" d="M285.185,197.353c2.792,1.951,5.261,4.307,7.898,6.45c21.122,17.814,43.076,34.617,65.324,50.999
				c17.898,13.196,35.954,26.169,54.081,39.051c16.281,11.646,32.697,23.109,48.761,35.057c0.483,0.327,0.999,0.711,0.917,1.369
				c-0.982,0.471-2.134,0.404-3.071,0.96c-3.077,1.55-6.201,3.009-9.295,4.525c-2.921,1.403-5.826,2.84-8.759,4.223
				c-3.486,1.708-6.975,3.404-10.466,5.092c-3.362,1.651-6.735,3.274-10.099,4.911c-1.956,0.974-3.952,1.863-5.896,2.851
				c-2.151,1.061-4.341,2.035-6.483,3.111c-2.075,1.025-4.189,1.962-6.261,2.986c-2.139,1.084-4.341,2.044-6.498,3.094
				c-2.34,1.163-4.725,2.224-7.076,3.362c-3.249,1.606-6.574,3.048-9.817,4.663c-3.184,1.524-6.407,2.967-9.586,4.502
				c-5.75,2.712-11.53,5.363-17.289,8.061c-3.489,1.665-6.997,3.288-10.5,4.92c-0.054-0.635-0.093-1.273-0.181-1.9
				c0.44-0.398,0.912-0.872,0.748-1.524c-0.226-1.284-0.042-2.927-1.219-3.785c-0.02-1.152-0.133-2.298-0.296-3.435
				c0.525-0.683,0.635-1.533,0.511-2.362c-0.24-1.936-0.135-3.997-1.126-5.747c-0.33-2.179-0.514-4.398-0.604-6.599
				c0.183-2.58,0.068-5.239-0.742-7.711c-0.288-1.733-0.539-3.511-0.477-5.267c0.418-1.804,0.189-3.669-0.116-5.467
				c-0.048-0.508-0.37-0.909-0.649-1.307c-0.26-1.519-0.195-3.099-0.756-4.553c-1.087,0.071-1.951,0.751-2.814,1.329
				c-1.68,1.092-3.74,1.665-5.117,3.164c-1.2,0.929-2.504,1.733-3.825,2.475c-0.519,0.068-1.056,0.09-1.519,0.353
				c-1.575,0.821-3.105,1.75-4.505,2.845c-0.421,0.251-0.446,0.759-0.579,1.18c-1.019,0.511-1.902,1.248-2.904,1.787
				c-0.898-0.302-1.685,0.325-2.442,0.703c-1.44,0.838-2.93,1.66-4.149,2.806c0.042,0.169,0.133,0.511,0.175,0.68
				c-1.019,0.559-1.959,1.25-2.953,1.852c-1.375-10.24-2.704-20.444-4.062-30.702c-0.24-0.872-0.065-1.818-0.429-2.656
				c-0.09-0.745,0.045-1.541-0.305-2.236c-0.124-0.748,0.09-1.578-0.305-2.261c-0.209-2.755-0.759-5.465-1.039-8.217
				c-0.539-3.667-0.951-7.35-1.513-11.008c-0.031-1.146-0.446-2.238-0.384-3.398c-0.398-0.686-0.192-1.516-0.308-2.264
				c-0.372-0.765-0.175-1.648-0.409-2.447c-0.618-4.64-1.222-9.284-1.843-13.924c-0.288-0.813,0.009-1.736-0.406-2.504
				c-0.824-7.158-1.877-14.302-2.749-21.483c-1.527-12.024-3.003-24.06-4.42-36.096c-0.147-1.995-0.556-3.957-0.579-5.961
				c-0.237-0.322-0.229-0.717-0.223-1.092C286.173,206.323,285.49,201.855,285.185,197.353z"/>
			<path style="fill:#F33F38;" d="M333.348,339.21c0.864-0.579,1.727-1.259,2.814-1.329c0.562,1.454,0.497,3.034,0.756,4.553
				c-0.423,0.248-1.095,0.375-0.954,1.019c0.017,1.965-0.042,3.977,0.525,5.88c0.35,0.514,0.81,0.116,1.194-0.124
				c-0.062,1.756,0.189,3.534,0.477,5.267c-0.415,0.127-1.146-0.009-1.146,0.615c-0.198,1.567-0.02,3.153,0.116,4.719
				c0.093,0.833,0.113,1.708,0.477,2.481c0.342,0.486,0.898,0.054,1.296-0.104c0.09,2.202,0.274,4.42,0.604,6.599
				c-0.229,0.042-0.68,0.133-0.906,0.175c-0.395,1.758,0.099,3.54,0.339,5.284c0.195,0.951,0.181,2.154,1.183,2.65
				c0.164,1.138,0.277,2.284,0.296,3.435c-0.288,0.361-0.759,0.691-0.624,1.225c0.175,1.397,0.392,2.839,1.095,4.084
				c0.087,0.627,0.127,1.264,0.181,1.9c-8.155,3.76-16.286,7.556-24.447,11.299c-1.897,0.759-3.692,1.837-5.696,2.286l-0.158-0.085
				c-0.878-6.049-1.369-12.151-2.171-18.212c-0.94-8.598-2.092-17.176-3.068-25.773c0.994-0.601,1.934-1.293,2.953-1.852
				c1.648-0.632,3.119-1.626,4.64-2.507c0.683-0.446,1.558-0.804,1.776-1.682c1.002-0.539,1.885-1.276,2.904-1.787
				c1.705-0.087,3.085-1.208,4.508-2.029c0.83-0.638,2.165-1.087,2.094-2.349c1.321-0.742,2.625-1.547,3.825-2.475
				c0.299,0.339,0.655,0.423,1.067,0.257c1.592-0.5,3.091-1.253,4.604-1.948c0.714-0.39,1.567-0.714,1.99-1.454
				c0.048-0.502-0.172-0.714-0.658-0.635C334.567,338.665,333.951,338.955,333.348,339.21z"/>
			<path style="fill:#9AD5C5;" d="M333.348,339.21c0.604-0.254,1.219-0.545,1.885-0.615c0.486-0.079,0.706,0.133,0.658,0.635
				c-0.423,0.74-1.276,1.064-1.99,1.454c-1.513,0.694-3.012,1.448-4.604,1.948c-0.412,0.167-0.768,0.082-1.067-0.257
				C329.607,340.875,331.668,340.302,333.348,339.21z"/>
			<path style="fill:#9AD5C5;" d="M335.964,343.452c-0.141-0.644,0.531-0.771,0.954-1.019c0.28,0.398,0.601,0.799,0.649,1.307
				c0.305,1.798,0.534,3.664,0.116,5.467c-0.384,0.24-0.844,0.638-1.194,0.124C335.922,347.429,335.981,345.416,335.964,343.452z"/>
			<path style="fill:#9AD5C5;" d="M322.887,345.202c0.463-0.263,0.999-0.285,1.519-0.353c0.071,1.262-1.265,1.711-2.094,2.349
				c-1.423,0.821-2.803,1.942-4.508,2.029c0.133-0.421,0.158-0.929,0.579-1.18C319.782,346.952,321.312,346.023,322.887,345.202z"/>
			<path style="fill:#9AD5C5;" d="M312.457,351.716c0.757-0.378,1.544-1.005,2.442-0.703c-0.217,0.878-1.092,1.236-1.776,1.682
				c-1.521,0.881-2.992,1.874-4.64,2.507c-0.042-0.169-0.133-0.511-0.175-0.68C309.527,353.376,311.018,352.555,312.457,351.716z"/>
			<path style="fill:#9AD5C5;" d="M337.014,355.09c0-0.624,0.731-0.488,1.146-0.615c0.81,2.473,0.926,5.132,0.742,7.711
				c-0.398,0.158-0.954,0.59-1.296,0.104c-0.364-0.773-0.384-1.648-0.477-2.481C336.994,358.242,336.816,356.656,337.014,355.09z"/>
			<path style="fill:#9AD5C5;" d="M338.6,368.96c0.226-0.042,0.677-0.133,0.906-0.175c0.991,1.75,0.886,3.811,1.126,5.747
				c0.124,0.83,0.014,1.68-0.511,2.362c-1.002-0.497-0.988-1.699-1.183-2.65C338.699,372.499,338.205,370.718,338.6,368.96z"/>
			<path style="fill:#9AD5C5;" d="M339.794,381.554c-0.135-0.534,0.336-0.864,0.624-1.225c1.177,0.858,0.993,2.501,1.219,3.785
				c0.164,0.652-0.308,1.126-0.748,1.524C340.187,384.394,339.969,382.952,339.794,381.554z"/>
		</g>
		<g>
			<g>
				<path style="fill:#7D99B4;" d="M101.182,68.103c2.142-0.48,4.361-0.034,6.512-0.446c1.857-0.192,3.737,0.023,5.592-0.26
					c3.861-0.057,7.728-0.023,11.592-0.025c2.422,0.381,4.892-0.023,7.308,0.421c1.773,0.138,3.568-0.017,5.338,0.203
					c1.417,0.308,2.882,0.102,4.31,0.347c5.922,0.539,11.815,1.248,17.67,2.329c5.451,1.05,10.932,2.281,16.013,4.581
					c2.207,1.095,4.657,2.41,5.611,4.835c0.497,1.852-0.581,3.607-0.562,5.456c-0.025-0.48-0.062-0.96-0.088-1.44
					c-1.716,1.764-3.794,3.201-6.094,4.084c-5.815,2.495-12.036,3.864-18.254,4.914c-6.057,1.098-12.205,1.617-18.344,1.962
					c-8.612,0.598-17.263,0.579-25.889,0.223c-3.684,0.096-7.336-0.415-11.011-0.573c-6.049-0.488-12.084-1.217-18.068-2.25
					c-5.476-1.092-10.988-2.323-16.086-4.657c-1.355-0.672-2.713-1.383-3.847-2.391c-0.658-0.567-1.123-1.338-1.871-1.792
					l-0.11-0.073c-0.296-1.392-0.703-2.868-0.124-4.248c0.813-1.908,2.65-3.094,4.384-4.084c5.448-2.772,11.511-3.977,17.478-5.058
					C88.78,69.141,94.967,68.391,101.182,68.103z"/>
				<path style="fill:#7D99B4;" d="M103.965,141.996c2.633-0.158,5.267-0.373,7.912-0.296c1.335,0.076,2.797-0.257,4.022,0.443
					c-0.071,0.166-0.209,0.5-0.279,0.663c-3.291,0.429-6.619,0.339-9.93,0.353c-1.123-0.017-2.32,0.152-3.328-0.454
					C102.839,142.366,103.342,141.985,103.965,141.996z"/>
				<path style="fill:#7D99B4;" d="M87.162,143.596c3.198-1.304,6.729-1.081,10.099-1.513c0.666-0.172,1.242,0.076,1.561,0.692
					c-3.692,0.948-7.534,0.912-11.282,1.499C87.445,144.105,87.258,143.766,87.162,143.596z"/>
				<path style="fill:#7D99B4;" d="M118.88,142.798c4.866-0.169,9.73,0.102,14.585,0.381c0.07,0.22,0.209,0.661,0.279,0.881
					c-3.415,0.415-6.87,0.209-10.286-0.059c-1.53-0.04-3.051-0.147-4.559-0.37C118.894,143.421,118.883,143.007,118.88,142.798z"/>
				<path style="fill:#7D99B4;" d="M76.228,145.863c2.315-0.993,4.779-1.775,7.322-1.767c-0.071,0.206-0.212,0.618-0.282,0.824
					c-1.835,0.762-3.842,0.993-5.699,1.688c-1.4,0.387-2.741,1.208-4.237,1.047C73.938,146.588,75.189,146.329,76.228,145.863z"/>
				<path style="fill:#7D99B4;" d="M138.274,144.443c0.234-0.178,0.471-0.356,0.714-0.533c1.815,0.141,3.607,0.454,5.4,0.782
					c2.388,0.528,4.878,0.7,7.144,1.694c-0.197,0.342-0.302,0.996-0.844,0.819c-3.613-0.46-7.181-1.202-10.74-1.956
					C139.319,145.14,138.737,144.878,138.274,144.443z"/>
				<path style="fill:#7D99B4;" d="M154.77,146.972c3.54,0.412,7.028,1.27,10.339,2.591c-0.254,1.205-1.524,0.641-2.329,0.48
					c-2.639-0.751-5.36-1.239-7.943-2.179C154.82,147.641,154.787,147.195,154.77,146.972z"/>
				<path style="fill:#7D99B4;" d="M169.213,151.765c0.203-0.33,0.438-0.844,0.926-0.621c1.773,0.604,3.142,1.976,4.519,3.19
					c0.881,0.649,0.017,1.75-0.054,2.594c0.025-0.398,0.054-0.796,0.082-1.191C172.753,154.565,171.067,153.047,169.213,151.765z"/>
			</g>
			<path style="fill:#1E3851;" d="M87.541,144.274c3.748-0.587,7.59-0.55,11.282-1.499c1.171-0.11,2.36-0.144,3.539-0.071
				c1.008,0.607,2.204,0.438,3.328,0.454c3.311-0.014,6.639,0.076,9.93-0.353c1.081-0.11,2.171-0.048,3.26-0.008
				c0.003,0.209,0.014,0.624,0.02,0.833c1.507,0.223,3.029,0.33,4.559,0.37c3.415,0.268,6.87,0.474,10.286,0.059
				c1.516-0.065,3.031,0.155,4.53,0.384c0.463,0.435,1.044,0.697,1.674,0.804c3.559,0.754,7.127,1.496,10.74,1.956
				c0.542,0.178,0.646-0.477,0.844-0.819c1.078,0.186,2.157,0.384,3.238,0.587c0.017,0.223,0.051,0.669,0.068,0.892
				c2.583,0.94,5.304,1.428,7.943,2.179c0.804,0.161,2.075,0.725,2.329-0.48c1.349,0.415,2.693,0.861,3.977,1.462
				c0.037,0.246,0.079,0.491,0.127,0.74c1.854,1.281,3.54,2.8,5.473,3.971c-0.028,0.395-0.057,0.793-0.082,1.191
				c-0.807,1.756-2.755,2.501-4.426,3.192c-6.853,2.289-14.119,2.941-21.288,3.412c-4.711,0.102-9.428,0.452-14.133,0.093
				c-1.696,0.164-3.384-0.121-5.081-0.096c-3.39,0.034-6.757-0.387-10.133-0.581c-6.774-0.44-13.515-1.219-20.218-2.247
				c-6.551-1.053-13.108-2.315-19.366-4.561c-1.979-0.725-3.94-1.569-5.651-2.814c-0.878-0.641-1.722-1.454-2.021-2.529
				c-0.183-0.771-0.065-1.567-0.059-2.348c0.398-0.217,0.788-0.457,1.104-0.793c1.496,0.161,2.837-0.66,4.237-1.047
				c1.857-0.694,3.864-0.926,5.699-1.688c0.071-0.206,0.212-0.618,0.282-0.824c1.208-0.13,2.416-0.277,3.613-0.5
				C87.258,143.766,87.445,144.105,87.541,144.274z"/>
			<path style="fill:#4A6784;" d="M61.014,83.624c0.748,0.454,1.214,1.225,1.871,1.792c1.135,1.008,2.492,1.719,3.847,2.391
				c5.098,2.334,10.61,3.565,16.086,4.657c5.984,1.033,12.019,1.761,18.068,2.25c3.675,0.158,7.327,0.669,11.011,0.573
				c8.626,0.356,17.277,0.376,25.889-0.223c6.139-0.344,12.287-0.864,18.344-1.962c6.218-1.05,12.439-2.419,18.254-4.914
				c2.3-0.883,4.378-2.32,6.094-4.084c0.025,0.48,0.062,0.96,0.088,1.44c-0.361,4.319-0.728,8.64-1.075,12.956
				c-0.02,0.844,0.031,1.702-0.181,2.526c-1.239,17.797-3.291,35.517-4.652,53.308c-1.378-1.214-2.746-2.585-4.519-3.19
				c-0.488-0.223-0.723,0.291-0.926,0.621c-0.048-0.248-0.09-0.494-0.127-0.74c-1.284-0.601-2.628-1.047-3.977-1.462
				c-3.311-1.321-6.8-2.179-10.339-2.591c-1.081-0.203-2.159-0.401-3.238-0.587c-2.266-0.994-4.756-1.166-7.144-1.694
				c-1.792-0.327-3.585-0.641-5.4-0.782c-0.243,0.178-0.48,0.356-0.714,0.533c-1.499-0.229-3.014-0.449-4.53-0.384
				c-0.071-0.22-0.209-0.661-0.279-0.881c-4.855-0.279-9.718-0.55-14.585-0.381c-1.09-0.04-2.179-0.102-3.26,0.008
				c0.07-0.164,0.209-0.497,0.279-0.663c-1.225-0.7-2.687-0.367-4.022-0.443c-2.645-0.076-5.278,0.138-7.912,0.296
				c-0.624-0.011-1.126,0.37-1.603,0.708c-1.18-0.073-2.368-0.04-3.539,0.071c-0.319-0.615-0.895-0.864-1.561-0.692
				c-3.37,0.432-6.901,0.209-10.099,1.513c-1.197,0.223-2.405,0.37-3.613,0.5c-2.543-0.008-5.007,0.773-7.322,1.767
				c-1.039,0.466-2.289,0.725-2.896,1.792c-0.316,0.336-0.706,0.576-1.104,0.793c-0.641-3.367-1.205-6.752-1.795-10.13
				c-0.81-3.548-1.358-7.147-1.981-10.732c-1.109-6.009-2.069-12.047-3.105-18.073C63.929,100.879,62.208,92.293,61.014,83.624z"/>
		</g>
		<g>
			<path style="fill:#1E3851;" d="M259.19,250.673c2.111,0.215,4.135,0.954,6.21,1.389c2.151,0.505,4.29,1.061,6.444,1.566
				c0,0.988,0.02,1.979,0.037,2.967c0.494,0.099,1.036,0.395,1.541,0.141c0.974-0.378,0.869-1.603,1.126-2.444
				c4.666,1.16,9.343,2.295,13.992,3.523c0.172,0.883-0.268,1.716-0.454,2.56c-1.008,3.387-1.902,6.817-3.031,10.164
				c-1.996-0.604-4.084-0.83-6.114-1.296c-6.19-1.242-12.38-2.481-18.553-3.799c-0.737-0.164-1.493-0.26-2.19-0.542
				c-0.415-1.222-0.065-2.591,0.045-3.853c0.181-3.105,0.548-6.193,0.731-9.295C259.015,251.387,259.105,251.029,259.19,250.673z"/>
			<path style="fill:#1E3851;" d="M240.882,296.36c3.415,0.466,6.769,1.352,10.159,2.001c2.015,0.412,4.022,0.872,6.052,1.225
				c1.962,0.254,3.833,0.931,5.786,1.242c7.593,1.598,15.189,3.178,22.781,4.787c2.938,0.57,5.851,1.267,8.798,1.801
				c0.308,0.748,1.064,1.561,0.737,2.394c-0.677,0.296-1.454-0.113-2.148-0.192c-2.45-0.423-4.923-0.7-7.378-1.087
				c-11.996-1.75-23.984-3.559-35.977-5.332c-3.077-0.452-6.15-0.912-9.227-1.344c-0.35-0.107-1.16-0.093-0.974-0.655
				C239.931,299.58,240.354,297.954,240.882,296.36z"/>
			<path style="fill:#1E3851;" d="M279.002,411.887c0.94-0.189,1.86,0.203,2.792,0.305c0.02,0.861-0.31,1.663-0.533,2.478
				c-0.81,2.871-1.612,5.744-2.439,8.609c-0.118,0.35-0.356,0.483-0.708,0.401c-0.26-1.99,0.33-3.952,0.282-5.939
				C278.702,415.799,278.654,413.826,279.002,411.887z"/>
			<path style="fill:#F33F38;" d="M272.512,238.843c1.764-0.892,3.525-1.801,5.343-2.591c0.37,0.632,0.045,1.327-0.054,1.987
				c-0.486,2.436-1.002,4.869-1.383,7.325c-0.666,2.899-1.296,5.809-1.871,8.727c-0.257,0.841-0.152,2.066-1.126,2.444
				c-0.505,0.254-1.047-0.042-1.541-0.141c-0.017-0.988-0.037-1.979-0.037-2.967c-0.006-4.57-0.147-9.137-0.184-13.707
				C271.561,239.36,272.089,239.061,272.512,238.843z"/>
			<path style="fill:#F33F38;" d="M230.452,393.565c1.55-0.432,3.328,0.26,4.062,1.716c1.194,2.303-0.277,5.4-2.738,6.103
				c-1.496,0.601-3.393-0.028-4.177-1.445C226.244,397.539,227.791,394.192,230.452,393.565z"/>
			<path style="fill:#F33F38;" d="M229.041,402.623c0.858-0.175,1.773-0.257,2.532,0.282c-0.113,2.041-0.023,4.087-0.096,6.131
				c0.014,0.655-0.567,1.064-0.937,1.53c-0.446,0.409-0.759,1.163-1.479,1.056c-0.186-1.14-0.745-2.162-1.047-3.263
				c0.017-0.742,0.296-1.451,0.412-2.179C228.694,405.002,228.691,403.78,229.041,402.623z"/>
			<path style="fill:#9AD5C5;" d="M260.386,265.444c6.173,1.318,12.363,2.557,18.553,3.799c2.029,0.466,4.118,0.691,6.114,1.296
				l0.13,0.13c0.085,2.667-0.062,5.346,0.116,8.013c0.279,8.976,0.006,17.96,0.361,26.933c-7.593-1.609-15.189-3.19-22.781-4.787
				c-1.953-0.31-3.825-0.988-5.786-1.242c-2.03-0.353-4.036-0.813-6.052-1.225c2.662-8.423,4.629-17.051,7.184-25.508
				C259.113,270.431,259.602,267.894,260.386,265.444z"/>
			<g>
				<path style="fill:#9AD5C5;" d="M249.691,303.199c11.993,1.773,23.981,3.582,35.977,5.332c0.09,4.039-0.031,8.084,0.11,12.123
					c0.02,3.672-0.071,7.347,0.099,11.017c0.161,6.489,0.068,12.981,0.178,19.47c-0.057,7.991,0.282,15.979,0.212,23.972
					c0.118,7.912-0.011,15.826,0.164,23.738c0.073,3.856,0.09,7.714,0.113,11.573c-0.014,0.717,0.071,1.451-0.093,2.162
					c-0.381,0.299-0.878,0.15-1.301,0.124c-1.123-0.155-2.241-0.336-3.356-0.519c-0.931-0.102-1.852-0.494-2.792-0.305
					c-1.744-0.522-3.599-0.477-5.346-0.994c-0.511-2.58-0.587-5.225-0.926-7.83c-1.648-15.615-3.221-31.238-4.804-46.861
					c-0.957-9.899-2.038-19.787-2.919-29.691c-0.127,0.079-0.381,0.24-0.505,0.319c-9.109,24.323-18.358,48.603-27.65,72.86
					c-0.556,1.166-0.754,2.49-1.507,3.559c-1.242,0.099-2.591,0.073-3.771-0.344c-0.759-0.539-1.674-0.457-2.532-0.282
					c-0.409,0.068-0.81,0.065-1.205-0.006c-1.761-0.319-3.59-0.22-5.307-0.782c0.596-3.046,1.589-6.009,2.351-9.018
					c3.796-13.094,7.155-26.307,10.861-39.426c1.609-5.021,2.811-10.159,4.279-15.219c1.067-3.994,2.151-7.982,3.246-11.968
					c0.635-2.337,1.473-4.612,2.069-6.961C246.75,313.883,248.277,308.556,249.691,303.199z M230.452,393.565
					c-2.662,0.627-4.208,3.974-2.854,6.373c0.785,1.417,2.682,2.046,4.177,1.445c2.461-0.703,3.932-3.799,2.738-6.103
					C233.78,393.825,232.002,393.133,230.452,393.565z"/>
			</g>
		</g>
		<g>
			<path style="fill:#1E3851;" d="M431.383,155.161c0.336-0.113,0.675-0.302,1.047-0.257c0.319,0.387,0.291,0.915,0.392,1.389
				c0.463,3.111,1.059,6.204,1.428,9.326c-7.98,2.6-16.086,4.815-23.941,7.788c-1.925,0.641-3.763,1.586-5.769,1.945
				c-0.61-1.067-0.757-2.365-1.208-3.514c-0.525-1.674-1.084-3.336-1.566-5.021c0.886-0.759,2.032-1.053,3.088-1.488
				C413.671,161.876,422.523,158.5,431.383,155.161z"/>
			<path style="fill:#1E3851;" d="M348.635,162.969c3.96-0.988,7.918-1.993,11.88-2.981c1.059,5.312,1.671,10.734,2.583,16.086
				c3.376-0.226,6.732-0.703,10.108-0.96c0.914-0.155,1.837-0.274,2.766-0.152c0.223,2.608,0.37,5.216,0.601,7.822
				c-1.327,0.655-2.811,0.985-4.208,1.473c-2.555,0.768-5.089,1.595-7.652,2.329c0.469,4.22,1.197,8.411,1.778,12.617
				c0.184,1.505,0.638,2.986,0.55,4.516c-3.11,0.037-6.196-0.398-9.289-0.613c-1.332-4.386-2.23-8.897-3.472-13.309
				c-2.831,0.816-5.648,1.688-8.465,2.552c-0.627,0.22-0.711-0.615-0.92-0.994c-1.51-4.225-3.113-8.42-4.465-12.696
				c3.576-0.596,7.209-0.864,10.816-1.239c-1.121-4.606-2.281-9.204-3.393-13.811C347.744,163.189,348.345,163.065,348.635,162.969z
				"/>
			<path style="fill:#1E3851;" d="M418.687,177.2c5.702-0.621,11.418-1.118,17.145-1.4c0.483,2.588,0.731,5.213,1.186,7.81
				c-2.588,0.573-5.225,0.878-7.838,1.296c-6.783,1.081-13.585,2.027-20.393,2.907c-0.384,0.011-0.415-0.545-0.564-0.787
				c-0.965-2.859-1.849-5.744-2.811-8.598C409.858,178.366,414.278,177.773,418.687,177.2z"/>
			<path style="fill:#1E3851;" d="M420.999,222.712c1.744-0.359,3.675-0.186,5.137,0.914c2.707,1.798,3.365,5.871,1.488,8.493
				c-1.468,2.204-4.448,3.221-6.949,2.343c-3.105-0.979-5.064-4.753-3.878-7.821C417.42,224.722,419.065,223.24,420.999,222.712z"/>
			<path style="fill:#1E3851;" d="M369.3,243.935c3.98-4.296,7.903-8.646,11.855-12.967c1.081,1.86,1.727,3.94,2.608,5.902
				c0.982,2.405,1.998,4.796,2.952,7.212c0.209,0.384-0.248,0.644-0.452,0.906c-2.888,2.633-5.721,5.323-8.592,7.977
				c2.631,3.003,5.419,5.868,8.05,8.877c-1.219,1.812-2.546,3.554-3.875,5.287c-0.361,0.497-0.852-0.118-1.149-0.361
				c-1.008-1.242-2.284-2.216-3.427-3.322c-1.815-1.716-3.528-3.537-5.388-5.199c-3.602,3.373-7.311,6.628-10.929,9.981
				c-0.675,0.567-1.276,1.219-1.993,1.733c-0.463,0.133-0.551-0.477-0.728-0.754c-1.092-2.769-2.1-5.575-3.232-8.327
				c-0.192-0.429-0.226-0.965,0.15-1.296c2.797-3.108,5.626-6.187,8.389-9.326c-3.288-3.229-6.602-6.43-9.938-9.611
				c0.706-2.312,1.837-4.474,2.738-6.715c0.364-0.878,0.717-1.761,1.191-2.585c2.024,1.897,3.743,4.087,5.727,6.023
				C365.224,239.603,367.304,241.728,369.3,243.935z"/>
			<path style="fill:#1E3851;" d="M416.98,241.895c7.773-1.437,15.536-2.955,23.329-4.299c0.525,2.49,0.491,5.053,0.852,7.568
				c0.178,2.255,0.364,4.508,0.632,6.755c-0.085,0.076-0.257,0.232-0.344,0.308c-10.297-1.104-20.583-2.34-30.882-3.418
				c-1.152-1.533-1.792-3.413-2.721-5.092C410.838,242.902,413.94,242.521,416.98,241.895z"/>
			<path style="fill:#1E3851;" d="M423.285,253.77c3.596-0.79,7.302,1.854,8.287,5.287c0.35,1.431,0.285,3.105-0.686,4.293
				c-0.878,1.135-2.337,1.713-3.754,1.646c-3.585-0.133-6.817-3.24-7.073-6.822C419.895,256.163,421.315,254.21,423.285,253.77z"/>
			<g>
				<path style="fill:#F33F38;" d="M442.722,135.225c1.087-0.133,2.156-0.435,3.26-0.398c0.006,0.963,0.423,1.874,0.327,2.845
					c0.017,7.333,0.384,14.661,0.375,21.997c0.327,6.012,0.152,12.036,0.429,18.048c0.124,5.4,0.076,10.799,0.268,16.199
					c-17.529,4.087-35.034,8.262-52.571,12.307c-3.113-20.484-6.258-40.967-9.399-61.448
					C404.529,141.672,423.61,138.358,442.722,135.225z M431.383,155.161c-8.86,3.339-17.712,6.715-26.53,10.167
					c-1.056,0.435-2.202,0.728-3.088,1.488c0.483,1.685,1.042,3.348,1.566,5.021c0.452,1.149,0.598,2.447,1.208,3.514
					c2.007-0.359,3.844-1.304,5.769-1.945c7.855-2.972,15.962-5.188,23.941-7.788c-0.37-3.122-0.965-6.215-1.428-9.326
					c-0.102-0.474-0.073-1.002-0.392-1.389C432.058,154.859,431.719,155.048,431.383,155.161z M418.687,177.2
					c-4.409,0.573-8.829,1.166-13.278,1.228c0.962,2.854,1.846,5.738,2.811,8.598c0.15,0.243,0.181,0.799,0.564,0.787
					c6.808-0.881,13.611-1.826,20.393-2.907c2.614-0.418,5.25-0.723,7.838-1.296c-0.454-2.597-0.703-5.222-1.186-7.81
					C430.105,176.083,424.389,176.579,418.687,177.2z"/>
			</g>
			<g>
				<path style="fill:#F33F38;" d="M366.717,147.873c4.677-0.779,9.354-1.555,14.031-2.332c3.003,19.281,5.911,38.577,8.883,57.864
					c0.178,1.315,0.471,2.619,0.488,3.954c-16.893,3.898-33.744,7.979-50.643,11.849c-3.923-20.806-7.991-41.586-11.974-62.383
					c-0.082-0.567-0.291-1.16-0.113-1.725c0.265-0.426,0.785-0.466,1.228-0.556C341.316,152.308,353.993,149.956,366.717,147.873z
					 M348.635,162.969c-0.291,0.096-0.892,0.22-0.782,0.641c1.112,4.606,2.272,9.204,3.393,13.811
					c-3.607,0.376-7.24,0.644-10.816,1.239c1.352,4.276,2.955,8.471,4.465,12.696c0.209,0.378,0.294,1.214,0.92,0.994
					c2.817-0.864,5.634-1.736,8.465-2.552c1.242,4.412,2.139,8.922,3.472,13.309c3.094,0.215,6.179,0.649,9.289,0.613
					c0.088-1.53-0.367-3.012-0.55-4.516c-0.582-4.206-1.31-8.397-1.778-12.617c2.563-0.734,5.098-1.561,7.652-2.329
					c1.397-0.488,2.882-0.819,4.208-1.473c-0.232-2.605-0.378-5.213-0.601-7.822c-0.929-0.121-1.852-0.003-2.766,0.152
					c-3.376,0.257-6.732,0.734-10.108,0.96c-0.912-5.352-1.524-10.774-2.583-16.086
					C356.553,160.976,352.596,161.981,348.635,162.969z"/>
			</g>
			<g>
				<path style="fill:#F33F38;" d="M396.084,213.798c17.153-3.994,34.289-8.056,51.439-12.055c0.042,3-0.073,6.007,0.102,9.01
					c0.141,3.76,0.042,7.522,0.189,11.282c-0.099,4.327,0.166,8.648,0.186,12.975c-0.011,3.864,0.144,7.725,0.087,11.592
					c0.24,6.577,0.231,13.159,0.302,19.739c0.15,3.02,0.198,6.049,0.167,9.075c0.02,0.889-1.081,0.757-1.677,0.782
					c-13.783,0.02-27.568,0.034-41.351-0.076c-2.952-19.149-5.865-38.306-8.804-57.457
					C396.501,217.042,396.157,215.436,396.084,213.798z M420.999,222.712c-1.934,0.528-3.579,2.01-4.203,3.929
					c-1.185,3.068,0.773,6.842,3.878,7.821c2.501,0.878,5.482-0.138,6.949-2.343c1.877-2.622,1.219-6.695-1.488-8.493
					C424.674,222.526,422.743,222.354,420.999,222.712z M416.98,241.895c-3.04,0.627-6.142,1.008-9.134,1.821
					c0.929,1.679,1.569,3.559,2.721,5.092c10.3,1.078,20.585,2.314,30.882,3.418c0.087-0.076,0.26-0.231,0.344-0.308
					c-0.268-2.247-0.454-4.499-0.632-6.755c-0.361-2.515-0.327-5.078-0.852-7.568C432.515,238.939,424.753,240.458,416.98,241.895z
					 M423.285,253.77c-1.97,0.44-3.39,2.393-3.226,4.403c0.257,3.582,3.489,6.69,7.073,6.822c1.417,0.068,2.876-0.511,3.754-1.646
					c0.971-1.188,1.036-2.862,0.686-4.293C430.587,255.624,426.881,252.979,423.285,253.77z"/>
			</g>
			<g>
				<path style="fill:#F33F38;" d="M379.608,217.671c3.94-0.875,7.838-1.953,11.807-2.69c3.091,20.368,6.21,40.733,9.346,61.098
					c-7.488-0.104-14.977-0.04-22.462-0.059c-4.426-0.161-8.857-0.056-13.283-0.161c-4.615-0.136-9.233-0.105-13.848-0.15
					c-0.658,0.028-0.917-0.655-1.016-1.18c-3.077-15.92-6.179-31.833-9.213-47.761C353.823,223.72,366.714,220.686,379.608,217.671z
					 M369.3,243.935c-1.996-2.207-4.076-4.333-6.043-6.565c-1.984-1.936-3.703-4.127-5.727-6.023
					c-0.474,0.824-0.827,1.708-1.191,2.585c-0.9,2.241-2.032,4.403-2.738,6.715c3.336,3.181,6.65,6.382,9.938,9.611
					c-2.763,3.139-5.592,6.218-8.389,9.326c-0.375,0.33-0.341,0.867-0.15,1.296c1.132,2.752,2.14,5.558,3.232,8.327
					c0.178,0.277,0.265,0.886,0.728,0.754c0.717-0.514,1.318-1.166,1.993-1.733c3.619-3.353,7.327-6.608,10.929-9.981
					c1.86,1.663,3.573,3.483,5.388,5.199c1.143,1.107,2.419,2.08,3.427,3.322c0.296,0.243,0.788,0.858,1.149,0.361
					c1.329-1.733,2.656-3.475,3.875-5.287c-2.631-3.009-5.419-5.874-8.05-8.877c2.871-2.653,5.704-5.343,8.592-7.977
					c0.203-0.262,0.66-0.522,0.452-0.906c-0.954-2.416-1.97-4.807-2.952-7.212c-0.881-1.962-1.527-4.042-2.608-5.902
					C377.203,235.29,373.28,239.639,369.3,243.935z"/>
			</g>
		</g>
		<g>
			<g>
				<g>
					<path style="fill:#FFFFFF;" d="M173.291,156.486c1.059-0.248,2.097-0.621,3.192-0.689c0.127,1.536,0.257,3.071,0.226,4.618
						c-0.039,1.792,0.359,3.562,0.285,5.357c-0.059,1.705,0.294,3.384,0.279,5.089c0.011,1.14,0.008,2.286,0.158,3.424
						c0.229,1.767,0.034,3.559,0.246,5.335c0.274,1.967,0.062,3.966,0.296,5.939c0.251,1.877,0.054,3.777,0.277,5.654
						c0.26,1.959,0.056,3.94,0.291,5.902c0.257,1.973,0.045,3.974,0.291,5.95c0.237,1.866,0.051,3.754,0.262,5.623
						c0.26,1.97,0.065,3.963,0.294,5.936c0.229,1.877,0.065,3.777,0.268,5.659c0.251,2.055,0.065,4.135,0.311,6.193
						c0.144,1.208,0.11,2.427,0.147,3.644c0.017,1.603,0.305,3.192,0.263,4.801c-0.048,1.984,0.316,3.946,0.285,5.93
						c0.014,0.954,0.017,1.911,0.127,2.865c0.265,2.052,0.054,4.132,0.305,6.19c0.245,1.967,0.025,3.96,0.285,5.93
						c0.24,1.866,0.028,3.757,0.26,5.628c0.271,1.979,0.04,3.983,0.299,5.964c0.104,0.731,0.135,1.473,0.102,2.216
						c-2.966,0.534-6.015,0.141-9.015,0.353c-3.847,0.398-7.725,0.042-11.573,0.421c-3.48,0.164-6.975-0.037-10.447,0.285
						c-3.568,0.121-7.141,0.031-10.701,0.26c-0.598-0.423-0.61-1.222-0.855-1.846c-10.209-31.424-20.235-62.911-30.425-94.34
						c-0.088-0.336-0.116-0.672-0.088-1.01c11.892-3.142,23.735-6.478,35.63-9.611C154.137,161.589,163.705,159.012,173.291,156.486
						z M136.775,180.272c-0.564,1.279-0.553,2.727-0.85,4.084c0.076,0.07,0.232,0.209,0.311,0.279
						c0.932-0.889,0.816-2.365,1.067-3.54c1.552,0.627,2.899,2.075,4.669,1.934c0.008-0.2,0.028-0.598,0.037-0.799
						c-1.169-0.223-2.131-0.974-3.204-1.437C138.169,180.532,137.492,179.928,136.775,180.272z M138.31,184.966
						c0.872,6.046,1.809,12.087,2.699,18.133l0.025,0.373c-0.901-0.387-1.871-0.819-2.874-0.576
						c-1.962,0.313-3.427,1.902-4.231,3.633c-1.406,2.955-1.747,6.263-2.061,9.481c-0.121,3.568-0.071,7.144,0.364,10.692
						c-0.604,0.265-1.366,0.209-1.846,0.72c0.251,0.836,1.352-0.014,1.956,0.113c0.26,1.908,0.519,3.861,1.296,5.643
						c0.172,0.014,0.516,0.04,0.686,0.054c-0.502-1.936-0.889-3.904-1.07-5.894c3.737-0.776,7.452-1.654,11.195-2.402
						c0.452,3.348,1.053,6.676,1.552,10.015c1.033,6.275,1.914,12.572,3.085,18.824c0.147,0.096,0.438,0.294,0.584,0.392
						c0.44-0.686,0.231-1.513,0.158-2.264c-1.044-6.972-2.156-13.935-3.254-20.902c-0.271-2.139-0.779-4.254-0.909-6.404
						c1.349-0.178,2.653-0.581,3.997-0.79c0.909,1.067,2.498,1.976,3.881,1.256c1.183-0.516,1.792-1.71,2.546-2.679l0.025-0.076
						c4.976-0.974,9.916-2.162,14.85-3.336c0.677-0.02,0.827-1.019,0.076-0.979c-4.858,0.931-9.673,2.089-14.505,3.15
						c0.799-1.792,1.262-3.706,2.004-5.515c0.683-1.77,1.838-3.514,3.672-4.231c2.571-1.002,5.349-1.324,7.951-2.236
						c0.734-0.282,1.496-0.655,1.897-1.366c-0.387-0.008-0.759,0.054-1.121,0.186c-2.851,1.14-5.953,1.44-8.843,2.456
						c-1.409,0.508-2.608,1.516-3.39,2.792c-1.572,2.515-2.058,5.507-3.303,8.172c-1.764,0.378-3.506,0.855-5.281,1.16
						c-1.191-1.922-1.835-4.115-2.512-6.252c-1.304-4.053-2.346-8.437-5.259-11.686c-1.126-7.045-2.196-14.11-3.551-21.116
						C137.986,183.453,138.37,184.455,138.31,184.966z M169.816,216.272c0.042,0.127,0.13,0.381,0.172,0.508
						c0.9,0.516,1.979,0.66,2.857,1.245c-0.59,0.934-1.236,1.835-1.79,2.794c0.099,0.164,0.294,0.491,0.392,0.655
						c0.889-0.531,1.287-1.533,1.863-2.346c0.412-0.542,0.669-1.538-0.099-1.9C172.151,216.724,171.002,216.311,169.816,216.272z
						 M166.624,221.437c0.68,0.336,1.335,0.72,1.948,1.174c-0.378,0.596-1.106,1.143-0.836,1.942
						c0.567-0.407,0.971-0.982,1.369-1.541c0.486,0.294,0.965,0.607,1.431,0.943c0.138-0.093,0.418-0.277,0.556-0.367
						c-0.409-0.502-0.929-0.886-1.49-1.194c0.257-0.308,0.497-0.624,0.683-0.971c-0.545-0.175-0.934,0.167-1.287,0.525
						c-0.596-0.432-1.211-0.852-1.897-1.123C166.805,220.763,166.328,221.147,166.624,221.437z M151.241,252.385
						c0.559,0.861,1.423,1.462,2.075,2.252c-0.35,0.579-1.008,1.691,0.127,1.812c0.302-1.397,1.4-2.554,1.49-3.974
						c-0.768-0.226-0.929,0.886-1.205,1.383c-0.644-0.785-1.363-1.507-2.182-2.106C151.469,251.91,151.317,252.227,151.241,252.385z
						"/>
				</g>
				<path style="fill:#FFFFFF;" d="M138.161,203.996c1.242-0.316,2.413,0.466,3.252,1.307c0.855,6.218,1.86,12.419,2.868,18.618
					c-3.692,0.906-7.415,1.68-11.104,2.602c-0.378-3.59-0.33-7.215-0.184-10.816c0.231-2.696,0.63-5.411,1.592-7.954
					C135.22,206.116,136.346,204.426,138.161,203.996z"/>
				<path style="fill:#FFFFFF;" d="M142.81,207.13c3.012,4.832,3.373,10.785,6.176,15.711c-1.177,0.308-2.365,0.562-3.548,0.847
					C144.577,218.163,143.648,212.653,142.81,207.13z"/>
				<path style="fill:#FFFFFF;" d="M150.919,223.526c1.228-0.313,2.467-0.593,3.723-0.787c-0.469,0.666-1.03,1.473-1.933,1.507
					C152.014,224.362,151.413,223.955,150.919,223.526z"/>
			</g>
			<path style="fill:#1E3851;" d="M136.775,180.272c0.717-0.344,1.394,0.26,2.029,0.522c1.073,0.463,2.035,1.214,3.204,1.437
				c-0.008,0.2-0.028,0.598-0.037,0.799c-1.77,0.141-3.116-1.307-4.669-1.934c-0.251,1.174-0.135,2.65-1.067,3.54
				c-0.079-0.071-0.234-0.209-0.311-0.279C136.222,182.999,136.21,181.551,136.775,180.272z"/>
			<path style="fill:#1E3851;" d="M138.31,184.966c0.059-0.511-0.325-1.513,0.491-1.462c1.355,7.006,2.425,14.071,3.551,21.116
				c-0.497-0.46-1.067-0.886-1.344-1.521C140.12,197.053,139.183,191.012,138.31,184.966z"/>
			<path style="fill:#1E3851;" d="M141.412,205.303c0.536,0.548,1.013,1.157,1.397,1.826c0.838,5.524,1.767,11.034,2.628,16.557
				c1.183-0.285,2.371-0.539,3.548-0.847c0.212,0.33,0.44,0.646,0.677,0.965c-1.344,0.209-2.648,0.613-3.997,0.79
				c0.13,2.151,0.638,4.265,0.909,6.404c1.098,6.966,2.21,13.93,3.254,20.902c0.073,0.751,0.282,1.578-0.158,2.264
				c-0.147-0.099-0.438-0.296-0.584-0.392c-1.171-6.252-2.052-12.549-3.085-18.824c-0.5-3.339-1.101-6.667-1.552-10.015
				c-3.743,0.748-7.457,1.626-11.195,2.402c-0.02-0.203-0.059-0.61-0.079-0.813c3.689-0.923,7.412-1.696,11.104-2.602
				C143.273,217.723,142.268,211.521,141.412,205.303z"/>
			<path style="fill:#1E3851;" d="M169.816,216.272c1.186,0.039,2.334,0.452,3.396,0.957c0.768,0.361,0.511,1.358,0.099,1.9
				c-0.576,0.813-0.974,1.815-1.863,2.346c-0.099-0.164-0.294-0.491-0.392-0.655c0.553-0.96,1.2-1.86,1.79-2.794
				c-0.878-0.584-1.956-0.728-2.857-1.245C169.946,216.653,169.859,216.399,169.816,216.272z"/>
			<path style="fill:#1E3851;" d="M156.536,221.141c4.832-1.061,9.648-2.219,14.505-3.15c0.751-0.039,0.601,0.96-0.076,0.979
				c-4.934,1.174-9.874,2.363-14.85,3.336C156.242,221.909,156.378,221.516,156.536,221.141z"/>
			<path style="fill:#1E3851;" d="M166.624,221.437c-0.296-0.291,0.181-0.675,0.477-0.612c0.686,0.271,1.301,0.691,1.897,1.123
				c0.353-0.359,0.742-0.7,1.287-0.525c-0.186,0.347-0.426,0.663-0.683,0.971c0.562,0.308,1.081,0.691,1.49,1.194
				c-0.138,0.09-0.418,0.274-0.556,0.367c-0.466-0.336-0.946-0.649-1.431-0.943c-0.398,0.559-0.802,1.135-1.369,1.541
				c-0.271-0.799,0.457-1.346,0.836-1.942C167.959,222.157,167.304,221.773,166.624,221.437z"/>
			<path style="fill:#1E3851;" d="M150.123,222.558c1.775-0.305,3.517-0.782,5.281-1.16c-0.234,0.454-0.483,0.909-0.762,1.341
				c-1.256,0.195-2.495,0.474-3.723,0.787C150.631,223.219,150.369,222.888,150.123,222.558z"/>
			<path style="fill:#1E3851;" d="M130.387,227.421c0.48-0.511,1.242-0.454,1.846-0.72c0.037,0.274,0.073,0.55,0.11,0.833
				C131.739,227.407,130.639,228.257,130.387,227.421z"/>
			<path style="fill:#1E3851;" d="M151.241,252.385c0.076-0.158,0.229-0.474,0.305-0.632c0.818,0.598,1.538,1.321,2.182,2.106
				c0.277-0.497,0.438-1.609,1.205-1.383c-0.09,1.42-1.188,2.577-1.49,3.974c-1.135-0.121-0.477-1.233-0.127-1.812
				C152.663,253.847,151.8,253.245,151.241,252.385z"/>
			<g>
				<path style="fill:#F33F38;" d="M181.714,146.463c0.567-0.164,1.16-0.226,1.75-0.2c4.101,44.202,8.2,88.41,12.126,132.632
					c-2.049,0.248-4.107,0.367-6.167,0.361c-1.513-0.034-3.006,0.254-4.516,0.257c-1.499,0.025-3.003-0.017-4.496,0.158
					c-2.103,0.248-4.234,0.034-6.34,0.271c-2.066,0.265-4.161,0.051-6.232,0.271c-2.125,0.271-4.276,0.07-6.407,0.282
					c-2.244,0.28-4.513,0.059-6.76,0.294c-2.162,0.254-4.344,0.062-6.509,0.271c-2.148,0.265-4.319,0.082-6.472,0.279
					c-2.027,0.263-4.073,0.102-6.108,0.26c-1.9,0.209-3.819,0.212-5.73,0.2c-0.44,0.011-0.483-0.534-0.59-0.83
					c-10.077-37.386-19.973-74.816-30.027-112.208c-0.33-1.482-0.951-2.91-1.005-4.44
					C125.99,158.067,153.877,152.376,181.714,146.463z M173.291,156.486c-9.586,2.526-19.154,5.103-28.726,7.669
					c-11.895,3.133-23.738,6.469-35.63,9.611c-0.028,0.339,0,0.675,0.088,1.01c10.19,31.43,20.216,62.916,30.425,94.34
					c0.246,0.624,0.257,1.423,0.855,1.846c3.559-0.229,7.133-0.138,10.701-0.26c3.472-0.322,6.966-0.121,10.447-0.285
					c3.847-0.378,7.725-0.023,11.573-0.421c3-0.212,6.049,0.181,9.015-0.353c0.034-0.742,0.003-1.485-0.102-2.216
					c-0.26-1.981-0.028-3.986-0.299-5.964c-0.231-1.871-0.02-3.763-0.26-5.628c-0.26-1.97-0.04-3.963-0.285-5.93
					c-0.251-2.058-0.04-4.138-0.305-6.19c-0.11-0.954-0.113-1.911-0.127-2.865c0.031-1.984-0.333-3.946-0.285-5.93
					c0.042-1.609-0.246-3.198-0.263-4.801c-0.037-1.217-0.003-2.436-0.147-3.644c-0.245-2.058-0.059-4.138-0.311-6.193
					c-0.203-1.883-0.04-3.782-0.268-5.659c-0.229-1.973-0.034-3.966-0.294-5.936c-0.212-1.869-0.025-3.757-0.262-5.623
					c-0.245-1.976-0.034-3.977-0.291-5.95c-0.234-1.962-0.031-3.943-0.291-5.902c-0.223-1.877-0.025-3.777-0.277-5.654
					c-0.234-1.973-0.023-3.971-0.296-5.939c-0.212-1.775-0.017-3.568-0.246-5.335c-0.15-1.138-0.147-2.283-0.158-3.424
					c0.014-1.705-0.339-3.384-0.279-5.089c0.073-1.795-0.325-3.565-0.285-5.357c0.031-1.547-0.099-3.082-0.226-4.618
					C175.388,155.865,174.35,156.238,173.291,156.486z"/>
			</g>
			<path style="fill:#9AD5C5;" d="M138.161,202.896c1.002-0.243,1.973,0.189,2.874,0.576l-0.025-0.373
				c0.277,0.635,0.847,1.061,1.344,1.521c2.913,3.249,3.954,7.632,5.259,11.686c0.677,2.137,1.321,4.33,2.512,6.252
				c0.246,0.33,0.508,0.661,0.796,0.968c0.494,0.429,1.095,0.836,1.79,0.72c0.903-0.034,1.465-0.841,1.933-1.507
				c0.279-0.432,0.528-0.886,0.762-1.341c1.245-2.665,1.73-5.657,3.303-8.172c0.782-1.276,1.981-2.283,3.39-2.792
				c2.89-1.016,5.992-1.315,8.843-2.456c0.361-0.133,0.734-0.195,1.121-0.186c-0.401,0.711-1.163,1.084-1.897,1.366
				c-2.602,0.912-5.38,1.234-7.951,2.236c-1.835,0.717-2.989,2.461-3.672,4.231c-0.742,1.809-1.205,3.723-2.004,5.515
				c-0.158,0.375-0.294,0.768-0.421,1.166l-0.025,0.076c-0.754,0.968-1.363,2.162-2.546,2.679c-1.383,0.72-2.972-0.189-3.881-1.256
				c-0.237-0.319-0.466-0.635-0.677-0.965c-2.803-4.925-3.164-10.878-6.176-15.711c-0.384-0.669-0.861-1.279-1.397-1.826
				c-0.838-0.841-2.01-1.623-3.252-1.307c-1.815,0.429-2.941,2.12-3.576,3.757c-0.962,2.543-1.361,5.259-1.592,7.954
				c-0.147,3.602-0.195,7.226,0.184,10.816c0.02,0.203,0.059,0.61,0.079,0.813c0.181,1.99,0.567,3.957,1.07,5.894
				c-0.169-0.014-0.514-0.04-0.686-0.054c-0.776-1.781-1.036-3.734-1.296-5.643c-0.037-0.282-0.073-0.559-0.11-0.833
				c-0.435-3.548-0.485-7.124-0.364-10.692c0.313-3.218,0.655-6.526,2.061-9.481C134.734,204.798,136.199,203.209,138.161,202.896z"
				/>
		</g>
		<g>
			<path style="fill:#1E3851;" d="M289.043,60.798c0.38-0.815,1.344-0.353,1.98-0.186c1.468,0.527,3.005,0.81,4.501,1.252
				c-0.501,1.993-0.984,4.073-0.716,6.141c0.168,0.034,0.505,0.097,0.673,0.131c0.372-1.989,0.616-4.001,1.006-5.986
				c1.93,0.555,3.862,1.089,5.797,1.622c-0.542,1.725-0.712,3.582-0.397,5.369c0.039,0.512,0.544,0.621,0.963,0.706
				c0.395-1.886,0.314-3.833,0.63-5.732c1.548,0.564,3.174,0.849,4.732,1.374c1.178,0.328,2.322,0.777,3.53,0.994l-0.01,0.053
				c-0.252,1.211-0.431,2.448-0.456,3.69c-0.005,0.429,0.049,0.959,0.472,1.195c0.539-0.209,0.5-0.854,0.607-1.318
				c0.134-1.095,0.375-2.169,0.598-3.245c2.4,0.784,4.86,1.364,7.256,2.164l-0.012,0.067c-0.213,1.557-0.684,3.089-0.664,4.673
				c0.006,0.383,0.274,0.688,0.434,1.024c0.284-0.281,0.633-0.536,0.633-0.971c0.22-1.506,0.615-2.978,0.98-4.451
				c2.143,0.709,4.323,1.289,6.483,1.939c-0.402,1.588-0.725,3.2-0.929,4.828c-0.072,0.415,0.099,0.84,0.433,1.105
				c0.546-0.188,0.63-0.82,0.771-1.29c0.342-1.402,0.664-2.809,1.118-4.178c0.883,0.242,1.771,0.461,2.657,0.704
				c0.723,0.222,1.447,0.452,2.174,0.671l-0.017,0.078c-0.316,1.483-0.59,3.003-0.549,4.527c-0.017,0.445,0.443,0.572,0.776,0.711
				c0.555-1.604,0.81-3.28,1.155-4.933c2.266,0.691,4.538,1.358,6.811,2.017c-0.295,1.309-0.636,2.649-0.568,4.001
				c-0.024,0.475,0.646,0.846,0.851,0.302c0.474-1.242,0.587-2.593,0.94-3.872c0.874,0.228,1.755,0.44,2.623,0.693
				c1.236,0.34,2.434,0.814,3.686,1.097c-0.208,1.319-0.475,2.679-0.246,4.017c0.05,0.478,0.491,0.7,0.892,0.858
				c0.515-1.427,0.521-2.959,0.88-4.418c2.322,0.75,4.696,1.322,7.004,2.119c-0.292,1.771-0.895,3.53-0.806,5.344
				c-0.003,0.499,0.695,0.952,0.888,0.289c0.494-1.737,0.771-3.548,1.267-5.294c2.268,0.742,4.567,1.368,6.852,2.048l-0.015,0.081
				c-0.23,1.466-0.748,2.916-0.667,4.416c0.069,0.579,0.623,0.466,0.813,0.022c0.54-1.325,0.733-2.758,1.113-4.129
				c2.361,0.656,4.679,1.453,7.052,2.068c-0.17,1.024-0.554,2.034-0.525,3.084c-0.072,0.434,0.522,0.712,0.724,0.271
				c0.408-0.932,0.582-1.942,0.948-2.884l0.018-0.054c2.155,0.514,4.233,1.289,6.375,1.847c-0.262,1.211-0.746,2.426-0.612,3.688
				c0.027,0.386,0.707,0.805,0.846,0.255c0.412-1.175,0.589-2.416,1.03-3.579c1.336,0.493,2.723,0.826,4.091,1.22
				c-0.266,1.198-0.668,2.38-0.77,3.613c-0.057,0.423,0.353,0.593,0.668,0.745c0.445-1.299,0.734-2.642,1.124-3.952
				c-0.075-0.038-0.224-0.113-0.297-0.15c2.098,0.618,4.205,1.217,6.29,1.875c-0.374,1.387-0.642,2.8-0.783,4.231
				c-0.068,0.358,0.11,0.696,0.219,1.034c0.127-0.056,0.382-0.17,0.512-0.228c0.421-1.566,0.766-3.151,1.168-4.719
				c1.938,0.562,3.85,1.207,5.805,1.706c-0.146,1.032-0.4,2.074-0.296,3.125c0.008,0.463,0.609,0.762,0.894,0.324
				c0.361-0.965,0.48-1.996,0.722-2.988c2.034,0.491,3.998,1.214,6.013,1.776c-0.208,1.606-0.744,3.18-0.688,4.812
				c0.025,0.371,0.449,0.419,0.715,0.566c0.567-1.642,0.883-3.352,1.32-5.025c1.922,0.764,3.983,1.097,5.907,1.861
				c-0.32,1.521-0.589,3.059-0.703,4.613c0,0.377,0.115,0.963,0.606,0.923c0.644-1.681,0.921-3.478,1.139-5.253
				c2.003,0.51,3.931,1.273,5.95,1.736c-0.333,1.74-0.573,3.517-0.588,5.293c-0.032,0.417,0.329,0.621,0.655,0.79
				c0.557-1.849,0.638-3.795,1.033-5.68c2.106,0.514,4.133,1.284,6.229,1.829c-0.45,1.636-0.95,3.299-0.946,5.015
				c-0.056,0.426,0.36,0.605,0.661,0.794c0.441-1.849,0.807-3.715,1.373-5.529c1.296,0.589,2.708,0.83,4.04,1.319
				c0.813,0.293,1.684,0.302,2.53,0.429c0.462,0.028,0.574,0.548,0.544,0.93c-0.495,5.217-0.797,10.454-1.176,15.682
				c-0.027,0.537-0.679,0.735-1.133,0.634c-11.484-1.437-22.941-3.07-34.403-4.676c-34.716-4.865-69.437-9.686-104.134-14.689
				c-6.226-0.903-12.468-1.679-18.678-2.665c-0.436-0.015-0.975-0.332-0.895-0.825c0.18-1.241,0.725-2.388,0.991-3.608
				c0.604-2.674,1.539-5.252,2.177-7.915c2.107-7.381,4.155-14.774,6.244-22.16C288.44,63.388,288.667,62.069,289.043,60.798z"/>
			<path style="fill:#9AD5C5;" d="M295.523,61.865c0.321,0.09,0.642,0.188,0.964,0.286c-0.39,1.984-0.634,3.997-1.006,5.986
				c-0.168-0.034-0.505-0.097-0.673-0.131C294.539,65.938,295.022,63.858,295.523,61.865z"/>
			<path style="fill:#9AD5C5;" d="M302.284,63.772c0.4,0.112,0.797,0.226,1.196,0.343c-0.316,1.899-0.235,3.846-0.63,5.732
				c-0.419-0.085-0.924-0.194-0.963-0.706C301.572,67.354,301.742,65.498,302.284,63.772z"/>
			<path style="fill:#9AD5C5;" d="M311.732,66.536c0.412,0.084,0.821,0.19,1.221,0.322c-0.224,1.076-0.464,2.15-0.598,3.245
				c-0.106,0.464-0.068,1.109-0.607,1.318c-0.423-0.236-0.477-0.766-0.472-1.195C311.301,68.984,311.479,67.747,311.732,66.536z"/>
			<path style="fill:#9AD5C5;" d="M320.197,69.089c0.464,0.077,0.924,0.172,1.382,0.274c-0.364,1.474-0.759,2.945-0.98,4.451
				c0,0.435-0.349,0.69-0.633,0.971c-0.16-0.336-0.428-0.641-0.434-1.024C319.513,72.178,319.984,70.646,320.197,69.089z"/>
			<path style="fill:#9AD5C5;" d="M328.062,71.302c1.332,0.451,2.721,0.715,4.05,1.169c-0.885-0.243-1.774-0.462-2.657-0.704
				c-0.455,1.37-0.776,2.776-1.118,4.178c-0.141,0.47-0.225,1.102-0.771,1.29c-0.334-0.265-0.505-0.691-0.433-1.105
				C327.337,74.502,327.66,72.89,328.062,71.302z"/>
			<path style="fill:#9AD5C5;" d="M334.269,73.22c0.461,0.091,0.923,0.196,1.382,0.306c-0.345,1.652-0.6,3.329-1.155,4.933
				c-0.333-0.139-0.793-0.266-0.776-0.711C333.679,76.223,333.953,74.703,334.269,73.22z"/>
			<path style="fill:#9AD5C5;" d="M342.462,75.542c1.267,0.428,2.583,0.688,3.846,1.124c-0.868-0.253-1.749-0.465-2.623-0.693
				c-0.353,1.278-0.465,2.63-0.94,3.872c-0.205,0.544-0.875,0.173-0.851-0.302C341.826,78.191,342.167,76.852,342.462,75.542z"/>
			<path style="fill:#9AD5C5;" d="M349.994,77.763c0.513,0.135,1.021,0.29,1.526,0.457c-0.358,1.458-0.365,2.99-0.88,4.418
				c-0.401-0.158-0.842-0.379-0.892-0.858C349.52,80.442,349.786,79.082,349.994,77.763z"/>
			<path style="fill:#9AD5C5;" d="M358.524,80.339c0.451,0.1,0.902,0.215,1.35,0.339c-0.496,1.746-0.774,3.557-1.267,5.294
				c-0.193,0.663-0.892,0.21-0.888-0.289C357.629,83.869,358.232,82.111,358.524,80.339z"/>
			<path style="fill:#9AD5C5;" d="M366.711,82.807c0.421,0.095,0.84,0.2,1.26,0.31c-0.38,1.371-0.573,2.804-1.113,4.129
				c-0.19,0.444-0.745,0.557-0.813-0.022C365.963,85.724,366.481,84.273,366.711,82.807z"/>
			<path style="fill:#9AD5C5;" d="M375.023,85.185c0.393,0.122,0.776,0.284,1.146,0.47c-0.365,0.942-0.539,1.953-0.948,2.884
				c-0.202,0.441-0.796,0.163-0.724-0.271C374.469,87.219,374.853,86.209,375.023,85.185z"/>
			<path style="fill:#9AD5C5;" d="M382.562,87.449c0.419,0.122,0.842,0.242,1.264,0.364c-0.441,1.163-0.618,2.404-1.03,3.579
				c-0.139,0.55-0.819,0.131-0.846-0.255C381.815,89.876,382.3,88.661,382.562,87.449z"/>
			<path style="fill:#9AD5C5;" d="M387.916,89.033c0.182,0.064,0.542,0.193,0.725,0.257c0.073,0.037,0.221,0.112,0.297,0.15
				c-0.39,1.311-0.679,2.653-1.124,3.952c-0.316-0.152-0.726-0.322-0.668-0.745C387.248,91.414,387.65,90.232,387.916,89.033z"/>
			<path style="fill:#9AD5C5;" d="M394.931,91.165c0.372,0.098,0.745,0.203,1.116,0.318c-0.402,1.568-0.747,3.153-1.168,4.719
				c-0.13,0.058-0.385,0.172-0.512,0.228c-0.108-0.338-0.287-0.676-0.219-1.034C394.289,93.964,394.557,92.551,394.931,91.165z"/>
			<path style="fill:#9AD5C5;" d="M401.852,93.189c0.439,0.151,0.879,0.306,1.319,0.462c-0.242,0.992-0.361,2.023-0.722,2.988
				c-0.286,0.438-0.886,0.139-0.894-0.324C401.452,95.262,401.706,94.221,401.852,93.189z"/>
			<path style="fill:#9AD5C5;" d="M409.184,95.427c0.449,0.11,0.896,0.228,1.346,0.353c-0.437,1.673-0.753,3.383-1.32,5.025
				c-0.266-0.147-0.689-0.195-0.715-0.566C408.44,98.607,408.976,97.033,409.184,95.427z"/>
			<path style="fill:#9AD5C5;" d="M416.438,97.641c0.346,0.084,0.695,0.182,1.042,0.283c-0.218,1.775-0.495,3.572-1.139,5.253
				c-0.49,0.04-0.606-0.546-0.606-0.923C415.848,100.699,416.117,99.161,416.438,97.641z"/>
			<path style="fill:#9AD5C5;" d="M423.43,99.66c0.366,0.125,0.732,0.266,1.099,0.403c-0.394,1.884-0.475,3.83-1.033,5.68
				c-0.326-0.169-0.687-0.373-0.655-0.79C422.857,103.177,423.097,101.4,423.43,99.66z"/>
			<path style="fill:#9AD5C5;" d="M430.758,101.892c0.363,0.086,0.724,0.179,1.089,0.28c-0.566,1.813-0.932,3.68-1.373,5.529
				c-0.302-0.189-0.717-0.368-0.661-0.794C429.809,105.191,430.308,103.529,430.758,101.892z"/>
		</g>
		<g>
			<g>
				<path style="fill:#1E3851;" d="M71.879,217.329c0.147-0.638,1.03-0.985,1.473-0.423c0.932,1.067,1.663,2.295,2.487,3.449
					c0.392,0.471,0.581,1.389-0.116,1.688c-0.694,0.195-1.434,0.034-2.142,0.068c0.508,7.141,0.708,14.302,1.174,21.449
					c-0.082,2.261,0.336,4.502,0.291,6.766c-0.028,1.88,0.333,3.743,0.277,5.628c-0.025,1.507,0.161,3.009,0.268,4.511
					c0.003,1.846,0.025,3.698,0.257,5.535c0.071,1.64-0.006,3.286,0.15,4.923c0.288,2.058,0.079,4.146,0.265,6.215
					c0.333,2.619,0.034,5.281,0.429,7.9c-0.039,3.864,0.361,7.706,0.373,11.567c0.291,3.187,0.178,6.396,0.406,9.591
					c0.96,25.279,1.931,50.556,2.696,75.841c5.501-0.367,11.02-0.141,16.518-0.528c2.732,0.006,5.467-0.011,8.2-0.099
					c5.823-0.254,11.657-0.152,17.48-0.446c0.965-0.028,1.931-0.014,2.899-0.025c7.652-0.127,15.296-0.35,22.948-0.423
					c6.718-0.248,13.45-0.138,20.168-0.395c6.472-0.073,12.947-0.141,19.417-0.288c4.632-0.051,9.264-0.073,13.896-0.133
					c5.103-0.014,10.204-0.223,15.31-0.161c7.804-0.011,15.609,0.006,23.414-0.034c-0.181-0.725-0.203-1.815,0.759-1.939
					c1.25,0.133,2.368,0.827,3.449,1.434c0.624,0.322,0.624,1.228,0.209,1.725c-0.598,0.802-1.264,1.55-1.885,2.331
					c-0.277,0.319-0.74,0.7-1.174,0.497c-0.802-0.178-0.847-1.14-0.9-1.787c-4.025,0.271-8.07,0.017-12.089,0.421
					c-2.357,0.017-4.714-0.006-7.065,0.121c-3.184,0.305-6.39,0.087-9.583,0.26c-3.568,0.311-7.155,0.124-10.734,0.254
					c-19.191,0.449-38.388,0.7-57.581,0.974c-4.327,0.158-8.66,0.076-12.987,0.152c-8.668,0.124-17.334,0.268-26.002,0.262
					c-8.211,0.068-16.405,0.299-24.616,0.274c0.22,7.113,0.288,14.229,0.203,21.348c0.017,0.508-0.169,0.993-0.336,1.476
					c-0.593,0.33-1.211,0.327-1.795-0.003c-0.793-2.083-0.46-4.364-0.788-6.529c-0.293-5.436-0.621-10.873-0.799-16.315
					c-12.058,0.031-24.114,0.006-36.172-0.006c-0.858-0.003-1.711-0.056-2.563-0.093c-0.35-0.528,0-0.965,0.584-1.013
					c6.382-0.381,12.781-0.449,19.168-0.734c3.489,0.056,6.966-0.33,10.458-0.282c2.8,0.006,5.594-0.24,8.395-0.282
					c-0.915-26.499-1.727-52.998-2.433-79.505c-0.206-3.48-0.034-6.975-0.361-10.447c-0.003-3.108-0.045-6.215-0.147-9.32
					c-0.285-4.039-0.079-8.095-0.296-12.14c-0.212-3.096-0.13-6.201-0.167-9.303c-0.09-4.048-0.302-8.095-0.271-12.146
					c0.054-3.954-0.262-7.903-0.198-11.861c-0.164-2.913,0.028-5.829-0.152-8.739c-0.09-2.086-0.119-4.172-0.085-6.255
					c-0.74,0.008-2.157,0.364-2.157-0.773C70.685,220.112,71.345,218.735,71.879,217.329z"/>
			</g>
			<g>
				<path style="fill:#4A6784;" d="M209.882,246.986c1.267-0.22,2.518-0.711,3.827-0.542c0.367,1.061,0.186,2.204,0.271,3.308
					c0.186,4.985,0.096,9.978,0.361,14.96c0.062,5.084,0.268,10.156,0.409,15.239c-0.085,2.075,0.15,4.144,0.178,6.221
					c0.059,5.93,0.392,11.852,0.406,17.785c0.296,4.601,0.167,9.219,0.415,13.822c0.118,5.264,0.192,10.528,0.409,15.793
					c-0.059,4.059,0.203,8.112,0.282,12.171c-0.068,5.264,0.342,10.523,0.277,15.79c0.127,6.001,0.322,12.002,0.282,18.005
					c-5.106-0.062-10.207,0.147-15.31,0.161c-4.632,0.059-9.264,0.082-13.896,0.133c1.753-37.544,4.062-75.062,6.309-112.577
					c0.392-5.459,0.692-10.921,1.078-16.377c0.062-0.675,0.773-0.833,1.315-0.965C200.943,248.869,205.419,247.96,209.882,246.986z"
					/>
			</g>
			<g>
				<path style="fill:#F33F38;" d="M91.919,231.115c-0.127-0.785,0.74-1.061,1.361-0.869c10.548,1.694,21.076,3.531,31.627,5.213
					c0.522,0.054,1.047,0.426,0.9,1.025c0.025,14.486,0.02,28.971,0.02,43.457c0.062,6.879-0.11,13.755-0.087,20.633
					c-0.02,12.137-0.011,24.275-0.186,36.409c-0.003,5.637,0.003,11.274,0.003,16.913c0.045,3.678-0.155,7.353-0.11,11.034
					c-0.008,5.338-0.243,10.672-0.184,16.01c-0.968,0.011-1.933-0.003-2.899,0.025c-5.823,0.293-11.657,0.192-17.48,0.446
					c-2.563-25.042-4.629-50.138-6.848-75.209C95.919,281.18,93.774,256.16,91.919,231.115z"/>
			</g>
			<g>
				<path style="fill:#9AD5C5;" d="M164.703,271.515c4.895-0.68,9.789-1.383,14.692-2.029c0.48-0.082,1.442-0.141,1.355,0.607
					c-3.867,35.184-7.551,70.393-11.784,105.538c-0.195,1.496-0.33,3-0.587,4.491c-6.718,0.257-13.45,0.147-20.168,0.395
					c0.181-0.985,0.59-1.908,0.751-2.89c-0.051-5.083-0.107-10.17-0.116-15.253c-0.302-10.159-0.231-20.32-0.305-30.479
					c-0.169-6.018-0.192-12.036-0.195-18.053c-0.172-8.437,0.025-16.876-0.152-25.313c-0.04-4.268,0.093-8.536-0.07-12.803
					c0.006-0.7-0.178-1.846,0.796-1.962C154.149,272.839,159.445,272.294,164.703,271.515z"/>
			</g>
		</g>
	</g>
</g>
<g id="DESIGNED_BY_FREEPIK">
	<g>
		<g id="XMLID_57_">
			<g id="XMLID_76_">
				<path id="XMLID_84_" style="fill:#1D262D;" d="M260.104,465.465c-0.432,0.443-0.803,0.931-1.108,1.453l-0.465-0.241
					c-0.067-0.298-0.349-0.503-0.659-0.466c-0.331,0.039-0.568,0.339-0.529,0.67c0.039,0.331,0.339,0.568,0.67,0.529
					c0.066-0.008,0.127-0.026,0.184-0.052l0.451,0.234c-0.251,0.554-0.433,1.139-0.539,1.744l0.747,0.132
					c0.23-1.306,0.85-2.507,1.792-3.473L260.104,465.465z"/>
				<path id="XMLID_83_" style="fill:#1D262D;" d="M265.592,463.163c-0.171,0-0.341,0.006-0.51,0.017l-0.074-0.626
					c0.188-0.149,0.296-0.389,0.266-0.645c-0.046-0.393-0.402-0.674-0.795-0.628c-0.393,0.046-0.674,0.402-0.628,0.795
					c0.03,0.254,0.189,0.461,0.404,0.564l0.074,0.624c-0.714,0.116-1.403,0.332-2.06,0.646l0.327,0.684
					c0.934-0.447,1.942-0.673,2.995-0.673c0.496,0,0.993,0.053,1.475,0.158l0.161-0.741
					C266.692,463.222,266.142,463.163,265.592,463.163z"/>
				<path id="XMLID_82_" style="fill:#1D262D;" d="M272.194,465.711c0.331-0.04,0.566-0.341,0.526-0.672
					c-0.04-0.331-0.341-0.566-0.672-0.526c-0.309,0.038-0.535,0.304-0.53,0.609l-0.416,0.363c-0.418-0.43-0.889-0.813-1.408-1.139
					l-0.404,0.641c1.134,0.715,2.021,1.726,2.563,2.925l0.69-0.313c-0.251-0.554-0.567-1.072-0.942-1.545l0.402-0.351
					C272.065,465.716,272.129,465.719,272.194,465.711z"/>
				<path id="XMLID_81_" style="fill:#1D262D;" d="M265.044,473.372c-0.386,0.023-0.775,0.035-1.157,0.035
					c-0.88,0-1.733-0.061-2.478-0.179c-0.39-0.062-0.846-0.155-1.27-0.292c1.046,1.861,3.069,3.125,5.388,3.125
					c2.855,0,5.262-1.916,5.95-4.504c-0.682,0.449-1.505,0.825-2.459,1.123C267.839,473.047,266.463,473.286,265.044,473.372z"/>
				<path id="XMLID_77_" style="fill:#1D262D;" d="M265.592,464.68c-3.352,0-6.08,2.666-6.08,5.943c0,0.426,0.046,0.849,0.137,1.261
					c0.673,0.483,2.706,0.89,5.348,0.731c2.879-0.173,5.297-0.957,6.672-2.159c-0.006-0.195-0.021-0.39-0.045-0.582
					C271.244,466.913,268.65,464.68,265.592,464.68z M263.432,471.194c-1.02,0-1.85-0.83-1.85-1.85c0-1.02,0.83-1.85,1.85-1.85
					c1.02,0,1.85,0.83,1.85,1.85C265.282,470.365,264.452,471.194,263.432,471.194z M268.17,470.286c-0.75,0-1.36-0.61-1.36-1.36
					s0.61-1.361,1.36-1.361c0.75,0,1.361,0.61,1.361,1.361S268.92,470.286,268.17,470.286z"/>
			</g>
			<path id="XMLID_74_" style="fill:#1D262D;" d="M281.595,466.547c-0.295-0.116-0.805-0.309-1.382-0.237
				c-0.551,0.069-0.844,0.341-0.844,1.007v0.866h2.228v1.717h-2.228v5.455h-1.932v-5.455h-1.34v-1.717h1.34v-0.888
				c0-1.68,0.896-2.783,2.568-2.783c0.643,0,1.157,0.122,1.59,0.308L281.595,466.547z"/>
			<path id="XMLID_72_" style="fill:#1D262D;" d="M286.298,469.879c-0.177-0.03-0.358-0.046-0.526-0.046
				c-0.896,0-1.51,0.548-1.51,1.614v3.908h-1.932v-7.172h1.873v0.785c0.451-0.673,1.14-0.977,2.021-0.977
				c0.414,0,0.848,0.128,1.094,0.337L286.298,469.879z"/>
			<path id="XMLID_69_" style="fill:#1D262D;" d="M293.965,471.757c0,0.222-0.015,0.489-0.037,0.651h-5.085
				c0.207,1.036,0.933,1.488,1.843,1.488c0.622,0,1.295-0.252,1.813-0.688l1.133,1.243c-0.814,0.748-1.85,1.088-3.057,1.088
				c-2.198,0-3.723-1.495-3.723-3.753c0-2.258,1.48-3.797,3.627-3.797C292.544,467.99,293.958,469.522,293.965,471.757z
				 M288.851,471.091h3.175c-0.177-0.918-0.733-1.436-1.562-1.436C289.554,469.655,289.021,470.203,288.851,471.091z"/>
			<path id="XMLID_66_" style="fill:#1D262D;" d="M301.618,471.757c0,0.222-0.015,0.489-0.037,0.651h-5.085
				c0.207,1.036,0.933,1.488,1.843,1.488c0.622,0,1.295-0.252,1.814-0.688l1.132,1.243c-0.814,0.748-1.85,1.088-3.057,1.088
				c-2.198,0-3.723-1.495-3.723-3.753c0-2.258,1.48-3.797,3.627-3.797C300.197,467.99,301.611,469.522,301.618,471.757z
				 M296.504,471.091h3.175c-0.178-0.918-0.733-1.436-1.562-1.436C297.207,469.655,296.674,470.203,296.504,471.091z"/>
			<path id="XMLID_63_" style="fill:#1D262D;" d="M309.964,471.764c0,2.154-1.495,3.775-3.471,3.775
				c-0.962,0-1.643-0.378-2.109-0.933v3.708h-1.924v-10.133h1.887v0.792c0.466-0.585,1.155-0.984,2.139-0.984
				C308.469,467.99,309.964,469.61,309.964,471.764z M304.287,471.764c0,1.132,0.748,1.976,1.843,1.976
				c1.14,0,1.85-0.881,1.85-1.976c0-1.095-0.71-1.976-1.85-1.976C305.035,469.788,304.287,470.632,304.287,471.764z"/>
			<path id="XMLID_60_" style="fill:#1D262D;" d="M313.068,465.836c0,0.696-0.54,1.229-1.236,1.229
				c-0.696,0-1.229-0.533-1.229-1.229c0-0.696,0.533-1.243,1.229-1.243C312.527,464.592,313.068,465.14,313.068,465.836z
				 M312.809,475.354h-1.932v-7.172h1.932V475.354z"/>
			<path id="XMLID_58_" style="fill:#1D262D;" d="M316.032,470.736l2.701-2.554h2.368l-3.479,3.375l3.501,3.797h-2.376l-2.716-2.901
				v2.901H314.1v-10.658h1.932V470.736z"/>
		</g>
		<g>
			<path style="fill:#1D262D;" d="M184.412,475.289v-1.055c-0.527,0.718-1.391,1.23-2.387,1.23c-1.846,0-3.149-1.406-3.149-3.706
				c0-2.256,1.289-3.721,3.149-3.721c0.952,0,1.816,0.469,2.387,1.245v-3.765h1.099v9.77H184.412z M184.412,473.37v-3.208
				c-0.395-0.615-1.245-1.143-2.124-1.143c-1.421,0-2.27,1.172-2.27,2.739c0,1.567,0.85,2.724,2.27,2.724
				C183.168,474.483,184.017,473.986,184.412,473.37z"/>
			<path style="fill:#1D262D;" d="M186.932,471.744c0-2.051,1.465-3.706,3.486-3.706c2.139,0,3.398,1.67,3.398,3.794v0.279h-5.727
				c0.088,1.333,1.025,2.446,2.549,2.446c0.805,0,1.626-0.322,2.182-0.894l0.527,0.718c-0.703,0.703-1.655,1.084-2.812,1.084
				C188.44,475.465,186.932,473.956,186.932,471.744z M190.403,468.947c-1.509,0-2.256,1.274-2.314,2.358h4.643
				C192.718,470.25,192.015,468.947,190.403,468.947z"/>
			<path style="fill:#1D262D;" d="M194.607,474.351l0.571-0.791c0.469,0.542,1.362,1.011,2.329,1.011c1.084,0,1.67-0.513,1.67-1.216
				c0-1.714-4.38-0.659-4.38-3.281c0-1.098,0.952-2.036,2.636-2.036c1.201,0,2.051,0.454,2.622,1.026l-0.513,0.762
				c-0.424-0.513-1.201-0.894-2.109-0.894c-0.967,0-1.567,0.483-1.567,1.113c0,1.552,4.38,0.527,4.38,3.281
				c0,1.187-0.952,2.138-2.783,2.138C196.306,475.465,195.325,475.113,194.607,474.351z"/>
			<path style="fill:#1D262D;" d="M201.477,466.471c0-0.41,0.337-0.747,0.732-0.747c0.41,0,0.747,0.337,0.747,0.747
				c0,0.41-0.337,0.732-0.747,0.732C201.814,467.203,201.477,466.881,201.477,466.471z M201.667,475.289v-7.075h1.099v7.075H201.667
				z"/>
			<path style="fill:#1D262D;" d="M204.582,477.105l0.556-0.82c0.586,0.703,1.289,0.967,2.3,0.967c1.172,0,2.27-0.571,2.27-2.124
				v-1.011c-0.513,0.718-1.377,1.26-2.373,1.26c-1.845,0-3.149-1.377-3.149-3.662c0-2.27,1.289-3.677,3.149-3.677
				c0.952,0,1.802,0.469,2.373,1.245v-1.069h1.098v6.87c0,2.344-1.641,3.076-3.369,3.076
				C206.237,478.16,205.417,477.926,204.582,477.105z M209.709,473.253v-3.091c-0.381-0.615-1.23-1.143-2.109-1.143
				c-1.421,0-2.27,1.128-2.27,2.695c0,1.553,0.849,2.695,2.27,2.695C208.478,474.41,209.328,473.868,209.709,473.253z"/>
			<path style="fill:#1D262D;" d="M217.413,475.289v-4.629c0-1.245-0.63-1.641-1.582-1.641c-0.865,0-1.685,0.527-2.095,1.099v5.17
				h-1.099v-7.075h1.099v1.025c0.498-0.586,1.464-1.201,2.519-1.201c1.48,0,2.256,0.747,2.256,2.285v4.966H217.413z"/>
			<path style="fill:#1D262D;" d="M219.932,471.744c0-2.051,1.465-3.706,3.486-3.706c2.139,0,3.398,1.67,3.398,3.794v0.279h-5.727
				c0.088,1.333,1.025,2.446,2.549,2.446c0.806,0,1.626-0.322,2.183-0.894l0.527,0.718c-0.703,0.703-1.655,1.084-2.812,1.084
				C221.441,475.465,219.932,473.956,219.932,471.744z M223.404,468.947c-1.509,0-2.256,1.274-2.314,2.358h4.643
				C225.718,470.25,225.015,468.947,223.404,468.947z"/>
			<path style="fill:#1D262D;" d="M233.35,475.289v-1.055c-0.527,0.718-1.392,1.23-2.388,1.23c-1.846,0-3.149-1.406-3.149-3.706
				c0-2.256,1.289-3.721,3.149-3.721c0.952,0,1.817,0.469,2.388,1.245v-3.765h1.098v9.77H233.35z M233.35,473.37v-3.208
				c-0.396-0.615-1.245-1.143-2.124-1.143c-1.421,0-2.27,1.172-2.27,2.739c0,1.567,0.849,2.724,2.27,2.724
				C232.105,474.483,232.954,473.986,233.35,473.37z"/>
			<path style="fill:#1D262D;" d="M239.692,475.289v-9.77h1.098v3.765c0.572-0.776,1.421-1.245,2.388-1.245
				c1.845,0,3.149,1.465,3.149,3.721c0,2.299-1.304,3.706-3.149,3.706c-0.996,0-1.86-0.513-2.388-1.23v1.055H239.692z
				 M242.9,474.483c1.436,0,2.285-1.157,2.285-2.724c0-1.568-0.85-2.739-2.285-2.739c-0.864,0-1.728,0.527-2.109,1.143v3.208
				C241.171,473.986,242.036,474.483,242.9,474.483z"/>
			<path style="fill:#1D262D;" d="M247.528,477.061c0.161,0.073,0.425,0.117,0.601,0.117c0.483,0,0.805-0.161,1.055-0.747
				l0.469-1.069l-2.959-7.148h1.187l2.358,5.8l2.344-5.8h1.201l-3.545,8.51c-0.425,1.025-1.143,1.421-2.08,1.435
				c-0.234,0-0.601-0.044-0.805-0.103L247.528,477.061z"/>
		</g>
	</g>
</g>
</svg>
