<?xml version="1.0" encoding="utf-8"?>
<!-- Generator: Adobe Illustrator 27.5.0, SVG Export Plug-In . SVG Version: 6.00 Build 0)  -->
<svg version="1.1" xmlns="http://www.w3.org/2000/svg" xmlns:xlink="http://www.w3.org/1999/xlink" x="0px" y="0px"
	 viewBox="0 0 1122 1122" style="enable-background:new 0 0 1122 1122;" xml:space="preserve">
<g id="Bg">
	<rect style="fill:#FFFFFF;" width="1122" height="1122"/>
</g>
<g id="Object">
	<g>
		<g>
			<rect x="735.758" y="210.317" style="fill:#CDCDCD;" width="93.378" height="4.051"/>
		</g>
		<g>
			<rect x="405.181" y="676.715" style="fill:#60A4C2;" width="101.893" height="5.699"/>
		</g>
		<g>
			<polygon style="fill:#9900A6;" points="450.784,648.21 298.53,648.21 260.426,614.055 264.23,609.812 300.711,642.511 
				450.784,642.511 			"/>
		</g>
		<g>
			
				<rect x="365.664" y="276.913" transform="matrix(0.6174 -0.7867 0.7867 0.6174 -177.6289 444.8912)" style="fill:#EEBD3A;" width="5.699" height="256.253"/>
		</g>
		<g>
			
				<rect x="387.22" y="334.348" transform="matrix(0.6145 -0.7889 0.7889 0.6145 -200.5495 477.8318)" style="fill:#CACACA;" width="2.851" height="219.543"/>
		</g>
		<g>
			<polygon style="fill:#C84B2A;" points="655.375,467.888 653.284,465.952 676.893,440.472 676.893,389.106 679.743,389.106 
				679.743,441.591 			"/>
		</g>
		<g>
			<polygon style="fill:#CDCDCD;" points="659.042,485.717 654.852,481.852 688.297,445.619 688.297,285.701 674.633,285.701 
				674.633,280.001 693.998,280.001 693.998,447.849 			"/>
		</g>
		<g>
			<rect x="688.947" y="537.938" style="fill:#CDCDCD;" width="94.766" height="5.699"/>
		</g>
		<g>
			<rect x="703.196" y="555.036" style="fill:#CDCDCD;" width="156.044" height="5.699"/>
		</g>
		<g>
			<path style="fill:#CDCDCD;" d="M792.085,552.165c-6.667,0-12.091-5.426-12.091-12.093c0-6.665,5.424-12.089,12.091-12.089
				c6.667,0,12.091,5.424,12.091,12.089C804.177,546.739,798.753,552.165,792.085,552.165z M792.085,533.283
				c-3.744,0-6.791,3.046-6.791,6.789c0,3.745,3.047,6.792,6.791,6.792c3.744,0,6.79-3.047,6.79-6.792
				C798.876,536.329,795.829,533.283,792.085,533.283z"/>
		</g>
		<g>
			<path style="fill:#CDCDCD;" d="M1026.329,556.445c-6.667,0-12.091-5.424-12.091-12.09c0-6.667,5.424-12.093,12.091-12.093
				c6.667,0,12.092,5.426,12.092,12.093C1038.421,551.021,1032.996,556.445,1026.329,556.445z M1026.329,537.563
				c-3.744,0-6.79,3.047-6.79,6.792c0,3.743,3.046,6.789,6.79,6.789c3.745,0,6.791-3.046,6.791-6.789
				C1033.12,540.611,1030.074,537.563,1026.329,537.563z"/>
		</g>
		<g>
			<path style="fill:#CDCDCD;" d="M326.165,882.836c-6.666,0-12.09-5.424-12.09-12.091c0-6.667,5.424-12.091,12.09-12.091
				c6.667,0,12.092,5.424,12.092,12.091C338.257,877.412,332.832,882.836,326.165,882.836z M326.165,863.955
				c-3.744,0-6.79,3.046-6.79,6.791c0,3.745,3.046,6.791,6.79,6.791c3.745,0,6.791-3.046,6.791-6.791
				C332.956,867,329.91,863.955,326.165,863.955z"/>
		</g>
		<g>
			<path style="fill:#CDCDCD;" d="M535.648,1019.643c-6.667,0-12.091-5.424-12.091-12.091c0-6.667,5.424-12.093,12.091-12.093
				c6.667,0,12.091,5.426,12.091,12.093C547.74,1014.219,542.315,1019.643,535.648,1019.643z M535.648,1000.76
				c-3.744,0-6.791,3.047-6.791,6.792c0,3.745,3.046,6.791,6.791,6.791c3.744,0,6.79-3.046,6.79-6.791
				C542.439,1003.807,539.392,1000.76,535.648,1000.76z"/>
		</g>
		<g>
			<path style="fill:#CDCDCD;" d="M723.682,158.375c-6.667,0-12.092-5.426-12.092-12.093c0-6.667,5.425-12.091,12.092-12.091
				s12.091,5.424,12.091,12.091C735.774,152.949,730.35,158.375,723.682,158.375z M723.682,139.492
				c-3.745,0-6.791,3.046-6.791,6.791c0,3.745,3.046,6.792,6.791,6.792c3.744,0,6.791-3.047,6.791-6.792
				C730.473,142.537,727.427,139.492,723.682,139.492z"/>
		</g>
		<g>
			<path style="fill:#EEBD3A;" d="M261.964,332.706c-6.667,0-12.091-5.424-12.091-12.091s5.424-12.091,12.091-12.091
				c6.667,0,12.091,5.424,12.091,12.091S268.631,332.706,261.964,332.706z M261.964,313.824c-3.744,0-6.791,3.046-6.791,6.79
				s3.046,6.79,6.791,6.79c3.744,0,6.79-3.046,6.79-6.79S265.708,313.824,261.964,313.824z"/>
		</g>
		<g>
			<path style="fill:#CDCDCD;" d="M341.767,561.606c-6.667,0-12.091-5.424-12.091-12.091s5.424-12.091,12.091-12.091
				s12.091,5.424,12.091,12.091S348.434,561.606,341.767,561.606z M341.767,542.724c-3.744,0-6.79,3.046-6.79,6.791
				c0,3.745,3.046,6.79,6.79,6.79c3.744,0,6.79-3.046,6.79-6.79C348.557,545.769,345.511,542.724,341.767,542.724z"/>
		</g>
		<g>
			<path style="fill:#CDCDCD;" d="M440.631,778.749c-6.667,0-12.092-5.424-12.092-12.091c0-6.667,5.425-12.091,12.092-12.091
				c6.666,0,12.09,5.424,12.09,12.091C452.721,773.325,447.297,778.749,440.631,778.749z M440.631,759.867
				c-3.745,0-6.791,3.046-6.791,6.79c0,3.745,3.046,6.791,6.791,6.791c3.744,0,6.79-3.046,6.79-6.791
				C447.42,762.913,444.375,759.867,440.631,759.867z"/>
		</g>
		<g>
			<path style="fill:#CDCDCD;" d="M756.458,771.624c-6.667,0-12.091-5.424-12.091-12.091c0-6.667,5.424-12.091,12.091-12.091
				c6.667,0,12.091,5.424,12.091,12.091C768.549,766.2,763.125,771.624,756.458,771.624z M756.458,752.742
				c-3.744,0-6.791,3.046-6.791,6.791c0,3.745,3.046,6.791,6.791,6.791c3.744,0,6.79-3.046,6.79-6.791
				C763.248,755.788,760.202,752.742,756.458,752.742z"/>
		</g>
		<g>
			<path style="fill:#CDCDCD;" d="M440.631,153.149c-6.667,0-12.092-5.424-12.092-12.09c0-6.667,5.425-12.093,12.092-12.093
				c6.666,0,12.09,5.426,12.09,12.093C452.721,147.725,447.297,153.149,440.631,153.149z M440.631,134.267
				c-3.745,0-6.791,3.047-6.791,6.792c0,3.743,3.046,6.789,6.791,6.789c3.744,0,6.79-3.046,6.79-6.789
				C447.42,137.314,444.375,134.267,440.631,134.267z"/>
		</g>
		<g>
			<rect x="701.357" y="617.979" style="fill:#60A4C2;" width="141.556" height="2.851"/>
		</g>
		<g>
			<rect x="706.582" y="604.2" style="fill:#EEBD3A;" width="118.279" height="5.699"/>
		</g>
		<g>
			<rect x="412.792" y="540.786" style="fill:#CDCDCD;" width="94.767" height="2.851"/>
		</g>
		<g>
			<rect x="409.942" y="567.862" style="fill:#CDCDCD;" width="94.766" height="2.851"/>
		</g>
		<g>
			<rect x="365.974" y="587.092" style="fill:#CDCDCD;" width="113.776" height="2.851"/>
		</g>
		<g>
			<polygon style="fill:#CDCDCD;" points="180.377,420.692 144.647,386.422 144.647,362.893 149.948,362.893 149.948,384.162 
				184.046,416.868 			"/>
		</g>
		<g>
			<polygon style="fill:#CDCDCD;" points="677.737,483.82 673.556,479.945 766.199,379.993 867.138,379.993 867.138,385.692 
				768.688,385.692 			"/>
		</g>
		<g>
			<polygon style="fill:#CDCDCD;" points="643.536,551.273 639.355,547.398 731.998,447.445 771.183,447.445 771.183,453.145 
				734.487,453.145 			"/>
		</g>
		<g>
			<polygon style="fill:#CDCDCD;" points="678.591,496.153 676.502,494.217 768.721,394.717 869.038,394.717 869.038,397.569 
				769.966,397.569 			"/>
		</g>
		<g>
			<rect x="389.507" y="557.136" style="fill:#CDCDCD;" width="61.05" height="5.301"/>
		</g>
		<g>
			<rect x="335.355" y="600.594" style="fill:#CDCDCD;" width="104.741" height="5.301"/>
		</g>
		<g>
			<rect x="437.446" y="148.184" style="fill:#CDCDCD;" width="5.301" height="92.628"/>
		</g>
		<g>
			<polygon style="fill:#A9C732;" points="982.329,853.387 900.51,853.387 795.092,784.553 797.99,780.114 902.088,848.086 
				982.329,848.086 			"/>
		</g>
		<g>
			<polygon style="fill:#CDCDCD;" points="453.79,255.062 448.49,255.062 448.49,186.072 489.125,143.503 492.959,147.162 
				453.79,188.197 			"/>
		</g>
		<g>
			<rect x="187.862" y="728.656" style="fill:#CDCDCD;" width="69.826" height="2.851"/>
		</g>
		<g>
			<polygon style="fill:#CDCDCD;" points="611.167,927.71 607.045,923.77 638.522,890.828 705.287,890.828 705.287,896.527 
				640.96,896.527 			"/>
		</g>
		<g>
			<rect x="657.548" y="876.578" style="fill:#CACACA;" width="50.589" height="2.851"/>
		</g>
		<g>
			<polygon style="fill:#CDCDCD;" points="460.227,846.818 454.526,846.818 454.526,689.352 495.849,689.352 495.849,695.051 
				460.227,695.051 			"/>
		</g>
		<g>
			<rect x="437.424" y="775.565" style="fill:#CDCDCD;" width="5.701" height="78.378"/>
		</g>
		<g>
			<rect x="456.186" y="900.672" style="fill:#CDCDCD;" width="5.701" height="84.377"/>
		</g>
		<g>
			
				<rect x="700.966" y="611.356" transform="matrix(0.5457 -0.838 0.838 0.5457 -249.5854 896.8478)" style="fill:#CDCDCD;" width="2.85" height="134.532"/>
		</g>
		<g>
			<rect x="609.013" y="711.555" style="fill:#CACACA;" width="2.85" height="109.729"/>
		</g>
		<g>
			<rect x="594.287" y="711.082" style="fill:#CDCDCD;" width="5.701" height="68.402"/>
		</g>
		<g>
			<polygon style="fill:#EEBD3A;" points="476.504,476.236 286.841,327.008 286.841,221.336 289.69,221.336 289.69,325.623 
				478.266,473.996 			"/>
		</g>
		<g>
			<rect x="524.174" y="371.917" style="fill:#CDCDCD;" width="5.701" height="104.03"/>
		</g>
		<g>
			<polygon style="fill:#CDCDCD;" points="333.346,466.636 271.381,466.636 169.869,380.743 173.551,376.391 273.469,460.937 
				333.346,460.937 			"/>
		</g>
		<g>
			<polygon style="fill:#CDCDCD;" points="911.315,435.283 873.468,435.283 771.955,349.393 775.638,345.042 875.555,429.584 
				911.315,429.584 			"/>
		</g>
		<g>
			<polygon style="fill:#CDCDCD;" points="940.423,423.885 878.979,423.885 878.58,423.547 777.865,338.329 779.706,336.153 
				880.023,421.033 940.423,421.033 			"/>
		</g>
		<g>
			
				<rect x="832.468" y="305.334" transform="matrix(0.6459 -0.7634 0.7634 0.6459 11.8051 768.0532)" style="fill:#CDCDCD;" width="2.85" height="131.932"/>
		</g>
		<g>
			<rect x="906.271" y="833.835" style="fill:#CDCDCD;" width="52.546" height="5.301"/>
		</g>
		<g>
			<rect x="590.57" y="174.856" style="fill:#CDCDCD;" width="5.701" height="271.473"/>
		</g>
		<g>
			<rect x="500.898" y="406.118" style="fill:#CACACA;" width="2.85" height="81.228"/>
		</g>
		<g>
			<rect x="508.699" y="423.932" style="fill:#CDCDCD;" width="5.301" height="63.414"/>
		</g>
		<g>
			<rect x="735.083" y="221.456" style="fill:#CDCDCD;" width="54.84" height="2.024"/>
		</g>
		<g>
			<rect x="134.184" y="573.8" style="fill:#CDCDCD;" width="76.953" height="2.851"/>
		</g>
		<g>
			<path style="fill:#CDCDCD;" d="M286.189,481.055c0.105,3.863-2.942,7.078-6.805,7.184c-3.862,0.105-7.079-2.944-7.182-6.806
				c-0.105-3.863,2.943-7.078,6.805-7.182C282.868,474.146,286.085,477.192,286.189,481.055z"/>
		</g>
		<g>
			
				<rect x="250.337" y="429.078" transform="matrix(0.6204 -0.7843 0.7843 0.6204 -264.8202 371.8841)" style="fill:#CDCDCD;" width="2.851" height="60.869"/>
		</g>
		<g>
			
				<rect x="274.143" y="422.465" transform="matrix(0.6308 -0.7759 0.7759 0.6308 -283.1905 398.3025)" style="fill:#CDCDCD;" width="5.7" height="148.599"/>
		</g>
		<g>
			<path style="fill:#828282;" d="M158.956,362.893c0,6-4.865,10.865-10.866,10.865c-6.002,0-10.867-4.865-10.867-10.865
				c0-6.002,4.865-10.865,10.867-10.865C154.091,352.028,158.956,356.891,158.956,362.893z"/>
		</g>
		<g>
			<path style="fill:#60A4C2;" d="M414.927,680.377c0,6.167-4.998,11.165-11.164,11.165c-6.166,0-11.164-4.998-11.164-11.165
				c0-6.166,4.997-11.164,11.164-11.164C409.929,669.214,414.927,674.212,414.927,680.377z"/>
		</g>
		<g>
			<g>
				<g>
					<path style="fill:#BDC2C5;" d="M669.739,282.003c0,5.562-4.509,10.071-10.071,10.071c-5.563,0-10.071-4.509-10.071-10.071
						c0-5.559,4.508-10.071,10.071-10.071C665.23,271.932,669.739,276.444,669.739,282.003z"/>
				</g>
			</g>
			<g>
				<g>
					<path style="fill:#BDC2C5;" d="M659.668,296.968c-8.252,0-14.964-6.713-14.964-14.964c0-8.252,6.713-14.965,14.964-14.965
						s14.965,6.713,14.965,14.965C674.633,290.255,667.92,296.968,659.668,296.968z M659.668,269.299
						c-7.007,0-12.706,5.699-12.706,12.704c0,7.008,5.699,12.706,12.706,12.706c7.007,0,12.705-5.698,12.705-12.706
						C672.373,274.998,666.675,269.299,659.668,269.299z"/>
				</g>
			</g>
		</g>
		<g>
			<g>
				<g>
					<path style="fill:#BDC2C5;" d="M669.447,815.806c0,5.561-4.508,10.071-10.071,10.071c-5.562,0-10.071-4.51-10.071-10.071
						c0-5.562,4.509-10.071,10.071-10.071C664.939,805.735,669.447,810.244,669.447,815.806z"/>
				</g>
			</g>
			<g>
				<g>
					<path style="fill:#BDC2C5;" d="M659.376,830.771c-8.251,0-14.964-6.713-14.964-14.964c0-8.252,6.714-14.964,14.964-14.964
						c8.252,0,14.964,6.713,14.964,14.964C674.341,824.058,667.628,830.771,659.376,830.771z M659.376,803.1
						c-7.006,0-12.705,5.701-12.705,12.706c0,7.005,5.699,12.704,12.705,12.704c7.007,0,12.706-5.699,12.706-12.704
						C672.082,808.801,666.383,803.1,659.376,803.1z"/>
				</g>
			</g>
		</g>
		<g>
			<g>
				<g>
					<path style="fill:#9900A6;" d="M262.059,601.352c0,5.561-4.508,10.071-10.071,10.071c-5.563,0-10.07-4.51-10.07-10.071
						c0-5.563,4.508-10.071,10.07-10.071C257.551,591.281,262.059,595.79,262.059,601.352z"/>
				</g>
			</g>
			<g>
				<g>
					<path style="fill:#9900A6;" d="M251.988,616.315c-8.253,0-14.965-6.711-14.965-14.963c0-8.253,6.712-14.966,14.965-14.966
						c8.252,0,14.965,6.713,14.965,14.966C266.953,609.604,260.24,616.315,251.988,616.315z M251.988,588.646
						c-7.005,0-12.706,5.699-12.706,12.706c0,7.005,5.701,12.706,12.706,12.706c7.007,0,12.706-5.701,12.706-12.706
						C264.694,594.345,258.995,588.646,251.988,588.646z"/>
				</g>
			</g>
		</g>
		<g>
			<g>
				<polygon style="fill:#979797;" points="485.308,469.241 297.533,322.315 297.352,197.593 310.178,197.576 310.349,316.059 
					493.212,459.14 				"/>
			</g>
			<g>
				<g>
					<path style="fill:#979797;" d="M621.791,448.158h-12.826v-79.566c0-21.61,17.581-39.189,39.19-39.189h13.775v12.824h-13.775
						c-14.537,0-26.364,11.828-26.364,26.365V448.158z"/>
				</g>
			</g>
			<g>
				<g>
					<rect x="695.894" y="510.859" style="fill:#979797;" width="55.583" height="12.824"/>
				</g>
				<g>
					<path style="fill:#979797;" d="M780.685,523.683h-34.907v-12.824h34.907c14.537,0,26.363-11.828,26.363-26.365v-43.699h12.826
						v43.699C819.874,506.104,802.294,523.683,780.685,523.683z"/>
				</g>
			</g>
			<g>
				<g>
					<rect x="569.193" y="354.397" style="fill:#979797;" width="12.826" height="83.787"/>
				</g>
				<g>
					<path style="fill:#979797;" d="M582.019,360.096h-12.826v-79.089c0-14.537-11.826-26.363-26.363-26.363h-12.955v-12.824h12.955
						c21.609,0,39.189,17.579,39.189,39.188V360.096z"/>
				</g>
			</g>
			<g>
				<g>
					<rect x="422.532" y="654.315" style="fill:#979797;" width="40.008" height="12.824"/>
				</g>
				<g>
					<path style="fill:#979797;" d="M358.405,707.754h-12.826v-14.25c0-21.61,17.58-39.189,39.189-39.189h43.463v12.824h-43.463
						c-14.537,0-26.363,11.828-26.363,26.365V707.754z"/>
				</g>
			</g>
			<g>
				<g>
					<path style="fill:#979797;" d="M319.218,761.195h-5.223V748.37h5.223c14.537,0,26.364-11.826,26.364-26.363v-30.162h12.826
						v30.162C358.408,743.615,340.827,761.195,319.218,761.195z"/>
				</g>
			</g>
			<g>
				<g>
					<g>
						<path style="fill:#979797;" d="M482.602,807.865h-12.826c0-21.608,17.58-39.187,39.189-39.187h19.62v12.824h-19.62
							C494.428,781.502,482.602,793.328,482.602,807.865z"/>
					</g>
				</g>
				<g>
					<g>
						<path style="fill:#979797;" d="M534.334,781.497h-19.091v-12.824h19.091c14.537,0,26.363-11.826,26.363-26.363v-32.179h12.826
							v32.179C573.523,763.918,555.943,781.497,534.334,781.497z"/>
					</g>
				</g>
			</g>
			<g>
				
					<ellipse transform="matrix(0.9999 -0.0151 0.0151 0.9999 -5.0027 10.1144)" style="fill:#979797;" cx="665.255" cy="335.341" rx="16.626" ry="16.627"/>
			</g>
			<g>
				<g>
					<polygon style="fill:#979797;" points="753.551,637.605 777.399,637.774 759.463,660.712 					"/>
				</g>
				<g>
					<g>
						<polygon style="fill:#505050;" points="885.332,766.038 861.482,766.068 879.228,742.982 						"/>
					</g>
					<g>
						<path style="fill:#505050;" d="M871.21,762.499l-17.136-11.372l7.091-10.686l17.136,11.372L871.21,762.499z M836.263,739.308
							l-17.811-11.819l7.091-10.686l17.811,11.819L836.263,739.308z M800.64,715.669l-17.811-11.821l7.093-10.686l17.811,11.821
							L800.64,715.669z M765.019,692.029l-17.811-11.819l7.091-10.686l17.811,11.819L765.019,692.029z M729.398,668.391
							l-17.811-11.819l7.091-10.686l17.811,11.819L729.398,668.391z"/>
					</g>
				</g>
				<g>
					
						<rect x="831.402" y="604.036" transform="matrix(0.5499 -0.8352 0.8352 0.5499 -203.5373 1012.6146)" style="fill:#979797;" width="12.827" height="182.259"/>
				</g>
			</g>
			<g>
				<g>
					<g>
						<path style="fill:#505050;" d="M425.672,636.742h-21.376v-12.824h21.376V636.742z M382.921,636.742h-21.376v-12.824h21.376
							V636.742z M340.169,636.742h-11.91c-3.792,0-7.546-0.542-11.155-1.612l3.645-12.297c2.426,0.72,4.953,1.085,7.51,1.085h11.91
							V636.742z M296.598,620.653c-4.926-6.74-7.53-14.728-7.53-23.1v-0.711h12.826v0.711c0,5.633,1.749,11.003,5.058,15.532
							L296.598,620.653z M301.895,575.465h-12.826V554.09h12.826V575.465z"/>
					</g>
				</g>
				<g>
					<g>
						<path style="fill:#505050;" d="M128.944,522.244h-6.176c-21.608,0-39.188-17.579-39.188-39.188v-17.1h12.826v17.1
							c0,14.537,11.826,26.363,26.362,26.363h6.176V522.244z"/>
					</g>
				</g>
				<g>
					<g>
						<path style="fill:#505050;" d="M128.944,522.244h-6.176c-21.608,0-39.188-17.579-39.188-39.188v-17.1h12.826v17.1
							c0,14.537,11.826,26.363,26.362,26.363h6.176V522.244z"/>
					</g>
				</g>
				<g>
					<g>
						<path style="fill:#505050;" d="M96.405,467.278H83.579v-6.176c0-21.608,17.58-39.187,39.188-39.187h4.275v12.824h-4.275
							c-14.536,0-26.362,11.826-26.362,26.363V467.278z"/>
					</g>
				</g>
				<g>
					<g>
						<path style="fill:#505050;" d="M96.405,467.278H83.579v-6.176c0-21.608,17.58-39.187,39.188-39.187h4.275v12.824h-4.275
							c-14.536,0-26.362,11.826-26.362,26.363V467.278z"/>
					</g>
				</g>
				<g>
					<polygon style="fill:#505050;" points="148.049,428.126 123.612,446.961 123.612,409.29 					"/>
				</g>
				<g>
					<g>
						<path style="fill:#505050;" d="M301.866,554.8H289.04v-6.176c0-14.537-11.827-26.363-26.364-26.363H127.159v-12.824h135.517
							c21.609,0,39.19,17.579,39.19,39.187V554.8z"/>
					</g>
				</g>
			</g>
			<g>
				<rect x="707.294" y="572.136" style="fill:#979797;" width="128.256" height="12.824"/>
			</g>
		</g>
		<g>
			<path style="fill:#A9C732;" d="M797.481,794.151c-6.001,0-10.866-4.865-10.866-10.867c0-6,4.865-10.865,10.866-10.865
				c6.001,0,10.866,4.865,10.866,10.865C808.347,789.286,803.482,794.151,797.481,794.151z"/>
		</g>
		<g>
			<path style="fill:#CDCDCD;" d="M382.609,569.467c-6.001,0-10.866-4.866-10.866-10.866c0-6.002,4.865-10.867,10.866-10.867
				c6.001,0,10.867,4.865,10.867,10.867C393.475,564.601,388.61,569.467,382.609,569.467z"/>
		</g>
		<g>
			<polygon style="fill:#CDCDCD;" points="662.026,800.842 656.726,800.842 656.726,714.293 611.256,684.44 614.165,680.011 
				662.026,711.431 			"/>
		</g>
		<g>
			
				<rect x="688.795" y="645.338" transform="matrix(0.5523 -0.8336 0.8336 0.5523 -286.5052 896.4761)" style="fill:#CDCDCD;" width="5.301" height="139.324"/>
		</g>
		<g>
			<path style="fill:#CDCDCD;" d="M834.837,942.63c-6.667,0-12.091-5.424-12.091-12.091s5.424-12.091,12.091-12.091
				c6.667,0,12.091,5.424,12.091,12.091S841.504,942.63,834.837,942.63z M834.837,923.748c-3.744,0-6.791,3.046-6.791,6.791
				c0,3.745,3.046,6.791,6.791,6.791c3.744,0,6.79-3.046,6.79-6.791C841.627,926.794,838.581,923.748,834.837,923.748z"/>
		</g>
		<g>
			
				<rect x="810.637" y="896.82" transform="matrix(0.564 -0.8258 0.8258 0.564 -400.5774 1070.3677)" style="fill:#CDCDCD;" width="5.302" height="35.376"/>
		</g>
		<g>
			<g>
				<g>
					<path style="fill:#A9C732;" d="M510.018,135.356c0,5.564-4.508,10.071-10.069,10.071c-5.563,0-10.071-4.507-10.071-10.071
						c0-5.561,4.508-10.069,10.071-10.069C505.51,125.287,510.018,129.796,510.018,135.356z"/>
				</g>
			</g>
			<g>
				<g>
					<path style="fill:#A9C732;" d="M499.949,150.323c-8.252,0-14.964-6.713-14.964-14.966c0-8.25,6.713-14.963,14.964-14.963
						c8.251,0,14.965,6.713,14.965,14.963C514.914,143.61,508.2,150.323,499.949,150.323z M499.949,122.652
						c-7.007,0-12.706,5.701-12.706,12.704c0,7.007,5.699,12.708,12.706,12.708c7.005,0,12.704-5.701,12.704-12.708
						C512.654,128.353,506.954,122.652,499.949,122.652z"/>
				</g>
			</g>
		</g>
		<g>
			<g>
				<g>
					<path style="fill:#BDC2C5;" d="M608.823,936.715c0,5.562-4.508,10.071-10.071,10.071c-5.562,0-10.07-4.508-10.07-10.071
						c0-5.561,4.508-10.071,10.07-10.071C604.315,926.644,608.823,931.154,608.823,936.715z"/>
				</g>
			</g>
			<g>
				<g>
					<path style="fill:#BDC2C5;" d="M598.753,951.679c-8.252,0-14.964-6.713-14.964-14.964c0-8.252,6.713-14.965,14.964-14.965
						c8.252,0,14.964,6.713,14.964,14.965C613.716,944.966,607.005,951.679,598.753,951.679z M598.753,924.009
						c-7.007,0-12.706,5.699-12.706,12.706c0,7.005,5.699,12.706,12.706,12.706c7.004,0,12.704-5.701,12.704-12.706
						C611.457,929.708,605.757,924.009,598.753,924.009z"/>
				</g>
			</g>
		</g>
		<g>
			<polygon style="fill:#CDCDCD;" points="528.303,1003.475 495.357,971.998 495.357,935.556 501.058,935.556 501.058,969.559 
				532.24,999.353 			"/>
		</g>
		<g>
			<path style="fill:#C84B2A;" d="M685.075,384.553c0.103,3.863-2.943,7.078-6.805,7.184c-3.863,0.103-7.079-2.942-7.182-6.807
				c-0.105-3.862,2.942-7.078,6.804-7.181C681.755,377.645,684.971,380.69,685.075,384.553z"/>
		</g>
		<g>
			<path style="fill:#60A4C2;" d="M856.082,619.214c0.103,3.861-2.943,7.078-6.806,7.182c-3.862,0.105-7.078-2.942-7.182-6.806
				c-0.105-3.861,2.942-7.078,6.804-7.182C852.761,612.305,855.977,615.349,856.082,619.214z"/>
		</g>
		<g>
			<path style="fill:#60A4C2;" d="M509.317,401.417c0.105,3.862-2.943,7.079-6.806,7.183c-3.862,0.105-7.078-2.943-7.182-6.804
				c-0.105-3.861,2.942-7.079,6.805-7.182C505.997,394.508,509.212,397.553,509.317,401.417z"/>
		</g>
		<g>
			<path style="fill:#828282;" d="M948.235,422.079c0.105,3.862-2.942,7.078-6.804,7.182c-3.863,0.105-7.079-2.943-7.182-6.804
				c-0.105-3.863,2.941-7.079,6.804-7.184C944.916,415.168,948.131,418.216,948.235,422.079z"/>
		</g>
		<g>
			<path style="fill:#828282;" d="M305.713,373.153c0.103,3.863-2.943,7.078-6.806,7.182c-3.862,0.105-7.078-2.942-7.182-6.804
				c-0.105-3.863,2.942-7.079,6.804-7.184C302.392,366.245,305.608,369.29,305.713,373.153z"/>
		</g>
		<g>
			<path style="fill:#828282;" d="M368.111,588.518c0.103,3.861-2.943,7.078-6.806,7.182c-3.861,0.105-7.078-2.943-7.182-6.804
				c-0.105-3.863,2.943-7.078,6.805-7.182C364.79,581.609,368.007,584.654,368.111,588.518z"/>
		</g>
		<g>
			<path style="fill:#828282;" d="M618.572,816.215c0.103,3.861-2.943,7.078-6.806,7.182c-3.862,0.105-7.078-2.942-7.182-6.804
				c-0.105-3.863,2.943-7.079,6.805-7.184C615.251,809.304,618.467,812.352,618.572,816.215z"/>
		</g>
		<g>
			<rect x="471.259" y="862.267" style="fill:#CACACA;" width="2.85" height="109.73"/>
		</g>
		<g>
			<path style="fill:#828282;" d="M480.816,966.926c0.105,3.863-2.941,7.079-6.804,7.184c-3.863,0.105-7.079-2.943-7.183-6.804
				c-0.104-3.863,2.942-7.079,6.805-7.184C477.496,960.017,480.712,963.064,480.816,966.926z"/>
		</g>
		<g>
			<path style="fill:#828282;" d="M665.254,877.811c0.104,3.865-2.943,7.079-6.804,7.184c-3.863,0.103-7.079-2.941-7.183-6.806
				c-0.105-3.861,2.942-7.078,6.805-7.182C661.933,870.904,665.151,873.95,665.254,877.811z"/>
		</g>
		<g>
			<path style="fill:#CDCDCD;" d="M763.866,724.279c-3.748,0.941-7.549-1.333-8.492-5.079c-0.943-3.748,1.331-7.551,5.078-8.492
				c3.748-0.943,7.549,1.331,8.492,5.079C769.887,719.534,767.612,723.337,763.866,724.279z"/>
		</g>
		<g>
			<path style="fill:#636363;" d="M196.279,729.418c0.105,3.863-2.941,7.078-6.804,7.182c-3.863,0.105-7.079-2.943-7.183-6.806
				c-0.105-3.862,2.942-7.078,6.804-7.183C192.96,722.507,196.173,725.555,196.279,729.418z"/>
		</g>
		<g>
			
				<rect x="288.007" y="789.636" transform="matrix(0.7171 -0.697 0.697 0.7171 -498.5171 438.3262)" style="fill:#CDCDCD;" width="5.299" height="87.167"/>
		</g>
		<g>
			<path style="fill:#BDC2C5;" d="M344.862,463.298c0,6.166-4.998,11.164-11.165,11.164c-6.166,0-11.164-4.998-11.164-11.164
				c0-6.167,4.998-11.165,11.164-11.165C339.864,452.133,344.862,457.131,344.862,463.298z"/>
		</g>
		<g>
			
				<ellipse transform="matrix(0.7071 -0.7071 0.7071 0.7071 -569.5391 616.2441)" style="fill:#BDC2C5;" cx="459.103" cy="995.617" rx="11.164" ry="11.164"/>
		</g>
		<g>
			<polygon style="fill:#CACACA;" points="400.907,843.372 327.297,843.372 326.883,842.966 272.844,790.355 274.832,788.315 
				328.456,840.521 400.907,840.521 			"/>
		</g>
		<g>
			<path style="fill:#828282;" d="M407.664,841.521c0.103,3.861-2.943,7.078-6.807,7.182c-3.861,0.105-7.077-2.942-7.181-6.804
				c-0.105-3.865,2.943-7.079,6.804-7.184C404.343,834.612,407.558,837.657,407.664,841.521z"/>
		</g>
		<g>
			<path style="fill:#CDCDCD;" d="M203.667,575.889c-0.104-3.863,2.943-7.078,6.806-7.182c3.862-0.105,7.079,2.943,7.183,6.804
				c0.105,3.863-2.943,7.079-6.804,7.182C206.988,582.798,203.772,579.751,203.667,575.889z"/>
		</g>
		<g>
			<rect x="906.09" y="665.952" style="fill:#CDCDCD;" width="105.929" height="2.851"/>
		</g>
		<g>
			<path style="fill:#CDCDCD;" d="M1004.549,668.041c-0.104-3.86,2.943-7.078,6.806-7.181c3.862-0.105,7.078,2.943,7.182,6.804
				c0.104,3.863-2.943,7.079-6.805,7.182C1007.87,674.952,1004.654,671.906,1004.549,668.041z"/>
		</g>
		<g>
			<rect x="897.065" y="673.078" style="fill:#CDCDCD;" width="76.952" height="2.851"/>
		</g>
		<g>
			<rect x="634.854" y="142.483" style="fill:#CDCDCD;" width="79.327" height="2.851"/>
		</g>
		<g>
			<path style="fill:#9900A6;" d="M642.323,143.245c0.104,3.861-2.943,7.078-6.805,7.182c-3.863,0.105-7.079-2.942-7.182-6.806
				c-0.105-3.86,2.941-7.078,6.804-7.183C639.002,136.336,642.219,139.382,642.323,143.245z"/>
		</g>
		<g>
			<rect x="663.83" y="149.608" style="fill:#CDCDCD;" width="52.49" height="2.851"/>
		</g>
		<g>
			<path style="fill:#CDCDCD;" d="M537.891,365.505c0,6-4.866,10.865-10.867,10.865s-10.866-4.865-10.866-10.865
				c0-6.002,4.865-10.867,10.866-10.867S537.891,359.503,537.891,365.505z"/>
		</g>
		<g>
			<rect x="937.262" y="541.705" style="fill:#CDCDCD;" width="81.407" height="5.301"/>
		</g>
		<g>
			
				<rect x="289.825" y="790.713" transform="matrix(0.7071 -0.7071 0.7071 0.7071 -493.2931 445.615)" style="fill:#CDCDCD;" width="2.851" height="55.086"/>
		</g>
		<g>
			
				<rect x="387.459" y="352.968" transform="matrix(0.6148 -0.7887 0.7887 0.6148 -211.1497 482.9751)" style="fill:#CDCDCD;" width="2.849" height="209.378"/>
		</g>
		<g>
			
				<rect x="185.378" y="389.179" transform="matrix(0.6849 -0.7287 0.7287 0.6849 -236.5892 263.893)" style="fill:#CDCDCD;" width="2.851" height="32.596"/>
		</g>
		<g>
			<rect x="618.039" y="685.904" style="fill:#CDCDCD;" width="2.85" height="72.204"/>
		</g>
		<g>
			<rect x="673.936" y="864.938" style="fill:#CDCDCD;" width="31.351" height="2.851"/>
		</g>
		<g>
			
				<rect x="691.177" y="664.336" transform="matrix(0.5363 -0.844 0.844 0.5363 -254.8616 901.0648)" style="fill:#CDCDCD;" width="2.85" height="36.277"/>
		</g>
		<g>
			<rect x="928.237" y="552.423" style="fill:#CDCDCD;" width="72.203" height="2.851"/>
		</g>
		<g>
			<path style="fill:#CDCDCD;" d="M956.919,331.285c-6.667,0-12.091-5.424-12.091-12.091s5.424-12.093,12.091-12.093
				c6.667,0,12.091,5.426,12.091,12.093S963.587,331.285,956.919,331.285z M956.919,312.402c-3.744,0-6.79,3.047-6.79,6.792
				s3.046,6.79,6.79,6.79c3.744,0,6.791-3.046,6.791-6.79S960.664,312.402,956.919,312.402z"/>
		</g>
		<g>
			<rect x="873.557" y="316.544" style="fill:#CDCDCD;" width="75.703" height="5.301"/>
		</g>
		<g>
			<rect x="864.531" y="327.263" style="fill:#CDCDCD;" width="66.5" height="2.851"/>
		</g>
		<g>
			<path style="fill:#CDCDCD;" d="M271.493,942.949c-6.667,0-12.091-5.424-12.091-12.091c0-6.667,5.424-12.091,12.091-12.091
				s12.091,5.424,12.091,12.091C283.585,937.525,278.161,942.949,271.493,942.949z M271.493,924.068c-3.744,0-6.79,3.046-6.79,6.791
				c0,3.745,3.046,6.791,6.79,6.791c3.744,0,6.79-3.046,6.79-6.791C278.284,927.113,275.237,924.068,271.493,924.068z"/>
		</g>
		<g>
			<rect x="279.153" y="928.208" style="fill:#CDCDCD;" width="81.406" height="5.301"/>
		</g>
		<g>
			<rect x="297.382" y="942.495" style="fill:#CDCDCD;" width="72.202" height="2.851"/>
		</g>
		<g>
			<rect x="427.276" y="173.834" style="fill:#CDCDCD;" width="2.85" height="60.802"/>
		</g>
		<g>
			<rect x="461.472" y="192.36" style="fill:#CDCDCD;" width="2.85" height="60.802"/>
		</g>
		<g>
			<rect x="417.301" y="194.26" style="fill:#CDCDCD;" width="2.85" height="65.316"/>
		</g>
		<g>
			<polygon style="fill:#CDCDCD;" points="993.968,615.246 981.178,615.246 965.139,604.31 966.745,601.955 982.056,612.394 
				993.968,612.394 			"/>
		</g>
		<g>
			<polygon style="fill:#CDCDCD;" points="993.017,625.22 975.227,625.22 933.408,595.386 935.063,593.065 976.139,622.369 
				993.017,622.369 			"/>
		</g>
		<g>
			<g>
				<g>
					<path style="fill:#60A4C2;" d="M796.824,451.187c0,5.561-4.509,10.071-10.07,10.071c-5.563,0-10.071-4.51-10.071-10.071
						c0-5.561,4.508-10.071,10.071-10.071C792.315,441.116,796.824,445.626,796.824,451.187z"/>
				</g>
			</g>
			<g>
				<g>
					<path style="fill:#60A4C2;" d="M786.754,466.151c-8.252,0-14.965-6.713-14.965-14.964c0-8.252,6.714-14.964,14.965-14.964
						c8.251,0,14.964,6.713,14.964,14.964C801.718,459.439,795.005,466.151,786.754,466.151z M786.754,438.481
						c-7.007,0-12.706,5.699-12.706,12.706c0,7.007,5.699,12.706,12.706,12.706c7.006,0,12.704-5.699,12.704-12.706
						C799.458,444.18,793.76,438.481,786.754,438.481z"/>
				</g>
			</g>
		</g>
		<g>
			<g>
				<g>
					<path style="fill:#BDC2C5;" d="M852.866,212.311c0,5.562-4.51,10.071-10.071,10.071c-5.563,0-10.071-4.509-10.071-10.071
						c0-5.563,4.508-10.069,10.071-10.069C848.356,202.241,852.866,206.748,852.866,212.311z"/>
				</g>
			</g>
			<g>
				<g>
					<path style="fill:#BDC2C5;" d="M842.795,227.275c-8.252,0-14.964-6.713-14.964-14.965c0-8.252,6.713-14.965,14.964-14.965
						c8.252,0,14.964,6.713,14.964,14.965C857.759,220.562,851.046,227.275,842.795,227.275z M842.795,199.606
						c-7.007,0-12.706,5.697-12.706,12.704c0,7.005,5.7,12.706,12.706,12.706c7.006,0,12.706-5.701,12.706-12.706
						C855.501,205.304,849.8,199.606,842.795,199.606z"/>
				</g>
			</g>
		</g>
		<g>
			<g>
				<g>
					<g>
						<path style="fill:#999999;" d="M714.843,174.37h-6.986v-3.438h-1.515v3.438h-11.625v-3.438h-1.514v3.438h-6.986
							c-0.819,0-1.483,0.666-1.483,1.483v18.537c0,0.819,0.664,1.483,1.483,1.483h28.626c0.819,0,1.484-0.664,1.484-1.483v-18.537
							C716.327,175.035,715.662,174.37,714.843,174.37z M690.471,181.731c0-1.507,1.221-2.73,2.729-2.73
							c1.506,0,2.729,1.223,2.729,2.73c0,1.508-1.223,2.73-2.729,2.73C691.692,184.461,690.471,183.24,690.471,181.731z
							 M709.711,192.069h-18.36v-1.985h18.36V192.069z M707.862,184.461c-1.508,0-2.731-1.221-2.731-2.73
							c0-1.507,1.223-2.73,2.731-2.73c1.506,0,2.728,1.223,2.728,2.73C710.591,183.24,709.368,184.461,707.862,184.461z"/>
					</g>
					<g>
						<g>
							<polygon style="fill:#999999;" points="680.587,213.691 680.587,213.691 674.911,213.691 674.911,213.691 674.911,197.725 
								674.911,197.725 680.587,197.725 680.587,197.725 							"/>
						</g>
						<g>
							<polygon style="fill:#999999;" points="680.587,230.812 680.587,230.812 674.911,230.812 674.911,230.812 674.911,214.844 
								674.911,214.844 680.587,214.844 680.587,214.844 							"/>
						</g>
						<g>
							<path style="fill:#999999;" d="M677.749,231.174c-3.479,0-6.3,2.821-6.3,6.299c0,2.792,1.816,5.154,4.328,5.981v-2.149
								c-1.393-0.72-2.356-2.157-2.356-3.833c0-2.39,1.938-4.328,4.329-4.328c2.39,0,4.328,1.937,4.328,4.328
								c0,1.677-0.963,3.113-2.356,3.833v2.149c2.513-0.828,4.328-3.189,4.328-5.981
								C684.048,233.995,681.227,231.174,677.749,231.174z"/>
						</g>
					</g>
					<g>
						<g>
							<polygon style="fill:#999999;" points="726.32,213.691 726.32,213.691 720.644,213.691 720.644,213.691 720.644,197.725 
								720.644,197.725 726.32,197.725 726.32,197.725 							"/>
						</g>
						<g>
							<polygon style="fill:#999999;" points="726.32,230.812 726.32,230.812 720.644,230.812 720.644,230.812 720.644,214.844 
								720.644,214.844 726.32,214.844 726.32,214.844 							"/>
						</g>
						<g>
							<path style="fill:#999999;" d="M723.481,231.174c-3.478,0-6.299,2.821-6.299,6.299c0,2.792,1.816,5.154,4.328,5.981v-2.149
								c-1.394-0.72-2.356-2.157-2.356-3.833c0-2.39,1.938-4.328,4.328-4.328c2.391,0,4.329,1.937,4.329,4.328
								c0,1.677-0.963,3.113-2.356,3.833v2.149c2.512-0.828,4.328-3.189,4.328-5.981
								C729.781,233.995,726.96,231.174,723.481,231.174z"/>
						</g>
					</g>
					<g>
						<path style="fill:#999999;" d="M717.957,196.865h-34.853c-0.819,0-1.483,0.666-1.483,1.483v26.326
							c0,0.819,0.664,1.483,1.483,1.483h34.853c0.819,0,1.483-0.664,1.483-1.483v-26.326
							C719.44,197.53,718.776,196.865,717.957,196.865z M712.377,217.343c0,1.216-0.987,2.203-2.203,2.203h-6.911l4.684-4.686
							c0.539-0.537,0.539-1.409,0-1.948c-0.538-0.539-1.41-0.539-1.948,0l-6.632,6.633h-8.48c-1.218,0-2.204-0.986-2.204-2.203
							v-7.716c0-1.216,0.987-2.203,2.204-2.203h19.285c1.216,0,2.203,0.986,2.203,2.203V217.343z"/>
					</g>
				</g>
				<g>
					<g>
						<g>
							<rect x="689.015" y="227.763" style="fill:#999999;" width="9.367" height="14.603"/>
						</g>
					</g>
					<g>
						<g>
							<rect x="689.015" y="243.88" style="fill:#999999;" width="9.367" height="6.927"/>
						</g>
					</g>
					<g>
						<path style="fill:#999999;" d="M699.889,254.848c0,1.711-1.203,3.1-2.686,3.1h-10.606c-1.485,0-2.686-1.389-2.686-3.1l0,0
							c0-1.711,1.201-3.1,2.686-3.1h10.606C698.687,251.748,699.889,253.137,699.889,254.848L699.889,254.848z"/>
					</g>
					<g>
						<g>
							<rect x="702.851" y="227.763" style="fill:#999999;" width="9.366" height="14.603"/>
						</g>
					</g>
					<g>
						<g>
							<rect x="702.851" y="243.88" style="fill:#999999;" width="9.366" height="6.927"/>
						</g>
					</g>
					<g>
						<path style="fill:#999999;" d="M701.341,254.848c0,1.711,1.203,3.1,2.687,3.1h10.607c1.483,0,2.686-1.389,2.686-3.1l0,0
							c0-1.711-1.203-3.1-2.686-3.1h-10.607C702.544,251.748,701.341,253.137,701.341,254.848L701.341,254.848z"/>
					</g>
				</g>
			</g>
			<g>
				<g>
					<path style="fill:#BDC2C5;" d="M208.9,645.124c0-8.101-7.896-14.912-18.604-16.883c0.446,1.649,0.671,3.338,0.671,5.052
						c0,3.628-1.006,7.13-2.991,10.407c-1.85,3.057-4.471,5.784-7.787,8.101c-3.902,2.725-8.544,4.726-13.593,5.905
						c4.49,3.019,10.594,4.875,17.317,4.875c0.967,0,1.921-0.039,2.86-0.113l17.03,7.892l-7.716-9.988
						C203.732,657.386,208.9,651.676,208.9,645.124z"/>
				</g>
				<g>
					<path style="fill:#BDC2C5;" d="M187.676,633.293c0-12.346-14.326-22.356-31.998-22.356s-31.997,10.01-31.997,22.356
						c0,9.39,8.284,17.427,20.025,20.74l-5.263,14.1l19.318-12.529C174.463,654.852,187.676,645.153,187.676,633.293z"/>
				</g>
			</g>
			<g>
				<path style="fill:#BDC2C5;" d="M620.302,855.813c0.16-1.644-0.268-4.223-2-6.089c-0.877-0.943-2.446-2.064-4.945-2.064h-11.623
					c-0.022-1.682-0.023-4.321,0.099-6.662c0.176-3.382-1.714-7.505-3.584-9.667c-0.985-1.14-1.981-1.779-2.967-1.9
					c-0.317-0.039-0.643-0.059-0.974-0.059c-2.145,0-4.677,0.856-5.172,2.735c-0.219,0.818-0.015,1.679,0.201,2.59
					c0.285,1.209,0.644,2.716,0.269,4.819c-0.64,3.601-6.121,12.35-7.819,13.828c-0.504,0.436-1.246,0.806-2.033,1.103
					c-0.505-1.319-1.828-2.302-3.246-2.302h-12.77c-1.621,0-2.778,1.287-2.628,2.895l-0.135,25.088c0,0.073,0.004,0.144,0.013,0.216
					c0.225,1.667,1.764,3.022,3.433,3.022h16.3c1.666,0,2.838-1.355,2.614-3.022l-0.113-0.829c0.571,0.081,1.029,0.186,1.324,0.306
					c1.37,0.551,8.362,3.318,11.759,3.318h14.54c0.989,0,4.296-0.218,5.29-3c0.478-1.338,0.296-2.601-0.167-3.681
					c-0.004-0.103-0.009-0.193-0.013-0.253c0-0.022-0.003-0.049-0.003-0.076c1.817-0.483,2.99-1.693,3.302-3.482
					c0.375-2.16-0.272-3.654-0.924-4.555c1.922-0.895,2.926-2.691,2.721-5.118c-0.159-1.895-1.118-3.289-2.371-4.282
					C619.621,858.017,620.183,857.042,620.302,855.813z"/>
			</g>
			<g>
				<g>
					<path style="fill:#636363;" d="M409.047,500.018c-0.536,0-1.063,0.029-1.583,0.083c0.027-0.407,0.042-0.816,0.042-1.228
						c0-9.848-7.983-17.829-17.829-17.829c-9.291,0-16.918,7.106-17.752,16.179c3.173,2.47,5.23,6.309,5.278,10.622
						c0.045,0,0.086,0,0.128,0c6.165,0,11.178,4.797,11.178,10.694c0,3.659-1.943,6.902-4.892,8.833h25.503l0.001-0.002
						c7.894-0.039,14.281-6.147,14.281-13.674C423.403,506.141,416.974,500.018,409.047,500.018z"/>
				</g>
				<g>
					<path style="fill:#636363;" d="M386.577,518.538c0-4.831-4.146-8.762-9.245-8.762c-0.337,0-0.682,0.019-1.024,0.054
						l-1.144,0.12l0.079-1.147c0.019-0.275,0.026-0.547,0.026-0.807c0-6.461-5.254-11.716-11.714-11.716
						c-2.963,0-5.792,1.11-7.964,3.123c-2.16,2.005-3.479,4.718-3.713,7.642l-0.082,1.015l-1.009-0.133
						c-0.426-0.056-0.86-0.084-1.288-0.084c-5.364,0-9.729,4.363-9.729,9.728c0,5.336,4.34,9.699,9.676,9.728h0.177h27.612h0.145
						C382.453,527.273,386.577,523.344,386.577,518.538z"/>
				</g>
			</g>
			<g>
				<g>
					<path style="fill:#CDCDCD;" d="M527.728,722.734h-1.313v-1.272c0-0.253-0.206-0.458-0.458-0.458h-7.11
						c-0.252,0-0.456,0.204-0.456,0.458v1.272h-5.387l-2.287-3.466c0-0.292-0.277-0.529-0.616-0.529h-3.127h-3.106h-3.125
						c-0.339,0-0.615,0.237-0.615,0.529l-2.289,3.466h-14.723c-1.584,0-2.867,1.284-2.867,2.868v27.591
						c0,1.581,1.283,2.865,2.867,2.865h44.611c1.583,0,2.866-1.284,2.866-2.865v-27.591
						C530.594,724.017,529.31,722.734,527.728,722.734z M505.422,751.43c-6.647,0-12.034-5.388-12.034-12.034
						c0-6.647,5.387-12.034,12.034-12.034c6.645,0,12.034,5.387,12.034,12.034C517.456,746.041,512.067,751.43,505.422,751.43z"/>
				</g>
				<g>
					<path style="fill:#CDCDCD;" d="M505.422,731.376c-4.431,0-8.023,3.589-8.023,8.02c0,4.431,3.592,8.023,8.023,8.023
						s8.021-3.593,8.021-8.023C513.443,734.965,509.853,731.376,505.422,731.376z"/>
				</g>
			</g>
			<g>
				<path style="fill:#999999;" d="M912.005,662.276c0,12.993-23.523,29.476-23.523,29.476s-23.522-16.483-23.522-29.476
					s17.145-15.071,23.522-3.992C894.476,647.419,912.005,649.283,912.005,662.276z"/>
			</g>
			<g>
				<path style="fill:#636363;" d="M415.073,940.789l-2.529,0.004c0,0,0,27.216,0,36.049c-2.22-0.598-5.146-0.4-8.074,0.725
					c-5.225,2.008-8.476,6.199-7.261,9.365c1.217,3.167,6.437,4.105,11.662,2.098c4.375-1.679,7.354-4.89,7.498-7.748l0.015,0.007
					v-27.868c3.338,1.441,7.178,6.49,7.269,12.081c0.09,5.593-1.421,7.959-2.273,8.64c-1.182,0.943,0.1,1.588,0.865,1.013
					c1.419-1.061,4.693-3.52,4.693-12.086c0-8.568-5.166-12.159-8.84-16.145C414.845,943.389,415.073,940.789,415.073,940.789z"/>
			</g>
			<g>
				<path style="fill:#9900A6;" d="M602.5,150.508l0.766-6.085c5.321-3.002,9.757-6.392,13.723-11.188
					c12.042-14.564,10.824-26.508,10.824-26.508l3.532-4.372l-4.763,2.937c0,0-11.617-3.025-27.846,6.657
					c-5.339,3.184-9.363,7.044-13.138,11.838l-6.158-0.172c0,0-8.714,1.519-18.075,12.642c0,0,9.69-1.765,14.569,1.823
					c-0.763,1.216-1.549,2.475-2.364,3.774c0,0-0.385,2.255,3.665,6.98c4.049,4.721,6.36,4.711,6.36,4.711
					c1.409-0.608,2.768-1.193,4.086-1.76c2.784,5.37-0.432,14.659-0.432,14.659C599.673,158.89,602.5,150.508,602.5,150.508z
					 M609.263,121.392c-1.457-1.698-1.26-4.255,0.438-5.711c1.698-1.456,4.254-1.26,5.71,0.439c1.457,1.698,1.259,4.255-0.438,5.709
					C613.276,123.285,610.719,123.091,609.263,121.392z"/>
			</g>
			<g>
				<g>
					<path style="fill:#60A4C2;" d="M203.73,850.603c-6.289,0-11.385,7.701-11.385,17.201c0,0.454,0.011,0.907,0.034,1.35h15.845
						c0.394-4.993,1.725-9.551,3.72-13.262C209.875,852.632,206.959,850.603,203.73,850.603z"/>
				</g>
				<g>
					<path style="fill:#60A4C2;" d="M203.73,835.848c-3.997,0-7.239,3.093-7.239,6.914c0,3.818,3.242,6.91,7.239,6.91
						c3.998,0,7.242-3.093,7.242-6.91C210.971,838.941,207.728,835.848,203.73,835.848z"/>
				</g>
				<g>
					<path style="fill:#60A4C2;" d="M241.68,856.733c-3.047-6.171-7.918-10.169-13.406-10.169c-5.24,0-9.917,3.645-12.983,9.348
						c-1.932,3.605-3.23,8.027-3.613,12.868c-0.076,0.998-0.12,2.005-0.12,3.03c0,0.667,0.021,1.328,0.052,1.981h33.327
						c0.033-0.654,0.047-1.314,0.047-1.981c0-0.497-0.005-0.99-0.03-1.486C244.762,865.247,243.575,860.57,241.68,856.733z"/>
				</g>
				<g>
					<path style="fill:#60A4C2;" d="M228.274,824.902c-5.867,0-10.626,4.546-10.626,10.154s4.758,10.147,10.626,10.147
						c5.87,0,10.623-4.539,10.623-10.147S234.144,824.902,228.274,824.902z"/>
				</g>
			</g>
			<g>
				<path style="fill:#CDCDCD;" d="M336.174,793.076c0,15.961,12.984,28.948,28.948,28.948c5.507,0,10.878-1.591,15.472-4.493
					l3.399,5.944l5.499-10.383l5.497-10.383l-11.737-0.525l-11.736-0.524l3.263,5.706c-2.821,1.922-6.144,2.956-9.657,2.956
					c-9.509,0-17.245-7.737-17.245-17.245c0-9.505,7.737-17.24,17.245-17.24c4.913,0,9.611,2.108,12.882,5.782
					c2.148,2.412,5.85,2.628,8.262,0.476c1.297-1.154,1.963-2.757,1.963-4.37c-0.003-1.383-0.491-2.775-1.483-3.888
					c-5.492-6.167-13.373-9.704-21.623-9.704C349.158,764.132,336.174,777.117,336.174,793.076z"/>
			</g>
		</g>
		<g>
			<path style="fill:#C84B2A;" d="M127.533,587.791c-6.667,0-12.091-5.424-12.091-12.091c0-6.667,5.424-12.091,12.091-12.091
				c6.667,0,12.092,5.424,12.092,12.091C139.625,582.367,134.201,587.791,127.533,587.791z M127.533,568.91
				c-3.744,0-6.791,3.046-6.791,6.79c0,3.745,3.047,6.791,6.791,6.791c3.745,0,6.791-3.046,6.791-6.791
				C134.325,571.955,131.278,568.91,127.533,568.91z"/>
		</g>
		<g>
			<path style="fill:#CDCDCD;" d="M961.549,608.601c-3.242-2.102-4.167-6.434-2.066-9.678c2.101-3.241,6.433-4.165,9.676-2.066
				c3.243,2.103,4.168,6.434,2.068,9.677C969.125,609.776,964.793,610.702,961.549,608.601z"/>
		</g>
		<g>
			<g>
				
					<ellipse transform="matrix(0.0178 -0.9998 0.9998 0.0178 -405.1521 1346.771)" style="fill:#C84B2A;" cx="482.937" cy="879.61" rx="61.279" ry="61.278"/>
			</g>
			<g>
				<path style="fill:#EEBD3A;" d="M392.657,931.5c2.224,20.63-12.696,39.155-33.326,41.378
					c-20.628,2.225-39.154-12.696-41.378-33.324c-2.224-20.63,12.697-39.156,33.326-41.378
					C371.909,895.951,390.434,910.872,392.657,931.5z"/>
			</g>
			<g>
				<path style="fill:#9900A6;" d="M831.573,863.598c5.05,36.709-20.615,70.562-57.324,75.613
					c-36.711,5.051-70.564-20.613-75.615-57.324c-5.051-36.709,20.614-70.562,57.324-75.613
					C792.668,801.223,826.523,826.887,831.573,863.598z"/>
			</g>
			<g>
				<path style="fill:#A9C732;" d="M958.889,552.595c0,32.27-26.159,58.429-58.427,58.429c-32.27,0-58.429-26.159-58.429-58.429
					c0-32.268,26.159-58.427,58.429-58.427C932.73,494.168,958.889,520.327,958.889,552.595z"/>
			</g>
			<g>
				<path style="fill:#60A4C2;" d="M247.519,428.645c0,20.857-16.909,37.765-37.765,37.765c-20.856,0-37.765-16.909-37.765-37.765
					c0-20.856,16.909-37.763,37.765-37.763C230.61,390.881,247.519,407.788,247.519,428.645z"/>
			</g>
			<g>
				
					<ellipse transform="matrix(0.3537 -0.9354 0.9354 0.3537 -168.34 907.1463)" style="fill:#60A4C2;" cx="572.24" cy="575.384" rx="143.215" ry="143.215"/>
			</g>
			<g>
				<path style="fill:#A9C732;" d="M305.754,751.94c0,29.122-23.607,52.728-52.726,52.728c-29.12,0-52.727-23.606-52.727-52.728
					c0-29.118,23.607-52.724,52.727-52.724C282.147,699.215,305.754,722.821,305.754,751.94z"/>
			</g>
			<g>
				<path style="fill:#EEBD3A;" d="M902.246,337.815c0,51.155-41.47,92.626-92.627,92.626c-51.156,0-92.627-41.471-92.627-92.626
					c0-51.157,41.47-92.628,92.627-92.628C860.776,245.187,902.246,286.659,902.246,337.815z"/>
			</g>
			<g>
				<path style="fill:#C84B2A;" d="M524.378,286.964c0,43.091-34.932,78.023-78.023,78.023c-43.09,0-78.022-34.932-78.022-78.023
					c0-43.09,34.932-78.02,78.022-78.02C489.446,208.944,524.378,243.875,524.378,286.964z"/>
			</g>
		</g>
		<g>
			<g>
				<g>
					<path style="fill:#FFFFFF;" d="M817.318,323.643l5.475-3.458c-0.569-2.873-1.476-5.618-2.677-8.184l-6.466,0.468
						c-0.63-1.12-1.334-2.194-2.101-3.215l3.012-5.721c-1.904-2.164-4.062-4.091-6.421-5.743l-5.36,3.632
						c-1.099-0.65-2.241-1.228-3.423-1.738l-0.254-6.46c-2.692-0.915-5.52-1.512-8.434-1.76l-2.819,5.821
						c-0.941-0.007-1.889,0.027-2.845,0.108c-0.331,0.032-0.659,0.074-0.983,0.113l-3.456-5.48c-2.877,0.573-5.62,1.478-8.188,2.681
						l0.468,6.466c-1.117,0.63-2.193,1.334-3.21,2.101l-5.728-3.012c-2.164,1.906-4.093,4.063-5.74,6.424l3.635,5.357
						c-0.651,1.1-1.234,2.241-1.742,3.422l-6.461,0.252c-0.913,2.696-1.507,5.52-1.757,8.439l5.823,2.818
						c-0.008,0.943,0.024,1.892,0.106,2.846c0.032,0.331,0.072,0.655,0.112,0.983l-5.477,3.454c0.573,2.875,1.475,5.618,2.677,8.186
						l6.463-0.47c0.635,1.12,1.335,2.191,2.102,3.213l-3.01,5.723c1.904,2.169,4.063,4.095,6.423,5.743l5.358-3.632
						c1.1,0.652,2.24,1.235,3.421,1.74l0.255,6.463c2.692,0.91,5.518,1.51,8.432,1.757l2.824-5.821
						c0.938,0.007,1.89-0.027,2.846-0.108c0.329-0.029,0.654-0.074,0.98-0.113l3.454,5.481c2.878-0.574,5.622-1.476,8.188-2.679
						l-0.466-6.464c1.116-0.637,2.192-1.338,3.211-2.103l5.724,3.01c2.162-1.905,4.091-4.061,5.743-6.422l-3.633-5.358
						c0.646-1.102,1.23-2.243,1.739-3.422l6.46-0.253c0.914-2.694,1.509-5.522,1.755-8.436l-5.818-2.821
						c0.005-0.941-0.026-1.89-0.109-2.846C817.402,324.295,817.356,323.971,817.318,323.643z M802.345,325.935
						c0.709,8.147-5.316,15.324-13.459,16.034c-8.145,0.713-15.323-5.319-16.032-13.461c-0.711-8.144,5.316-15.324,13.459-16.03
						C794.462,311.768,801.639,317.795,802.345,325.935z"/>
				</g>
				<g>
					<path style="fill:#FFFFFF;" d="M860.264,339.993c-0.868-0.964-1.802-1.845-2.799-2.637l1.195-4.726
						c-1.697-1.16-3.501-2.125-5.387-2.885l-3.281,3.618c-1.221-0.392-2.466-0.686-3.732-0.878l-1.337-4.703
						c-2.025-0.154-4.07-0.09-6.1,0.201l-1.04,4.762c-1.242,0.268-2.463,0.645-3.667,1.122l-3.505-3.399
						c-0.907,0.432-1.813,0.917-2.689,1.463c-0.873,0.541-1.708,1.13-2.501,1.748l1.487,4.655c-0.961,0.872-1.841,1.802-2.633,2.794
						l-4.729-1.191c-1.16,1.694-2.125,3.5-2.885,5.38l3.621,3.285c-0.394,1.221-0.681,2.47-0.876,3.733l-4.698,1.338
						c-0.16,2.025-0.095,4.071,0.193,6.106l4.768,1.027c0.267,1.245,0.641,2.469,1.111,3.679l-3.398,3.502
						c0.434,0.912,0.922,1.807,1.467,2.679c0.545,0.878,1.131,1.716,1.75,2.513l4.653-1.495c0.868,0.961,1.807,1.841,2.796,2.633
						l-1.189,4.733c1.694,1.155,3.497,2.123,5.378,2.876l3.286-3.615c1.221,0.395,2.462,0.684,3.732,0.875l1.338,4.701
						c2.021,0.15,4.071,0.095,6.101-0.193l1.032-4.767c1.244-0.267,2.469-0.643,3.676-1.118l3.508,3.4
						c0.907-0.431,1.804-0.921,2.68-1.465c0.878-0.544,1.705-1.13,2.505-1.755l-1.489-4.647c0.961-0.872,1.84-1.807,2.63-2.797
						l4.733,1.191c1.157-1.694,2.128-3.5,2.88-5.38l-3.616-3.291c0.39-1.214,0.683-2.459,0.878-3.725l4.697-1.336
						c0.158-2.027,0.09-4.071-0.191-6.108l-4.764-1.034c-0.272-1.24-0.65-2.469-1.12-3.674l3.402-3.502
						c-0.441-0.912-0.925-1.813-1.473-2.688c-0.541-0.873-1.128-1.708-1.752-2.505L860.264,339.993z M851.627,350.945
						c3.092,4.992,1.554,11.546-3.434,14.64c-4.989,3.093-11.54,1.554-14.635-3.429c-3.098-4.99-1.561-11.541,3.426-14.637
						C841.975,344.42,848.531,345.961,851.627,350.945z"/>
				</g>
			</g>
			<g>
				<g>
					<g>
						<path style="fill:#FFFFFF;" d="M653.556,496.403H486.759c-3.429,0-6.206,2.586-6.206,5.777v116.267
							c0,3.189,2.777,5.777,6.206,5.777h166.797c3.424,0,6.205-2.588,6.205-5.777V502.18
							C659.761,498.989,656.98,496.403,653.556,496.403z M642.493,605.004c0,2.454-2.243,4.443-5.012,4.443H502.833
							c-2.768,0-5.011-1.988-5.011-4.443v-89.383c0-2.453,2.243-4.441,5.011-4.441h134.648c2.769,0,5.012,1.988,5.012,4.441V605.004
							z"/>
					</g>
					<g>
						<path style="fill:#FFFFFF;" d="M468.764,628.984v7.714c0,4.227,3.145,7.654,7.023,7.654h188.741
							c3.878,0,7.024-3.427,7.024-7.654v-7.714H468.764z M584.121,637.911h-27.93c-1.047,0-1.896-0.885-1.896-1.978
							c0-1.091,0.849-1.976,1.896-1.976h27.93c1.047,0,1.897,0.885,1.897,1.976C586.018,637.026,585.168,637.911,584.121,637.911z"
							/>
					</g>
				</g>
			</g>
			<g>
				<g>
					<path style="fill:#FFFFFF;" d="M864.685,536.006v33.221c0,2.343,1.96,4.243,4.378,4.243h61.83c2.418,0,4.378-1.9,4.378-4.243
						v-33.189l-35.303,18.968L864.685,536.006z"/>
				</g>
				<g>
					<path style="fill:#FFFFFF;" d="M930.893,529.509h-61.83c-2.418,0-4.378,1.961-4.378,4.378v0.733l35.294,17.458l35.293-17.458
						v-0.733C935.272,531.47,933.311,529.509,930.893,529.509z"/>
				</g>
			</g>
			<g>
				<g>
					<path style="fill:#FFFFFF;" d="M803.856,901.186l2.368,1.412c1.939,1.154,4.795-0.069,6.383-2.736
						c1.587-2.664,1.302-5.76-0.637-6.914l-2.476-1.475c-0.75,2.176-1.634,4.03-2.565,5.598
						C805.925,898.755,804.866,900.103,803.856,901.186z"/>
				</g>
				<g>
					<path style="fill:#FFFFFF;" d="M722.097,845.965c-8.839,14.841-3.973,34.039,10.871,42.878
						c13.195,7.86,29.825,4.877,39.567-6.309l27.774,16.539c1.929-2.012,4.111-5.105,5.663-9.696l-27.69-16.49
						c5.193-13.894-0.109-29.937-13.305-37.796C750.134,826.254,730.935,831.12,722.097,845.965z M767.852,873.21
						c-6.211,10.427-19.696,13.845-30.123,7.638c-10.426-6.211-13.843-19.696-7.635-30.123c6.208-10.426,19.694-13.846,30.122-7.635
						C770.641,849.298,774.06,862.784,767.852,873.21z"/>
				</g>
			</g>
			<g>
				<g>
					<rect x="399.209" y="257.251" style="fill:#FFFFFF;" width="96.023" height="5.77"/>
				</g>
				<g>
					<rect x="399.209" y="268.385" style="fill:#FFFFFF;" width="96.023" height="5.773"/>
				</g>
				<g>
					<rect x="399.209" y="279.518" style="fill:#FFFFFF;" width="96.023" height="5.774"/>
				</g>
				<g>
					<rect x="399.209" y="290.652" style="fill:#FFFFFF;" width="96.023" height="5.774"/>
				</g>
				<g>
					<rect x="399.209" y="301.787" style="fill:#FFFFFF;" width="96.023" height="5.772"/>
				</g>
				<g>
					<rect x="399.209" y="312.92" style="fill:#FFFFFF;" width="47.748" height="5.774"/>
				</g>
			</g>
			<g>
				<path style="fill:#FFFFFF;" d="M509.449,864.248h-2.029v-6.486c0-13.62-11.083-24.703-24.699-24.703
					c-13.622,0-24.702,11.083-24.702,24.703v6.486h-2.03c-4.151,0-7.52,3.367-7.52,7.519v35.679c0,4.152,3.368,7.52,7.52,7.52
					h53.458c4.152,0,7.516-3.368,7.516-7.52v-35.679C516.965,867.615,513.601,864.248,509.449,864.248z M468.849,857.762
					c0-7.65,6.221-13.87,13.872-13.87c7.644,0,13.867,6.22,13.867,13.87v6.486h-27.74V857.762z"/>
			</g>
			<g>
				<polygon style="fill:#FFFFFF;" points="356.309,911.321 363.638,926.172 380.028,928.554 368.167,940.115 370.968,956.439 
					356.309,948.731 341.645,956.439 344.446,940.115 332.588,928.554 348.98,926.172 				"/>
			</g>
			<g>
				<path style="fill:#FFFFFF;" d="M222.412,424.048l-4.207-0.052c-2.458-3.395-5.111-6.159-8.689-8.493
					c-10.862-7.088-18.913-5.334-18.913-5.334l-3.254-2.071l2.372,3.02c0,0-1.167,8.157,6.69,18.476
					c2.584,3.395,5.525,5.841,9.087,8.044l0.358,4.213c0,0,1.71,5.826,10.017,11.35c0,0-1.953-6.473,0.117-10.076
					c0.89,0.427,1.807,0.865,2.757,1.321c0,0,1.568,0.088,4.477-3.039c2.906-3.125,2.72-4.699,2.72-4.699
					c-0.523-0.914-1.026-1.797-1.516-2.652c3.448-2.313,10.03-0.838,10.03-0.838C228.346,425.331,222.412,424.048,222.412,424.048z
					 M202.035,421.687c-1.046,1.125-2.804,1.187-3.928,0.142c-1.124-1.046-1.188-2.804-0.143-3.929
					c1.046-1.123,2.805-1.187,3.928-0.142C203.016,418.803,203.081,420.562,202.035,421.687z"/>
			</g>
			<g>
				<g>
					<path style="fill:#FFFFFF;" d="M255.602,763.076c-4.803,0.061-8.639,4.002-8.578,8.804c0.062,4.796,3.996,8.64,8.799,8.578
						c4.802-0.061,8.643-4.003,8.581-8.799C264.343,766.859,260.405,763.016,255.602,763.076z"/>
				</g>
				<g>
					<path style="fill:#FFFFFF;" d="M255.23,742.935c-9.662,0.122-18.242,5.105-23.842,12.802l9.007,7.799
						c3.536-4.816,8.93-7.932,14.996-8.01c6.293-0.078,11.942,3.133,15.59,8.169l8.898-7.9
						C274.09,747.859,265.169,742.808,255.23,742.935z"/>
				</g>
				<g>
					<path style="fill:#FFFFFF;" d="M254.976,722.862c-15.377,0.196-29.012,8.213-37.829,20.55l9.012,7.799
						c6.75-9.459,17.195-15.608,28.977-15.758c12.09-0.152,22.931,6.042,29.905,15.748l8.897-7.907
						C284.824,730.696,270.708,722.663,254.976,722.862z"/>
				</g>
			</g>
		</g>
	</g>
</g>
</svg>
