<?xml version="1.0" encoding="utf-8"?>
<!-- Generator: Adobe Illustrator 27.5.0, SVG Export Plug-In . SVG Version: 6.00 Build 0)  -->
<svg version="1.1" xmlns="http://www.w3.org/2000/svg" xmlns:xlink="http://www.w3.org/1999/xlink" x="0px" y="0px"
	 viewBox="0 0 2000 2000" style="enable-background:new 0 0 2000 2000;" xml:space="preserve">
<g id="BACKGROUND">
	<rect style="fill:#FFFFFF;" width="2000" height="2000"/>
</g>
<g id="OBJECTS">
	<g>
		<g>
			
				<ellipse transform="matrix(0.7071 -0.7071 0.7071 0.7071 -303.8155 1581.9611)" style="opacity:0.4;fill:#E5E5FF;" cx="1757.688" cy="1157.718" rx="82.496" ry="82.496"/>
			
				<ellipse transform="matrix(0.7071 -0.7071 0.7071 0.7071 -294.2519 453.3906)" style="opacity:0.4;fill:#E5E5FF;" cx="400.165" cy="581.889" rx="125.854" ry="125.854"/>
			<circle style="opacity:0.4;fill:#E5E5FF;" cx="835.478" cy="395.289" r="65.607"/>
			<path style="fill:#9192FF;" d="M741.549,427.724c-4.057,0-8.155-0.32-12.175-0.951l0.388-2.47c3.893,0.611,7.86,0.92,11.792,0.92
				l0.457-0.001l0.016,2.5L741.549,427.724z M754.667,426.618l-0.418-2.465c4.017-0.682,8.023-1.699,11.908-3.023l0.807,2.366
				C762.952,424.864,758.815,425.914,754.667,426.618z M717.039,423.807c-4.013-1.313-7.95-2.96-11.703-4.896l1.146-2.222
				c3.634,1.875,7.447,3.47,11.333,4.741L717.039,423.807z M778.607,418.464l-1.172-2.208c3.619-1.92,7.102-4.145,10.351-6.612
				l1.512,1.991C785.942,414.184,782.345,416.481,778.607,418.464z M694.565,412.214c-3.398-2.512-6.615-5.316-9.56-8.336
				l1.79-1.746c2.851,2.923,5.965,5.639,9.256,8.071L694.565,412.214z M798.748,403.172l-1.813-1.722
				c2.811-2.961,5.406-6.177,7.712-9.559l2.065,1.408C804.331,396.793,801.651,400.114,798.748,403.172z M676.91,394.11
				c-2.418-3.452-4.575-7.134-6.414-10.944l2.252-1.087c1.78,3.69,3.869,7.254,6.21,10.597L676.91,394.11z M812.995,382.28
				l-2.264-1.061c1.736-3.706,3.186-7.577,4.308-11.506l2.404,0.686C816.285,374.457,814.788,378.454,812.995,382.28z
				 M665.907,371.341c-1.215-4.056-2.107-8.23-2.651-12.407l2.479-0.323c0.528,4.044,1.392,8.086,2.567,12.014L665.907,371.341z
				 M819.937,357.961l-2.482-0.293c0.347-2.946,0.523-5.941,0.523-8.901c0-1.122-0.025-2.258-0.075-3.377l2.497-0.111
				c0.052,1.155,0.078,2.329,0.078,3.488C820.478,351.826,820.296,354.919,819.937,357.961z M665.137,346.337l-2.499-0.081
				c0.137-4.216,0.619-8.458,1.434-12.607l2.453,0.482C665.736,338.148,665.269,342.254,665.137,346.337z M816.364,333.204
				c-0.835-3.985-2.004-7.951-3.475-11.786l2.334-0.895c1.519,3.959,2.726,8.053,3.588,12.168L816.364,333.204z M669.851,322.304
				l-2.345-0.867c1.464-3.96,3.26-7.831,5.336-11.507l2.177,1.229C673.008,314.72,671.269,318.469,669.851,322.304z
				 M812.662,320.835c-1.5-3.82-3.312-7.535-5.385-11.041l2.151-1.272c2.142,3.62,4.012,7.455,5.561,11.399L812.662,320.835z
				 M681.897,300.982l-1.952-1.562c2.64-3.301,5.566-6.408,8.696-9.234l1.676,1.855
				C687.286,294.779,684.453,297.787,681.897,300.982z M800.19,299.763c-2.619-3.133-5.516-6.079-8.61-8.755l1.635-1.891
				c3.197,2.764,6.189,5.806,8.894,9.043L800.19,299.763z M700.068,284.576l-1.354-2.102c3.539-2.28,7.301-4.296,11.181-5.99
				l1.001,2.291C707.137,280.416,703.495,282.368,700.068,284.576z M781.673,283.748c-3.48-2.144-7.162-4.024-10.941-5.587
				l0.956-2.311c3.902,1.614,7.703,3.556,11.297,5.769L781.673,283.748z M722.51,274.763l-0.625-2.421
				c4.097-1.059,8.302-1.79,12.5-2.173l0.227,2.489C730.549,273.03,726.477,273.738,722.51,274.763z M759.04,274.387
				c-3.982-0.941-8.068-1.565-12.144-1.854l0.177-2.494c4.21,0.299,8.429,0.943,12.543,1.915L759.04,274.387z"/>
			<path style="fill:#9192FF;" d="M1529.148,1301.421l-0.043-2.5c4.142-0.072,8.323-0.241,12.429-0.503l0.158,2.494
				C1537.55,1301.177,1533.329,1301.348,1529.148,1301.421z M1516.595,1301.348c-4.164-0.12-8.382-0.34-12.534-0.653l0.188-2.492
				c4.114,0.31,8.293,0.527,12.419,0.647L1516.595,1301.348z M1554.196,1299.819l-0.275-2.484c4.106-0.456,8.253-1.016,12.324-1.663
				l0.393,2.469C1562.528,1298.794,1558.343,1299.359,1554.196,1299.819z M1491.567,1299.455c-4.126-0.506-8.305-1.12-12.421-1.823
				l0.422-2.465c4.077,0.697,8.217,1.306,12.304,1.808L1491.567,1299.455z M1578.986,1295.878l-0.51-2.447
				c4.053-0.844,8.128-1.792,12.113-2.818l0.623,2.421C1587.19,1294.069,1583.076,1295.026,1578.986,1295.878z M1466.827,1295.223
				c-4.07-0.896-8.173-1.901-12.194-2.988l0.652-2.414c3.983,1.077,8.048,2.073,12.079,2.961L1466.827,1295.223z M1603.293,1289.611
				l-0.738-2.389c3.948-1.22,7.915-2.55,11.79-3.952l0.852,2.352C1611.284,1287.037,1607.279,1288.38,1603.293,1289.611z
				 M1442.597,1288.669c-3.965-1.276-7.963-2.67-11.884-4.14l0.878-2.341c3.884,1.456,7.845,2.836,11.771,4.102L1442.597,1288.669z
				 M1626.867,1281.083l-0.961-2.309c3.791-1.577,7.607-3.271,11.341-5.037l1.068,2.26
				C1634.546,1277.779,1630.694,1279.49,1626.867,1281.083z M1419.041,1279.828c-3.837-1.652-7.683-3.418-11.43-5.247l1.096-2.246
				c3.712,1.812,7.521,3.561,11.322,5.196L1419.041,1279.828z M1649.515,1270.376l-1.174-2.207
				c3.636-1.935,7.277-3.982,10.824-6.089l1.276,2.15C1656.861,1266.355,1653.186,1268.424,1649.515,1270.376z M1396.444,1268.801
				c-3.651-2.001-7.31-4.12-10.878-6.3l1.303-2.133c3.535,2.159,7.161,4.259,10.776,6.239L1396.444,1268.801z M1671.071,1257.575
				l-1.377-2.088c3.452-2.276,6.887-4.658,10.21-7.08l1.473,2.02C1678.022,1252.872,1674.556,1255.276,1671.071,1257.575z
				 M1375,1255.699c-3.442-2.333-6.885-4.786-10.232-7.29l1.498-2.002c3.315,2.481,6.727,4.911,10.137,7.222L1375,1255.699z
				 M1691.34,1242.8l-1.564-1.949c3.215-2.582,6.413-5.276,9.508-8.009l1.654,1.873
				C1697.814,1237.474,1694.585,1240.194,1691.34,1242.8z M1354.89,1240.647c-3.22-2.653-6.416-5.417-9.501-8.213l1.68-1.852
				c3.056,2.77,6.222,5.507,9.411,8.135L1354.89,1240.647z M1710.148,1226.189l-1.74-1.795c2.962-2.874,5.896-5.857,8.722-8.867
				l1.822,1.711C1716.101,1220.276,1713.139,1223.288,1710.148,1226.189z M1336.285,1223.788c-2.96-2.946-5.883-5.994-8.688-9.061
				l1.844-1.688c2.779,3.037,5.675,6.058,8.607,8.977L1336.285,1223.788z M1727.329,1207.882l-1.9-1.623
				c2.688-3.147,5.332-6.394,7.857-9.647l1.975,1.533C1732.712,1201.429,1730.043,1204.705,1727.329,1207.882z M1319.344,1205.273
				c-2.668-3.206-5.292-6.513-7.799-9.828l1.994-1.508c2.483,3.285,5.083,6.561,7.727,9.736L1319.344,1205.273z M1742.73,1188.042
				l-2.045-1.438c2.381-3.385,4.71-6.865,6.922-10.347l2.109,1.341C1747.484,1181.111,1745.134,1184.625,1742.73,1188.042z
				 M1304.218,1185.263c-2.351-3.432-4.652-6.968-6.841-10.51l2.127-1.314c2.168,3.509,4.448,7.012,6.776,10.412L1304.218,1185.263z
				 M1756.205,1166.835l-2.17-1.24c2.047-3.582,4.038-7.269,5.92-10.957l2.227,1.137
				C1760.282,1159.497,1758.271,1163.219,1756.205,1166.835z M1291.038,1163.935c-2.02-3.641-3.978-7.375-5.819-11.101l2.24-1.107
				c1.825,3.689,3.765,7.39,5.765,10.995L1291.038,1163.935z M1767.631,1144.439l-2.279-1.029c1.708-3.779,3.343-7.641,4.86-11.475
				l2.324,0.92C1771.004,1136.727,1769.354,1140.624,1767.631,1144.439z M1279.929,1141.476c-1.667-3.814-3.264-7.715-4.744-11.591
				l2.336-0.893c1.466,3.84,3.047,7.703,4.699,11.481L1279.929,1141.476z M1776.887,1121.049l-2.365-0.809
				c1.333-3.9,2.593-7.891,3.743-11.86l2.4,0.695C1779.505,1113.083,1778.233,1117.111,1776.887,1121.049z M1270.984,1118.055
				c-1.304-3.969-2.527-8.012-3.635-12.018l2.41-0.666c1.097,3.968,2.308,7.973,3.6,11.902L1270.984,1118.055z M1783.871,1096.938
				l-2.432-0.582c0.958-4.005,1.834-8.097,2.603-12.16l2.457,0.465C1785.723,1088.764,1784.838,1092.895,1783.871,1096.938z
				 M1264.289,1093.86c-0.916-4.049-1.751-8.188-2.481-12.306l2.461-0.438c0.724,4.079,1.551,8.181,2.458,12.192L1264.289,1093.86z
				 M1788.541,1072.275l-2.475-0.35c0.574-4.073,1.061-8.229,1.445-12.352l2.488,0.232
				C1789.612,1063.968,1789.121,1068.163,1788.541,1072.275z M1259.912,1069.146c-0.531-4.12-0.973-8.32-1.313-12.485l2.492-0.203
				c0.336,4.126,0.773,8.287,1.3,12.368L1259.912,1069.146z M1790.873,1047.284l-2.498-0.115c0.191-4.108,0.288-8.291,0.288-12.433
				h2.5C1791.163,1038.916,1791.065,1043.138,1790.873,1047.284z M1257.875,1044.129c-0.107-3.104-0.162-6.264-0.162-9.393
				c0-1.056,0.006-2.109,0.018-3.162l2.5,0.03c-0.013,1.042-0.018,2.086-0.018,3.132c0,3.101,0.054,6.231,0.16,9.307
				L1257.875,1044.129z M1788.593,1028.592c-0.094-4.134-0.287-8.313-0.572-12.424l2.494-0.174c0.288,4.15,0.482,8.368,0.578,12.541
				L1788.593,1028.592z M1260.664,1019.175l-2.496-0.145c0.242-4.172,0.585-8.381,1.021-12.512l2.486,0.262
				C1261.243,1010.872,1260.903,1015.042,1260.664,1019.175z M1786.87,1003.786c-0.478-4.091-1.06-8.234-1.731-12.314l2.467-0.406
				c0.678,4.119,1.266,8.301,1.747,12.431L1786.87,1003.786z M1263.265,994.448l-2.471-0.378c0.63-4.123,1.367-8.282,2.191-12.361
				l2.451,0.495C1264.619,986.244,1263.89,990.364,1263.265,994.448z M1782.827,979.252c-0.86-4.028-1.831-8.098-2.886-12.096
				l2.418-0.638c1.064,4.037,2.044,8.146,2.913,12.211L1782.827,979.252z M1268.182,970.075l-2.424-0.61
				c1.017-4.043,2.145-8.114,3.351-12.099l2.393,0.725C1270.307,962.037,1269.189,966.07,1268.182,970.075z M1776.485,955.211
				c-1.242-3.939-2.594-7.898-4.019-11.769l2.346-0.863c1.438,3.907,2.804,7.904,4.058,11.88L1776.485,955.211z M1275.395,946.245
				l-2.355-0.837c1.399-3.937,2.911-7.892,4.493-11.752l2.313,0.947C1278.278,938.428,1276.781,942.345,1275.395,946.245z
				 M1767.906,931.905c-1.6-3.784-3.315-7.59-5.102-11.313l2.254-1.081c1.803,3.758,3.536,7.6,5.15,11.42L1767.906,931.905z
				 M1284.844,923.188l-2.266-1.057c1.759-3.771,3.638-7.562,5.583-11.267l2.213,1.162
				C1288.447,915.697,1286.586,919.453,1284.844,923.188z M1757.172,909.529c-1.949-3.618-4.018-7.247-6.148-10.789l2.143-1.289
				c2.15,3.576,4.239,7.24,6.207,10.893L1757.172,909.529z M1296.425,901.142l-2.156-1.266c2.11-3.593,4.337-7.189,6.617-10.685
				l2.094,1.365C1300.721,894.021,1298.515,897.583,1296.425,901.142z M1744.371,888.248c-2.286-3.427-4.688-6.849-7.138-10.171
				l2.012-1.484c2.474,3.354,4.897,6.808,7.206,10.268L1744.371,888.248z M1310.024,880.295l-2.027-1.463
				c2.436-3.375,4.988-6.744,7.587-10.012l1.957,1.556C1314.966,873.614,1312.437,876.951,1310.024,880.295z M1729.623,868.249
				c-2.6-3.202-5.313-6.386-8.063-9.464l1.865-1.666c2.775,3.107,5.514,6.321,8.139,9.553L1729.623,868.249z M1325.513,860.823
				l-1.881-1.646c2.747-3.139,5.603-6.253,8.486-9.254l1.803,1.732C1331.063,854.628,1328.234,857.713,1325.513,860.823z
				 M1713.063,849.708c-2.896-2.952-5.896-5.87-8.916-8.673l1.701-1.832c3.048,2.829,6.076,5.775,9,8.754L1713.063,849.708z
				 M1342.747,842.894l-1.719-1.815c3.025-2.867,6.158-5.699,9.311-8.417l1.633,1.894
				C1348.848,837.248,1345.745,840.054,1342.747,842.894z M1694.833,832.787c-3.146-2.658-6.406-5.283-9.691-7.804l1.521-1.983
				c3.316,2.544,6.608,5.195,9.783,7.878L1694.833,832.787z M1361.573,826.66l-1.543-1.968c3.276-2.567,6.658-5.093,10.052-7.506
				l1.449,2.037C1368.169,821.614,1364.818,824.116,1361.573,826.66z M1675.092,817.64c-3.396-2.361-6.89-4.671-10.384-6.864
				l1.328-2.117c3.528,2.214,7.055,4.545,10.483,6.929L1675.092,817.64z M1381.825,812.265l-1.352-2.104
				c3.504-2.25,7.105-4.446,10.705-6.527l1.252,2.164C1388.864,807.86,1385.296,810.036,1381.825,812.265z M1654.007,804.407
				c-3.599-2.03-7.296-4.001-10.989-5.858l1.123-2.233c3.729,1.875,7.461,3.865,11.095,5.914L1654.007,804.407z M1403.326,799.84
				l-1.148-2.221c3.691-1.907,7.481-3.754,11.266-5.488l1.041,2.273C1410.736,796.123,1406.982,797.951,1403.326,799.84z
				 M1631.759,793.215c-3.778-1.681-7.648-3.294-11.502-4.795l0.906-2.33c3.891,1.515,7.798,3.144,11.611,4.841L1631.759,793.215z
				 M1425.884,789.503l-0.934-2.319c3.873-1.558,7.828-3.041,11.756-4.408l0.822,2.361
				C1433.638,786.491,1429.72,787.96,1425.884,789.503z M1608.537,784.176c-3.916-1.313-7.913-2.55-11.882-3.675l0.682-2.405
				c4.006,1.136,8.042,2.384,11.995,3.71L1608.537,784.176z M1449.367,781.328l-0.709-2.397c3.989-1.18,8.066-2.282,12.119-3.274
				l0.596,2.428C1457.357,779.067,1453.318,780.159,1449.367,781.328z M1584.614,777.394c-4.019-0.936-8.114-1.788-12.176-2.533
				l0.451-2.459c4.1,0.752,8.235,1.613,12.291,2.558L1584.614,777.394z M1473.518,775.414l-0.479-2.454
				c4.09-0.798,8.254-1.509,12.374-2.113l0.363,2.474C1481.694,773.918,1477.57,774.623,1473.518,775.414z M1560.158,772.905
				c-4.089-0.552-8.247-1.015-12.36-1.375l0.219-2.49c4.151,0.364,8.349,0.831,12.476,1.388L1560.158,772.905z M1498.118,771.806
				l-0.246-2.488c4.136-0.409,8.348-0.727,12.517-0.943l0.129,2.497C1506.388,771.086,1502.216,771.4,1498.118,771.806z
				 M1535.389,770.734c-3.632-0.148-7.316-0.223-10.95-0.223c-0.502-0.001-0.991,0.001-1.484,0.004l-0.016-2.5
				c0.501-0.002,1.008-0.001,1.501-0.004c3.667,0,7.386,0.076,11.051,0.225L1535.389,770.734z"/>
			<path style="fill:#9192FF;" d="M442.331,1008.973c-4.195-0.025-8.424-0.198-12.569-0.517l0.191-2.492
				c4.086,0.313,8.256,0.484,12.393,0.509L442.331,1008.973z M454.909,1008.601l-0.162-2.494c4.107-0.267,8.259-0.685,12.34-1.244
				l0.339,2.477C463.287,1007.906,459.076,1008.331,454.909,1008.601z M417.26,1007.05c-4.142-0.617-8.304-1.391-12.371-2.301
				l0.546-2.439c4.009,0.897,8.111,1.659,12.193,2.268L417.26,1007.05z M479.822,1005.183l-0.517-2.445
				c4.027-0.85,8.076-1.859,12.035-2.999l0.691,2.403C488.015,1003.298,483.907,1004.321,479.822,1005.183z M392.716,1001.563
				c-4.007-1.205-8.02-2.571-11.928-4.062l0.891-2.336c3.852,1.469,7.808,2.816,11.757,4.004L392.716,1001.563z M503.991,998.225
				l-0.863-2.347c3.857-1.418,7.714-2.998,11.465-4.694l1.03,2.278C511.817,995.183,507.904,996.786,503.991,998.225z
				 M369.188,992.588c-3.786-1.767-7.559-3.696-11.214-5.733l1.218-2.184c3.603,2.009,7.321,3.91,11.053,5.651L369.188,992.588z
				 M526.884,987.875l-1.19-2.198c3.614-1.958,7.208-4.075,10.681-6.293l1.346,2.107
				C534.197,983.741,530.551,985.889,526.884,987.875z M347.203,980.333c-3.493-2.29-6.95-4.738-10.274-7.275l1.517-1.987
				c3.278,2.501,6.686,4.914,10.129,7.171L347.203,980.333z M548.073,974.348l-1.492-2.006c3.304-2.458,6.561-5.067,9.68-7.754
				l1.632,1.895C554.729,969.208,551.425,971.854,548.073,974.348z M327.202,965.07c-3.129-2.763-6.202-5.676-9.132-8.659
				l1.783-1.752c2.889,2.941,5.918,5.814,9.003,8.537L327.202,965.07z M567.128,957.937l-1.762-1.773
				c2.922-2.904,5.776-5.95,8.483-9.054l1.884,1.643C572.988,951.901,570.092,954.992,567.128,957.937z M309.578,947.125
				c-2.709-3.184-5.336-6.503-7.807-9.866l2.015-1.481c2.436,3.315,5.025,6.587,7.696,9.726L309.578,947.125z M583.664,938.979
				l-1.996-1.505c2.481-3.292,4.874-6.714,7.111-10.171l2.099,1.358C588.608,932.168,586.181,935.64,583.664,938.979z
				 M294.69,926.865c-2.226-3.533-4.352-7.191-6.319-10.873l2.205-1.178c1.938,3.629,4.035,7.235,6.229,10.718L294.69,926.865z
				 M597.335,917.852l-2.19-1.204c1.987-3.615,3.866-7.345,5.585-11.087l2.271,1.044
				C601.258,910.401,599.352,914.185,597.335,917.852z M282.85,904.697c-1.697-3.815-3.276-7.738-4.693-11.66l2.352-0.85
				c1.396,3.866,2.952,7.732,4.625,11.493L282.85,904.697z M607.845,894.975l-2.341-0.877c1.445-3.858,2.767-7.816,3.929-11.765
				l2.398,0.706C610.652,887.045,609.311,891.06,607.845,894.975z M274.312,881.056c-1.132-4.023-2.131-8.137-2.97-12.228
				l2.449-0.502c0.826,4.032,1.811,8.086,2.927,12.052L274.312,881.056z M614.945,870.847l-2.443-0.531
				c0.874-4.02,1.613-8.127,2.197-12.207l2.475,0.355C616.581,862.602,615.831,866.769,614.945,870.847z M269.261,856.419
				c-0.542-4.136-0.942-8.35-1.188-12.524l2.496-0.147c0.243,4.116,0.637,8.27,1.171,12.347L269.261,856.419z M618.508,845.954
				l-2.494-0.176c0.29-4.1,0.437-8.271,0.437-12.396h2.5C618.951,837.565,618.802,841.795,618.508,845.954z M270.274,831.344
				l-2.5-0.029c0.048-4.184,0.247-8.412,0.589-12.566l2.491,0.205C270.517,823.051,270.322,827.219,270.274,831.344z
				 M616.255,825.055c-0.196-4.124-0.541-8.282-1.027-12.36l2.482-0.296c0.493,4.137,0.843,8.355,1.042,12.538L616.255,825.055z
				 M272.316,806.638l-2.471-0.383c0.641-4.132,1.44-8.289,2.374-12.356l2.436,0.56
				C273.735,798.468,272.948,802.566,272.316,806.638z M613.32,800.44c-0.779-4.043-1.715-8.109-2.783-12.086l2.414-0.648
				c1.084,4.035,2.034,8.161,2.824,12.262L613.32,800.44z M277.868,782.479l-2.39-0.734c1.229-4.001,2.62-8.005,4.133-11.903
				l2.33,0.905C280.45,774.588,279.079,778.536,277.868,782.479z M606.889,776.5c-1.351-3.884-2.861-7.769-4.488-11.546l2.296-0.989
				c1.651,3.833,3.183,7.773,4.554,11.714L606.889,776.5z M286.852,759.341l-2.259-1.07c1.789-3.775,3.74-7.537,5.799-11.18
				l2.177,1.23C290.539,751.913,288.615,755.62,286.852,759.341z M597.091,753.757c-1.896-3.654-3.949-7.284-6.102-10.791
				l2.131-1.308c2.183,3.557,4.266,7.24,6.189,10.947L597.091,753.757z M299.06,737.743l-2.083-1.383
				c2.311-3.48,4.779-6.922,7.335-10.232l1.979,1.528C303.772,730.919,301.338,734.313,299.06,737.743z M584.131,732.639
				c-2.4-3.346-4.951-6.648-7.582-9.815l1.923-1.598c2.669,3.212,5.257,6.562,7.69,9.956L584.131,732.639z M314.222,718.114
				l-1.864-1.665c2.783-3.116,5.714-6.171,8.712-9.082l1.741,1.794C319.856,712.03,316.966,715.042,314.222,718.114z
				 M568.286,713.571c-2.852-2.973-5.847-5.88-8.902-8.642l1.677-1.854c3.099,2.801,6.137,5.75,9.029,8.766L568.286,713.571z
				 M332.015,700.844l-1.609-1.913c3.195-2.687,6.529-5.294,9.911-7.75l1.469,2.023
				C338.452,695.625,335.165,698.196,332.015,700.844z M549.888,696.943c-3.248-2.539-6.626-4.992-10.043-7.291l1.395-2.074
				c3.466,2.332,6.894,4.819,10.188,7.395L549.888,696.943z M352.074,686.286l-1.32-2.123c3.546-2.205,7.216-4.31,10.91-6.254
				l1.165,2.212C359.188,682.038,355.569,684.112,352.074,686.286z M529.305,683.099c-3.577-2.05-7.273-3.996-10.985-5.782
				l1.084-2.253c3.767,1.813,7.516,3.786,11.144,5.866L529.305,683.099z M373.994,674.745l-1.003-2.29
				c3.822-1.673,7.753-3.229,11.687-4.623l0.835,2.357C381.636,671.562,377.76,673.095,373.994,674.745z M506.944,672.34
				c-3.833-1.515-7.772-2.91-11.708-4.144l0.748-2.386c3.993,1.253,7.989,2.667,11.878,4.204L506.944,672.34z M397.345,666.469
				l-0.663-2.41c4.023-1.107,8.143-2.081,12.245-2.898l0.487,2.452C405.372,664.417,401.311,665.378,397.345,666.469z
				 M483.276,664.913c-4.006-0.946-8.1-1.757-12.166-2.413l0.397-2.468c4.125,0.665,8.278,1.488,12.342,2.447L483.276,664.913z
				 M421.658,661.634l-0.311-2.48c4.136-0.517,8.353-0.892,12.531-1.115l0.133,2.496
				C429.892,660.755,425.736,661.125,421.658,661.634z M458.803,660.967c-4.095-0.362-8.262-0.582-12.385-0.653l0.043-2.5
				c4.183,0.073,8.409,0.296,12.563,0.663L458.803,660.967z"/>
			<path style="fill:#9192FF;" d="M1146.469,412.443c-23.261,0-42.186-18.924-42.186-42.185c0-23.261,18.925-42.186,42.186-42.186
				s42.186,18.924,42.186,42.186C1188.654,393.519,1169.729,412.443,1146.469,412.443z M1146.469,329.947
				c-22.228,0-40.311,18.083-40.311,40.311c0,22.227,18.083,40.31,40.311,40.31s40.311-18.083,40.311-40.31
				C1186.779,348.03,1168.696,329.947,1146.469,329.947z"/>
		</g>
		<g>
			<g>
				<g>
					<path style="fill:#FFFFFF;" d="M1585.375,563.875v760.175c0,15.825-12.825,28.65-28.625,28.65H452.05
						c-15.825,0-28.65-12.825-28.65-28.65V563.875c0-15.825,12.825-28.65,28.65-28.65h1104.7
						C1572.55,535.225,1585.375,548.05,1585.375,563.875z"/>
					<path style="fill:#9192FF;" d="M1556.75,1353.95H452.05c-16.487,0-29.9-13.413-29.9-29.9V563.875
						c0-16.487,13.413-29.9,29.9-29.9h1104.7c16.473,0,29.875,13.413,29.875,29.9v760.175
						C1586.625,1340.537,1573.223,1353.95,1556.75,1353.95z M452.05,536.475c-15.108,0-27.4,12.292-27.4,27.4v760.175
						c0,15.108,12.292,27.4,27.4,27.4h1104.7c15.095,0,27.375-12.292,27.375-27.4V563.875c0-15.108-12.28-27.4-27.375-27.4H452.05z"
						/>
				</g>
				<g>
					<path style="fill:#FFFFFF;" d="M1585.375,563.875v45.1H423.4v-45.1c0-15.825,12.825-28.65,28.65-28.65h1104.7
						C1572.55,535.225,1585.375,548.05,1585.375,563.875z"/>
					<path style="fill:#9192FF;" d="M1586.625,610.225H422.15v-46.35c0-16.487,13.413-29.9,29.9-29.9h1104.7
						c16.473,0,29.875,13.413,29.875,29.9V610.225z M424.65,607.725h1159.475v-43.85c0-15.108-12.28-27.4-27.375-27.4H452.05
						c-15.108,0-27.4,12.292-27.4,27.4V607.725z"/>
				</g>
				<circle style="fill:#3335CF;" cx="487.917" cy="572.1" r="13.333"/>
				<path style="fill:#3335CF;" d="M538.75,558.767c-7.352,0-13.334,5.981-13.334,13.333c0,7.352,5.981,13.334,13.334,13.334
					s13.334-5.981,13.334-13.334C552.084,564.748,546.102,558.767,538.75,558.767z"/>
				<path style="fill:#9192FF;" d="M589.583,585.433c-7.352,0-13.333-5.981-13.333-13.333c0-7.352,5.981-13.333,13.333-13.333
					c7.352,0,13.333,5.981,13.333,13.333C602.917,579.452,596.936,585.433,589.583,585.433z M589.583,561.267
					c-5.974,0-10.833,4.86-10.833,10.833c0,5.973,4.86,10.833,10.833,10.833c5.973,0,10.833-4.86,10.833-10.833
					C600.417,566.127,595.557,561.267,589.583,561.267z"/>
				<path style="fill:#9192FF;" d="M917.656,586.944H669.844c-8.185,0-14.844-6.659-14.844-14.844s6.659-14.844,14.844-14.844
					h247.813c8.185,0,14.844,6.659,14.844,14.844S925.841,586.944,917.656,586.944z M669.844,559.756
					c-6.806,0-12.344,5.538-12.344,12.344c0,6.806,5.538,12.344,12.344,12.344h247.813c6.806,0,12.344-5.538,12.344-12.344
					c0-6.806-5.538-12.344-12.344-12.344H669.844z"/>
			</g>
			<g>
				<path style="fill:#9192FF;" d="M1232.792,962.725c0,119.7-97.025,216.75-216.725,216.75s-216.75-97.05-216.75-216.75
					c0-112.3,85.425-204.65,194.825-215.65l7.225,71.125c-73.3,7.375-130.525,69.275-130.525,144.525
					c0,80.225,65.025,145.25,145.225,145.25c80.2,0,145.2-65.025,145.2-145.25c0-14-1.975-27.525-5.675-40.325l68.725-19.85
					C1229.842,921.65,1232.792,941.85,1232.792,962.725z"/>
				<circle style="fill:#FFFFFF;" cx="1016.06" cy="962.721" r="175"/>
				<circle style="opacity:0.5;fill:#D1D1FF;" cx="1016.06" cy="962.721" r="175"/>
				<g>
					<ellipse style="fill:#FFFFFF;" cx="1016.06" cy="962.721" rx="123.953" ry="123.985"/>
					<g>
						<path style="fill:#9192FF;" d="M1030.207,1023.691v18.848h-23.945v-17.998c-16.977-1.016-33.443-5.607-43.632-11.886
							l12.899-29.213c11.212,6.624,26.143,10.869,39.221,10.869c11.378,0,15.456-2.379,15.456-6.458
							c0-14.942-65.71-2.883-65.71-47.211c0-19.194,13.922-35.325,41.765-39.232v-18.51h23.945v18.171
							c12.553,1.189,24.788,4.418,34.466,9.853l-12.055,29.04c-11.724-5.946-22.756-8.829-33.111-8.829
							c-11.724,0-15.456,3.395-15.456,7.467c0,14.271,65.71,2.379,65.71,46.194
							C1069.76,1003.142,1056.516,1019.107,1030.207,1023.691z"/>
					</g>
				</g>
			</g>
			<g>
				<g>
					<rect x="1316.102" y="386.931" style="fill:#FFFFFF;" width="471.513" height="288.311"/>
					<path style="fill:#9192FF;" d="M1788.864,676.492h-474.013V385.681h474.013V676.492z M1317.352,673.992h469.013V388.181
						h-469.013V673.992z"/>
				</g>
				<g>
					<g>
						<rect x="1375.46" y="583.471" style="fill:#D1D1FF;" width="27.138" height="49.836"/>
						<rect x="1429.736" y="560.699" style="fill:#D1D1FF;" width="27.138" height="72.609"/>
						<rect x="1484.013" y="579.315" style="fill:#D1D1FF;" width="27.138" height="53.993"/>
						<rect x="1538.289" y="541.323" style="fill:#D1D1FF;" width="27.138" height="91.985"/>
						<rect x="1592.565" y="517.022" style="fill:#D1D1FF;" width="27.138" height="116.285"/>
						<rect x="1646.842" y="482.315" style="fill:#D1D1FF;" width="27.138" height="150.993"/>
						<rect x="1701.118" y="428.866" style="fill:#D1D1FF;" width="27.138" height="204.442"/>
					</g>
					<g>
						<rect x="1375.46" y="453.126" style="fill:#D1D1FF;" width="21.566" height="24.42"/>
						<rect x="1430.355" y="464.426" style="fill:#D1D1FF;" width="146.06" height="6.259"/>
					</g>
				</g>
			</g>
			<g>
				<path style="fill:#EBEBFF;" d="M1363.343,821.416l-29.864-82.489c-33.738,12.217-57.847,44.534-57.847,82.489
					c0,48.442,39.27,87.711,87.711,87.711s87.712-39.27,87.712-87.711c0-14.577-3.576-28.31-9.868-40.406L1363.343,821.416z"/>
				<path style="fill:#9192FF;" d="M1452.854,749.76c-14.617-28.101-43.979-47.306-77.844-47.306
					c-10.487,0-20.542,1.847-29.864,5.223l29.864,82.489L1452.854,749.76z"/>
			</g>
			<g>
				<rect x="1280" y="1102.5" style="fill:#EBEBFF;" width="207.5" height="197.5"/>
				<rect x="1312.5" y="1155" style="fill:#FFFFFF;" width="116.25" height="8.34"/>
				<rect x="1312.5" y="1180" style="fill:#FFFFFF;" width="116.25" height="8.34"/>
			</g>
			<g>
				<rect x="515" y="725" style="fill:#EBEBFF;" width="180.436" height="305"/>
				<g>
					<rect x="542.5" y="769.167" style="fill:#FFFFFF;" width="118.333" height="108.333"/>
					
						<rect x="600.417" y="743.116" transform="matrix(0.6753 -0.7376 0.7376 0.6753 -411.8896 711.1545)" style="fill:#EBEBFF;" width="2.5" height="160.434"/>
					
						<rect x="521.45" y="822.083" transform="matrix(0.7375 -0.6753 0.6753 0.7375 -398.0974 622.4549)" style="fill:#EBEBFF;" width="160.434" height="2.5"/>
				</g>
			</g>
			<g>
				<g>
					<rect x="189.016" y="849.57" style="fill:#FFFFFF;" width="412.712" height="271.929"/>
					<path style="fill:#9192FF;" d="M602.922,1122.692H187.823V848.377h415.099V1122.692z M190.21,1120.306h410.325V850.764H190.21
						V1120.306z"/>
				</g>
				<g>
					<g>
						<polyline style="fill:#FFFFFF;" points="232.5,1055.833 259.167,1005.833 314.167,1057.5 350.833,950.833 419.167,1025.833 
							464.167,1007.5 545.833,900.833 						"/>
						<polygon style="fill:#9192FF;" points="314.72,1059.735 259.501,1007.862 233.603,1056.421 231.397,1055.245 
							258.832,1003.804 313.613,1055.265 350.337,948.433 419.503,1024.347 463.38,1006.471 544.841,900.074 546.826,901.593 
							464.953,1008.529 418.83,1027.32 418.243,1026.675 351.33,953.234 						"/>
					</g>
					<circle style="fill:#9192FF;" cx="259.375" cy="1005.625" r="6.875"/>
					<circle style="fill:#9192FF;" cx="313.75" cy="1056.25" r="6.875"/>
					<circle style="fill:#9192FF;" cx="351.25" cy="951.25" r="6.875"/>
				</g>
				<g>
					<line style="fill:#FFFFFF;" x1="307.872" y1="894.167" x2="482.872" y2="894.167"/>
					<rect x="307.872" y="892.917" style="fill:#9192FF;" width="175" height="2.5"/>
				</g>
			</g>
		</g>
		<g>
			<g>
				<path style="fill:#9192FF;" d="M1170.278,1506.872c-7.397-48.482,2.771-99.453,28.205-141.386
					c25.434-41.932,65.938-74.504,112.351-90.348c-26.283,18.396-42.326,48.13-53.519,78.195
					c-11.193,30.065-18.537,61.62-32.35,90.575c-13.813,28.955-35.588,56.008-65.784,66.841L1170.278,1506.872z"/>
				<path style="fill:#9192FF;" d="M1163.016,1507.273c-1.049-56.032-11.932-111.866-32.003-164.19
					c-7.127-18.578-15.674-37.126-29.57-51.368c-13.896-14.243-34.106-23.628-53.698-20.148
					c24.4,18.262,37.038,48.303,44.155,77.937c7.117,29.634,9.859,60.382,19.881,89.164c10.023,28.782,29.192,56.524,57.88,66.812
					L1163.016,1507.273z"/>
				<path style="fill:#D1D1FF;" d="M1159.191,1510.947c-13.949-37.565-29.112-76.077-57.164-104.693
					c-28.051-28.615-72.493-44.994-109.23-28.99c29.75,6.747,57.013,23.973,75.881,47.943c13.837,17.579,23.144,38.42,37.374,55.683
					c14.23,17.262,35.938,31.166,57.928,27.05L1159.191,1510.947z"/>
				<path style="fill:#D1D1FF;" d="M1154.734,1508.38c-5.716-41.226-11.434-83.118-5.411-124.301s25.496-82.301,60.387-104.992
					c-19.313,18.938-25.76,47.625-25.769,74.674c-0.009,27.049,5.467,53.85,5.93,80.895c0.463,27.045-4.908,55.776-23.202,75.7
					L1154.734,1508.38z"/>
				<path style="fill:#D1D1FF;" d="M1174.038,1502.374c13.371-34.071,27.626-69.445,54.857-93.9
					c17.485-15.703,39.757-26.002,63.046-29.154c-16.327,13.029-26.553,32.121-35.033,51.21
					c-8.48,19.089-15.799,38.972-28.076,55.871c-12.277,16.899-30.726,30.803-51.595,31.695L1174.038,1502.374z"/>
			</g>
			<g>
				<polygon style="fill:#FFFFFF;" points="1241.939,1606.04 1091.756,1606.04 1068.601,1490.509 1265.094,1490.509 				"/>
				<path style="fill:#9192FF;" d="M1242.964,1607.29h-152.232l-23.655-118.031h199.543L1242.964,1607.29z M1092.78,1604.79h148.135
					l22.653-113.031h-193.441L1092.78,1604.79z"/>
			</g>
		</g>
		<g>
			<g>
				<g>
					<polygon style="fill:#D1D1FF;" points="1510.811,1536.568 1510.811,1606.04 1420.715,1606.04 1461.964,1572.389 
						1464.135,1530.055 					"/>
					
						<rect x="1469.314" y="1568.701" transform="matrix(0.6892 -0.7246 0.7246 0.6892 -688.1841 1556.7787)" style="fill:#1B1B43;" width="2.499" height="23.738"/>
					<rect x="1471.247" y="1555" style="fill:#1B1B43;" width="30.833" height="2.5"/>
				</g>
				<g>
					<polygon style="fill:#D1D1FF;" points="1616.104,1539.824 1619.36,1606.04 1529.264,1606.04 1567.257,1573.475 
						1567.257,1533.312 					"/>
					
						<rect x="1573.002" y="1570.32" transform="matrix(0.662 -0.7495 0.7495 0.662 -651.8677 1713.693)" style="fill:#1B1B43;" width="2.499" height="18.667"/>
					<rect x="1577.497" y="1556.25" style="fill:#1B1B43;" width="30.417" height="2.5"/>
				</g>
				<path style="fill:#FE5B52;" d="M1519.885,1137.236c1.549,138.432,13.024,274.658,34.962,408.559h75.918
					c-15.792-102.403-22.932-226.756-14.101-391.628l-54.824-44.9L1519.885,1137.236z"/>
				<path style="fill:#FE5B52;" d="M1459.868,1155.553l-34.352,152.776c-8.254,36.711-8.828,74.732-1.684,111.676l24.131,124.791
					h75.918l-22.975-163.823l54.941-249.73L1459.868,1155.553z"/>
				<path style="fill:#BE443D;" d="M1525.002,1301.952c-0.193-3.147-4.516-73.41-4.965-82.313l-19.839-7.215l0.854-2.35
					l21.448,7.799v0.876c0.005,1.539,3.271,54.996,4.998,83.048L1525.002,1301.952z"/>
			</g>
			<g>
				<path style="fill:#FFBC96;" d="M1689.372,810.625l4.063-9.688c0,0-14.688-30.938-10-35s12.188,7.5,12.188,7.5
					s-2.188-37.5,5-37.813c6.062-0.264,5.625,10.625,6.25,26.875c0,0,3.75-5,10.648,0.166c3.102-5.166,9.664-1.728,11.539,1.397
					c2.188-2.5,11.25-1.875,10,8.75c-1.585,13.475-7.813,38.438-7.813,38.438l-20,16.563L1689.372,810.625z"/>
				<path style="fill:#3335CF;" d="M1528.747,940l30.411-0.241c53.343-4.759,95.009-48.092,95.009-48.092l35.205-81.042
					l41.875,0.625l-24.579,95.245c-3.53,13.679-11.135,25.962-21.807,35.22l-87.363,75.785L1528.747,940z"/>
				<polygon style="fill:#3335CF;" points="1445.39,1008.963 1459.868,1155.553 1616.664,1154.167 1611.247,977.5 1528.747,940 
					1471.664,964.167 				"/>
				<g>
					<path style="fill:#FFBC96;" d="M1348.292,1023.198c-2.563-2.275-5.779-3.658-9.194-3.942
						c-17.331-1.444-71.516-5.626-70.991-1.425c0.625,5,41.875,23.75,41.875,23.75c8.821,9.927,17.643,19.855,26.464,29.783
						l24.239-37.166L1348.292,1023.198z"/>
					<path style="fill:#3335CF;" d="M1466.476,954.105c-11.17,1.952-20.769,9.048-25.911,19.154l-46.207,90.822l-33.672-29.884
						l-24.239,37.166c2.949,3.319,5.898,6.638,8.847,9.957c13.09,14.732,28.355,34.526,48.793,38.817
						c10.417,2.187,20.112-2.14,27.576-9.304c5.472-5.253,10.365-11.743,14.268-18.249l18.426-30.378l58.75-116.25L1466.476,954.105
						z"/>
				</g>
				
					<rect x="1448.528" y="1008.75" transform="matrix(0.9953 -0.0968 0.0968 0.9953 -95.2695 145.364)" style="fill:#D1D1FF;" width="2.5" height="90.63"/>
				<polygon style="fill:#1B1B43;" points="1612.188,1004.375 1597.497,1017.5 1613.125,1043.438 				"/>
				<path style="fill:#D28572;" d="M1712.292,781.146c-5.897,0-6.354-7.728-6.357-18.646h1.875
					c0.003,12.852,1.051,16.771,4.482,16.771c0.685,0,1.272-0.274,1.798-0.837c1.672-1.792,2.32-5.979,2.519-9.738
					c-0.13-2.718-0.064-5.084-0.024-6.067l1.872-0.028c0.016,0.231,0.184,2.758,0.041,5.87c0.259,5.091,1.117,10.123,2.814,10.632
					c0.95,0.285,1.771,0.163,2.515-0.371c2.023-1.458,3.159-5.582,3.75-9.266c0.052-1.582,0.224-3.419,0.558-5.548l1.863,0.174
					c-0.007,0.211-0.082,2.348-0.475,5.039c-0.136,3.898,0.309,7.675,1.884,8.338c1.167,0.492,2.132,0.488,2.947-0.01
					c2.146-1.311,2.925-5.729,3.045-7.321l1.869,0.141c-0.021,0.272-0.54,6.704-3.936,8.78c-1.349,0.825-2.914,0.872-4.654,0.139
					c-0.436-0.184-1.817-0.983-2.588-3.91c-0.737,2.097-1.758,3.949-3.168,4.964c-1.23,0.885-2.625,1.103-4.149,0.646
					c-1.648-0.495-2.669-2.599-3.293-5.229c-0.461,1.633-1.109,3.069-2.018,4.044
					C1714.574,780.664,1713.508,781.146,1712.292,781.146z"/>
			</g>
			<g>
				<path style="fill:#FFBC96;" d="M1515.522,975.575c-13.325,1.075-24.975-8.85-26.05-22.15l-0.275-3.375l-3.8-47.15l29.375-2.35
					l18.85-1.525l4.05,50.5C1538.747,962.85,1528.822,974.5,1515.522,975.575z"/>
				<path style="fill:#1B1B43;" d="M1524.172,916.45c-9.15,16.125-22.25,27.725-34.975,33.6l-3.8-47.15l29.375-2.35L1524.172,916.45
					z"/>
				<path style="fill:#FFBC96;" d="M1533.75,867.075l-5.825,49.175c0,0-18.75,17.925-46.25,17.075
					c-10.025-0.3-15.925-9.8-19.375-21.875c-1.425-5.05-2.425-10.525-3.125-16c-2.3-18.1-1.25-35.875-1.25-35.875l42.5-14.15
					L1533.75,867.075z"/>
				<path style="fill:#1B1B43;" d="M1527.289,887.292c-4.425-15.775-12.375-23.711-23.125-25.417
					c-34.167,18.542-56.351,7.5-72.5-13.125c39.583,7.708,56.875-48.542,94.792-11.042c28.125,8.542,27.607,35.417,11.67,57.292
					L1527.289,887.292z"/>
				<g>
					
						<ellipse transform="matrix(0.1917 -0.9814 0.9814 0.1917 364.7842 2225.0334)" style="fill:#FFBC96;" cx="1533.278" cy="891.045" rx="13.695" ry="11.875"/>
					<path style="fill:#1B1B43;" d="M1537.661,885.953c-1.965,0.331-3.227,1.813-4.179,3.499c-0.934,1.714-1.544,3.617-1.913,5.673
						l-0.732,0.044c-0.312-1.099-0.314-2.268-0.127-3.392c0.187-1.129,0.571-2.228,1.146-3.241c0.58-1.004,1.346-1.95,2.371-2.617
						c1-0.674,2.328-1.02,3.488-0.696L1537.661,885.953z"/>
				</g>
				<g>
					<path style="fill:#1B1B43;" d="M1468.122,889.271c0,2.129-1.026,3.854-2.292,3.854s-2.292-1.726-2.292-3.854
						s1.026-3.854,2.292-3.854S1468.122,887.142,1468.122,889.271z"/>
					<path style="fill:#1B1B43;" d="M1487.064,887.699c0,2.307-1.112,4.176-2.483,4.176s-2.483-1.87-2.483-4.176
						c0-2.307,1.112-4.177,2.483-4.177S1487.064,885.392,1487.064,887.699z"/>
					<path style="fill:#1B1B43;" d="M1473.328,892.399c0.009,0.742-0.287,1.466-0.644,2.091c-0.376,0.62-0.828,1.153-1.273,1.641
						c-0.886,0.972-1.712,1.854-1.905,2.776c-0.248,0.944,0.121,1.872,0.845,2.805c0.728,0.918,1.71,1.748,2.66,2.67l-0.404,0.611
						c-1.222-0.517-2.43-1.162-3.475-2.174c-0.519-0.507-0.985-1.132-1.289-1.892c-0.295-0.769-0.362-1.648-0.153-2.451
						c0.205-0.811,0.629-1.518,1.112-2.065c0.481-0.555,0.995-1.012,1.491-1.426c0.975-0.849,1.906-1.576,2.31-2.697
						L1473.328,892.399z"/>
					<path style="fill:#1B1B43;" d="M1475.132,913.228c2.639-0.587,5.086-1.423,7.273-2.785c1.094-0.671,2.128-1.449,3.12-2.303
						c0.992-0.855,1.939-1.784,2.925-2.729l0.595,0.429c-1.226,2.507-3.198,4.71-5.67,6.198c-2.464,1.491-5.406,2.201-8.2,1.922
						L1475.132,913.228z"/>
					<path style="fill:#1B1B43;" d="M1481.569,877.352c-0.536,2.822,8.327,3.73,9.924,4.01c1.314,0.23,3.185,0.379,3.462-1.612
						c0.343-2.471-2.343-2.732-3.863-3.061C1489.637,876.373,1482.076,874.686,1481.569,877.352z"/>
					<path style="fill:#1B1B43;" d="M1469.235,879.087c-0.046,2.727-7.095,3-8.385,3.16c-1.061,0.131-2.542,0.148-2.431-1.768
						c0.139-2.379,2.273-2.448,3.51-2.661C1463.115,877.614,1469.278,876.511,1469.235,879.087z"/>
				</g>
				<circle style="opacity:0.2;fill:#FE5B52;" cx="1502.344" cy="896.094" r="9.063"/>
				<path style="opacity:0.2;fill:#FE5B52;" d="M1465.95,904.225c0,2.975-1.425,5.6-3.65,7.225c-1.425-5.05-2.425-10.525-3.125-16
					C1463.075,896.475,1465.95,900.025,1465.95,904.225z"/>
			</g>
		</g>
		<g>
			<g>
				<rect x="646.093" y="1196.244" style="fill:#9192FF;" width="173.916" height="11.707"/>
				<g>
					<polygon style="fill:#FFFFFF;" points="820,1196.25 673.125,1196.25 728.75,1060.625 875.625,1060.625 					"/>
					<path style="fill:#9192FF;" d="M820.838,1197.5H671.261l56.65-138.125h149.577L820.838,1197.5z M674.989,1195h144.173
						l54.6-133.125H729.588L674.989,1195z"/>
				</g>
				<polygon style="fill:#EBEBFF;" points="807.32,1184.851 691.893,1184.851 735.608,1078.265 851.035,1078.265 				"/>
			</g>
			<g>
				<rect x="759.027" y="1211.698" style="fill:#1B1B43;" width="2.5" height="394.977"/>
				<rect x="620" y="1207.964" style="fill:#D1D1FF;" width="280.554" height="22.314"/>
			</g>
			<g>
				<rect x="391.099" y="1377.608" style="fill:#1B1B43;" width="2.5" height="229.066"/>
				<path style="fill:#D1D1FF;" d="M460.959,1388.233h-137.22v0c2.913-13.93,15.195-23.91,29.427-23.91h78.366
					C445.764,1364.323,458.046,1374.302,460.959,1388.233L460.959,1388.233z"/>
				<path style="fill:#D1D1FF;" d="M427.969,1606.007h-71.24v0c0-8.662,7.022-15.683,15.684-15.683h39.873
					C420.947,1590.323,427.969,1597.345,427.969,1606.007L427.969,1606.007z"/>
			</g>
			<g>
				<g>
					<path style="fill:#D28572;" d="M498.213,1037.736c3.51,5.045,8.541,12.189,9.098,18.433c0.808,9.077-13.716,2.714-13.887,3.499
						C493.423,1059.666,498.213,1037.736,498.213,1037.736z"/>
					<g>
						<rect x="430.108" y="1048.418" style="fill:#FFBC96;" width="45.924" height="67.302"/>
						<path style="fill:#1B1B43;" d="M476.032,1059.962v48.049c-14.471-9.09-26.98-22.592-37.792-38.176L476.032,1059.962z"/>
					</g>
					<path style="fill:#FFBC96;" d="M501.844,1041.823c-1.43,23.249-10.375,49.548-34.787,43.06
						c-19.175-5.096-40.28-21.242-40.28-44.535c0-23.293,16.121-42.175,36.008-42.175c12.429,0,28.078,6.032,35.443,17.683
						C502.647,1022.846,502.468,1031.685,501.844,1041.823z"/>
					<path style="fill:#1B1B43;" d="M461.2,1035.077c6.501-17.242,21.383-18.937,21.383-18.937s34.456,34.081,32.322-1.132
						c-1.696-27.983-29.045-25.338-29.045-25.338c-13.361-17.394-34.789-10.588-42.604-0.504s-5.042,4.286-23.445,10.84
						c-18.403,6.554-8.571,34.537-11.848,36.553c-24.453,0-19.915,24.201-19.915,24.201l57.888,18.882l13.944-38.065L461.2,1035.077
						z"/>
					<g>
						<path style="fill:#FFBC96;" d="M467.236,1037.051c3.579,6.2,2.612,13.459-2.162,16.215
							c-4.773,2.756-11.544-0.036-15.124-6.236c-3.579-6.2-2.612-13.459,2.162-16.215
							C456.886,1028.059,463.657,1030.851,467.236,1037.051z"/>
						<path style="fill:#1B1B43;" d="M459.844,1044.52c-0.814-1.571-1.498-3.099-2.595-4.168c-0.537-0.539-1.161-0.977-1.87-1.361
							c-0.709-0.383-1.498-0.703-2.307-1.085l0.124-0.651c0.918-0.05,1.849,0.057,2.763,0.364c0.912,0.3,1.798,0.83,2.494,1.55
							c0.697,0.719,1.202,1.583,1.516,2.472c0.321,0.889,0.492,1.802,0.518,2.718L459.844,1044.52z"/>
					</g>
					
						<ellipse transform="matrix(0.9989 -0.0473 0.0473 0.9989 -45.9769 21.7939)" style="fill:#1B1B43;" cx="437.227" cy="981.779" rx="19.455" ry="21.077"/>
					<circle style="opacity:0.2;fill:#FE5B52;" cx="481.875" cy="1055" r="8.75"/>
				</g>
				<g>
					<path style="fill:#FFA121;" d="M516.25,1281.25l-147.075-18.75l27.725-146.175c1.95-10.225,8.75-18.9,18.225-23.2
						c7.9-3.6,16.925-3.825,25.025-0.65l50.125,22.275c9.65,4.275,16.3,13.35,17.5,23.825l2.825,47.75l3.225,54.125L516.25,1281.25z
						"/>
					<path style="fill:#FFBC96;" d="M650.833,1176.25l38.929-11.443c2.805-0.825,5.819-0.372,8.255,1.245
						c10.655,7.073,39.019,27.088,31.858,35.271c-3.575,4.086-36.126-5.49-36.126-5.49l-47.131,13.151L650.833,1176.25z"/>
					<path style="fill:#1B1B43;" d="M513.825,1240.45c-12.25-15.6-19.525-36.2-21.95-61.7l18.725,7.575L513.825,1240.45z"/>
					<path style="fill:#FFA121;" d="M485.833,1112.917l5.86,2.526c12.064,5.2,22.876,12.923,31.707,22.649l48.266,53.158l79.167-15
						l10.417,42.5l-99.473,31.088c-7.855,1.399-15.88-1.311-21.278-7.185l-71.749-78.069L485.833,1112.917z"/>
					<path style="fill:#1B1B43;" d="M570.746,1192.096c-0.235-0.256-23.784-25.896-44.179-48.764
						c-20.162-22.606-50.901-33.597-51.209-33.705l0.829-2.359c0.314,0.11,31.645,11.302,52.246,34.4
						c20.383,22.854,43.919,48.48,44.154,48.736L570.746,1192.096z"/>
					
						<rect x="505.874" y="1160.235" transform="matrix(0.7182 -0.6958 0.6958 0.7182 -697.7725 693.2755)" style="fill:#1B1B43;" width="2.501" height="95.932"/>
				</g>
				<g>
					<g>
						<g>
							<polygon style="fill:#D1D1FF;" points="510.919,1502.345 479.191,1564.148 559.343,1605.295 538.015,1556.521 
								555.417,1517.868 							"/>
							
								<rect x="514.759" y="1558.62" transform="matrix(0.9593 -0.2824 0.2824 0.9593 -419.0479 212.1948)" style="fill:#1B1B43;" width="23.739" height="2.5"/>
						</g>
						<path style="fill:#26289C;" d="M560.833,1542.962l-72.61-27.092l49.723-154.72c8.548-22.91,34.878-34.243,58.809-25.314h0
							c23.932,8.929,36.403,34.74,27.855,57.649L560.833,1542.962z"/>
					</g>
					<g>
						<g>
							<polygon style="fill:#D1D1FF;" points="631.25,1532.5 638.338,1606.04 728.434,1606.04 687.185,1572.389 677.5,1530 							
								"/>
							
								<rect x="664.317" y="1577.028" transform="matrix(0.8757 -0.4828 0.4828 0.8757 -677.9084 522.7313)" style="fill:#1B1B43;" width="24.385" height="2.5"/>
						</g>
						<path style="fill:#3335CF;" d="M696.25,1541.25l-78.75,12.5l-53.925-158.575l-9.825-28.925l-133.925,1.075
							c-33.125,0.75-59.475-27.625-56.225-60.625l5.575-44.2l132.5,16.675l87.075,9.575c36.25,6.25,47.375,28.2,54.925,56.4
							L696.25,1541.25z"/>
						<path style="fill:#1B1B43;" d="M563.575,1395.175l-9.825-28.925l18.125-0.625
							C573.55,1376.525,569.225,1388.7,563.575,1395.175z"/>
					</g>
				</g>
			</g>
		</g>
		<rect x="241.25" y="1604.79" style="fill:#1B1B43;" width="1517.5" height="2.5"/>
	</g>
</g>
</svg>
